<svg width="320" height="179" viewBox="0 0 320 179" fill="none" xmlns="http://www.w3.org/2000/svg">
<path d="M0 5.90251C0 2.9138 2.42283 0.490967 5.41154 0.490967H314.588C317.577 0.490967 320 2.91379 320 5.9025V173.588C320 176.577 317.577 179 314.588 179H5.41153C2.42282 179 0 176.577 0 173.588V5.90251Z" fill="white"/>
<g filter="url(#filter0_d_7721_37658)">
<path d="M28 13.653C28 10.9271 30.2098 8.71729 32.9357 8.71729H269.851C272.577 8.71729 274.787 10.9271 274.787 13.653V64.6556C274.787 67.3815 272.577 69.5913 269.851 69.5913H32.9357C30.2098 69.5913 28 67.3815 28 64.6556V13.653Z" fill="white"/>
<path d="M32.9357 9.16287H269.851C272.331 9.16287 274.341 11.1732 274.341 13.653V64.6556C274.341 67.1354 272.331 69.1457 269.851 69.1457H32.9357C30.4559 69.1457 28.4456 67.1354 28.4456 64.6556V13.653C28.4456 11.1732 30.4559 9.16287 32.9357 9.16287Z" stroke="#00A6CA" stroke-width="0.891174"/>
</g>
<path d="M38.204 46.1968V52.271H36.7282V52.9768H40.5353V52.271H39.0488V45.4909H36.8993V46.1968H38.204ZM44.5845 45.384C43.0339 45.384 41.8148 46.3572 41.8148 47.9613V50.5279C41.8148 52.1427 43.0339 53.1051 44.5845 53.1051C46.1138 53.1051 47.3329 52.1427 47.3329 50.5279V47.9613C47.3329 46.3572 46.1138 45.384 44.5845 45.384ZM44.5845 52.3245C43.6969 52.3245 43.0018 51.886 42.7772 51.116C42.7024 50.8915 42.6596 50.6241 42.6596 50.314V48.1752C42.6596 47.865 42.7024 47.5977 42.7772 47.3731C43.0018 46.6031 43.6969 46.154 44.5845 46.154C45.44 46.154 46.1566 46.6031 46.3811 47.3731C46.456 47.5977 46.4988 47.865 46.4988 48.1752V50.314C46.4988 50.6241 46.456 50.8915 46.3811 51.116C46.1566 51.886 45.44 52.3245 44.5845 52.3245ZM48.6398 52.9661H49.5167L53.1313 45.4909H52.2544L48.6398 52.9661ZM57.1998 45.384C55.6491 45.384 54.43 46.3572 54.43 47.9613V50.5279C54.43 52.1427 55.6491 53.1051 57.1998 53.1051C58.729 53.1051 59.9482 52.1427 59.9482 50.5279V47.9613C59.9482 46.3572 58.729 45.384 57.1998 45.384ZM57.1998 52.3245C56.3122 52.3245 55.6171 51.886 55.3925 51.116C55.3176 50.8915 55.2748 50.6241 55.2748 50.314V48.1752C55.2748 47.865 55.3176 47.5977 55.3925 47.3731C55.6171 46.6031 56.3122 46.154 57.1998 46.154C58.0553 46.154 58.7718 46.6031 58.9964 47.3731C59.0712 47.5977 59.114 47.865 59.114 48.1752V50.314C59.114 50.6241 59.0712 50.8915 58.9964 51.116C58.7718 51.886 58.0553 52.3245 57.1998 52.3245ZM62.5811 46.293H66.1529V45.4909H61.7683V49.1055C62.271 48.9451 62.9447 48.8703 63.6291 48.8703C64.6878 48.8703 65.7145 49.2446 65.7145 50.6241C65.7145 51.8967 64.7627 52.3031 64.0034 52.3031C63.1479 52.3031 62.5062 51.8539 62.41 51.0305H61.5651C61.6828 52.3886 62.7201 53.0944 64.0141 53.0944C65.5754 53.0944 66.5914 52.1106 66.5914 50.6027C66.6448 48.7633 65.2225 48.0896 63.7254 48.0896C63.3297 48.0896 62.9554 48.1324 62.5811 48.2286V46.293ZM67.6723 52.9661H68.5492L72.1638 45.4909H71.2869L67.6723 52.9661ZM75.5479 46.154C77.2483 46.154 77.1948 47.8116 76.2858 48.9237L73.1952 52.7843V52.9768H77.9113V52.1854H74.6496L77.0879 49.1804C77.6333 48.496 77.8044 47.7474 77.7295 47.1058C77.644 46.154 76.8954 45.384 75.5693 45.384C74.1256 45.384 73.4091 46.1112 73.3342 47.448H74.0828C74.1577 46.5497 74.6496 46.154 75.5479 46.154ZM82.2423 45.384C80.6917 45.384 79.4726 46.3572 79.4726 47.9613V50.5279C79.4726 52.1427 80.6917 53.1051 82.2423 53.1051C83.7716 53.1051 84.9907 52.1427 84.9907 50.5279V47.9613C84.9907 46.3572 83.7716 45.384 82.2423 45.384ZM82.2423 52.3245C81.3547 52.3245 80.6596 51.886 80.435 51.116C80.3602 50.8915 80.3174 50.6241 80.3174 50.314V48.1752C80.3174 47.865 80.3602 47.5977 80.435 47.3731C80.6596 46.6031 81.3547 46.154 82.2423 46.154C83.0979 46.154 83.8144 46.6031 84.0389 47.3731C84.1138 47.5977 84.1566 47.865 84.1566 48.1752V50.314C84.1566 50.6241 84.1138 50.8915 84.0389 51.116C83.8144 51.886 83.0979 52.3245 82.2423 52.3245ZM88.8107 46.154C90.511 46.154 90.4576 47.8116 89.5486 48.9237L86.458 52.7843V52.9768H91.1741V52.1854H87.9124L90.3506 49.1804C90.896 48.496 91.0671 47.7474 90.9923 47.1058C90.9067 46.154 90.1581 45.384 88.8321 45.384C87.3884 45.384 86.6719 46.1112 86.597 47.448H87.3456C87.4204 46.5497 87.9124 46.154 88.8107 46.154ZM94.8207 46.154C96.521 46.154 96.4676 47.8116 95.5586 48.9237L92.468 52.7843V52.9768H97.1841V52.1854H93.9224L96.3606 49.1804C96.906 48.496 97.0771 47.7474 97.0023 47.1058C96.9167 46.154 96.1681 45.384 94.8421 45.384C93.3984 45.384 92.6818 46.1112 92.607 47.448H93.3556C93.4304 46.5497 93.9224 46.154 94.8207 46.154Z" fill="#2C2C2C"/>
<path d="M36.7995 26.5891C36.7995 29.3963 38.8581 31.0307 41.2286 31.0307C43.0003 31.0307 44.7969 30.095 45.2336 27.9615H43.8237C43.437 29.1218 42.4264 29.7082 41.2286 29.7082C39.4445 29.7082 38.2592 28.3233 38.2592 26.5891C38.2592 24.7301 39.4445 23.4325 41.2286 23.4325C42.3765 23.445 43.3496 23.9441 43.7863 25.0295H45.1837C44.722 23.0583 42.9504 22.11 41.2411 22.11C38.8581 22.11 36.7995 23.7694 36.7995 26.5891ZM52.5169 30.9434V27.3876C52.5169 25.8405 51.7933 24.7925 50.1339 24.7925C49.3354 24.7925 48.7116 24.9796 48.2 25.6658V21.8231H46.8401V30.9434H48.2V27.4624C48.2 26.4768 48.8613 25.8779 49.7471 25.8779C50.5955 25.8904 51.157 26.3895 51.1445 27.3876V30.9434H52.5169ZM58.3661 29.9328C58.4035 31.118 59.1396 31.118 60.0878 30.9558L60.0629 30.1823C59.4141 30.2447 59.4391 29.8829 59.4391 29.3214V26.9509C59.4391 25.2915 58.1415 24.78 56.6818 24.78C55.8833 24.78 55.0723 24.9422 54.461 25.2541L54.6606 26.2273C55.4092 25.853 58.1166 25.329 58.1166 26.9135V27.5123C57.5801 27.2129 56.9188 27.0632 56.3324 27.0632C55.0099 27.0632 53.9619 27.7494 53.9993 29.1842C53.9993 30.357 55.0598 31.0556 56.1578 31.0556C57.0062 31.0556 57.9668 30.7313 58.3661 29.9328ZM58.1166 28.8847C57.9793 29.6458 57.1434 29.9827 56.4322 29.9827C55.8833 29.9827 55.3343 29.7082 55.3343 29.1093C55.3343 28.3732 55.8958 27.9864 56.557 27.974C57.0935 27.9615 57.6674 28.1237 58.1166 28.3857V28.8847ZM67.4343 30.9434V27.4125C67.4343 25.9278 66.6857 24.805 65.0513 24.805C64.2653 24.805 63.342 25.0919 63.0052 25.853C63.0052 24.7051 61.9946 24.755 61.1212 24.9172V25.8031C61.7326 25.7656 61.7575 25.9653 61.7575 26.6764V30.9434H63.1299V27.5248C63.1299 26.5517 63.8037 25.8904 64.6521 25.8904C65.463 25.9029 66.0744 26.4768 66.0619 27.4125V30.9434H67.4343ZM73.5533 31.2927C73.5533 32.6901 72.8671 33.1642 71.9314 33.1766C71.2327 33.1891 70.4093 32.9271 69.6357 32.5528L69.4361 33.6507C70.2471 34.0999 71.1454 34.337 71.9688 34.3245C73.5409 34.312 74.8634 33.4012 74.8634 31.3177V25.4163C74.0773 25.0794 73.2414 24.8673 72.3805 24.8549C70.534 24.8174 69.0119 25.8031 69.0119 27.9864C69.0119 29.9702 70.1972 31.143 71.7318 31.1555C72.3057 31.1555 72.9295 31.0057 73.5533 30.6564V31.2927ZM73.5284 29.5086C73.0293 29.833 72.5178 29.9952 72.0437 29.9827C71.1079 29.9702 70.3718 29.2965 70.3718 27.9864C70.3843 26.639 71.1079 25.9902 72.2558 25.9902C72.68 25.9902 73.1042 26.0651 73.5284 26.2148V29.5086ZM79.5932 24.7925C77.9588 24.7925 76.5115 25.8031 76.4741 27.8118C76.4117 29.8454 77.8714 31.118 79.8552 31.0806C80.6163 31.0806 81.4272 30.881 82.1259 30.5691L81.9512 29.5585C81.2401 29.8704 80.5164 29.9702 79.7679 29.9328C78.6699 29.9328 77.8091 29.284 77.8091 28.1861H82.2507C82.6499 26.1898 81.7017 24.7925 79.5932 24.7925ZM79.5807 25.8405C80.4416 25.8405 81.1902 26.3146 81.1527 27.2254H77.834C78.0212 26.2772 78.6824 25.8405 79.5807 25.8405ZM87.2257 23.0707C87.2257 23.6197 87.6499 23.8942 88.0617 23.8817C88.4609 23.8692 88.8602 23.6072 88.8602 23.0707C88.8602 22.5467 88.4609 22.2722 88.0492 22.2722C87.6375 22.2722 87.2257 22.5342 87.2257 23.0707ZM88.7229 24.9921H87.363V30.9434H88.7229V24.9921ZM96.6321 30.9434V27.4125C96.6321 25.9278 95.8835 24.805 94.2491 24.805C93.4631 24.805 92.5398 25.0919 92.203 25.853C92.203 24.7051 91.1924 24.755 90.319 24.9172V25.8031C90.9304 25.7656 90.9553 25.9653 90.9553 26.6764V30.9434H92.3277V27.5248C92.3277 26.5517 93.0015 25.8904 93.8499 25.8904C94.6608 25.9029 95.2722 26.4768 95.2597 27.4125V30.9434H96.6321ZM107.052 29.1343L107.913 30.9434H109.423V30.7562L105.405 22.1475H104.731L100.689 30.7562V30.9434H102.211L103.06 29.1343H107.052ZM105.068 24.4182L106.59 27.9116H103.534L105.068 24.4182ZM114.891 30.0201C114.891 31.0307 115.714 31.118 116.65 30.9558L116.625 30.0201C115.939 30.0201 116.001 29.7581 116.001 29.0719V21.8106H114.641V25.304C114.092 24.9796 113.506 24.8424 112.97 24.8424C111.422 24.8424 110.125 26.0651 110.125 27.9241C110.125 29.6084 111.098 31.1056 112.895 31.0681C113.78 31.0681 114.492 30.7313 114.891 29.8454V30.0201ZM114.666 28.1861C114.666 29.0968 114.042 29.8579 113.107 29.8579C111.996 29.8579 111.472 28.9596 111.472 27.9241C111.472 26.7014 112.246 26.0401 113.182 26.0276C113.656 26.0152 114.18 26.1649 114.666 26.5017V28.1861ZM122.585 30.0201C122.585 31.0307 123.408 31.118 124.344 30.9558L124.319 30.0201C123.633 30.0201 123.695 29.7581 123.695 29.0719V21.8106H122.335V25.304C121.786 24.9796 121.2 24.8424 120.663 24.8424C119.116 24.8424 117.819 26.0651 117.819 27.9241C117.819 29.6084 118.792 31.1056 120.589 31.0681C121.474 31.0681 122.186 30.7313 122.585 29.8454V30.0201ZM122.36 28.1861C122.36 29.0968 121.736 29.8579 120.801 29.8579C119.69 29.8579 119.166 28.9596 119.166 27.9241C119.166 26.7014 119.94 26.0401 120.876 26.0276C121.35 26.0152 121.874 26.1649 122.36 26.5017V28.1861ZM127.42 25.8031C127.358 24.8299 126.385 24.6802 125.499 24.8798L125.511 25.8031C126.16 25.7656 126.16 26.0401 126.16 26.5766V30.9434H127.508V27.4624C127.508 26.4893 128.231 25.9653 129.042 25.9653C129.479 25.9653 129.878 26.09 130.24 26.3271L130.577 25.1543C130.19 24.8673 129.691 24.7176 129.192 24.7301C128.456 24.7301 127.657 25.1044 127.42 25.8031ZM134.425 24.7925C132.791 24.7925 131.343 25.8031 131.306 27.8118C131.244 29.8454 132.703 31.118 134.687 31.0806C135.448 31.0806 136.259 30.881 136.958 30.5691L136.783 29.5585C136.072 29.8704 135.348 29.9702 134.6 29.9328C133.502 29.9328 132.641 29.284 132.641 28.1861H137.083C137.482 26.1898 136.534 24.7925 134.425 24.7925ZM134.413 25.8405C135.274 25.8405 136.022 26.3146 135.985 27.2254H132.666C132.853 26.2772 133.514 25.8405 134.413 25.8405ZM138.377 29.1717C138.477 30.6689 139.8 31.0931 141.135 31.0931C142.47 31.0931 143.755 30.5192 143.755 29.1842C143.755 27.7619 142.532 27.5498 141.272 27.3876C140.336 27.2753 139.85 27.163 139.837 26.6639C139.8 26.1275 140.449 25.828 141.072 25.828C141.709 25.828 142.432 26.0152 142.432 26.614H143.63C143.667 25.4163 142.457 24.805 141.072 24.805C139.762 24.805 138.515 25.4038 138.515 26.6889C138.552 28.0488 139.937 28.1861 141.172 28.3483C141.958 28.4481 142.52 28.6103 142.52 29.1592C142.482 29.8953 141.746 30.0825 141.085 30.0825C140.436 30.0825 139.75 29.7955 139.712 29.1717H138.377ZM144.963 29.1717C145.063 30.6689 146.385 31.0931 147.72 31.0931C149.055 31.0931 150.34 30.5192 150.34 29.1842C150.34 27.7619 149.117 27.5498 147.857 27.3876C146.921 27.2753 146.435 27.163 146.422 26.6639C146.385 26.1275 147.034 25.828 147.658 25.828C148.294 25.828 149.018 26.0152 149.018 26.614H150.215C150.253 25.4163 149.042 24.805 147.658 24.805C146.348 24.805 145.1 25.4038 145.1 26.6889C145.137 28.0488 146.522 28.1861 147.757 28.3483C148.543 28.4481 149.105 28.6103 149.105 29.1592C149.067 29.8953 148.331 30.0825 147.67 30.0825C147.021 30.0825 146.335 29.7955 146.298 29.1717H144.963Z" fill="#2C2C2C"/>
<path d="M119.174 50.2937H283.15C287.826 50.2937 291.617 54.0842 291.617 58.7599V161.862C291.617 166.538 287.826 170.328 283.15 170.328H119.174C114.499 170.328 110.708 166.538 110.708 161.862V58.7599C110.708 54.0842 114.499 50.2937 119.174 50.2937Z" fill="white" stroke="#00A6CA" stroke-width="0.891174"/>
<path d="M123.339 65.9196C123.339 68.1407 124.968 69.4338 126.843 69.4338C128.245 69.4338 129.666 68.6935 130.012 67.0055H128.896C128.59 67.9235 127.791 68.3875 126.843 68.3875C125.431 68.3875 124.494 67.2917 124.494 65.9196C124.494 64.4488 125.431 63.4221 126.843 63.4221C127.751 63.432 128.521 63.8269 128.867 64.6857H129.972C129.607 63.126 128.205 62.3757 126.853 62.3757C124.968 62.3757 123.339 63.6887 123.339 65.9196ZM136.702 69.3647V62.4547H135.547V65.2286H132.389V62.4547H131.243V69.3647H132.389V66.2848H135.547V69.3647H136.702ZM142.601 67.9334L143.282 69.3647H144.477V69.2167L141.298 62.4054H140.765L137.567 69.2167V69.3647H138.771L139.442 67.9334H142.601ZM141.032 64.202L142.236 66.966H139.817L141.032 64.202ZM150.638 69.3746H151.033V62.4547H149.888V64.9719L149.967 67.0844L145.771 62.435H145.357V69.3647H146.492V66.8574L146.413 64.6659L150.638 69.3746ZM152.346 65.8999C152.346 68.1209 153.945 69.4536 155.83 69.4536C157.193 69.4536 158.377 68.8218 158.9 67.5089C159.127 66.9068 159.177 66.2947 159.147 65.6333H155.909V66.6106H158.061C157.874 67.9334 157.015 68.4072 155.83 68.4072C154.409 68.4072 153.511 67.3608 153.511 65.8999C153.511 64.5179 154.379 63.4024 155.83 63.4024C156.748 63.4024 157.42 63.7281 157.805 64.5277H158.94C158.515 62.9977 157.212 62.3659 155.84 62.3659C153.984 62.3659 152.346 63.6887 152.346 65.8999ZM164.6 62.4547H160.395V69.3647H164.66V68.3184H161.55V66.3046H164.433V65.2878H161.55V63.4616H164.6V62.4547ZM170.347 68.4368V63.3728H171.354V62.4547H168.195V63.3728H169.202V68.4368H168.106V69.3647H171.443V68.4368H170.347ZM177.977 69.3746H178.372V62.4547H177.227V64.9719L177.306 67.0844L173.111 62.435H172.696V69.3647H173.831V66.8574L173.752 64.6659L177.977 69.3746ZM184.432 65.584L183.603 63.9947L182.675 62.4547H181.441V62.6225L183.879 66.5612V69.3647H185.024V66.5612L187.453 62.6225V62.4547H186.229L185.33 63.9453L184.471 65.584H184.432ZM194.705 65.9097C194.705 63.659 193.077 62.3363 191.191 62.3363C189.316 62.3363 187.667 63.659 187.667 65.9097C187.667 68.1604 189.276 69.4832 191.172 69.4832C193.254 69.4832 194.705 68.0124 194.705 65.9097ZM188.832 65.9097C188.832 64.3106 189.898 63.4123 191.201 63.4123C192.494 63.4123 193.56 64.3303 193.56 65.9097C193.56 67.5188 192.484 68.3973 191.191 68.3973C189.888 68.3973 188.832 67.5188 188.832 65.9097ZM198.651 69.4536C200.122 69.4536 201.326 68.5849 201.326 67.045V62.4547H200.191V67.0153C200.191 67.9235 199.52 68.427 198.651 68.427C197.772 68.427 197.091 67.9235 197.091 67.0153V62.4547H195.946V67.045C195.946 68.5849 197.16 69.4536 198.651 69.4536ZM206.776 66.7784C207.655 66.4625 208.227 65.6629 208.227 64.7054C208.227 63.4715 207.329 62.4547 205.828 62.4547H202.975V69.3647H204.13V66.9561H205.651L207.368 69.3647H208.533V69.1969L206.776 66.7784ZM204.111 66.0084V63.4517H205.818C206.579 63.4517 207.112 63.9947 207.112 64.7153C207.112 65.4655 206.569 66.0084 205.818 66.0084H204.111ZM211.777 65.9196C211.777 68.1407 213.406 69.4338 215.281 69.4338C216.683 69.4338 218.105 68.6935 218.45 67.0055H217.335C217.029 67.9235 216.229 68.3875 215.281 68.3875C213.87 68.3875 212.932 67.2917 212.932 65.9196C212.932 64.4488 213.87 63.4221 215.281 63.4221C216.19 63.432 216.96 63.8269 217.305 64.6857H218.411C218.045 63.126 216.644 62.3757 215.291 62.3757C213.406 62.3757 211.777 63.6887 211.777 65.9196ZM221.459 68.4368V63.3728H222.466V62.4547H219.307V63.3728H220.314V68.4368H219.218V69.3647H222.554V68.4368H221.459ZM228.783 64.3994C228.783 63.0964 227.865 62.4547 226.611 62.4547H223.808V69.3647H226.897C228.24 69.3647 229.089 68.5652 229.089 67.3312C229.089 66.5514 228.694 65.9788 227.973 65.732C228.516 65.4655 228.783 64.9818 228.783 64.3994ZM226.532 63.4517C227.204 63.4517 227.658 63.7479 227.658 64.429C227.648 65.1003 227.194 65.3569 226.532 65.3569H224.953V63.4517H226.532ZM226.7 66.2947C227.016 66.2947 227.332 66.3145 227.598 66.5119C227.835 66.7093 227.954 66.9857 227.954 67.3312C227.924 67.9926 227.47 68.3579 226.828 68.3579H224.953V66.2947H226.7ZM232.188 68.4368V63.3728H233.195V62.4547H230.036V63.3728H231.043V68.4368H229.947V69.3647H233.284V68.4368H232.188ZM235.692 62.4547H234.537V69.3647H238.663V68.3282H235.692V62.4547ZM241.449 67.4003C241.479 68.8514 242.89 69.5227 244.243 69.4931C245.536 69.4931 246.967 68.9205 246.967 67.4003C246.967 65.811 245.684 65.5346 244.282 65.3767C243.483 65.2681 242.703 65.1694 242.703 64.3895C242.703 63.6097 243.522 63.353 244.154 63.353C244.835 63.353 245.615 63.5899 245.664 64.3303H246.75C246.72 62.9187 245.477 62.3264 244.164 62.3264C242.821 62.3264 241.567 62.9977 241.567 64.4191C241.567 65.8011 242.821 66.2059 244.085 66.3145C244.884 66.3934 245.822 66.4823 245.822 67.3905C245.822 68.2493 244.953 68.4664 244.223 68.4664C243.473 68.4664 242.624 68.1802 242.574 67.4003H241.449ZM247.85 65.9196C247.85 68.1407 249.479 69.4338 251.355 69.4338C252.756 69.4338 254.178 68.6935 254.523 67.0055H253.408C253.102 67.9235 252.302 68.3875 251.355 68.3875C249.943 68.3875 249.005 67.2917 249.005 65.9196C249.005 64.4488 249.943 63.4221 251.355 63.4221C252.263 63.432 253.033 63.8269 253.378 64.6857H254.484C254.119 63.126 252.717 62.3757 251.365 62.3757C249.479 62.3757 247.85 63.6887 247.85 65.9196ZM262.389 65.9097C262.389 63.659 260.76 62.3363 258.874 62.3363C256.999 62.3363 255.35 63.659 255.35 65.9097C255.35 68.1604 256.959 69.4832 258.855 69.4832C260.938 69.4832 262.389 68.0124 262.389 65.9097ZM256.515 65.9097C256.515 64.3106 257.581 63.4123 258.884 63.4123C260.177 63.4123 261.244 64.3303 261.244 65.9097C261.244 67.5188 260.168 68.3973 258.874 68.3973C257.571 68.3973 256.515 67.5188 256.515 65.9097ZM267.499 66.7784C268.378 66.4625 268.95 65.6629 268.95 64.7054C268.95 63.4715 268.052 62.4547 266.551 62.4547H263.698V69.3647H264.853V66.9561H266.374L268.091 69.3647H269.256V69.1969L267.499 66.7784ZM264.834 66.0084V63.4517H266.541C267.302 63.4517 267.835 63.9947 267.835 64.7153C267.835 65.4655 267.292 66.0084 266.541 66.0084H264.834ZM274.633 62.4547H270.427V69.3647H274.692V68.3184H271.582V66.3046H274.465V65.2878H271.582V63.4616H274.633V62.4547ZM276.598 69.5029C276.954 69.5029 277.25 69.2562 277.25 68.9008C277.25 68.5158 276.954 68.2986 276.598 68.2986C276.233 68.2986 275.947 68.5158 275.947 68.9008C275.947 69.2562 276.233 69.5029 276.598 69.5029ZM276.105 67.7754H277.131L277.191 62.4448H276.016L276.105 67.7754Z" fill="black"/>
<path d="M138.864 154.441C138.943 155.744 139.91 156.504 141.173 156.504C142.694 156.504 143.572 155.467 143.572 154.184C143.572 153.167 142.911 152.2 141.766 152.151L143.513 149.663V149.485H139.14V150.413H141.924L140.364 152.733V152.93C141.312 152.694 142.486 153.039 142.486 154.194C142.486 155.013 141.953 155.507 141.154 155.507C140.443 155.507 139.949 155.142 139.88 154.441H138.864ZM147.345 149.367C145.913 149.367 144.768 150.265 144.768 151.746V154.135C144.768 155.625 145.913 156.514 147.345 156.514C148.756 156.514 149.902 155.625 149.902 154.135V151.746C149.902 150.265 148.756 149.367 147.345 149.367ZM147.345 155.497C146.634 155.497 146.071 155.152 145.923 154.49C145.884 154.293 145.854 154.076 145.854 153.839V152.052C145.854 151.815 145.884 151.598 145.923 151.4C146.071 150.729 146.634 150.374 147.345 150.374C148.056 150.374 148.608 150.729 148.756 151.4C148.796 151.598 148.826 151.815 148.826 152.052V153.839C148.826 154.076 148.796 154.293 148.756 154.49C148.608 155.152 148.056 155.497 147.345 155.497ZM153.823 149.367C152.392 149.367 151.247 150.265 151.247 151.746V154.135C151.247 155.625 152.392 156.514 153.823 156.514C155.235 156.514 156.38 155.625 156.38 154.135V151.746C156.38 150.265 155.235 149.367 153.823 149.367ZM153.823 155.497C153.112 155.497 152.55 155.152 152.401 154.49C152.362 154.293 152.332 154.076 152.332 153.839V152.052C152.332 151.815 152.362 151.598 152.401 151.4C152.55 150.729 153.112 150.374 153.823 150.374C154.534 150.374 155.087 150.729 155.235 151.4C155.274 151.598 155.304 151.815 155.304 152.052V153.839C155.304 154.076 155.274 154.293 155.235 154.49C155.087 155.152 154.534 155.497 153.823 155.497Z" fill="#ACACAC"/>
<path d="M247.358 156.385L249.441 153.079C249.747 152.615 249.905 152.17 249.905 151.618C249.905 150.078 248.77 149.318 247.348 149.318C245.917 149.318 244.782 150.078 244.782 151.618C244.782 153.049 245.808 153.868 247.19 153.839C247.417 153.839 247.654 153.779 247.842 153.671L246.104 156.385H247.358ZM247.348 150.295C248.177 150.295 248.77 150.759 248.77 151.618C248.77 152.476 248.177 152.95 247.348 152.95C246.519 152.95 245.917 152.476 245.917 151.618C245.917 150.759 246.509 150.295 247.348 150.295ZM253.555 149.367C252.123 149.367 250.978 150.265 250.978 151.746V154.135C250.978 155.625 252.123 156.514 253.555 156.514C254.966 156.514 256.111 155.625 256.111 154.135V151.746C256.111 150.265 254.966 149.367 253.555 149.367ZM253.555 155.497C252.844 155.497 252.281 155.152 252.133 154.49C252.094 154.293 252.064 154.076 252.064 153.839V152.052C252.064 151.815 252.094 151.598 252.133 151.4C252.281 150.729 252.844 150.374 253.555 150.374C254.265 150.374 254.818 150.729 254.966 151.4C255.006 151.598 255.035 151.815 255.035 152.052V153.839C255.035 154.076 255.006 154.293 254.966 154.49C254.818 155.152 254.265 155.497 253.555 155.497ZM260.033 149.367C258.601 149.367 257.456 150.265 257.456 151.746V154.135C257.456 155.625 258.601 156.514 260.033 156.514C261.444 156.514 262.589 155.625 262.589 154.135V151.746C262.589 150.265 261.444 149.367 260.033 149.367ZM260.033 155.497C259.322 155.497 258.759 155.152 258.611 154.49C258.572 154.293 258.542 154.076 258.542 153.839V152.052C258.542 151.815 258.572 151.598 258.611 151.4C258.759 150.729 259.322 150.374 260.033 150.374C260.743 150.374 261.296 150.729 261.444 151.4C261.484 151.598 261.513 151.815 261.513 152.052V153.839C261.513 154.076 261.484 154.293 261.444 154.49C261.296 155.152 260.743 155.497 260.033 155.497Z" fill="#ACACAC"/>
<path d="M216.381 145.272C216.381 141.192 214.734 137.28 211.803 134.395C208.872 131.51 204.896 129.889 200.751 129.889C196.606 129.889 192.63 131.51 189.699 134.395C186.768 137.28 185.121 141.192 185.121 145.272L200.751 145.272H216.381Z" fill="#EDEDED"/>
<path d="M211.945 109.575L198.643 137.858C198.147 138.914 198.658 140.156 199.768 140.595C200.879 141.034 202.145 140.493 202.556 139.404L213.57 110.217C213.732 109.788 213.514 109.313 213.077 109.14C212.64 108.968 212.14 109.16 211.945 109.575Z" fill="#2C2C2C"/>
<path d="M138.233 145.272C138.233 128.691 144.82 112.789 156.545 101.065C168.269 89.34 184.171 82.7532 200.753 82.7532V89.0051C185.83 89.0051 171.518 94.9332 160.966 105.485C150.413 116.037 144.485 130.349 144.485 145.272H138.233Z" fill="#E15825"/>
<path d="M202.031 82.7666C209.777 82.925 217.426 84.5218 224.589 87.4756L222.205 93.2553C215.759 90.5968 208.875 89.1597 201.903 89.0172L202.031 82.7666Z" fill="#F18200"/>
<path d="M225.74 87.9653C232.842 91.0622 239.306 95.452 244.804 100.911L240.398 105.347C235.451 100.434 229.633 96.4832 223.241 93.6961L225.74 87.9653Z" fill="#FCD800"/>
<path d="M245.649 101.763C251.041 107.327 255.351 113.845 258.361 120.984L252.6 123.412C249.891 116.987 246.012 111.122 241.159 106.114L245.649 101.763Z" fill="#A9D161"/>
<path d="M258.916 122.349C261.757 129.557 263.233 137.23 263.27 144.978L257.018 145.007C256.985 138.034 255.656 131.128 253.1 124.641L258.916 122.349Z" fill="#009900"/>
<defs>
<filter id="filter0_d_7721_37658" x="24.7095" y="5.4268" width="263.24" height="77.3265" filterUnits="userSpaceOnUse" color-interpolation-filters="sRGB">
<feFlood flood-opacity="0" result="BackgroundImageFix"/>
<feColorMatrix in="SourceAlpha" type="matrix" values="0 0 0 0 0 0 0 0 0 0 0 0 0 0 0 0 0 0 127 0" result="hardAlpha"/>
<feOffset dx="4.93573" dy="4.93573"/>
<feGaussianBlur stdDeviation="4.11311"/>
<feComposite in2="hardAlpha" operator="out"/>
<feColorMatrix type="matrix" values="0 0 0 0 0.102778 0 0 0 0 0.37 0 0 0 0 0.770833 0 0 0 0.16 0"/>
<feBlend mode="normal" in2="BackgroundImageFix" result="effect1_dropShadow_7721_37658"/>
<feBlend mode="normal" in="SourceGraphic" in2="effect1_dropShadow_7721_37658" result="shape"/>
</filter>
</defs>
</svg>
