<svg width="359" height="199" viewBox="0 0 359 199" fill="none" xmlns="http://www.w3.org/2000/svg">
<path d="M359 5.03256C359 2.25315 356.747 0 353.967 0H5.03258C2.25318 0 1.33514e-05 2.25315 1.33514e-05 5.03256V193.967C1.33514e-05 196.747 2.25317 199 5.03257 199H353.967C356.747 199 359 196.747 359 193.967V5.03256Z" fill="white"/>
<path d="M27.9297 11.1434H182.344C185.174 11.1434 187.468 13.4376 187.468 16.2676V141.601C187.468 144.431 185.174 146.725 182.344 146.725H27.9297C25.0997 146.725 22.8055 144.431 22.8055 141.601V16.2676C22.8055 13.4376 25.0997 11.1434 27.9297 11.1434Z" fill="white" stroke="#B8C9E9" stroke-width="0.683234"/>
<path d="M50.955 22.136C50.955 24.5956 52.7587 26.0277 54.8358 26.0277C56.3881 26.0277 57.9622 25.2078 58.3448 23.3385H57.1096C56.7707 24.3551 55.8852 24.8689 54.8358 24.8689C53.2725 24.8689 52.234 23.6555 52.234 22.136C52.234 20.5072 53.2725 19.3703 54.8358 19.3703C55.8415 19.3812 56.6942 19.8185 57.0768 20.7695H58.3011C57.8966 19.0423 56.3443 18.2115 54.8467 18.2115C52.7587 18.2115 50.955 19.6654 50.955 22.136ZM63.1413 20.6821V23.6992C63.1413 24.541 62.5619 25.0876 61.8077 25.0876C61.108 25.0876 60.6598 24.5738 60.6707 23.732V20.6821H59.4683V23.732C59.4683 25.022 59.982 26.0386 61.436 26.0386C62.1793 26.0386 62.9008 25.8091 63.2616 25.0985C63.2616 26.2354 64.2236 26.0933 64.9013 25.973L64.8904 25.1969C64.3875 25.2515 64.3329 25.0766 64.3329 24.4426V20.6821H63.1413ZM67.3465 21.4473C67.2919 20.5946 66.4392 20.4634 65.6631 20.6383L65.674 21.4473C66.2424 21.4145 66.2424 21.655 66.2424 22.1251V25.9512H67.4231V22.9012C67.4231 22.0485 68.0571 21.5894 68.7677 21.5894C69.1503 21.5894 69.5001 21.6987 69.8171 21.9064L70.1123 20.8788C69.7734 20.6274 69.3361 20.4962 68.8989 20.5072C68.2539 20.5072 67.5542 20.8351 67.3465 21.4473ZM72.2893 21.4473C72.2347 20.5946 71.382 20.4634 70.6058 20.6383L70.6168 21.4473C71.1852 21.4145 71.1852 21.655 71.1852 22.1251V25.9512H72.3658V22.9012C72.3658 22.0485 72.9999 21.5894 73.7104 21.5894C74.0931 21.5894 74.4429 21.6987 74.7599 21.9064L75.0551 20.8788C74.7162 20.6274 74.2789 20.4962 73.8416 20.5072C73.1967 20.5072 72.497 20.8351 72.2893 21.4473ZM78.2083 20.5618C76.7763 20.5618 75.5082 21.4473 75.4754 23.2073C75.4208 24.9892 76.6998 26.1042 78.4379 26.0714C79.1048 26.0714 79.8153 25.8965 80.4275 25.6232L80.2744 24.7377C79.6513 25.011 79.0173 25.0985 78.3614 25.0657C77.3994 25.0657 76.6451 24.4972 76.6451 23.5353H80.5368C80.8866 21.7862 80.0558 20.5618 78.2083 20.5618ZM78.1974 21.4801C78.9517 21.4801 79.6076 21.8955 79.5748 22.6935H76.667C76.8309 21.8627 77.4103 21.4801 78.1974 21.4801ZM86.9732 25.9512V22.8575C86.9732 21.5566 86.3173 20.5728 84.8853 20.5728C84.1966 20.5728 83.3876 20.8242 83.0924 21.491C83.0924 20.4853 82.207 20.529 81.4418 20.6711V21.4473C81.9774 21.4145 81.9993 21.5894 81.9993 22.2125V25.9512H83.2018V22.9559C83.2018 22.1032 83.7921 21.5238 84.5354 21.5238C85.246 21.5347 85.7817 22.0376 85.7707 22.8575V25.9512H86.9732ZM90.0842 19.0642H89.0348L88.9145 20.693H87.8432V21.4692L88.9145 21.5457V23.9397C88.9145 26.0058 90.3247 26.4212 92.1285 25.8637L92.0082 24.9673C90.926 25.3499 90.0842 25.2625 90.0842 23.9179V21.5457H91.9098V20.693H90.0842V19.0642ZM129.399 23.7758C129.431 25.3827 130.995 26.1261 132.492 26.0933C133.924 26.0933 135.509 25.4592 135.509 23.7758C135.509 22.0157 134.088 21.7097 132.536 21.5347C131.651 21.4145 130.787 21.3052 130.787 20.4416C130.787 19.578 131.694 19.2937 132.394 19.2937C133.148 19.2937 134.012 19.5561 134.066 20.376H135.269C135.236 18.8127 133.859 18.1568 132.405 18.1568C130.918 18.1568 129.53 18.9002 129.53 20.4744C129.53 22.0048 130.918 22.453 132.317 22.5733C133.203 22.6607 134.241 22.7591 134.241 23.7648C134.241 24.7159 133.279 24.9564 132.47 24.9564C131.64 24.9564 130.699 24.6394 130.645 23.7758H129.399ZM141.756 22.4311C141.472 21.1412 140.346 20.5181 139.198 20.529C137.832 20.54 136.433 21.4801 136.433 23.2948C136.433 25.1204 137.832 26.0386 139.209 26.0386C140.368 26.0386 141.516 25.3827 141.789 24.049H140.652C140.412 24.694 139.822 25.011 139.231 25.011C138.433 25.011 137.613 24.4317 137.613 23.2948C137.613 22.1797 138.444 21.5894 139.253 21.5894C139.865 21.5894 140.423 21.8627 140.652 22.4311H141.756ZM148.178 23.2948C148.178 21.4473 146.757 20.529 145.347 20.5509C143.969 20.5728 142.614 21.4801 142.614 23.2948C142.614 25.1313 144.002 26.0496 145.391 26.0496C146.779 26.0496 148.178 25.1313 148.178 23.2948ZM143.794 23.2948C143.794 22.1797 144.56 21.6222 145.347 21.6003C146.156 21.5785 146.987 22.1469 146.987 23.2948C146.987 24.4207 146.199 24.9892 145.412 25.0001C144.603 25.011 143.794 24.4426 143.794 23.2948ZM150.69 21.4473C150.636 20.5946 149.783 20.4634 149.007 20.6383L149.018 21.4473C149.586 21.4145 149.586 21.655 149.586 22.1251V25.9512H150.767V22.9012C150.767 22.0485 151.401 21.5894 152.112 21.5894C152.494 21.5894 152.844 21.6987 153.161 21.9064L153.456 20.8788C153.117 20.6274 152.68 20.4962 152.243 20.5072C151.598 20.5072 150.898 20.8351 150.69 21.4473ZM156.609 20.5618C155.177 20.5618 153.909 21.4473 153.877 23.2073C153.822 24.9892 155.101 26.1042 156.839 26.0714C157.506 26.0714 158.216 25.8965 158.829 25.6232L158.676 24.7377C158.052 25.011 157.418 25.0985 156.763 25.0657C155.801 25.0657 155.046 24.4972 155.046 23.5353H158.938C159.288 21.7862 158.457 20.5618 156.609 20.5618ZM156.599 21.4801C157.353 21.4801 158.009 21.8955 157.976 22.6935H155.068C155.232 21.8627 155.811 21.4801 156.599 21.4801Z" fill="black"/>
<path d="M95.535 22.136C95.535 24.6722 97.4371 26.0277 99.4486 26.0277C101.045 26.0277 102.673 25.1859 103.001 23.1636H101.427C101.165 24.0928 100.389 24.541 99.4376 24.541C98.0712 24.541 97.1857 23.4478 97.1857 22.136C97.1857 20.6821 98.093 19.6982 99.4486 19.6982C100.367 19.6982 101.056 20.0808 101.394 20.9444H102.98C102.63 19.0532 100.99 18.2224 99.4486 18.2224C97.4371 18.1896 95.535 19.5889 95.535 22.136ZM106.606 24.6503V19.567H107.601V18.2989H103.971V19.567H104.966V24.6503H103.884V25.9512H107.688V24.6503H106.606ZM114.734 20.5728C114.734 19.1407 113.728 18.3099 112.329 18.3099H109.082V25.9512H112.635C114.165 25.9512 115.061 25.0329 115.061 23.6883C115.061 22.9012 114.679 22.2781 113.968 21.9829C114.449 21.6878 114.734 21.1303 114.734 20.5728ZM112.208 19.7091C112.777 19.7091 113.138 20.0699 113.127 20.6274C113.116 21.1412 112.766 21.4473 112.208 21.4473H110.711V19.7091H112.208ZM112.449 22.781C112.7 22.781 112.919 22.8028 113.105 22.934C113.334 23.098 113.455 23.3822 113.444 23.6883C113.411 24.2021 113.083 24.53 112.525 24.53H110.711V22.781H112.449ZM118.691 24.6503V19.567H119.686V18.2989H116.056V19.567H117.051V24.6503H115.969V25.9512H119.773V24.6503H118.691ZM122.795 18.2989H121.156V25.9512H125.987V24.4863H122.795V18.2989Z" fill="#3EA3CE"/>
<g opacity="0.5">
<path d="M42.7754 114.913C42.8312 116.438 43.959 117.375 45.4217 117.375C47.186 117.375 48.1686 116.076 48.1686 114.676C48.1686 113.581 47.5991 112.542 46.3485 112.327L48.0458 109.571V109.334H43.0769V110.678H45.8349L44.3945 113.185V113.422C45.3994 113.242 46.5607 113.422 46.5942 114.687C46.583 115.41 46.1252 115.918 45.3994 115.918C44.7294 115.918 44.2828 115.579 44.2381 114.913H42.7754Z" fill="black"/>
<path d="M52.4019 109.188C50.7828 109.188 49.4764 110.204 49.4764 111.909V114.665C49.4764 116.381 50.7828 117.386 52.4019 117.386C53.9987 117.386 55.3051 116.381 55.3051 114.665V111.909C55.3051 110.204 53.9987 109.188 52.4019 109.188ZM52.4019 115.907C51.6873 115.907 51.1625 115.534 51.0843 114.845C51.062 114.653 51.0508 114.45 51.0508 114.213V112.372C51.0508 112.146 51.062 111.932 51.0843 111.728C51.1625 111.017 51.6873 110.667 52.4019 110.667C53.083 110.667 53.6302 111.017 53.7083 111.728C53.7307 111.932 53.7418 112.146 53.7418 112.372V114.213C53.7418 114.45 53.7307 114.653 53.7083 114.845C53.6302 115.534 53.083 115.907 52.4019 115.907Z" fill="black"/>
<path d="M59.686 109.188C58.0669 109.188 56.7605 110.204 56.7605 111.909V114.665C56.7605 116.381 58.0669 117.386 59.686 117.386C61.2828 117.386 62.5892 116.381 62.5892 114.665V111.909C62.5892 110.204 61.2828 109.188 59.686 109.188ZM59.686 115.907C58.9714 115.907 58.4466 115.534 58.3684 114.845C58.3461 114.653 58.3349 114.45 58.3349 114.213V112.372C58.3349 112.146 58.3461 111.932 58.3684 111.728C58.4466 111.017 58.9714 110.667 59.686 110.667C60.3671 110.667 60.9143 111.017 60.9924 111.728C61.0148 111.932 61.0259 112.146 61.0259 112.372V114.213C61.0259 114.45 61.0148 114.653 60.9924 114.845C60.9143 115.534 60.3671 115.907 59.686 115.907Z" fill="black"/>
</g>
<path d="M97.0297 118.125H85.5076V121.145H92.3605L86.5994 134.386H90.1072L97.0297 118.613V118.125ZM104.931 122.864C104.861 123.817 104.281 124.746 103.7 125.559L97.9387 133.643V134.386H108.369V131.366H103.073C105.14 128.695 105.86 127.487 106.348 126.813C109.577 122.516 107.835 117.87 103.235 117.87C100.053 117.87 98.1478 119.728 98.1478 122.911H101.121C101.121 121.308 102.213 120.843 103.142 120.843C104.095 120.843 105.001 121.517 104.931 122.864ZM116.94 117.846C113.571 117.846 110.853 119.937 110.853 123.445V129.113C110.853 132.644 113.571 134.711 116.94 134.711C120.261 134.711 122.979 132.644 122.979 129.113V123.445C122.979 119.937 120.261 117.846 116.94 117.846ZM116.94 131.668C115.453 131.668 114.361 130.902 114.198 129.485C114.152 129.09 114.129 128.672 114.129 128.184V124.397C114.129 123.933 114.152 123.491 114.198 123.073C114.361 121.61 115.453 120.89 116.94 120.89C118.357 120.89 119.495 121.61 119.657 123.073C119.704 123.491 119.727 123.933 119.727 124.397V128.184C119.727 128.672 119.704 129.09 119.657 129.485C119.495 130.902 118.357 131.668 116.94 131.668Z" fill="#2C2C2C"/>
<path d="M119.98 96.7122C119.98 92.7149 118.397 88.8812 115.578 86.0547C112.759 83.2281 108.936 81.6401 104.949 81.6401C100.963 81.6401 97.1394 83.2281 94.3205 86.0547C91.5016 88.8812 89.918 92.7149 89.918 96.7122L104.949 96.7122H119.98Z" fill="#EDEDED"/>
<path d="M118.366 57.2006L103.389 89.9015C102.769 91.2568 103.401 92.8585 104.781 93.424C106.16 93.9895 107.731 93.291 108.235 91.8877L120.394 58.032C120.593 57.4788 120.321 56.8664 119.777 56.6435C119.233 56.4205 118.611 56.6662 118.366 57.2006Z" fill="#2C2C2C"/>
<path d="M42.7754 98.2559C42.7754 81.7662 49.3259 65.9519 60.9858 54.292C72.6458 42.632 88.4601 36.0815 104.95 36.0815V42.299C90.109 42.299 75.8762 48.1944 65.3822 58.6884C54.8883 69.1823 48.9928 83.4152 48.9928 98.2559H42.7754Z" fill="#E15825"/>
<path d="M106.577 36.0815C114.25 36.2399 121.828 37.8365 128.923 40.7899L126.562 46.5688C120.176 43.9107 113.356 42.4738 106.45 42.3313L106.577 36.0815Z" fill="#F18200"/>
<path d="M129.853 41.3252C136.761 44.3948 143.049 48.746 148.396 54.1572L144.111 58.5542C139.298 53.6842 133.639 49.7681 127.422 47.0055L129.853 41.3252Z" fill="#FCD800"/>
<path d="M149.701 54.8086C154.866 60.3915 158.996 66.9313 161.879 74.095L156.36 76.5322C153.765 70.0849 150.048 64.199 145.399 59.1744L149.701 54.8086Z" fill="#A9D161"/>
<path d="M162.634 75.7827C165.563 82.9317 167.085 90.5421 167.123 98.2262L160.676 98.2554C160.642 91.3397 159.272 84.4903 156.636 78.0563L162.634 75.7827Z" fill="#009900"/>
<path d="M150.939 116.559L153.071 113.197C153.398 112.693 153.567 112.231 153.578 111.614C153.578 109.969 152.354 109.188 150.792 109.188C149.219 109.188 147.995 109.969 147.995 111.614C147.995 113.125 149.05 113.989 150.57 113.937C150.707 113.937 150.866 113.896 150.982 113.845L149.219 116.559H150.939ZM150.792 110.493C151.552 110.493 152.016 110.884 152.016 111.614C152.016 112.354 151.552 112.765 150.792 112.765C150.032 112.765 149.557 112.354 149.557 111.614C149.557 110.884 150.032 110.493 150.792 110.493Z" fill="#808080"/>
<path d="M157.498 109.239C155.967 109.239 154.733 110.164 154.733 111.717V114.225C154.733 115.788 155.967 116.703 157.498 116.703C159.007 116.703 160.241 115.788 160.241 114.225V111.717C160.241 110.164 159.007 109.239 157.498 109.239ZM157.498 115.356C156.822 115.356 156.326 115.017 156.252 114.39C156.231 114.215 156.221 114.03 156.221 113.814V112.138C156.221 111.933 156.231 111.737 156.252 111.552C156.326 110.904 156.822 110.586 157.498 110.586C158.141 110.586 158.658 110.904 158.732 111.552C158.753 111.737 158.764 111.933 158.764 112.138V113.814C158.764 114.03 158.753 114.215 158.732 114.39C158.658 115.017 158.141 115.356 157.498 115.356Z" fill="#808080"/>
<path d="M164.382 109.239C162.852 109.239 161.617 110.164 161.617 111.717V114.225C161.617 115.788 162.852 116.703 164.382 116.703C165.891 116.703 167.126 115.788 167.126 114.225V111.717C167.126 110.164 165.891 109.239 164.382 109.239ZM164.382 115.356C163.706 115.356 163.21 115.017 163.137 114.39C163.115 114.215 163.105 114.03 163.105 113.814V112.138C163.105 111.933 163.115 111.737 163.137 111.552C163.21 110.904 163.706 110.586 164.382 110.586C165.026 110.586 165.543 110.904 165.617 111.552C165.638 111.737 165.648 111.933 165.648 112.138V113.814C165.648 114.03 165.638 114.215 165.617 114.39C165.543 115.017 165.026 115.356 164.382 115.356Z" fill="#808080"/>
<path d="M150.068 52.6873H330.24C333.07 52.6873 335.364 54.9815 335.364 57.8116V184.806C335.364 187.636 333.07 189.931 330.24 189.931H150.068C147.238 189.931 144.944 187.636 144.944 184.806V57.8116C144.944 54.9815 147.238 52.6873 150.068 52.6873Z" fill="white" stroke="#B8C9E9" stroke-width="0.683234"/>
<path d="M171.39 169.041L170.472 167.281L169.444 165.576H168.078V165.762L170.778 170.123V173.228H172.046V170.123L174.735 165.762V165.576H173.38L172.385 167.226L171.434 169.041H171.39ZM179.895 170.572C179.895 168.724 178.474 167.806 177.064 167.828C175.686 167.85 174.331 168.757 174.331 170.572C174.331 172.408 175.719 173.326 177.108 173.326C178.496 173.326 179.895 172.408 179.895 170.572ZM175.512 170.572C175.512 169.457 176.277 168.899 177.064 168.877C177.873 168.855 178.704 169.424 178.704 170.572C178.704 171.698 177.916 172.266 177.129 172.277C176.32 172.288 175.512 171.719 175.512 170.572ZM184.725 167.959V170.976C184.725 171.818 184.146 172.364 183.391 172.364C182.692 172.364 182.243 171.851 182.254 171.009V167.959H181.052V171.009C181.052 172.299 181.566 173.315 183.02 173.315C183.763 173.315 184.485 173.086 184.845 172.375C184.845 173.512 185.807 173.37 186.485 173.25L186.474 172.474C185.971 172.528 185.917 172.353 185.917 171.719V167.959H184.725ZM188.93 168.724C188.876 167.871 188.023 167.74 187.247 167.915L187.258 168.724C187.826 168.691 187.826 168.932 187.826 169.402V173.228H189.007V170.178C189.007 169.325 189.641 168.866 190.351 168.866C190.734 168.866 191.084 168.976 191.401 169.183L191.696 168.156C191.357 167.904 190.92 167.773 190.483 167.784C189.838 167.784 189.138 168.112 188.93 168.724ZM194.656 171.676C194.744 172.988 195.902 173.359 197.072 173.359C198.242 173.359 199.368 172.856 199.368 171.687C199.368 170.44 198.296 170.255 197.192 170.112C196.372 170.014 195.946 169.916 195.935 169.478C195.902 169.008 196.471 168.746 197.017 168.746C197.575 168.746 198.209 168.91 198.209 169.435H199.258C199.291 168.385 198.231 167.85 197.017 167.85C195.869 167.85 194.776 168.374 194.776 169.5C194.809 170.692 196.023 170.812 197.105 170.954C197.793 171.042 198.285 171.184 198.285 171.665C198.253 172.31 197.608 172.474 197.028 172.474C196.46 172.474 195.859 172.222 195.826 171.676H194.656ZM200.47 166.33C200.47 166.811 200.841 167.052 201.202 167.041C201.552 167.03 201.902 166.8 201.902 166.33C201.902 165.871 201.552 165.63 201.191 165.63C200.83 165.63 200.47 165.86 200.47 166.33ZM201.782 168.014H200.59V173.228H201.782V168.014ZM211.685 173.228V170.145C211.718 168.877 211.346 167.85 209.903 167.85C209.094 167.85 208.274 168.145 207.979 168.844C207.771 168.199 207.301 167.85 206.383 167.85C205.662 167.85 204.885 168.178 204.59 168.823C204.623 167.718 203.639 167.773 202.94 167.948L202.95 168.68C203.475 168.648 203.508 168.844 203.508 169.457V173.228H204.7V170.189C204.7 169.358 205.235 168.833 205.979 168.823C206.722 168.812 207.061 169.358 207.061 170.178V173.228H208.23V170.178C208.241 169.347 208.733 168.823 209.466 168.812C210.165 168.801 210.493 169.358 210.482 170.145V173.228H211.685ZM216.784 167.959V170.976C216.784 171.818 216.204 172.364 215.45 172.364C214.75 172.364 214.302 171.851 214.313 171.009V167.959H213.111V171.009C213.111 172.299 213.624 173.315 215.078 173.315C215.822 173.315 216.543 173.086 216.904 172.375C216.904 173.512 217.866 173.37 218.544 173.25L218.533 172.474C218.03 172.528 217.975 172.353 217.975 171.719V167.959H216.784ZM219.644 165.226V171.348C219.644 173.108 220.388 173.523 222.006 173.261L221.962 172.343C221.054 172.485 220.825 172.211 220.825 171.337V165.226H219.644ZM226.27 172.343C226.303 173.381 226.948 173.381 227.778 173.239L227.757 172.561C227.188 172.616 227.21 172.299 227.21 171.807V169.73C227.21 168.276 226.073 167.828 224.794 167.828C224.094 167.828 223.384 167.97 222.848 168.243L223.023 169.096C223.679 168.768 226.051 168.309 226.051 169.697V170.222C225.581 169.959 225.002 169.828 224.488 169.828C223.329 169.828 222.411 170.429 222.444 171.687C222.444 172.714 223.373 173.326 224.335 173.326C225.078 173.326 225.92 173.042 226.27 172.343ZM226.051 171.424C225.931 172.091 225.199 172.386 224.575 172.386C224.094 172.386 223.613 172.146 223.613 171.621C223.613 170.976 224.105 170.637 224.685 170.626C225.155 170.615 225.658 170.757 226.051 170.987V171.424ZM230.436 166.341H229.386L229.266 167.97H228.195V168.746L229.266 168.823V171.217C229.266 173.283 230.676 173.698 232.48 173.141L232.36 172.244C231.277 172.627 230.436 172.539 230.436 171.195V168.823H232.261V167.97H230.436V166.341ZM235.865 167.839C234.433 167.839 233.165 168.724 233.132 170.484C233.077 172.266 234.356 173.381 236.094 173.348C236.761 173.348 237.472 173.173 238.084 172.9L237.931 172.015C237.308 172.288 236.674 172.375 236.018 172.343C235.056 172.343 234.301 171.774 234.301 170.812H238.193C238.543 169.063 237.712 167.839 235.865 167.839ZM235.854 168.757C236.608 168.757 237.264 169.172 237.231 169.97H234.323C234.487 169.14 235.067 168.757 235.854 168.757ZM243.329 172.419C243.329 173.305 244.05 173.381 244.87 173.239L244.848 172.419C244.247 172.419 244.302 172.19 244.302 171.588V165.226H243.11V168.287C242.629 168.003 242.115 167.882 241.645 167.882C240.29 167.882 239.153 168.954 239.153 170.583C239.153 172.058 240.005 173.37 241.58 173.337C242.356 173.337 242.979 173.042 243.329 172.266V172.419ZM243.132 170.812C243.132 171.61 242.585 172.277 241.765 172.277C240.792 172.277 240.333 171.49 240.333 170.583C240.333 169.511 241.011 168.932 241.831 168.921C242.246 168.91 242.706 169.041 243.132 169.336V170.812ZM281.717 171.053C281.75 172.66 283.313 173.403 284.811 173.37C286.243 173.37 287.828 172.736 287.828 171.053C287.828 169.293 286.407 168.987 284.855 168.812C283.969 168.691 283.105 168.582 283.105 167.718C283.105 166.855 284.013 166.571 284.712 166.571C285.467 166.571 286.33 166.833 286.385 167.653H287.587C287.555 166.09 286.177 165.434 284.723 165.434C283.237 165.434 281.848 166.177 281.848 167.751C281.848 169.282 283.237 169.73 284.636 169.85C285.521 169.938 286.56 170.036 286.56 171.042C286.56 171.993 285.598 172.233 284.789 172.233C283.958 172.233 283.018 171.916 282.963 171.053H281.717ZM294.075 169.708C293.791 168.418 292.665 167.795 291.517 167.806C290.151 167.817 288.751 168.757 288.751 170.572C288.751 172.397 290.151 173.315 291.528 173.315C292.687 173.315 293.835 172.66 294.108 171.326H292.971C292.73 171.971 292.14 172.288 291.55 172.288C290.752 172.288 289.932 171.709 289.932 170.572C289.932 169.457 290.763 168.866 291.572 168.866C292.184 168.866 292.741 169.14 292.971 169.708H294.075ZM300.497 170.572C300.497 168.724 299.076 167.806 297.665 167.828C296.288 167.85 294.932 168.757 294.932 170.572C294.932 172.408 296.321 173.326 297.709 173.326C299.097 173.326 300.497 172.408 300.497 170.572ZM296.113 170.572C296.113 169.457 296.878 168.899 297.665 168.877C298.474 168.855 299.305 169.424 299.305 170.572C299.305 171.698 298.518 172.266 297.731 172.277C296.922 172.288 296.113 171.719 296.113 170.572ZM303.009 168.724C302.954 167.871 302.102 167.74 301.326 167.915L301.336 168.724C301.905 168.691 301.905 168.932 301.905 169.402V173.228H303.086V170.178C303.086 169.325 303.72 168.866 304.43 168.866C304.813 168.866 305.163 168.976 305.48 169.183L305.775 168.156C305.436 167.904 304.999 167.773 304.561 167.784C303.916 167.784 303.217 168.112 303.009 168.724ZM308.928 167.839C307.496 167.839 306.228 168.724 306.195 170.484C306.14 172.266 307.419 173.381 309.158 173.348C309.824 173.348 310.535 173.173 311.147 172.9L310.994 172.015C310.371 172.288 309.737 172.375 309.081 172.343C308.119 172.343 307.365 171.774 307.365 170.812H311.256C311.606 169.063 310.775 167.839 308.928 167.839ZM308.917 168.757C309.671 168.757 310.327 169.172 310.294 169.97H307.387C307.551 169.14 308.13 168.757 308.917 168.757Z" fill="black"/>
<path d="M248.527 169.413C248.527 171.872 250.331 173.305 252.408 173.305C253.96 173.305 255.534 172.485 255.917 170.615H254.682C254.343 171.632 253.457 172.146 252.408 172.146C250.845 172.146 249.806 170.932 249.806 169.413C249.806 167.784 250.845 166.647 252.408 166.647C253.414 166.658 254.266 167.095 254.649 168.046H255.873C255.469 166.319 253.916 165.488 252.419 165.488C250.331 165.488 248.527 166.942 248.527 169.413ZM259.249 172.2V166.592H260.364V165.576H256.865V166.592H257.981V172.2H256.767V173.228H260.462V172.2H259.249ZM267.36 167.729C267.36 166.286 266.343 165.576 264.955 165.576H261.85V173.228H265.272C266.758 173.228 267.699 172.343 267.699 170.976C267.699 170.112 267.261 169.478 266.463 169.205C267.064 168.91 267.36 168.374 267.36 167.729ZM264.867 166.68C265.611 166.68 266.113 167.008 266.113 167.762C266.102 168.506 265.6 168.79 264.867 168.79H263.118V166.68H264.867ZM265.053 169.828C265.403 169.828 265.753 169.85 266.048 170.069C266.31 170.287 266.441 170.593 266.441 170.976C266.409 171.709 265.906 172.113 265.195 172.113H263.118V169.828H265.053ZM271.13 172.2V166.592H272.246V165.576H268.747V166.592H269.862V172.2H268.649V173.228H272.344V172.2H271.13ZM275.011 165.576H273.732V173.228H278.301V172.08H275.011V165.576Z" fill="#00A6CA"/>
<path d="M241.451 137.191C241.451 133.699 245.313 132.42 245.313 129.321C245.313 125.902 242.755 124.18 239.803 124.254C236.876 124.328 234.441 125.976 234.441 129.468H237.466C237.589 128.189 238.696 127.55 239.778 127.55C241.623 127.55 242.115 129.173 241.525 130.477C240.541 132.666 238.204 133.33 238.204 137.191H241.451ZM239.877 142.135C241.033 142.135 241.869 141.373 241.869 140.266C241.869 139.11 241.033 138.372 239.877 138.372C238.721 138.372 237.835 139.11 237.835 140.266C237.835 141.373 238.721 142.135 239.877 142.135Z" fill="#2C2C2C"/>
<path d="M178.263 128.608C178.263 112.569 184.813 97.1866 196.473 85.8452C208.133 74.5038 223.947 68.1323 240.437 68.1323V74.1799C225.596 74.1799 211.363 79.9142 200.87 90.1215C190.376 100.329 184.48 114.173 184.48 128.608H178.263Z" fill="#EDEDED"/>
<path d="M242.064 68.1323C249.737 68.2864 257.315 69.8393 264.41 72.712L262.049 78.333C255.663 75.7476 248.844 74.3499 241.938 74.2113L242.064 68.1323Z" fill="#E0E0E0"/>
<path d="M265.34 73.2324C272.248 76.2181 278.536 80.4504 283.884 85.7138L279.598 89.9907C274.786 85.2537 269.126 81.4446 262.909 78.7575L265.34 73.2324Z" fill="#D1D1D1"/>
<path d="M285.188 86.3477C290.353 91.778 294.483 98.1392 297.367 105.107L291.848 107.478C289.252 101.207 285.536 95.4815 280.887 90.5942L285.188 86.3477Z" fill="#C0C0C0"/>
<path d="M298.121 106.75C301.05 113.703 302.573 121.106 302.61 128.58L296.163 128.608C296.13 121.881 294.759 115.219 292.123 108.961L298.121 106.75Z" fill="#9F9F9F"/>
<g opacity="0.5">
<path d="M178.264 145.598C178.32 147.122 179.447 148.06 180.91 148.06C182.674 148.06 183.657 146.761 183.657 145.361C183.657 144.265 183.087 143.226 181.837 143.012L183.534 140.256V140.019H178.565V141.363H181.323L179.883 143.87V144.107C180.888 143.926 182.049 144.107 182.082 145.372C182.071 146.095 181.613 146.603 180.888 146.603C180.218 146.603 179.771 146.264 179.726 145.598H178.264Z" fill="black"/>
<path d="M187.89 139.872C186.271 139.872 184.965 140.888 184.965 142.594V145.349C184.965 147.066 186.271 148.071 187.89 148.071C189.487 148.071 190.793 147.066 190.793 145.349V142.594C190.793 140.888 189.487 139.872 187.89 139.872ZM187.89 146.591C187.176 146.591 186.651 146.219 186.573 145.53C186.55 145.338 186.539 145.135 186.539 144.898V143.057C186.539 142.831 186.55 142.616 186.573 142.413C186.651 141.702 187.176 141.351 187.89 141.351C188.571 141.351 189.118 141.702 189.197 142.413C189.219 142.616 189.23 142.831 189.23 143.057V144.898C189.23 145.135 189.219 145.338 189.197 145.53C189.118 146.219 188.571 146.591 187.89 146.591Z" fill="black"/>
<path d="M195.174 139.872C193.555 139.872 192.249 140.888 192.249 142.594V145.349C192.249 147.066 193.555 148.071 195.174 148.071C196.771 148.071 198.077 147.066 198.077 145.349V142.594C198.077 140.888 196.771 139.872 195.174 139.872ZM195.174 146.591C194.46 146.591 193.935 146.219 193.857 145.53C193.834 145.338 193.823 145.135 193.823 144.898V143.057C193.823 142.831 193.834 142.616 193.857 142.413C193.935 141.702 194.46 141.351 195.174 141.351C195.855 141.351 196.403 141.702 196.481 142.413C196.503 142.616 196.514 142.831 196.514 143.057V144.898C196.514 145.135 196.503 145.338 196.481 145.53C196.403 146.219 195.855 146.591 195.174 146.591Z" fill="black"/>
</g>
<path d="M286.427 147.244L288.558 143.882C288.886 143.378 289.054 142.915 289.065 142.298C289.065 140.653 287.841 139.872 286.279 139.872C284.707 139.872 283.482 140.653 283.482 142.298C283.482 143.81 284.538 144.673 286.057 144.622C286.195 144.622 286.353 144.581 286.469 144.529L284.707 147.244H286.427ZM286.279 141.178C287.039 141.178 287.503 141.568 287.503 142.298C287.503 143.039 287.039 143.45 286.279 143.45C285.519 143.45 285.044 143.039 285.044 142.298C285.044 141.568 285.519 141.178 286.279 141.178Z" fill="#808080"/>
<path d="M292.985 139.923C291.455 139.923 290.22 140.849 290.22 142.401V144.91C290.22 146.473 291.455 147.388 292.985 147.388C294.494 147.388 295.729 146.473 295.729 144.91V142.401C295.729 140.849 294.494 139.923 292.985 139.923ZM292.985 146.041C292.31 146.041 291.814 145.702 291.74 145.074C291.719 144.9 291.708 144.715 291.708 144.499V142.823C291.708 142.617 291.719 142.422 291.74 142.237C291.814 141.589 292.31 141.27 292.985 141.27C293.629 141.27 294.146 141.589 294.22 142.237C294.241 142.422 294.251 142.617 294.251 142.823V144.499C294.251 144.715 294.241 144.9 294.22 145.074C294.146 145.702 293.629 146.041 292.985 146.041Z" fill="#808080"/>
<path d="M299.869 139.923C298.339 139.923 297.104 140.849 297.104 142.401V144.91C297.104 146.473 298.339 147.388 299.869 147.388C301.378 147.388 302.613 146.473 302.613 144.91V142.401C302.613 140.849 301.378 139.923 299.869 139.923ZM299.869 146.041C299.194 146.041 298.698 145.702 298.624 145.074C298.603 144.9 298.592 144.715 298.592 144.499V142.823C298.592 142.617 298.603 142.422 298.624 142.237C298.698 141.589 299.194 141.27 299.869 141.27C300.513 141.27 301.03 141.589 301.104 142.237C301.125 142.422 301.136 142.617 301.136 142.823V144.499C301.136 144.715 301.125 144.9 301.104 145.074C301.03 145.702 300.513 146.041 299.869 146.041Z" fill="#808080"/>
</svg>
