<svg width="334" height="187" viewBox="0 0 334 187" fill="none" xmlns="http://www.w3.org/2000/svg">
<rect width="334" height="187" fill="white"/>
<path d="M122.896 114.712L121.956 112.91L120.904 111.163H119.504V111.354L122.269 115.821V119H123.568V115.821L126.322 111.354V111.163H124.934L123.915 112.854L122.941 114.712H122.896ZM131.83 116.28C131.83 114.388 130.375 113.447 128.931 113.47C127.52 113.492 126.132 114.421 126.132 116.28C126.132 118.16 127.554 119.101 128.976 119.101C130.397 119.101 131.83 118.16 131.83 116.28ZM127.341 116.28C127.341 115.138 128.125 114.567 128.931 114.544C129.759 114.522 130.61 115.104 130.61 116.28C130.61 117.433 129.804 118.015 128.998 118.026C128.169 118.037 127.341 117.455 127.341 116.28ZM137 113.604V116.694C137 117.556 136.407 118.116 135.635 118.116C134.918 118.116 134.459 117.589 134.47 116.727V113.604H133.239V116.727C133.239 118.048 133.765 119.09 135.254 119.09C136.015 119.09 136.754 118.854 137.124 118.127C137.124 119.291 138.109 119.146 138.803 119.022L138.792 118.228C138.277 118.284 138.221 118.104 138.221 117.455V113.604H137ZM141.531 114.388C141.475 113.514 140.602 113.38 139.807 113.559L139.818 114.388C140.4 114.354 140.4 114.6 140.4 115.082V119H141.609V115.877C141.609 115.003 142.259 114.533 142.986 114.533C143.378 114.533 143.736 114.645 144.061 114.858L144.363 113.805C144.016 113.548 143.568 113.414 143.121 113.425C142.46 113.425 141.744 113.761 141.531 114.388ZM147.943 115.093C147.943 117.612 149.79 119.078 151.917 119.078C153.507 119.078 155.119 118.239 155.511 116.324H154.246C153.899 117.366 152.992 117.892 151.917 117.892C150.317 117.892 149.253 116.649 149.253 115.093C149.253 113.425 150.317 112.261 151.917 112.261C152.947 112.272 153.821 112.72 154.212 113.694H155.466C155.052 111.925 153.462 111.074 151.929 111.074C149.79 111.074 147.943 112.563 147.943 115.093ZM159.147 117.948V112.205H160.289V111.163H156.706V112.205H157.848V117.948H156.606V119H160.39V117.948H159.147ZM167.677 113.369C167.677 111.891 166.636 111.163 165.214 111.163H162.035V119H165.539C167.061 119 168.024 118.093 168.024 116.694C168.024 115.809 167.576 115.16 166.759 114.88C167.375 114.578 167.677 114.029 167.677 113.369ZM165.125 112.294C165.886 112.294 166.401 112.63 166.401 113.402C166.39 114.164 165.875 114.455 165.125 114.455H163.334V112.294H165.125ZM165.315 115.518C165.673 115.518 166.032 115.541 166.334 115.765C166.602 115.989 166.737 116.302 166.737 116.694C166.703 117.444 166.188 117.858 165.461 117.858H163.334V115.518H165.315ZM171.763 117.948V112.205H172.905V111.163H169.322V112.205H170.464V117.948H169.222V119H173.005V117.948H171.763ZM175.961 111.163H174.651V119H179.33V117.825H175.961V111.163ZM182.937 116.772C182.971 118.418 184.572 119.179 186.106 119.146C187.572 119.146 189.195 118.496 189.195 116.772C189.195 114.97 187.74 114.656 186.15 114.477C185.244 114.354 184.359 114.242 184.359 113.358C184.359 112.473 185.288 112.182 186.005 112.182C186.777 112.182 187.662 112.451 187.718 113.29H188.949C188.916 111.69 187.505 111.018 186.016 111.018C184.493 111.018 183.072 111.779 183.072 113.391C183.072 114.959 184.493 115.418 185.926 115.541C186.833 115.63 187.897 115.731 187.897 116.761C187.897 117.735 186.912 117.981 186.083 117.981C185.232 117.981 184.27 117.657 184.214 116.772H182.937ZM195.817 115.395C195.526 114.074 194.373 113.436 193.197 113.447C191.798 113.458 190.365 114.421 190.365 116.28C190.365 118.149 191.798 119.09 193.208 119.09C194.395 119.09 195.571 118.418 195.85 117.052H194.686C194.44 117.713 193.835 118.037 193.231 118.037C192.414 118.037 191.574 117.444 191.574 116.28C191.574 115.138 192.425 114.533 193.253 114.533C193.88 114.533 194.451 114.813 194.686 115.395H195.817ZM202.617 116.28C202.617 114.388 201.162 113.447 199.718 113.47C198.307 113.492 196.919 114.421 196.919 116.28C196.919 118.16 198.341 119.101 199.762 119.101C201.184 119.101 202.617 118.16 202.617 116.28ZM198.128 116.28C198.128 115.138 198.912 114.567 199.718 114.544C200.546 114.522 201.397 115.104 201.397 116.28C201.397 117.433 200.591 118.015 199.785 118.026C198.956 118.037 198.128 117.455 198.128 116.28ZM205.414 114.388C205.358 113.514 204.485 113.38 203.69 113.559L203.701 114.388C204.283 114.354 204.283 114.6 204.283 115.082V119H205.492V115.877C205.492 115.003 206.142 114.533 206.869 114.533C207.261 114.533 207.619 114.645 207.944 114.858L208.246 113.805C207.899 113.548 207.451 113.414 207.004 113.425C206.343 113.425 205.627 113.761 205.414 114.388ZM211.699 113.481C210.233 113.481 208.934 114.388 208.901 116.19C208.845 118.015 210.154 119.157 211.935 119.123C212.617 119.123 213.345 118.944 213.972 118.664L213.815 117.757C213.177 118.037 212.528 118.127 211.856 118.093C210.871 118.093 210.099 117.511 210.099 116.526H214.084C214.442 114.735 213.591 113.481 211.699 113.481ZM211.688 114.421C212.461 114.421 213.132 114.847 213.099 115.664H210.121C210.289 114.813 210.882 114.421 211.688 114.421Z" fill="#2C2C2C"/>
<path d="M158.66 125.893H145.138V129.437H153.181L146.42 144.977H150.536L158.66 126.466V125.893ZM166.428 125.757L160.894 134.753C160.158 135.926 159.668 137.452 159.668 138.843C159.668 143.205 162.775 145.276 166.837 145.276C170.899 145.276 174.062 143.205 174.062 138.843C174.062 134.917 171.363 132.545 167.519 132.682C167.165 132.682 166.837 132.763 166.538 132.927L170.899 125.757H166.428ZM166.837 141.814C164.875 141.814 163.648 140.778 163.648 138.843C163.648 136.88 164.875 135.789 166.837 135.789C168.8 135.789 170 136.88 170 138.843C170 140.778 168.8 141.814 166.837 141.814ZM189.621 125.893H176.1V129.437H184.142L177.381 144.977H181.497L189.621 126.466V125.893Z" fill="#2C2C2C"/>
<path d="M34.9895 25.892C35.6735 25.892 36.2615 25.388 36.2615 24.716C36.2615 23.984 35.6735 23.528 34.9895 23.528C34.3175 23.528 33.7415 23.984 33.7415 24.716C33.7415 25.388 34.3175 25.892 34.9895 25.892ZM46.124 20.6H45.116V29H50.084V28.1H46.124V20.6ZM57.0283 26.096C57.0283 22.076 50.9323 22.076 50.9323 26.096C50.9323 30.116 57.0283 30.092 57.0283 26.096ZM51.8803 26.096C51.8803 23.156 56.0923 23.156 56.0923 26.096C56.0923 29.048 51.8803 29.048 51.8803 26.096ZM64.0802 24.98C63.7202 23.72 62.5802 23.084 61.4042 23.072C59.8922 23.06 58.3322 24.068 58.3322 26.084C58.3322 28.076 59.8682 29.096 61.3802 29.096C62.5922 29.096 63.7922 28.424 64.1402 27.056H63.2282C62.9162 27.872 62.1602 28.268 61.3922 28.268C60.3482 28.268 59.2802 27.512 59.2802 26.084C59.2802 24.644 60.3842 23.912 61.4402 23.912C62.1722 23.912 62.8682 24.26 63.1802 24.98H64.0802ZM69.6411 27.956C69.6411 29.012 70.0971 29.192 71.0571 29.036L71.0451 28.424C70.3371 28.52 70.3731 28.148 70.3731 27.512V25.1C70.4091 23.588 69.1491 23.084 67.8411 23.084C67.0731 23.084 66.3411 23.228 65.7771 23.516L65.9331 24.26C66.4251 23.972 67.0371 23.84 67.6971 23.84C68.4891 23.84 69.5211 24.104 69.5211 25.076V25.784C68.9451 25.46 68.1891 25.304 67.5291 25.304C66.3291 25.304 65.2851 25.988 65.3211 27.308C65.3571 28.472 66.2931 29.096 67.3611 29.096C68.2371 29.096 69.2211 28.76 69.6411 27.956ZM69.5091 27.044C69.3171 27.908 68.2851 28.292 67.5291 28.292C66.8811 28.292 66.2811 28.004 66.2451 27.272C66.2091 26.444 66.9171 26.024 67.6851 26.024C68.2731 26.024 68.9811 26.192 69.5091 26.492V27.044ZM73.9158 21.44H73.1358L73.0398 23.24H71.7438V23.864L72.9798 23.924V26.78C72.9798 28.964 74.3478 29.528 76.3278 28.892L76.2198 28.136C74.8278 28.652 73.9158 28.232 73.9158 26.756V23.924H76.0398V23.24H73.9158V21.44ZM77.5746 21.308C77.5746 22.112 78.7626 22.112 78.7626 21.308C78.7626 20.516 77.5746 20.516 77.5746 21.308ZM78.6306 23.264H77.6946V29H78.6306V23.264ZM86.4471 26.096C86.4471 22.076 80.3511 22.076 80.3511 26.096C80.3511 30.116 86.4471 30.092 86.4471 26.096ZM81.2991 26.096C81.2991 23.156 85.5111 23.156 85.5111 26.096C85.5111 29.048 81.2991 29.048 81.2991 26.096ZM93.559 29V25.568C93.559 24.152 92.767 23.096 91.243 23.096C90.427 23.096 89.719 23.3 89.203 24.08C89.203 22.964 88.315 23.108 87.643 23.204L87.655 23.948C88.267 23.888 88.327 24.092 88.327 24.872V29H89.263V25.532C89.263 24.56 90.007 23.876 90.991 23.876C91.939 23.876 92.611 24.524 92.611 25.568V29H93.559Z" fill="black"/>
<path d="M107.99 25.892C108.674 25.892 109.262 25.388 109.262 24.716C109.262 23.984 108.674 23.528 107.99 23.528C107.318 23.528 106.742 23.984 106.742 24.716C106.742 25.388 107.318 25.892 107.99 25.892ZM119.904 28.196V21.392H121.26V20.6H117.54V21.392H118.896V28.196H117.444V29H121.356V28.196H119.904ZM128.228 29V25.568C128.228 24.152 127.436 23.096 125.912 23.096C125.096 23.096 124.388 23.3 123.872 24.08C123.872 22.964 122.984 23.108 122.312 23.204L122.324 23.948C122.936 23.888 122.996 24.092 122.996 24.872V29H123.932V25.532C123.932 24.56 124.676 23.876 125.66 23.876C126.608 23.876 127.28 24.524 127.28 25.568V29H128.228ZM135.58 24.98C135.22 23.72 134.08 23.084 132.904 23.072C131.392 23.06 129.832 24.068 129.832 26.084C129.832 28.076 131.368 29.096 132.88 29.096C134.092 29.096 135.292 28.424 135.64 27.056H134.728C134.416 27.872 133.66 28.268 132.892 28.268C131.848 28.268 130.78 27.512 130.78 26.084C130.78 24.644 131.884 23.912 132.94 23.912C133.672 23.912 134.368 24.26 134.68 24.98H135.58ZM142.977 26.096C142.977 22.076 136.881 22.076 136.881 26.096C136.881 30.116 142.977 30.092 142.977 26.096ZM137.829 26.096C137.829 23.156 142.041 23.156 142.041 26.096C142.041 29.048 137.829 29.048 137.829 26.096ZM153.653 29V25.556C153.653 24.224 153.197 23.096 151.649 23.096C150.689 23.096 149.813 23.492 149.441 24.344C149.213 23.528 148.613 23.096 147.653 23.096C146.825 23.096 146.117 23.36 145.697 24.128C145.697 22.988 144.977 23.06 144.161 23.192L144.173 23.876C144.785 23.816 144.845 24.044 144.845 24.812V29H145.781V25.64C145.781 24.584 146.393 23.876 147.401 23.876C148.409 23.876 148.745 24.632 148.745 25.604V29H149.681V25.628C149.681 24.596 150.425 23.876 151.385 23.876C152.357 23.876 152.693 24.632 152.693 25.556V29H153.653ZM158.255 23.084C156.671 23.084 155.351 24.128 155.291 25.952C155.231 27.92 156.587 29.132 158.507 29.132C159.215 29.132 159.947 28.964 160.631 28.64L160.487 27.932C159.815 28.208 159.191 28.352 158.531 28.352C157.223 28.352 156.167 27.536 156.227 26.204H160.823C161.147 24.296 160.223 23.096 158.255 23.084ZM158.255 23.828C159.287 23.828 160.091 24.392 160.031 25.484H156.263C156.419 24.44 157.199 23.828 158.255 23.828ZM167.437 21.5V29H168.409V21.5H171.001V20.6H164.845V21.5H167.437ZM176.663 23.324V23.228H175.715L174.659 25.82L173.783 28.088H173.771L172.823 25.796L171.671 23.228H170.675V23.324L173.327 29.048L172.991 29.864C172.607 30.824 172.151 31.544 171.047 31.028L170.915 31.724C172.811 32.552 173.471 30.956 174.119 29.408L176.663 23.324ZM179.134 24.176C179.17 23.264 178.546 23.048 177.634 23.204L177.646 23.9C178.414 23.804 178.33 24.404 178.33 25.148V31.976H179.266V28.472C181.33 29.864 183.862 28.652 183.862 26.072C183.862 24.416 182.938 23.06 181.246 23.06C180.418 23.06 179.674 23.3 179.134 24.176ZM179.242 25.832C179.278 24.836 179.962 23.912 181.066 23.912C182.362 23.912 182.902 24.92 182.902 26.072C182.902 28.196 180.814 28.844 179.242 27.62V25.832ZM188.154 23.084C186.57 23.084 185.25 24.128 185.19 25.952C185.13 27.92 186.486 29.132 188.406 29.132C189.114 29.132 189.846 28.964 190.53 28.64L190.386 27.932C189.714 28.208 189.09 28.352 188.43 28.352C187.122 28.352 186.066 27.536 186.126 26.204H190.722C191.046 24.296 190.122 23.096 188.154 23.084ZM188.154 23.828C189.186 23.828 189.99 24.392 189.93 25.484H186.162C186.318 24.44 187.098 23.828 188.154 23.828Z" fill="black"/>
<path d="M204.99 25.892C205.674 25.892 206.262 25.388 206.262 24.716C206.262 23.984 205.674 23.528 204.99 23.528C204.318 23.528 203.742 23.984 203.742 24.716C203.742 25.388 204.318 25.892 204.99 25.892ZM218.968 25.28L215.512 20.588H215.116V29H216.124V22.94L218.884 26.732H219.04L221.8 22.94V29H222.808V20.588H222.424L218.968 25.28ZM230.685 26.096C230.685 22.076 224.589 22.076 224.589 26.096C224.589 30.116 230.685 30.092 230.685 26.096ZM225.537 26.096C225.537 23.156 229.749 23.156 229.749 26.096C229.749 29.048 225.537 29.048 225.537 26.096ZM237.796 29V25.568C237.796 24.152 237.004 23.096 235.48 23.096C234.664 23.096 233.956 23.3 233.44 24.08C233.44 22.964 232.552 23.108 231.88 23.204L231.892 23.948C232.504 23.888 232.564 24.092 232.564 24.872V29H233.5V25.532C233.5 24.56 234.244 23.876 235.228 23.876C236.176 23.876 236.848 24.524 236.848 25.568V29H237.796ZM241.227 21.44H240.447L240.351 23.24H239.055V23.864L240.291 23.924V26.78C240.291 28.964 241.659 29.528 243.639 28.892L243.531 28.136C242.139 28.652 241.227 28.232 241.227 26.756V23.924H243.351V23.24H241.227V21.44ZM250.237 29V25.592C250.237 24.092 249.493 23.084 247.909 23.072C247.009 23.072 246.445 23.336 245.929 23.972V20.228H244.981V29H245.929V25.628C245.929 24.56 246.625 23.84 247.669 23.852C248.677 23.852 249.289 24.488 249.277 25.592V29H250.237ZM252.169 20.204V26.912C252.169 28.7 252.841 29.312 254.605 29.024L254.569 28.28C253.357 28.436 253.117 28.04 253.117 26.912V20.204H252.169ZM260.879 23.324V23.228H259.931L258.875 25.82L257.999 28.088H257.987L257.039 25.796L255.887 23.228H254.891V23.324L257.543 29.048L257.207 29.864C256.823 30.824 256.367 31.544 255.263 31.028L255.131 31.724C257.027 32.552 257.687 30.956 258.335 29.408L260.879 23.324ZM267.398 28.196V21.392H268.754V20.6H265.034V21.392H266.39V28.196H264.938V29H268.85V28.196H267.398ZM275.723 29V25.568C275.723 24.152 274.931 23.096 273.407 23.096C272.591 23.096 271.883 23.3 271.367 24.08C271.367 22.964 270.479 23.108 269.807 23.204L269.819 23.948C270.431 23.888 270.491 24.092 270.491 24.872V29H271.427V25.532C271.427 24.56 272.171 23.876 273.155 23.876C274.103 23.876 274.775 24.524 274.775 25.568V29H275.723ZM283.074 24.98C282.714 23.72 281.574 23.084 280.398 23.072C278.886 23.06 277.326 24.068 277.326 26.084C277.326 28.076 278.862 29.096 280.374 29.096C281.586 29.096 282.786 28.424 283.134 27.056H282.222C281.91 27.872 281.154 28.268 280.386 28.268C279.342 28.268 278.274 27.512 278.274 26.084C278.274 24.644 279.378 23.912 280.434 23.912C281.166 23.912 281.862 24.26 282.174 24.98H283.074ZM290.471 26.096C290.471 22.076 284.375 22.076 284.375 26.096C284.375 30.116 290.471 30.092 290.471 26.096ZM285.323 26.096C285.323 23.156 289.535 23.156 289.535 26.096C289.535 29.048 285.323 29.048 285.323 26.096ZM301.147 29V25.556C301.147 24.224 300.691 23.096 299.143 23.096C298.183 23.096 297.307 23.492 296.935 24.344C296.707 23.528 296.107 23.096 295.147 23.096C294.319 23.096 293.611 23.36 293.191 24.128C293.191 22.988 292.471 23.06 291.655 23.192L291.667 23.876C292.279 23.816 292.339 24.044 292.339 24.812V29H293.275V25.64C293.275 24.584 293.887 23.876 294.895 23.876C295.903 23.876 296.239 24.632 296.239 25.604V29H297.175V25.628C297.175 24.596 297.919 23.876 298.879 23.876C299.851 23.876 300.187 24.632 300.187 25.556V29H301.147ZM305.749 23.084C304.165 23.084 302.845 24.128 302.785 25.952C302.725 27.92 304.081 29.132 306.001 29.132C306.709 29.132 307.441 28.964 308.125 28.64L307.981 27.932C307.309 28.208 306.685 28.352 306.025 28.352C304.717 28.352 303.661 27.536 303.721 26.204H308.317C308.641 24.296 307.717 23.096 305.749 23.084ZM305.749 23.828C306.781 23.828 307.585 24.392 307.525 25.484H303.757C303.913 24.44 304.693 23.828 305.749 23.828Z" fill="black"/>
<path d="M22.423 167.281C22.468 168.577 23.782 169.135 24.952 169.108C26.095 169.081 27.391 168.595 27.391 167.245C27.391 165.85 26.221 165.625 24.97 165.481C24.205 165.382 23.296 165.346 23.296 164.41C23.296 163.582 24.16 163.294 24.853 163.267C25.573 163.267 26.419 163.519 26.491 164.32H27.193C27.148 163.096 25.924 162.565 24.835 162.592C23.728 162.592 22.549 163.177 22.549 164.419C22.549 165.679 23.701 165.976 24.844 166.093C25.699 166.21 26.653 166.228 26.653 167.245C26.626 168.163 25.699 168.424 24.943 168.451C24.169 168.451 23.197 168.127 23.152 167.281H22.423ZM32.7054 165.985C32.4354 165.04 31.5804 164.563 30.6984 164.554C29.5644 164.545 28.3944 165.301 28.3944 166.813C28.3944 168.307 29.5464 169.072 30.6804 169.072C31.5894 169.072 32.4894 168.568 32.7504 167.542H32.0664C31.8324 168.154 31.2654 168.451 30.6894 168.451C29.9064 168.451 29.1054 167.884 29.1054 166.813C29.1054 165.733 29.9334 165.184 30.7254 165.184C31.2744 165.184 31.7964 165.445 32.0304 165.985H32.7054ZM38.253 166.822C38.253 163.807 33.681 163.807 33.681 166.822C33.681 169.837 38.253 169.819 38.253 166.822ZM34.392 166.822C34.392 164.617 37.551 164.617 37.551 166.822C37.551 169.036 34.392 169.036 34.392 166.822ZM40.3019 165.238C40.2749 164.572 39.7979 164.5 39.1229 164.617L39.1319 165.085C39.6449 165.04 39.6539 165.283 39.6539 165.679V169H40.3469V166.3C40.3469 165.616 40.9229 165.148 41.5439 165.148C41.8769 165.148 42.1829 165.256 42.4619 165.436L42.6329 164.842C42.3359 164.626 41.9939 164.518 41.6159 164.518C41.0399 164.518 40.5449 164.707 40.3019 165.238ZM45.3959 164.563C44.2079 164.563 43.2179 165.346 43.1729 166.714C43.1279 168.19 44.1449 169.099 45.5849 169.099C46.1159 169.099 46.6649 168.973 47.1779 168.73L47.0699 168.199C46.5659 168.406 46.0979 168.514 45.6029 168.514C44.6219 168.514 43.8299 167.902 43.8749 166.903H47.3219C47.5649 165.472 46.8719 164.572 45.3959 164.563ZM45.3959 165.121C46.1699 165.121 46.7729 165.544 46.7279 166.363H43.9019C44.0189 165.58 44.6039 165.121 45.3959 165.121ZM54.4364 166.588C55.3184 166.372 55.9394 165.688 55.9394 164.716C55.9394 163.573 55.0844 162.691 53.7884 162.691H51.2774V169H52.0334V166.687H53.6804L55.4264 169H56.2184V168.892L54.4364 166.588ZM52.0244 166.066V163.357H53.7884C54.6074 163.357 55.2104 163.897 55.2104 164.707C55.2104 165.526 54.5894 166.066 53.7884 166.066H52.0244ZM60.2145 168.217C60.2145 169.009 60.5565 169.144 61.2765 169.027L61.2675 168.568C60.7365 168.64 60.7635 168.361 60.7635 167.884V166.075C60.7905 164.941 59.8455 164.563 58.8645 164.563C58.2885 164.563 57.7395 164.671 57.3165 164.887L57.4335 165.445C57.8025 165.229 58.2615 165.13 58.7565 165.13C59.3505 165.13 60.1245 165.328 60.1245 166.057V166.588C59.6925 166.345 59.1255 166.228 58.6305 166.228C57.7305 166.228 56.9475 166.741 56.9745 167.731C57.0015 168.604 57.7035 169.072 58.5045 169.072C59.1615 169.072 59.8995 168.82 60.2145 168.217ZM60.1155 167.533C59.9715 168.181 59.1975 168.469 58.6305 168.469C58.1445 168.469 57.6945 168.253 57.6675 167.704C57.6405 167.083 58.1715 166.768 58.7475 166.768C59.1885 166.768 59.7195 166.894 60.1155 167.119V167.533ZM66.442 169V166.426C66.442 165.364 65.848 164.572 64.705 164.572C64.093 164.572 63.562 164.725 63.175 165.31C63.175 164.473 62.509 164.581 62.005 164.653L62.014 165.211C62.473 165.166 62.518 165.319 62.518 165.904V169H63.22V166.399C63.22 165.67 63.778 165.157 64.516 165.157C65.227 165.157 65.731 165.643 65.731 166.426V169H66.442ZM71.0919 169.36C71.0919 170.413 70.4709 170.8 69.7239 170.809C69.1839 170.818 68.5809 170.629 68.0859 170.359L67.9689 170.917C68.5269 171.232 69.1569 171.403 69.7329 171.403C70.8399 171.403 71.7759 170.791 71.7759 169.306V164.995C71.2359 164.752 70.6599 164.599 70.0479 164.599C68.7069 164.599 67.6629 165.328 67.6629 166.849C67.6629 168.325 68.5809 169.162 69.7059 169.126C70.1469 169.117 70.6239 168.973 71.0919 168.676V169.36ZM71.0829 168.064C70.6689 168.37 70.2279 168.523 69.8229 168.523C69.0219 168.532 68.3649 167.956 68.3649 166.84C68.3649 165.733 69.1299 165.193 70.0299 165.193C70.3809 165.193 70.7319 165.265 71.0829 165.4V168.064ZM75.2425 164.563C74.0545 164.563 73.0645 165.346 73.0195 166.714C72.9745 168.19 73.9915 169.099 75.4315 169.099C75.9625 169.099 76.5115 168.973 77.0245 168.73L76.9165 168.199C76.4125 168.406 75.9445 168.514 75.4495 168.514C74.4685 168.514 73.6765 167.902 73.7215 166.903H77.1685C77.4115 165.472 76.7185 164.572 75.2425 164.563ZM75.2425 165.121C76.0165 165.121 76.6195 165.544 76.5745 166.363H73.7485C73.8655 165.58 74.4505 165.121 75.2425 165.121Z" fill="#2C2C2C"/>
<g filter="url(#filter0_f_9512_24027)">
<path d="M113.942 167.979C114.06 169.333 115.081 170.129 116.414 170.129C118.027 170.129 119.016 169.086 119.016 167.646C119.016 166.431 118.081 165.399 116.834 165.431L119.005 162.615V162.475H114.275V163.238H117.618L115.554 165.904V166.108C116.823 165.775 118.167 166.313 118.167 167.646C118.156 168.721 117.446 169.344 116.404 169.344C115.501 169.344 114.845 168.893 114.727 167.979H113.942ZM123.382 162.367C121.823 162.367 120.598 163.346 120.598 164.958V167.538C120.598 169.161 121.823 170.129 123.382 170.129C124.919 170.129 126.145 169.161 126.145 167.538V164.958C126.145 163.346 124.919 162.367 123.382 162.367ZM123.382 169.344C122.49 169.344 121.791 168.903 121.565 168.129C121.49 167.904 121.447 167.635 121.447 167.323V165.173C121.447 164.861 121.49 164.593 121.565 164.367C121.791 163.593 122.49 163.141 123.382 163.141C124.242 163.141 124.962 163.593 125.188 164.367C125.263 164.593 125.306 164.861 125.306 165.173V167.323C125.306 167.635 125.263 167.904 125.188 168.129C124.962 168.903 124.242 169.344 123.382 169.344ZM130.673 162.367C129.114 162.367 127.889 163.346 127.889 164.958V167.538C127.889 169.161 129.114 170.129 130.673 170.129C132.21 170.129 133.436 169.161 133.436 167.538V164.958C133.436 163.346 132.21 162.367 130.673 162.367ZM130.673 169.344C129.781 169.344 129.082 168.903 128.856 168.129C128.781 167.904 128.738 167.635 128.738 167.323V165.173C128.738 164.861 128.781 164.593 128.856 164.367C129.082 163.593 129.781 163.141 130.673 163.141C131.533 163.141 132.253 163.593 132.479 164.367C132.554 164.593 132.597 164.861 132.597 165.173V167.323C132.597 167.635 132.554 167.904 132.479 168.129C132.253 168.903 131.533 169.344 130.673 169.344Z" fill="#707070"/>
</g>
<rect x="98.0586" y="160.303" width="10.7583" height="10.75" fill="#E15825"/>
<g filter="url(#filter1_f_9512_24027)">
<path d="M165.233 162.475H160.213V163.27H164.019L160.858 170H161.772L165.233 162.604V162.475ZM168.443 163.141C170.153 163.141 170.099 164.808 169.185 165.926L166.078 169.806V170H170.819V169.204H167.54L169.991 166.184C170.54 165.496 170.712 164.743 170.636 164.098C170.55 163.141 169.798 162.367 168.465 162.367C167.014 162.367 166.293 163.098 166.218 164.442H166.971C167.046 163.539 167.54 163.141 168.443 163.141ZM172.141 167.979C172.26 169.333 173.281 170.129 174.614 170.129C176.226 170.129 177.215 169.086 177.215 167.646C177.215 166.431 176.28 165.399 175.033 165.431L177.205 162.615V162.475H172.475V163.238H175.818L173.754 165.904V166.108C175.022 165.775 176.366 166.313 176.366 167.646C176.355 168.721 175.646 169.344 174.603 169.344C173.7 169.344 173.044 168.893 172.926 167.979H172.141Z" fill="#707070"/>
</g>
<rect x="144.448" y="160.303" width="10.7583" height="10.75" fill="#E5862E"/>
<g filter="url(#filter2_f_9512_24027)">
<path d="M209.624 162.475H204.604V163.27H208.409L205.249 170H206.163L209.624 162.604V162.475ZM214.459 168.42H215.233V167.689H214.459V162.582H213.578L209.762 168.033V168.42H213.642V170.108H214.459V168.42ZM213.728 163.593L213.696 165.829V167.721H210.837L213.718 163.593H213.728ZM220.521 165.797C221.123 165.506 221.575 165.001 221.575 164.27C221.575 163.131 220.596 162.367 219.296 162.367C217.995 162.367 217.038 163.141 217.038 164.281C217.049 165.012 217.49 165.517 218.059 165.786C217.21 166.098 216.554 166.764 216.554 167.807C216.554 169.28 217.737 170.108 219.296 170.108C220.865 170.108 222.037 169.172 222.037 167.807C222.026 166.743 221.381 166.13 220.521 165.797ZM219.296 165.506C218.532 165.506 217.834 165.076 217.834 164.302C217.834 163.528 218.554 163.088 219.296 163.088C220.07 163.088 220.768 163.528 220.768 164.292C220.768 165.066 220.059 165.506 219.296 165.506ZM219.296 169.355C218.328 169.355 217.436 168.774 217.436 167.785C217.436 166.786 218.307 166.194 219.296 166.194C220.274 166.194 221.166 166.775 221.166 167.775C221.166 168.774 220.274 169.355 219.296 169.355Z" fill="#707070"/>
</g>
<rect x="188.839" y="161.072" width="10.7583" height="10.75" fill="#E7B92E"/>
<g filter="url(#filter3_f_9512_24027)">
<path d="M254.011 162.475H248.991V163.27H252.796L249.636 170H250.549L254.011 162.604V162.475ZM257.283 162.443L254.886 166.108C254.574 166.571 254.424 167.087 254.424 167.635C254.424 169.247 255.649 170.097 257.154 170.097C258.659 170.097 259.906 169.247 259.906 167.635C259.906 166.087 258.745 165.195 257.283 165.227C256.95 165.227 256.617 165.302 256.326 165.474L258.272 162.443H257.283ZM257.154 169.323C256.122 169.323 255.305 168.71 255.305 167.635C255.305 166.549 256.111 165.936 257.143 165.936C258.197 165.936 259.014 166.549 259.014 167.635C259.014 168.71 258.197 169.323 257.154 169.323ZM262.195 163.281H265.785V162.475H261.378V166.108C261.883 165.947 262.56 165.872 263.248 165.872C264.313 165.872 265.345 166.248 265.345 167.635C265.345 168.914 264.388 169.323 263.625 169.323C262.765 169.323 262.12 168.871 262.023 168.043H261.174C261.292 169.409 262.335 170.118 263.635 170.118C265.205 170.118 266.226 169.129 266.226 167.613C266.28 165.764 264.85 165.087 263.345 165.087C262.947 165.087 262.571 165.13 262.195 165.227V163.281Z" fill="#707070"/>
</g>
<rect x="233.226" y="160.303" width="10.7583" height="10.75" fill="#A9D161"/>
<g filter="url(#filter4_f_9512_24027)">
<path d="M298.4 162.475H293.38V163.27H297.186L294.025 170H294.939L298.4 162.604V162.475ZM304.169 162.475H299.149V163.27H302.954L299.794 170H300.707L304.169 162.604V162.475ZM309.067 165.797C309.669 165.506 310.12 165.001 310.12 164.27C310.12 163.131 309.142 162.367 307.841 162.367C306.54 162.367 305.584 163.141 305.584 164.281C305.594 165.012 306.035 165.517 306.605 165.786C305.756 166.098 305.1 166.764 305.1 167.807C305.1 169.28 306.282 170.108 307.841 170.108C309.411 170.108 310.582 169.172 310.582 167.807C310.572 166.743 309.927 166.13 309.067 165.797ZM307.841 165.506C307.078 165.506 306.379 165.076 306.379 164.302C306.379 163.528 307.099 163.088 307.841 163.088C308.615 163.088 309.314 163.528 309.314 164.292C309.314 165.066 308.604 165.506 307.841 165.506ZM307.841 169.355C306.874 169.355 305.981 168.774 305.981 167.785C305.981 166.786 306.852 166.194 307.841 166.194C308.819 166.194 309.712 166.775 309.712 167.775C309.712 168.774 308.819 169.355 307.841 169.355Z" fill="#707070"/>
</g>
<rect x="277.615" y="161.84" width="10.7583" height="10.75" fill="#009900"/>
<path d="M14 64.8875C14 62.9109 15.6023 61.3086 17.5789 61.3086H56.0526V99.4594H17.5789C15.6024 99.4594 14 97.8571 14 95.8805V64.8875Z" fill="#D74025"/>
<rect x="59.6318" y="61.3086" width="64.4211" height="38.1508" fill="#E5862E"/>
<rect x="127.632" y="61.3086" width="76.0526" height="38.1508" fill="#E7B92E"/>
<rect x="207.263" y="61.3086" width="51.8947" height="38.1508" fill="#A9D161"/>
<path d="M262.736 61.3086H316.421C318.397 61.3086 319.999 62.9109 319.999 64.8875V95.8805C319.999 97.8571 318.397 99.4594 316.421 99.4594H262.736V61.3086Z" fill="#009900"/>
<rect width="9.76355" height="9.76355" transform="matrix(0.710078 -0.704123 0.710078 0.704123 158.947 100.125)" fill="white"/>
<path d="M27.0794 49.1928V55.2914H25.5977V56H29.42V55.2914H27.9276V48.4842H25.7695V49.1928H27.0794ZM31.6065 49.2895H35.1926V48.4842H30.7905V52.1133C31.2951 51.9522 31.9715 51.8771 32.6587 51.8771C33.7216 51.8771 34.7524 52.2528 34.7524 53.6379C34.7524 54.9156 33.7968 55.3236 33.0345 55.3236C32.1755 55.3236 31.5313 54.8726 31.4347 54.0459H30.5865C30.7046 55.4095 31.7461 56.1181 33.0452 56.1181C34.6128 56.1181 35.6328 55.1303 35.6328 53.6164C35.6865 51.7697 34.2585 51.0933 32.7553 51.0933C32.3581 51.0933 31.9823 51.1362 31.6065 51.2328V49.2895ZM38.6185 56.0107H39.4667L43.1387 48.5057H42.3012L38.6185 56.0107ZM44.9962 54.368C44.9962 51.9952 41.4423 51.9844 41.4423 54.368C41.4423 56.7408 44.9962 56.7408 44.9962 54.368ZM42.1294 54.368C42.1294 52.8112 44.2983 52.8112 44.2983 54.368C44.2983 55.9248 42.1294 55.9248 42.1294 54.368ZM40.3364 50.1484C40.3364 47.7541 36.7825 47.7648 36.7825 50.1484C36.7825 52.532 40.3364 52.532 40.3364 50.1484ZM37.4804 50.1484C37.4804 48.5916 39.6492 48.5916 39.6492 50.1484C39.6492 51.7053 37.4804 51.7053 37.4804 50.1484Z" fill="black"/>
<path d="M83.4283 49.1499C85.1355 49.1499 85.0818 50.8141 84.1692 51.9307L81.0662 55.8067V56H85.8012V55.2055H82.5264L84.9744 52.1884C85.522 51.5013 85.6938 50.7497 85.6186 50.1055C85.5327 49.1499 84.7812 48.3768 83.4498 48.3768C82.0003 48.3768 81.281 49.1069 81.2058 50.4491H81.9574C82.0325 49.5472 82.5264 49.1499 83.4283 49.1499ZM89.4623 49.1499C91.1695 49.1499 91.1158 50.8141 90.2032 51.9307L87.1002 55.8067V56H91.8352V55.2055H88.5604L91.0084 52.1884C91.556 51.5013 91.7278 50.7497 91.6527 50.1055C91.5668 49.1499 90.8152 48.3768 89.4838 48.3768C88.0343 48.3768 87.315 49.1069 87.2398 50.4491H87.9914C88.0666 49.5472 88.5604 49.1499 89.4623 49.1499ZM94.8736 56.0107H95.7218L99.3938 48.5057H98.5564L94.8736 56.0107ZM101.251 54.368C101.251 51.9952 97.6974 51.9844 97.6974 54.368C97.6974 56.7408 101.251 56.7408 101.251 54.368ZM98.3846 54.368C98.3846 52.8112 100.553 52.8112 100.553 54.368C100.553 55.9248 98.3846 55.9248 98.3846 54.368ZM96.5915 50.1484C96.5915 47.7541 93.0376 47.7648 93.0376 50.1484C93.0376 52.532 96.5915 52.532 96.5915 50.1484ZM93.7355 50.1484C93.7355 48.5916 95.9044 48.5916 95.9044 50.1484C95.9044 51.7053 93.7355 51.7053 93.7355 50.1484Z" fill="black"/>
<path d="M156.537 49.1499C158.244 49.1499 158.19 50.8141 157.278 51.9307L154.175 55.8067V56H158.91V55.2055H155.635L158.083 52.1884C158.63 51.5013 158.802 50.7497 158.727 50.1055C158.641 49.1499 157.89 48.3768 156.558 48.3768C155.109 48.3768 154.389 49.1069 154.314 50.4491H155.066C155.141 49.5472 155.635 49.1499 156.537 49.1499ZM162.99 48.452L160.595 52.1133C160.284 52.5749 160.134 53.0903 160.134 53.6379C160.134 55.2484 161.358 56.0966 162.861 56.0966C164.364 56.0966 165.609 55.2484 165.609 53.6379C165.609 52.0918 164.45 51.2006 162.99 51.2328C162.657 51.2328 162.324 51.308 162.034 51.4798L163.977 48.452H162.99ZM162.861 55.3236C161.83 55.3236 161.014 54.7116 161.014 53.6379C161.014 52.5535 161.819 51.9415 162.85 51.9415C163.902 51.9415 164.718 52.5535 164.718 53.6379C164.718 54.7116 163.902 55.3236 162.861 55.3236ZM168.464 56.0107H169.313L172.985 48.5057H172.147L168.464 56.0107ZM174.842 54.368C174.842 51.9952 171.288 51.9844 171.288 54.368C171.288 56.7408 174.842 56.7408 174.842 54.368ZM171.975 54.368C171.975 52.8112 174.144 52.8112 174.144 54.368C174.144 55.9248 171.975 55.9248 171.975 54.368ZM170.182 50.1484C170.182 47.7541 166.628 47.7648 166.628 50.1484C166.628 52.532 170.182 52.532 170.182 50.1484ZM167.326 50.1484C167.326 48.5916 169.495 48.5916 169.495 50.1484C169.495 51.7053 167.326 51.7053 167.326 50.1484Z" fill="black"/>
<path d="M224.611 49.1928V55.2914H223.13V56H226.952V55.2914H225.459V48.4842H223.301V49.1928H224.611ZM232.016 51.8019C232.617 51.512 233.068 51.0074 233.068 50.2773C233.068 49.1392 232.091 48.3768 230.792 48.3768C229.493 48.3768 228.537 49.1499 228.537 50.288C228.548 51.0181 228.988 51.5227 229.557 51.7912C228.709 52.1025 228.054 52.7682 228.054 53.8097C228.054 55.2806 229.235 56.1074 230.792 56.1074C232.359 56.1074 233.53 55.1733 233.53 53.8097C233.519 52.7467 232.875 52.1347 232.016 51.8019ZM230.792 51.512C230.03 51.512 229.332 51.0825 229.332 50.3095C229.332 49.5364 230.051 49.0962 230.792 49.0962C231.565 49.0962 232.263 49.5364 232.263 50.2987C232.263 51.0718 231.554 51.512 230.792 51.512ZM230.792 55.3558C229.826 55.3558 228.934 54.776 228.934 53.7882C228.934 52.7897 229.804 52.1992 230.792 52.1992C231.769 52.1992 232.66 52.7789 232.66 53.7775C232.66 54.776 231.769 55.3558 230.792 55.3558ZM236.559 56.0107H237.407L241.079 48.5057H240.242L236.559 56.0107ZM242.937 54.368C242.937 51.9952 239.383 51.9844 239.383 54.368C239.383 56.7408 242.937 56.7408 242.937 54.368ZM240.07 54.368C240.07 52.8112 242.239 52.8112 242.239 54.368C242.239 55.9248 240.07 55.9248 240.07 54.368ZM238.277 50.1484C238.277 47.7541 234.723 47.7648 234.723 50.1484C234.723 52.532 238.277 52.532 238.277 50.1484ZM235.421 50.1484C235.421 48.5916 237.59 48.5916 237.59 50.1484C237.59 51.7053 235.421 51.7053 235.421 50.1484Z" fill="black"/>
<path d="M282.811 49.1499C284.518 49.1499 284.465 50.8141 283.552 51.9307L280.449 55.8067V56H285.184V55.2055H281.909L284.357 52.1884C284.905 51.5013 285.077 50.7497 285.002 50.1055C284.916 49.1499 284.164 48.3768 282.833 48.3768C281.383 48.3768 280.664 49.1069 280.589 50.4491H281.34C281.415 49.5472 281.909 49.1499 282.811 49.1499ZM289.532 48.3768C287.976 48.3768 286.752 49.3539 286.752 50.9644V53.5413C286.752 55.1625 287.976 56.1288 289.532 56.1288C291.068 56.1288 292.292 55.1625 292.292 53.5413V50.9644C292.292 49.3539 291.068 48.3768 289.532 48.3768ZM289.532 55.3451C288.641 55.3451 287.943 54.9048 287.718 54.1318C287.643 53.9063 287.6 53.6379 287.6 53.3265V51.1792C287.6 50.8678 287.643 50.5994 287.718 50.3739C287.943 49.6008 288.641 49.1499 289.532 49.1499C290.391 49.1499 291.111 49.6008 291.336 50.3739C291.411 50.5994 291.454 50.8678 291.454 51.1792V53.3265C291.454 53.6379 291.411 53.9063 291.336 54.1318C291.111 54.9048 290.391 55.3451 289.532 55.3451ZM295.504 56.0107H296.353L300.025 48.5057H299.187L295.504 56.0107ZM301.882 54.368C301.882 51.9952 298.328 51.9844 298.328 54.368C298.328 56.7408 301.882 56.7408 301.882 54.368ZM299.015 54.368C299.015 52.8112 301.184 52.8112 301.184 54.368C301.184 55.9248 299.015 55.9248 299.015 54.368ZM297.222 50.1484C297.222 47.7541 293.668 47.7648 293.668 50.1484C293.668 52.532 297.222 52.532 297.222 50.1484ZM294.366 50.1484C294.366 48.5916 296.535 48.5916 296.535 50.1484C296.535 51.7053 294.366 51.7053 294.366 50.1484Z" fill="black"/>
<defs>
<filter id="filter0_f_9512_24027" x="106.263" y="154.689" width="34.8513" height="23.1184" filterUnits="userSpaceOnUse" color-interpolation-filters="sRGB">
<feFlood flood-opacity="0" result="BackgroundImageFix"/>
<feBlend mode="normal" in="SourceGraphic" in2="BackgroundImageFix" result="shape"/>
<feGaussianBlur stdDeviation="3.83929" result="effect1_foregroundBlur_9512_24027"/>
</filter>
<filter id="filter1_f_9512_24027" x="152.534" y="154.689" width="32.3591" height="23.1184" filterUnits="userSpaceOnUse" color-interpolation-filters="sRGB">
<feFlood flood-opacity="0" result="BackgroundImageFix"/>
<feBlend mode="normal" in="SourceGraphic" in2="BackgroundImageFix" result="shape"/>
<feGaussianBlur stdDeviation="3.83929" result="effect1_foregroundBlur_9512_24027"/>
</filter>
<filter id="filter2_f_9512_24027" x="196.925" y="154.689" width="32.7907" height="23.0969" filterUnits="userSpaceOnUse" color-interpolation-filters="sRGB">
<feFlood flood-opacity="0" result="BackgroundImageFix"/>
<feBlend mode="normal" in="SourceGraphic" in2="BackgroundImageFix" result="shape"/>
<feGaussianBlur stdDeviation="3.83929" result="effect1_foregroundBlur_9512_24027"/>
</filter>
<filter id="filter3_f_9512_24027" x="241.312" y="154.764" width="32.6472" height="23.0324" filterUnits="userSpaceOnUse" color-interpolation-filters="sRGB">
<feFlood flood-opacity="0" result="BackgroundImageFix"/>
<feBlend mode="normal" in="SourceGraphic" in2="BackgroundImageFix" result="shape"/>
<feGaussianBlur stdDeviation="3.83929" result="effect1_foregroundBlur_9512_24027"/>
</filter>
<filter id="filter4_f_9512_24027" x="285.701" y="154.689" width="32.5593" height="23.0969" filterUnits="userSpaceOnUse" color-interpolation-filters="sRGB">
<feFlood flood-opacity="0" result="BackgroundImageFix"/>
<feBlend mode="normal" in="SourceGraphic" in2="BackgroundImageFix" result="shape"/>
<feGaussianBlur stdDeviation="3.83929" result="effect1_foregroundBlur_9512_24027"/>
</filter>
</defs>
</svg>
