<svg width="32" height="27" viewBox="0 0 32 27" fill="none" xmlns="http://www.w3.org/2000/svg">
<path d="M17.494 2.84409H3.92923C2.96448 2.84409 2.86906 2.93695 2.86906 3.88938V17.5843C2.86906 18.4916 2.98303 18.603 3.89477 18.603H28.0559C28.9994 18.603 29.116 18.4969 29.116 17.5418C29.116 13.7798 29.1293 10.0179 29.116 6.25588C29.116 5.68282 29.2777 5.52364 29.829 5.56874C30.4196 5.60191 31.0115 5.60191 31.6021 5.56874C31.9122 5.56874 31.997 5.67486 31.997 5.972C31.997 10.0311 32.0156 14.0876 31.9599 18.1441C31.9334 20.0251 30.4068 21.402 28.5144 21.4046C25.0477 21.4046 21.5809 21.4232 18.1142 21.3887C17.5099 21.3887 17.3562 21.5718 17.4065 22.1289C17.445 22.6349 17.445 23.1431 17.4065 23.6491C17.3774 24.0683 17.5232 24.1797 17.9366 24.1797C19.5852 24.1558 21.2337 24.1797 22.8823 24.1585C23.3859 24.1585 23.6138 24.2513 23.5608 24.8058C23.5166 25.3355 23.5166 25.8679 23.5608 26.3976C23.5952 26.8646 23.4574 27.0052 22.9697 26.9999C19.7893 26.976 16.63 26.9999 13.4574 26.9999C11.9573 26.9999 10.4572 26.9813 8.95175 26.9999C8.51708 26.9999 8.40841 26.8619 8.42167 26.4693C8.45877 25.8995 8.45877 25.3278 8.42167 24.7581C8.37926 24.2513 8.59129 24.1691 9.03921 24.177C10.6878 24.2009 12.3363 24.177 13.9849 24.1983C14.4646 24.1983 14.6263 24.0709 14.5786 23.596C14.5097 22.8877 14.8754 21.9352 14.4301 21.5346C14.0405 21.1818 13.1049 21.4206 12.4132 21.4179C9.45267 21.4179 6.49482 21.4179 3.53432 21.4179C1.55446 21.4126 0.0437317 20.0171 0.0278293 18.0247C-0.00927642 13.1431 -0.00927642 8.26156 0.0278293 3.38C0.0463821 1.44064 1.57037 5.07332e-05 3.51046 5.07332e-05C11.838 5.07332e-05 20.1656 5.07332e-05 28.4932 5.07332e-05C29.1849 -0.00370396 29.8617 0.201031 30.4356 0.587614C31.0095 0.974197 31.4538 1.52473 31.7108 2.16757C31.9573 2.79368 31.9281 2.83878 31.2602 2.83878H17.494V2.84409Z" fill="#00A5C9"/>
<path d="M22.9673 10.7157C22.9673 12.2571 22.9514 13.7985 22.9673 15.3426C22.9673 15.7671 22.84 15.8732 22.4372 15.8732C21.8249 15.8414 21.21 15.8546 20.5978 15.8732C20.293 15.8732 20.1419 15.8228 20.1446 15.462C20.1552 12.3155 20.1552 9.16726 20.1446 6.01723C20.1446 5.68295 20.2585 5.57949 20.5845 5.5901C21.218 5.61132 21.8541 5.62193 22.4875 5.5901C22.9036 5.56622 22.9726 5.73601 22.9673 6.10213C22.9567 7.63027 22.9673 9.17168 22.9673 10.7157Z" fill="#00A5C9"/>
<path d="M17.4076 12.5967C17.4076 13.5252 17.4076 14.4538 17.4076 15.3823C17.4076 15.7193 17.3414 15.8785 16.9597 15.8625C16.2865 15.8334 15.6107 15.844 14.9348 15.8625C14.6698 15.8625 14.5664 15.7776 14.5664 15.5017C14.5664 13.5809 14.5664 11.6619 14.5664 9.74467C14.5664 9.46345 14.6857 9.38386 14.9481 9.38916C15.6239 9.38916 16.2971 9.40773 16.973 9.38916C17.3043 9.38916 17.4129 9.49263 17.4076 9.8216C17.3944 10.7422 17.405 11.6734 17.4076 12.5967Z" fill="#00A5C9"/>
<path d="M9.01411 14.1247C9.06182 13.7162 8.79412 13.0635 9.11747 12.7558C9.44082 12.448 10.0822 12.6735 10.5831 12.6682C11.8235 12.6682 11.8235 12.6682 11.8235 13.9178C11.8235 14.4033 11.797 14.8915 11.8235 15.3743C11.8527 15.7829 11.691 15.8784 11.3173 15.8625C10.7055 15.8306 10.0924 15.8306 9.48058 15.8625C9.06712 15.889 8.9717 15.7272 8.99821 15.3557C9.02471 14.9843 9.01411 14.5917 9.01411 14.1247Z" fill="#00A5C9"/>
</svg>
