<svg width="25" height="29" viewBox="0 0 25 29" fill="none" xmlns="http://www.w3.org/2000/svg">
<path d="M0.492239 1.24828C0.146156 1.66356 -0.0285248 2.1952 0.00380365 2.73482V26.2222C-0.0285248 26.7618 0.146156 27.2935 0.492239 27.7087L0.577185 27.7937L13.7331 14.6272V14.3086L0.577185 1.16333L0.492239 1.24828Z" fill="url(#paint0_linear_2561_3455)"/>
<path d="M18.1177 19.0231L13.7324 14.6272V14.3086L18.1177 9.92334L18.2133 9.98705L23.3631 12.9495C24.8496 13.7884 24.8496 15.1687 23.3631 16.0075L18.1708 18.9594L18.1177 19.0231Z" fill="url(#paint1_linear_2561_3455)"/>
<path d="M18.2159 18.9594L13.735 14.4785L0.494141 27.7087C0.796189 27.977 1.18303 28.1304 1.58685 28.1421C1.99067 28.1537 2.38571 28.0229 2.70272 27.7725L18.2159 18.9594Z" fill="url(#paint2_linear_2561_3455)"/>
<path d="M18.2159 9.99763L2.70272 1.18455C2.38571 0.934131 1.99067 0.803276 1.58685 0.814925C1.18303 0.826573 0.796189 0.979983 0.494141 1.24826L13.735 14.4785L18.2159 9.99763Z" fill="url(#paint3_linear_2561_3455)"/>
<path opacity="0.2" d="M18.1203 18.8743L2.70272 27.6236C2.39686 27.8545 2.0241 27.9794 1.6409 27.9794C1.25771 27.9794 0.884948 27.8545 0.579086 27.6236L0.494141 27.698L0.579086 27.7829C0.884236 28.0154 1.25727 28.1413 1.6409 28.1413C2.02454 28.1413 2.39757 28.0154 2.70272 27.7829L18.2159 18.9698L18.1203 18.8743Z" fill="black"/>
<path opacity="0.12" d="M0.492855 27.5601C0.14418 27.1421 -0.0306664 26.6062 0.00441913 26.063V26.2223C-0.0279093 26.7619 0.146772 27.2935 0.492855 27.7088L0.5778 27.6345L0.492855 27.5601Z" fill="black"/>
<path opacity="0.12" d="M23.3638 15.8589L18.0547 18.8638L18.1503 18.9594L23.3638 16.0075C23.6695 15.8759 23.9343 15.6646 24.1304 15.3956C24.3266 15.1266 24.4468 14.8099 24.4787 14.4785C24.4134 14.7796 24.2786 15.0613 24.085 15.301C23.8914 15.5406 23.6444 15.7317 23.3638 15.8589Z" fill="black"/>
<path opacity="0.25" d="M2.70092 1.33546L23.3639 13.1004C23.6445 13.2276 23.8915 13.4186 24.0851 13.6583C24.2787 13.898 24.4135 14.1796 24.4788 14.4808C24.4469 14.1494 24.3267 13.8327 24.1305 13.5637C23.9344 13.2947 23.6696 13.0834 23.3639 12.9517L2.70092 1.18681C1.21438 0.337354 0.00390625 1.03815 0.00390625 2.73706V2.94942C0.00390625 1.19743 1.21438 0.496626 2.70092 1.33546Z" fill="white"/>
<defs>
<linearGradient id="paint0_linear_2561_3455" x1="12.5651" y1="2.4906" x2="-5.26281" y2="20.3079" gradientUnits="userSpaceOnUse">
<stop stop-color="#00A0FF"/>
<stop offset="0.01" stop-color="#00A1FF"/>
<stop offset="0.26" stop-color="#00BEFF"/>
<stop offset="0.51" stop-color="#00D2FF"/>
<stop offset="0.76" stop-color="#00DFFF"/>
<stop offset="1" stop-color="#00E3FF"/>
</linearGradient>
<linearGradient id="paint1_linear_2561_3455" x1="25.3381" y1="14.4785" x2="-0.357884" y2="14.4785" gradientUnits="userSpaceOnUse">
<stop stop-color="#FFE000"/>
<stop offset="0.41" stop-color="#FFBD00"/>
<stop offset="0.78" stop-color="#FFA500"/>
<stop offset="1" stop-color="#FF9C00"/>
</linearGradient>
<linearGradient id="paint2_linear_2561_3455" x1="15.7737" y1="16.9207" x2="-8.38264" y2="41.077" gradientUnits="userSpaceOnUse">
<stop stop-color="#FF3A44"/>
<stop offset="1" stop-color="#C31162"/>
</linearGradient>
<linearGradient id="paint3_linear_2561_3455" x1="-2.83996" y1="-6.56671" x2="7.95871" y2="4.22135" gradientUnits="userSpaceOnUse">
<stop stop-color="#32A071"/>
<stop offset="0.07" stop-color="#2DA771"/>
<stop offset="0.48" stop-color="#15CF74"/>
<stop offset="0.8" stop-color="#06E775"/>
<stop offset="1" stop-color="#00F076"/>
</linearGradient>
</defs>
</svg>
