<svg width="32" height="28" viewBox="0 0 32 28" fill="none" xmlns="http://www.w3.org/2000/svg">
<path d="M16.0648 23.4836C11.4127 23.4836 1.21559 23.486 0.976808 23.4839C0.738027 23.4817 0.499243 23.3706 0.499243 23.0127C0.499243 22.4424 0.499243 21.9793 0.499243 21.3789C0.499243 21.1082 0.738028 20.9763 0.976809 20.9763C1.21559 20.9763 31.0633 20.9763 31.0633 20.9763C31.0633 20.9763 31.53 20.9763 31.5342 21.3671C31.5408 21.9793 31.5342 22.4808 31.5342 23.0575C31.5408 23.4839 31.3021 23.4839 31.0634 23.4839C30.8246 23.4839 20.7248 23.4836 16.0648 23.4836Z" fill="#00A5C9"/>
<path d="M16.0648 27.9987C11.4127 27.9987 1.21559 28.0012 0.976808 27.999C0.738027 27.9968 0.499243 27.8857 0.499243 27.5279C0.499243 26.9576 0.499243 26.4944 0.499243 25.894C0.499243 25.6233 0.738028 25.4915 0.976809 25.4915C1.21559 25.4915 31.0633 25.4915 31.0633 25.4915C31.0633 25.4915 31.53 25.4915 31.5342 25.8823C31.5408 26.4945 31.5342 26.996 31.5342 27.5726C31.5408 27.999 31.3021 27.999 31.0634 27.999C30.8246 27.999 20.7248 27.9987 16.0648 27.9987Z" fill="#00A5C9"/>
<path fill-rule="evenodd" clip-rule="evenodd" d="M13.4331 0.183767C9.28576 0.952491 5.68894 3.30245 3.21165 6.86191C1.33061 9.56455 0.20913 12.8561 0.0307924 16.1985C-0.0567262 17.8378 0.0122138 18.1012 0.637067 18.5136C0.999609 18.7527 1.27781 18.7706 4.66292 18.771L8.29934 18.7715V17.3163V15.8612H5.47724H2.65513L2.73764 15.299C3.09187 12.8855 3.92476 10.7059 5.24671 8.73326L5.63516 8.15344L7.08997 9.72383L8.54479 11.2941L9.49013 10.271L10.4355 9.24785L8.98458 7.67337L7.53356 6.09888L8.0693 5.67847C9.89216 4.24765 11.9567 3.32256 14.136 2.96009L14.6554 2.87371V5.06809V7.26248H16H17.3446V5.06809V2.87371L17.864 2.96128C18.8869 3.13365 19.9899 3.46675 21.0527 3.9242L22.1329 4.38919L23.1059 3.34544L24.0787 2.30169L22.7695 1.61578C20.6144 0.486707 18.4469 -0.0212781 15.8778 0.000681665C15.0374 0.00795749 13.9373 0.0902398 13.4331 0.183767ZM20.5229 10.2387L14.8403 16.3898L15.7871 17.4145L16.7338 18.4391L21.4925 13.2902C25.5623 8.88671 26.2782 8.16561 26.4381 8.30927C26.785 8.62081 27.9019 10.6284 28.3081 11.6707C28.7045 12.6873 29.0996 14.1897 29.2624 15.299L29.3449 15.8612H26.645H23.9451V17.3163V18.7715L27.4593 18.771C30.7234 18.7706 31.0012 18.7522 31.3629 18.5136C31.9878 18.1012 32.0567 17.8378 31.9692 16.1985C31.7487 12.0677 30.1939 8.2762 27.4537 5.18715C26.9172 4.58233 26.4169 4.08758 26.3419 4.08758C26.2668 4.08758 23.6482 6.85556 20.5229 10.2387Z" fill="#00A6CA"/>
</svg>
