<svg width="16" height="16" viewBox="0 0 16 16" fill="none" xmlns="http://www.w3.org/2000/svg">
<path fill-rule="evenodd" clip-rule="evenodd" d="M8.48458 0.315803L10.5377 4.6771C10.6132 4.84184 10.7658 4.95808 10.9446 4.98701L15.5355 5.68637C15.743 5.72664 15.9116 5.87785 15.9742 6.07988C16.0369 6.28191 15.9834 6.50203 15.835 6.65271L12.513 10.0475C12.3847 10.1806 12.327 10.3666 12.3576 10.5489L13.1418 15.3425C13.1846 15.5485 13.1053 15.7609 12.9379 15.8884C12.7705 16.0158 12.5448 16.0358 12.3577 15.9397L8.25146 13.6765C8.09503 13.5897 7.90496 13.5897 7.74853 13.6765L3.64229 15.9397C3.45515 16.0358 3.22948 16.0158 3.06211 15.8884C2.89474 15.7609 2.81543 15.5485 2.85821 15.3425L3.64243 10.5489C3.67295 10.3666 3.61529 10.1806 3.48702 10.0475L0.165002 6.65271C0.0166469 6.50202 -0.036859 6.28191 0.0257552 6.07989C0.0883695 5.87786 0.256957 5.72666 0.464495 5.68639L5.05541 4.98701C5.23421 4.95808 5.38682 4.84184 5.46229 4.6771L7.51541 0.315803C7.6002 0.123833 7.79022 0 7.99999 0C8.20977 0 8.39978 0.123833 8.48458 0.315803Z" fill="#FCC500"/>
</svg>
