<svg width="23" height="16" viewBox="0 0 23 16" fill="none" xmlns="http://www.w3.org/2000/svg">
<path fill-rule="evenodd" clip-rule="evenodd" d="M13.3903 2.12465H3.00751C2.26907 2.12465 2.19604 2.19401 2.19604 2.90552V13.1361C2.19604 13.814 2.28327 13.8972 2.98114 13.8972H19.9437C20.6659 13.8972 20.7552 13.8179 20.7552 13.1044C20.7552 12.1676 20.7563 11.2309 20.7574 10.2941C20.7597 8.42052 20.7619 6.54695 20.7552 4.67338C20.7552 4.24529 20.8789 4.12638 21.3009 4.16007C21.7529 4.18485 22.206 4.18485 22.6581 4.16007C22.8954 4.16007 22.9603 4.23934 22.9603 4.46132C22.9603 4.70113 22.9751 12.4773 23 12.7658C23 15.3941 21.7652 15.9782 19.5182 15.9782C17.2713 15.9782 9.5013 16 9.5013 16H2.70524C1.18982 15.996 0.0334731 14.9536 0.0213011 13.4651C-0.00710037 9.81842 -0.00710037 6.17171 0.0213011 2.52499C0.0355018 1.07622 1.20199 3.78996e-05 2.68698 3.78996e-05H20.2784C20.8079 -0.002767 21.3259 0.150178 21.7652 0.43897C22.2044 0.727763 22.5445 1.13903 22.7412 1.61926C22.9299 2.08699 22.9076 2.12068 22.3964 2.12068H13.3903V2.12465Z" fill="#2C2C2C"/>
<path fill-rule="evenodd" clip-rule="evenodd" d="M6.49755 3.98949C5.07581 4.32381 3.77839 5.5791 3.40124 6.98551C3.25222 7.54132 3.24549 8.61918 3.38794 9.13569C3.54512 9.70573 3.93161 10.399 4.33568 10.8355C5.05885 11.6332 6.49755 12.2493 7.50919 12.2493C9.4248 12.2448 11.2385 10.9086 11.7217 9.14585C11.8701 8.60442 11.8617 7.45488 11.7054 6.9386C11.4866 6.21543 11.0614 5.52695 10.5243 5.02605C9.46478 4.03787 7.95032 3.64802 6.49755 3.98949ZM8.60382 5.76998C9.13578 5.99725 9.70859 6.55213 9.94337 7.06749C10.1956 7.62146 10.2173 8.14581 10.0148 8.79361C9.58902 10.155 8.03299 10.9023 6.66177 10.4041C5.28905 9.90523 4.58804 8.34193 5.16703 7.07065C5.38019 6.60259 5.92212 6.04824 6.3931 5.81636C7.15065 5.44351 7.8074 5.42974 8.60382 5.76998Z" fill="#2C2C2C"/>
<path d="M18.9507 4.51294C19.3727 4.51294 19.7148 4.83365 19.7148 5.22928L19.7148 5.73071C19.7148 6.12633 19.3727 6.44705 18.9507 6.44705L13.9075 6.44705C13.4855 6.44705 13.1434 6.12633 13.1434 5.73071L13.1434 5.22928C13.1434 4.83365 13.4855 4.51294 13.9075 4.51294L18.9507 4.51294Z" fill="#2C2C2C"/>
<path d="M16.373 8.3811C16.7668 8.3811 17.0859 8.70182 17.0859 9.09744L17.0859 9.59888C17.0859 9.9945 16.7668 10.3152 16.373 10.3152L13.856 10.3152C13.4623 10.3152 13.1431 9.9945 13.1431 9.59888L13.1431 9.09744C13.1431 8.70182 13.4623 8.3811 13.856 8.3811L16.373 8.3811Z" fill="#2C2C2C"/>
</svg>
