<svg width="56" height="56" viewBox="0 0 56 56" fill="none" xmlns="http://www.w3.org/2000/svg">
<path d="M28 56C43.464 56 56 43.464 56 28C56 12.536 43.464 0 28 0C12.536 0 0 12.536 0 28C0 43.464 12.536 56 28 56Z" fill="#00A6CA"/>
<path d="M40.937 12.9832L55.9992 27.9995V55.9995H23.7818L14.5859 46.7709L40.937 12.9832Z" fill="#0087A5"/>
<path d="M36.7692 8.75H15.7579C14.6908 8.75 14 9.67313 14 10.7402V45.2603C14 46.3273 14.6908 47.2504 15.7579 47.2504H40.2531C41.3201 47.2504 42.0109 46.3273 42.0109 45.2603V14.0626L36.7692 8.75Z" fill="white"/>
<path d="M26.9932 24.408L26.0159 11.2148C26.0073 11.0988 26.0991 11 26.2154 11H29.9172C29.9702 11 30.0211 11.0211 30.0586 11.0586L41.9414 22.9414C41.9789 22.9789 42 23.0298 42 23.0828V35.1053C42 35.2691 41.8138 35.3635 41.6817 35.2666L27.0744 24.5545C27.0272 24.5199 26.9975 24.4664 26.9932 24.408Z" fill="#DDE1F1"/>
<path d="M27 29.0005L32 32.9353H18.375L21.3138 35.9516L18.375 36.4259L21.0979 39.2481L18.375 39.9166L22.7172 44.375H42V36.4259L30 27.0005H29.5L27 28.0005V29.0005Z" fill="#DDE1F1"/>
<path d="M38.5817 14.0604L42.0112 14.0626L36.7695 8.75V12.2325C36.7695 13.2991 37.5242 14.0604 38.5817 14.0604Z" fill="#C2DFDD"/>
<path d="M36.75 33.6562H19.25C18.8877 33.6562 18.5938 33.3622 18.5938 33C18.5938 32.6377 18.8877 32.3438 19.25 32.3438H36.75C37.1122 32.3438 37.4062 32.6377 37.4062 33C37.4062 33.3622 37.1122 33.6562 36.75 33.6562Z" fill="#495260"/>
<path d="M36.75 37.1562H19.25C18.8877 37.1562 18.5938 36.8622 18.5938 36.5C18.5938 36.1377 18.8877 35.8438 19.25 35.8438H36.75C37.1122 35.8438 37.4062 36.1377 37.4062 36.5C37.4062 36.8622 37.1122 37.1562 36.75 37.1562Z" fill="#495260"/>
<path d="M36.75 40.6562H19.25C18.8877 40.6562 18.5938 40.3622 18.5938 40C18.5938 39.6377 18.8877 39.3438 19.25 39.3438H36.75C37.1122 39.3438 37.4062 39.6377 37.4062 40C37.4062 40.3622 37.1122 40.6562 36.75 40.6562Z" fill="#495260"/>
<path d="M29.0121 29C30.1515 29 31 28.3496 31 27.4056C31 26.4196 30.1515 25.8112 29.0121 25.8112C27.9212 25.8112 27.0242 26.4196 27.0242 27.4056C27.0242 28.3496 27.9212 29 29.0121 29ZM27.2909 24.7832H30.7333L30.9515 14H27L27.2909 24.7832Z" fill="#D97461"/>
<path d="M28.0121 30C29.1515 30 30 29.1762 30 27.9804C30 26.7315 29.1515 25.9608 28.0121 25.9608C26.9212 25.9608 26.0242 26.7315 26.0242 27.9804C26.0242 29.1762 26.9212 30 28.0121 30ZM26.2909 24.6587H29.7333L29.9515 11H26L26.2909 24.6587Z" fill="#D74025"/>
</svg>
