<svg width="40" height="40" viewBox="0 0 40 40" fill="none" xmlns="http://www.w3.org/2000/svg">
<circle cx="20" cy="20" r="18.75" fill="white" stroke="#3EA3CE" stroke-width="2.5"/>
<path fill-rule="evenodd" clip-rule="evenodd" d="M18.3794 11.7767C16.4435 12.3214 14.8639 13.8419 14.2959 15.7074C14.1705 16.1194 14.1369 16.6657 14.1051 18.8114L14.0667 21.4155H15.039H16.0114L16.0135 19.0614C16.0147 17.7667 16.0556 16.5428 16.1045 16.3417C16.4614 14.8705 17.8487 13.6563 19.4748 13.3917C21.3255 13.0905 23.2373 14.2057 23.9295 15.9902C24.0943 16.415 24.1158 16.711 24.1658 19.2489C24.218 21.899 24.2309 22.0637 24.4203 22.4988C24.53 22.7508 24.6565 22.9927 24.7013 23.0362C25.0036 23.3301 24.9583 23.3321 17.8972 23.3321H11.0117V24.2059V25.0797L13.9282 25.1017L16.8447 25.1236L16.8981 26.4152C16.9275 27.1256 16.9976 27.8447 17.054 28.0132C17.216 28.4978 17.8068 29.2718 18.2411 29.568C19.0035 30.0882 19.3855 30.2033 20.355 30.2052C21.1682 30.2067 21.2767 30.1868 21.8023 29.9407C22.7756 29.485 23.4198 28.749 23.6818 27.7935C23.9115 26.9556 23.9558 26.9986 22.8628 26.9986H21.9078L21.8498 27.292C21.7843 27.6237 21.3699 28.1138 21.0024 28.2944C20.3612 28.6095 19.4137 28.3243 19.0289 27.7004C18.8343 27.385 18.8182 27.272 18.8182 26.2204V25.082H23.8498H28.8813L29.1104 24.8643C29.4116 24.5783 29.4882 24.1779 29.3059 23.843C29.118 23.4976 28.8673 23.3616 28.3133 23.3042C27.3888 23.2086 26.6148 22.6926 26.2414 21.9229C26.0683 21.5661 26.0525 21.3568 26.0047 18.7906C25.9492 15.8102 25.9278 15.6656 25.3964 14.6652C24.6268 13.2166 23.1181 12.0668 21.5158 11.7079C20.6685 11.5182 19.1824 11.5508 18.3794 11.7767Z" fill="#3EA3CE"/>
</svg>
