<svg width="44" height="44" viewBox="0 0 44 44" fill="none" xmlns="http://www.w3.org/2000/svg">
<circle cx="22" cy="22" r="22" fill="#FCD800"/>
<path fill-rule="evenodd" clip-rule="evenodd" d="M19.3314 9.26763C16.8795 10.0248 14.8789 12.1382 14.1595 14.7311C14.0007 15.3038 13.9581 16.0631 13.9179 19.0456L13.8692 22.6651H15.1007H16.3323L16.3349 19.393C16.3365 17.5935 16.3882 15.8923 16.4501 15.6128C16.9023 13.5679 18.6593 11.8802 20.7188 11.5124C23.0628 11.0937 25.4841 12.6439 26.3609 15.1243C26.5695 15.7146 26.5967 16.1261 26.66 19.6537C26.7263 23.3372 26.7426 23.5661 26.9824 24.1708C27.1214 24.5211 27.2816 24.8574 27.3384 24.9178C27.7212 25.3262 27.6638 25.329 18.7207 25.329H10V26.5436V27.7582L13.6938 27.7888L17.3876 27.8192L17.4553 29.6145C17.4925 30.6019 17.5814 31.6013 17.6527 31.8355C17.8579 32.5091 18.6062 33.5849 19.1562 33.9967C20.1218 34.7198 20.6056 34.8797 21.8336 34.8823C22.8635 34.8843 23.0009 34.8568 23.6667 34.5146C24.8993 33.8813 25.7153 32.8582 26.047 31.5302C26.338 30.3655 26.3941 30.4252 25.0098 30.4252H23.8002L23.7268 30.8331C23.6438 31.2942 23.119 31.9754 22.6535 32.2264C21.8414 32.6643 20.6414 32.268 20.154 31.4008C19.9075 30.9623 19.8872 30.8054 19.8872 29.3437V27.7613H26.2599H32.6325L32.9226 27.4588C33.304 27.0611 33.4011 26.5046 33.1703 26.0391C32.9322 25.5591 32.6147 25.37 31.913 25.2903C30.7421 25.1574 29.7619 24.4402 29.2889 23.3703C29.0696 22.8744 29.0496 22.5835 28.9891 19.0166C28.9188 14.874 28.8918 14.673 28.2187 13.2825C27.2439 11.2691 25.3332 9.67093 23.3037 9.17208C22.2307 8.90835 20.3485 8.95364 19.3314 9.26763Z" fill="#2C2C2C"/>
</svg>
