<svg width="44" height="44" viewBox="0 0 44 44" fill="none" xmlns="http://www.w3.org/2000/svg">
<circle cx="22" cy="22" r="22" fill="#FCD800"/>
<path fill-rule="evenodd" clip-rule="evenodd" d="M17.9182 9.26637C13.7148 10.2804 10.386 13.5017 9.27592 17.6294C8.90363 19.0143 8.90907 22.2283 9.28621 23.6614C10.3021 27.521 13.7371 30.9203 17.6372 31.9257C19.1294 32.3102 22.2744 32.306 23.8104 31.9174C24.4662 31.7515 25.5631 31.3131 26.2479 30.9434L27.4928 30.2709L29.888 32.6354L32.283 35L33.7844 33.5142L35 32.1692L32.7583 30L30.2308 27.5L31.2042 25.9822C32.436 23.5594 32.8052 20.4682 32.1774 17.8326C31.4263 14.6791 28.8888 11.5948 25.8764 10.174C24.9689 9.74581 23.7636 9.30152 23.198 9.18627C21.8305 8.90794 19.2416 8.94712 17.9182 9.26637ZM29.7253 20.5C29.7253 25.5 25.8764 29.5 20.6264 29.5C16.0769 29.5 11.5156 25.9822 11.5275 20.5C11.5394 15.0178 16.0769 11.5 20.6264 11.5C26.2479 11.5 29.7253 16.5 29.7253 20.5Z" fill="#2C2C2C"/>
<circle cx="20.5" cy="20.5" r="5.25" stroke="#2C2C2C" stroke-width="2.5"/>
</svg>
