<svg width="14" height="11" viewBox="0 0 14 11" fill="none" xmlns="http://www.w3.org/2000/svg">
<path d="M6.45318 10.0462C6.51434 10.135 6.59618 10.2076 6.69164 10.2578C6.7871 10.308 6.89333 10.3342 7.00118 10.3342C7.10903 10.3342 7.21525 10.308 7.31072 10.2578C7.40618 10.2076 7.48802 10.135 7.54918 10.0462L13.5492 1.3795C13.6186 1.27953 13.6594 1.16245 13.6669 1.04097C13.6745 0.919483 13.6487 0.798245 13.5922 0.690425C13.5357 0.582606 13.4507 0.492328 13.3465 0.429402C13.2423 0.366475 13.1229 0.333305 13.0012 0.333497H1.00118C0.879741 0.333999 0.760737 0.367595 0.656966 0.430672C0.553194 0.49375 0.46858 0.583922 0.412224 0.691492C0.355868 0.799062 0.329902 0.91996 0.337118 1.04118C0.344334 1.16241 0.384459 1.27937 0.453178 1.3795L6.45318 10.0462Z" fill="black"/>
</svg>
