<svg width="16" height="16" viewBox="0 0 16 16" fill="none" xmlns="http://www.w3.org/2000/svg">
<path d="M7.45318 13.0447C7.51434 13.1335 7.59618 13.2062 7.69164 13.2563C7.7871 13.3065 7.89333 13.3327 8.00118 13.3327C8.10903 13.3327 8.21525 13.3065 8.31072 13.2563C8.40618 13.2062 8.48802 13.1335 8.54918 13.0447L14.5492 4.37803C14.6186 4.27807 14.6594 4.16099 14.6669 4.0395C14.6745 3.91802 14.6487 3.79678 14.5922 3.68896C14.5357 3.58114 14.4507 3.49086 14.3465 3.42794C14.2423 3.36501 14.1229 3.33184 14.0012 3.33203H2.00118C1.87974 3.33253 1.76074 3.36613 1.65697 3.42921C1.55319 3.49228 1.46858 3.58246 1.41222 3.69003C1.35587 3.7976 1.3299 3.9185 1.33712 4.03972C1.34433 4.16094 1.38446 4.27791 1.45318 4.37803L7.45318 13.0447Z" fill="black"/>
</svg>
