<svg width="40" height="40" viewBox="0 0 40 40" fill="none" xmlns="http://www.w3.org/2000/svg">
<path fill-rule="evenodd" clip-rule="evenodd" d="M16.6449 1.63777C13.0925 2.73476 10.1939 5.79684 9.15156 9.55365C8.9214 10.3833 8.85975 11.4835 8.80149 15.8046L8.73099 21.0489H10.5152H12.2996L12.3034 16.3081C12.3057 13.7008 12.3807 11.236 12.4704 10.831C13.1255 7.86831 15.6711 5.42295 18.6551 4.89014C22.0511 4.2835 25.5594 6.5295 26.8296 10.1232C27.132 10.9785 27.1714 11.5748 27.2631 16.6858C27.3591 22.0226 27.3827 22.3542 27.7303 23.2304C27.9316 23.738 28.1637 24.2251 28.246 24.3127C28.8006 24.9045 28.7174 24.9085 15.7601 24.9085H3.125V26.6684V28.428L8.47684 28.4724L13.8287 28.5165L13.9267 31.1176C13.9806 32.5481 14.1094 33.9963 14.2127 34.3355C14.51 35.3115 15.5942 36.8703 16.3911 37.4668C17.7901 38.5144 18.4911 38.7461 20.2704 38.7499C21.7624 38.7529 21.9615 38.713 22.9261 38.2172C24.7121 37.2996 25.8944 35.8174 26.375 33.8932C26.7965 32.2056 26.8777 32.2922 24.8721 32.2922H23.1196L23.0133 32.8831C22.893 33.5513 22.1326 34.5382 21.4583 34.9019C20.2816 35.5364 18.543 34.9621 17.8369 33.7057C17.4796 33.0704 17.4503 32.843 17.4503 30.7253V28.4326H26.6834H35.9164L36.3368 27.9942C36.8894 27.4181 37.03 26.6118 36.6955 25.9374C36.3506 25.242 35.8906 24.9679 34.874 24.8525C33.1775 24.6597 31.7572 23.6208 31.072 22.0706C30.7542 21.352 30.7254 20.9306 30.6376 15.7627C30.5357 9.76056 30.4966 9.46941 29.5214 7.45482C28.1091 4.53756 25.3406 2.22209 22.4002 1.49932C20.8456 1.11721 18.1185 1.18283 16.6449 1.63777Z" fill="#00A6CA"/>
</svg>
