<svg width="19" height="19" viewBox="0 0 19 19" fill="none" xmlns="http://www.w3.org/2000/svg">
<path d="M1.26761 9.18714L1.26762 9.18713L1.26271 9.18228C1.10004 9.02184 1 8.80072 1 8.55V4.01738C1.29747 5.02006 2.22487 5.75 3.325 5.75C4.66578 5.75 5.75 4.66578 5.75 3.325C5.75 2.22487 5.02006 1.29747 4.01738 1H8.55C8.79321 1 9.0193 1.09832 9.19003 1.26574C9.1907 1.2664 9.19137 1.26706 9.19204 1.26772L17.7324 9.80811C17.9006 9.97632 18 10.2004 18 10.45C18 10.6932 17.9017 10.9193 17.7343 11.09C17.7336 11.0907 17.7329 11.0914 17.7323 11.092L11.0871 17.7371C10.926 17.8983 10.6979 18 10.45 18C10.2047 18 9.98072 17.9003 9.81761 17.7371L1.26761 9.18714ZM2.63262 1C1.84928 1.2324 1.2324 1.84928 1 2.63262V1.9C1 1.40253 1.40253 1 1.9 1H2.63262Z" stroke="#00A6CA" stroke-width="2"/>
</svg>
