<svg width="54" height="53" viewBox="0 0 54 53" fill="none" xmlns="http://www.w3.org/2000/svg">
<path fill-rule="evenodd" clip-rule="evenodd" d="M13.2152 15.0156C13.2159 17.0902 13.6019 20.0647 14.1515 22.2292C15.6177 28.0051 18.7809 32.8052 23.9338 37.0743C25.5782 38.4367 26.4103 39 26.7779 39C26.9324 39 27.2676 38.8671 27.5228 38.7046C28.2105 38.267 29.9257 36.9111 31.1711 35.8208C37.2162 30.5281 40.0545 24.5636 40.3244 16.5861L40.3902 14.641L40.0689 14.3205L39.7477 14H28.778H17.8083V15.0938V16.1875H27.9348H38.0613V16.9458C38.0613 17.9842 37.7948 20.0576 37.4758 21.5C36.2384 27.0966 33.4498 31.1656 27.7421 35.7031C27.2629 36.0842 26.8329 36.3958 26.7864 36.3958C26.6885 36.3958 25.2645 35.2759 24.2842 34.4279C20.562 31.208 18.2655 27.9245 16.9446 23.9342C16.0588 21.258 15.6517 18.9061 15.5449 15.849L15.4803 14H14.3475H13.2148L13.2152 15.0156ZM25.7947 18.6179C25.565 18.6935 25.2646 18.8156 25.1271 18.8894C24.6563 19.1419 23.949 19.877 23.6717 20.4021C23.4283 20.8632 23.3945 21.0474 23.3941 21.9167C23.3936 22.7885 23.427 22.9711 23.6757 23.4519L23.9578 23.9975L23.3864 24.5368C22.4122 25.4561 21.8798 26.6549 21.8798 27.9293C21.8798 28.9342 22.2474 29.5449 23.0547 29.8815C23.6232 30.1184 29.9497 30.1184 30.5182 29.8815C31.3255 29.5449 31.6931 28.9342 31.6931 27.9293C31.6931 26.6549 31.1607 25.4561 30.1864 24.5368L29.6151 23.9975L29.8971 23.4519C30.1458 22.9711 30.1792 22.7885 30.1788 21.9167C30.1784 21.0474 30.1446 20.8632 29.9011 20.4021C29.5605 19.757 28.8128 19.0534 28.162 18.7655C27.5602 18.4993 26.3792 18.4257 25.7947 18.6179ZM27.5023 21.0347C27.9467 21.4078 28.0923 21.9006 27.8965 22.3683C27.4821 23.3578 26.0907 23.3578 25.6764 22.3683C25.3724 21.6424 25.978 20.7708 26.7864 20.7708C27.0638 20.7708 27.2851 20.8524 27.5023 21.0347ZM27.8304 25.6314C28.3202 25.832 28.9594 26.4573 29.1977 26.9688C29.5824 27.7947 29.7203 27.75 26.7864 27.75C23.853 27.75 23.9934 27.7954 24.3718 26.9688C24.7131 26.2233 25.482 25.6433 26.421 25.4229C26.7156 25.3538 27.3998 25.4549 27.8304 25.6314Z" fill="#00A6CA"/>
</svg>
