<svg width="54" height="53" viewBox="0 0 54 53" fill="none" xmlns="http://www.w3.org/2000/svg">
<path fill-rule="evenodd" clip-rule="evenodd" d="M26.0356 12.007C24.6532 12.0949 23.4782 12.2594 22.2835 12.5322C20.5063 12.9381 18.6047 13.5896 16.9558 14.3576C16.3167 14.6553 16.1931 14.7179 15.6608 15.0139L15.1133 15.3184L15.1226 22.0663L15.132 28.8143L15.193 29.1411C15.3532 29.999 15.668 30.8003 16.167 31.6211C17.4529 33.7357 19.9764 35.9876 23.5495 38.2089C24.4439 38.7649 25.7495 39.5026 26.4274 39.835L26.7639 40L27.2994 39.7145C29.8513 38.3542 32.1382 36.8136 33.8282 35.3162C36.2282 33.1899 37.7269 30.9639 38.1254 28.9339L38.1882 28.6141V21.9285V15.2429L37.773 15.0148C36.6308 14.3873 35.205 13.7685 33.7313 13.2606C31.8781 12.622 30.1088 12.2269 28.3471 12.0585C27.9375 12.0193 26.3855 11.9847 26.0356 12.007ZM27.9056 14.5639C29.5267 14.6931 31.1743 15.0571 33.0116 15.6919C33.8995 15.9986 35.0835 16.4771 35.6348 16.7518L35.7389 16.8037L35.7317 22.666L35.7245 28.5284L35.6059 28.8857C34.8592 31.1362 32.4545 33.6191 28.7346 35.9806C27.9662 36.4685 26.8003 37.1478 26.7316 37.1478C26.6803 37.1478 25.4673 36.447 24.8038 36.034C23.2618 35.0743 21.9692 34.14 20.8315 33.1629C20.243 32.6575 19.1634 31.5549 18.8129 31.1013C18.1962 30.3033 17.7922 29.5326 17.6438 28.8714C17.5947 28.6527 17.5925 28.3864 17.5925 22.7432V16.8437L17.897 16.7012C18.5685 16.3869 19.5367 15.9968 20.2777 15.7418C22.2798 15.0529 24.0015 14.6878 25.8834 14.5532C26.2049 14.5301 27.5732 14.5374 27.9056 14.5639ZM25.2467 23.1537V28.9715H26.6585H28.0703V23.1537V17.3359H26.6585H25.2467V23.1537ZM25.2467 32.1448V33.5743H26.6585H28.0703V32.1448V30.7154H26.6585H25.2467V32.1448Z" fill="#00A6CA"/>
</svg>
