<svg width="40" height="40" viewBox="0 0 40 40" fill="none" xmlns="http://www.w3.org/2000/svg">
<circle cx="20" cy="20" r="20" fill="#FCD800"/>
<path fill-rule="evenodd" clip-rule="evenodd" d="M10.0907 12.8558C9.57996 12.9531 8.85311 13.3838 8.54196 13.7735C8.05663 14.3813 8.0091 14.6619 8.0044 16.949L8 19.0752L18.53 19.0995L29.0601 19.1238L29.0862 23.1141C29.1152 27.5516 29.0638 27.2771 29.7989 26.9189C30.2137 26.7168 30.7058 26.2278 30.9841 25.7412C31.1463 25.4577 31.1635 24.9891 31.1897 20.1274C31.2154 15.3747 31.2011 14.7796 31.0523 14.4067C30.8284 13.845 30.3829 13.3817 29.7694 13.0725L29.2602 12.8158L19.8557 12.8015C14.6832 12.7936 10.289 12.8181 10.0907 12.8558ZM28.9137 15.0654C29.0942 15.2378 29.1142 15.3609 29.0888 16.1406L29.0601 17.0211H19.6056H10.151L10.1223 16.1406C10.0759 14.7165 8.92464 14.8707 19.6056 14.8707C28.6317 14.8707 28.7117 14.8724 28.9137 15.0654ZM8.0022 23.2575C8.0042 25.0446 8.02451 25.2832 8.208 25.6708C8.48123 26.2482 8.94555 26.698 9.55074 26.9719L10.051 27.1981L18.43 27.199L26.809 27.2V26.1965V25.1929H18.7006H10.5921L10.3466 24.9583C10.104 24.7266 10.101 24.7027 10.101 22.999V21.2743H9.0505H8L8.0022 23.2575Z" fill="#2C2C2C"/>
</svg>
