<svg width="53" height="53" viewBox="0 0 53 53" fill="none" xmlns="http://www.w3.org/2000/svg">
<path fill-rule="evenodd" clip-rule="evenodd" d="M17.8219 17.5806C16.3943 18.9998 15.1698 20.2973 15.1006 20.464C15.0139 20.673 14.9849 23.2517 15.0072 28.7958L15.0395 36.8247L15.3602 37.369C15.758 38.0444 16.3817 38.5676 17.066 38.8003C17.8494 39.0666 31.7106 39.0666 32.494 38.8003C33.1783 38.5676 33.802 38.0444 34.1998 37.369L34.5205 36.8247L34.5548 33.391L34.5891 29.9572L33.3591 31.1773L32.1291 32.3974V34.1487C32.1291 35.5453 32.0924 35.9523 31.9475 36.1586L31.766 36.4173H24.7877C18.4397 36.4173 17.795 36.4 17.6493 36.2249C17.518 36.0671 17.4892 34.9194 17.4892 29.8521V23.6717L19.6473 23.6102C21.9652 23.5441 22.2749 23.4751 23.0034 22.8623C23.2131 22.6858 23.5281 22.2981 23.7033 22.0008C24.0116 21.4774 24.023 21.3961 24.0606 19.4522L24.0993 17.4444H27.8586C30.9184 17.4444 31.66 17.4751 31.8444 17.6093C32.0476 17.7575 32.0767 17.9661 32.1291 19.649L32.1874 21.5237L33.3957 20.3134L34.6039 19.1031L34.5586 18.1282C34.5072 17.0202 34.2906 16.4662 33.6647 15.8417C32.8039 14.9827 33.0017 15.0055 26.3608 15.0026L20.4174 15L17.8219 17.5806ZM21.6102 19.1147C21.5833 20.2136 21.5252 20.7248 21.412 20.8607C21.277 21.0226 20.993 21.0527 19.6053 21.0527H17.9587L19.7056 19.3067C20.6664 18.3465 21.4966 17.5608 21.5505 17.5608C21.6044 17.5608 21.6313 18.26 21.6102 19.1147ZM33.1209 24.1953L28.106 29.2002L29.0098 30.1019L29.9135 31.0036L34.9568 25.9714L40 20.9391L39.1297 20.0647C38.6509 19.5838 38.2314 19.1904 38.1975 19.1904C38.1635 19.1904 35.879 21.4425 33.1209 24.1953ZM20.1139 27.5129V28.735H21.3388H22.5636V27.5129V26.2907H21.3388H20.1139V27.5129ZM25.6263 32.249C25.426 33.0991 25.2782 33.8105 25.2978 33.83C25.3174 33.8496 26.0234 33.6933 26.8666 33.4825L28.3996 33.0992L27.1951 31.9013L25.9905 30.7035L25.6263 32.249ZM20.1139 32.6344V33.8566H21.3388H22.5636V32.6344V31.4122H21.3388H20.1139V32.6344Z" fill="#00A6CA"/>
</svg>
