<svg width="53" height="53" viewBox="0 0 53 53" fill="none" xmlns="http://www.w3.org/2000/svg">
<path fill-rule="evenodd" clip-rule="evenodd" d="M22.5554 14.1989C21.9716 14.51 21.6993 14.9955 21.6993 15.7253V16.3438L20.3237 16.3815C19.0113 16.4174 18.9238 16.4341 18.4242 16.744C17.8037 17.129 17.2458 17.8236 17.0894 18.4063C17.014 18.6874 16.9866 21.8276 17.0061 27.9449C17.0337 36.6011 17.0454 37.0836 17.2349 37.4408C17.5135 37.9662 18.0308 38.4934 18.5363 38.7675C18.9635 38.999 18.9931 39 25.9882 39C32.9833 39 33.0129 38.999 33.44 38.7675C33.9456 38.4934 34.4628 37.9662 34.7415 37.4408C34.9302 37.085 34.9427 36.6286 34.9706 29.0806L35 21.0966H33.8716H32.7431V28.6822V36.2678L32.4799 36.5317L32.2168 36.7957H25.9882H19.7596L19.4965 36.5317L19.2333 36.2678V27.7384C19.2333 20.1926 19.2526 19.1814 19.4002 18.97C19.5536 18.7503 19.653 18.731 20.6333 18.731H21.6993V19.9138V21.0966H25.9882H30.277V19.9159V18.7351L32.626 18.7062L34.9749 18.6772L34.8321 18.2608C34.6352 17.6867 34.1592 17.1247 33.5454 16.7417C33.0528 16.4343 32.9636 16.4173 31.6527 16.3815L30.277 16.3438V15.7253C30.277 14.9884 29.9912 14.4773 29.4171 14.1882C29.0879 14.0223 28.6834 14.0001 25.9865 14C23.2165 13.9998 22.8939 14.0185 22.5554 14.1989ZM27.8666 16.6223C27.9928 16.8154 28.0267 17.1022 28.0031 17.7782L27.9718 18.6772H25.9882H24.0046V17.6989C24.0046 17.0273 24.0508 16.6646 24.1517 16.5429C24.2772 16.3916 24.5498 16.3654 25.9988 16.3654C27.6727 16.3654 27.7014 16.3694 27.8666 16.6223ZM21.6993 28.4623V29.5913H25.9882H30.277V28.4623V27.3332H25.9882H21.6993V28.4623ZM21.6993 33.1935V34.3225H25.9882H30.277V33.1935V32.0645H25.9882H21.6993V33.1935Z" fill="#00A6CA"/>
</svg>
