<svg width="53" height="53" viewBox="0 0 53 53" fill="none" xmlns="http://www.w3.org/2000/svg">
<path fill-rule="evenodd" clip-rule="evenodd" d="M24.9865 19.5874L13.8416 19.5874V21.0082L23.5116 21.0082C23.9511 20.4838 24.4457 20.0073 24.9865 19.5874ZM22.7234 22.0947L12.4208 22.0947L12.4208 23.5155L21.9948 23.5155C22.1986 23.0197 22.4429 22.5447 22.7234 22.0947ZM21.6233 24.602H11V26.0229H21.3458C21.4029 25.5372 21.4963 25.0627 21.6233 24.602ZM21.2801 27.1094H11V28.5302H21.3786C21.3136 28.0799 21.28 27.6194 21.28 27.1511C21.28 27.1372 21.28 27.1233 21.2801 27.1094ZM21.6006 29.6167L12.4208 29.6167L12.4208 31.0375L22.1021 31.0375C21.8992 30.5816 21.731 30.1069 21.6006 29.6167ZM22.6719 32.124L13.8416 32.124V33.5448L23.7292 33.5448C23.3349 33.1059 22.9805 32.6304 22.6719 32.124Z" fill="#00A6CA"/>
<path fill-rule="evenodd" clip-rule="evenodd" d="M29.8419 18.1752C26.4624 18.887 23.7692 21.4949 22.8828 24.9139C22.6058 25.9823 22.5343 27.6915 22.7214 28.7687C23.4971 33.2333 27.3177 36.4706 31.8107 36.4706C33.7228 36.4706 35.962 35.7274 37.3419 34.6348L37.6566 34.3856L37.0261 33.7489L36.3955 33.1123L35.9721 33.4019C34.2952 34.5488 32.0096 34.9537 30.0409 34.4524C28.6875 34.1077 27.7221 33.577 26.7164 32.6247C25.6515 31.6163 24.9171 30.3473 24.57 28.916C24.3513 28.0136 24.3283 26.5722 24.5189 25.7086C25.1424 22.8848 27.2077 20.7236 30.0034 19.9694C30.9986 19.7009 32.6228 19.7009 33.6179 19.9694C36.4137 20.7236 38.479 22.8848 39.1024 25.7086C39.2931 26.5722 39.2701 28.0136 39.0513 28.916C38.8599 29.7053 38.3896 30.7908 37.9803 31.3879C37.8402 31.5924 37.7256 31.791 37.7256 31.8293C37.7256 31.8676 37.9993 32.1719 38.334 32.5056L38.9423 33.1122L39.3046 32.6182C40.0765 31.5656 40.658 30.1614 40.9011 28.7625C41.087 27.6926 41.0148 25.9792 40.739 24.9156C39.8443 21.465 37.1467 18.8697 33.7277 18.1702C32.609 17.9414 30.9417 17.9435 29.8419 18.1752ZM30.907 23.3598V24.2669H31.8107H32.7144V23.3598V22.4527H31.8107H30.907V23.3598ZM30.907 28.9674V31.8536H31.8107H32.7144V28.9674V26.0811H31.8107H30.907V28.9674Z" fill="#00A6CA"/>
</svg>
