<svg width="53" height="53" viewBox="0 0 53 53" fill="none" xmlns="http://www.w3.org/2000/svg">
<path fill-rule="evenodd" clip-rule="evenodd" d="M15.343 18.0659C14.7706 18.1808 13.9561 18.6892 13.6074 19.1492C13.0635 19.8669 13.0102 20.1981 13.0049 22.8981L13 25.4082L24.8009 25.4368L36.6018 25.4656L36.6311 30.1764C36.6636 35.4151 36.606 35.0911 37.4298 34.6682C37.8947 34.4295 38.4461 33.8523 38.758 33.2778C38.9398 32.9431 38.9591 32.3899 38.9885 26.6504C39.0173 21.0395 39.0012 20.337 38.8345 19.8968C38.5836 19.2336 38.0843 18.6867 37.3968 18.3217L36.8261 18.0187L26.2865 18.0017C20.4898 17.9925 15.5653 18.0214 15.343 18.0659ZM36.4378 20.6744C36.64 20.8779 36.6625 21.0233 36.634 21.9438L36.6018 22.9833H26.0062H15.4106L15.3785 21.9438C15.3264 20.2626 14.0362 20.4446 26.0062 20.4446C36.1217 20.4446 36.2114 20.4466 36.4378 20.6744ZM13.0025 30.3456C13.0047 32.4554 13.0275 32.7371 13.2331 33.1947C13.5393 33.8763 14.0597 34.4074 14.7379 34.7307L15.2985 34.9977L24.6888 34.9989L34.0791 35V33.8153V32.6305H24.9921H15.905L15.6298 32.3535C15.3579 32.08 15.3546 32.0518 15.3546 30.0404V28.0044H14.1773H13L13.0025 30.3456Z" fill="#00A6CA"/>
</svg>
