<svg width="53" height="53" viewBox="0 0 53 53" fill="none" xmlns="http://www.w3.org/2000/svg">
<path d="M25.1929 26L22 20.7227V19.479H23.0643C23.49 19.479 23.8625 19.423 24.1818 19.3109C24.5129 19.1877 24.7849 19.014 24.9978 18.7899C25.2225 18.5658 25.3762 18.2969 25.459 17.9832H22V16.7395H25.4412C25.3703 16.4482 25.2461 16.1905 25.0687 15.9664C24.9032 15.7423 24.6785 15.5686 24.3947 15.4454C24.1227 15.3109 23.7916 15.2437 23.4013 15.2437H22V14H30V15.2437H27.2151C27.4161 15.4566 27.5817 15.6863 27.7118 15.9328C27.8537 16.1793 27.9483 16.4482 27.9956 16.7395H30V17.9832H28.031C27.9128 18.8123 27.5758 19.4622 27.02 19.9328C26.4642 20.3922 25.7487 20.7059 24.8736 20.8739L28.3503 26H25.1929Z" fill="#00A6CA"/>
<path fill-rule="evenodd" clip-rule="evenodd" d="M22.0193 28.1065C21.2749 28.3121 20.6014 28.6412 19.9362 29.1245L19.3379 29.5591L18.9906 29.2133C18.4227 28.6476 17.9038 28.4612 16.7508 28.4083C16.1666 28.3815 15.4646 28.4171 15.1366 28.4901C14.1491 28.7103 13.3252 29.4802 13.1515 30.3453L13.0825 30.6887H15.1233C16.8318 30.6887 17.1921 30.7168 17.3369 30.8608C17.4855 31.0089 17.5097 31.4502 17.5097 34.0156C17.5097 36.1894 17.4739 37.0339 17.3777 37.1297C17.2981 37.2089 16.9133 37.2612 16.4097 37.2612C15.9062 37.2612 15.5213 37.2089 15.4418 37.1297C15.3491 37.0374 15.3098 36.4189 15.3098 35.0484V33.0986H14.1549H13V35.1052C13 37.54 13.112 38.0357 13.8221 38.7428C14.4237 39.3421 15.1173 39.5615 16.4097 39.5615C17.6376 39.5615 18.3751 39.3421 18.9372 38.8094L19.3754 38.3943L19.7349 38.6885C20.3194 39.1666 21.2583 39.6483 21.9599 39.83C22.4686 39.9617 23.242 39.9997 25.4112 39.9997H28.207L33.3045 37.7428C38.9646 35.2367 39.1219 35.1425 39.6922 33.9173C39.9436 33.3772 39.9974 33.1096 39.9999 32.3843C40.0026 31.6082 39.9606 31.42 39.64 30.7714C38.996 29.4685 37.8741 28.787 36.3732 28.7869C35.5145 28.7868 35.4475 28.8071 33.5935 29.6282C32.5486 30.0909 31.6528 30.4696 31.6029 30.4696C31.5528 30.4696 31.5592 30.1969 31.6169 29.8635C31.7517 29.084 31.655 28.594 31.2959 28.2363L31.0086 27.9502L26.7615 27.9599C23.7325 27.967 22.3723 28.009 22.0193 28.1065ZM28.9961 30.497C28.8528 30.9533 28.2744 31.6828 27.7573 32.0601C27.0082 32.6063 26.4291 32.77 25.2445 32.77H24.2192V33.9749V35.1799L25.1816 35.178C25.711 35.1769 26.4657 35.1066 26.859 35.0217C27.272 34.9324 29.3759 34.0776 31.8415 32.9971C34.1887 31.9685 36.2329 31.1269 36.3841 31.1269C37.351 31.1269 37.9428 32.2164 37.4305 33.053C37.2501 33.3476 36.5976 33.668 32.3389 35.5532L27.4542 37.7154L25.0942 37.6799C22.803 37.6455 22.716 37.636 22.1078 37.3521C19.7256 36.24 19.1552 33.2066 20.9856 31.3837C21.4933 30.8782 22.1204 30.5198 22.76 30.3697C22.9879 30.3163 24.5016 30.2676 26.1239 30.2615L29.0736 30.2505L28.9961 30.497Z" fill="#00A6CA"/>
</svg>
