<svg width="53" height="53" viewBox="0 0 53 53" fill="none" xmlns="http://www.w3.org/2000/svg">
<path fill-rule="evenodd" clip-rule="evenodd" d="M9.6677 17.1756C9.11335 17.3688 8.53924 17.8763 8.23584 18.4417C8.0377 18.8109 8.03576 18.8664 8.01019 24.6726C7.98157 31.1853 7.97049 31.0506 8.59325 31.7845C8.76942 31.9921 9.12932 32.2704 9.39311 32.403L9.87267 32.644H17.7718L25.671 32.6439L25.6846 31.573L25.6983 30.502H18.0166C12.1651 30.502 10.3086 30.4754 10.2242 30.3903C10.1405 30.3059 10.1134 28.951 10.1134 24.8635C10.1134 19.7357 10.1223 19.4402 10.2822 19.2943C10.4374 19.1527 11.3516 19.1402 21.5465 19.1402C32.5188 19.1402 32.6439 19.1422 32.8265 19.3264C32.9925 19.4938 33.0112 19.6368 33.0112 20.7333C33.0112 21.8577 33.0239 21.9491 33.1728 21.8913C33.2616 21.8569 33.7445 21.7607 34.2456 21.6776L35.157 21.5266L35.1158 20.2169C35.0784 19.0308 35.0516 18.8623 34.8313 18.4289C34.6976 18.1657 34.4118 17.7981 34.1962 17.6119C33.4475 16.9655 34.1192 16.9978 21.5224 17.0013C10.7335 17.0042 10.1347 17.0129 9.6677 17.1756ZM13.943 20.8976C12.9413 21.3566 12.3128 22.6278 12.5888 23.6361C12.6741 23.9477 12.653 24.0459 12.3913 24.5576C12.1287 25.0713 12.0986 25.2131 12.0998 25.9304C12.1009 26.6161 12.1364 26.7981 12.3486 27.206C12.698 27.8775 13.4262 28.5108 14.0641 28.6978C15.4986 29.1185 17.0013 28.4425 17.6098 27.1028C17.7753 26.7387 17.8213 26.4723 17.8209 25.8814C17.8204 25.2171 17.7853 25.0569 17.5304 24.5585C17.2701 24.0492 17.2496 23.951 17.3288 23.595C17.4264 23.1571 17.3653 22.6301 17.1553 22.0963C16.9812 21.6544 16.2056 20.9438 15.7611 20.8193C15.2262 20.6695 14.3594 20.7068 13.943 20.8976ZM27.9601 20.9515C26.9222 21.2786 25.9941 22.4735 25.9941 23.4824V23.7967H27.0559C28.0641 23.7967 28.1177 23.7871 28.1177 23.6062C28.1177 23.2917 28.5241 22.9585 28.9074 22.9585C29.1668 22.9585 29.307 23.0267 29.5194 23.2559C29.7485 23.5034 29.8206 23.5348 29.9488 23.443C30.0335 23.3823 30.4249 23.14 30.8184 22.9046C31.2119 22.6691 31.5339 22.4584 31.5339 22.4361C31.5339 22.2748 30.9904 21.6269 30.6452 21.377C29.9018 20.8384 28.8481 20.6714 27.9601 20.9515ZM19.254 22.1669V23.2379H20.5928C21.3292 23.2379 21.9316 23.2598 21.9316 23.2865C21.9316 23.3132 21.807 23.6124 21.6546 23.9513C21.5023 24.2902 21.3776 24.6035 21.3776 24.6477C21.3776 24.6918 21.5666 24.728 21.7977 24.728C22.6471 24.728 23.1565 25.2707 22.9523 25.9582C22.8382 26.3426 22.4199 26.6827 22.0607 26.6833C21.7443 26.6839 21.2474 26.2889 21.1508 25.96L21.0624 25.6593H19.9725H18.8825L18.9426 26.0551C19.1121 27.1711 19.7535 28.0898 20.6852 28.5507C21.0817 28.7469 21.277 28.7791 22.0701 28.779C22.8931 28.779 23.0435 28.752 23.455 28.5307C24.0109 28.232 24.6035 27.627 24.8996 27.0562C25.0857 26.6974 25.117 26.5032 25.1169 25.7058C25.1168 24.7306 25.0839 24.627 24.4456 23.5921C24.298 23.353 24.3004 23.3206 24.4961 22.9144C24.8238 22.2339 24.7518 21.6315 24.2983 21.2609C24.1231 21.1178 23.8346 21.0998 21.6777 21.098L19.254 21.0959V22.1669ZM15.2838 22.7722C15.5085 22.9988 15.5187 23.2138 15.3157 23.4401C15.025 23.7641 14.4529 23.5638 14.4529 23.1381C14.4529 22.9249 14.7646 22.586 14.9607 22.586C15.0369 22.586 15.1823 22.6698 15.2838 22.7722ZM34.0745 23.6663C30.9668 24.3646 28.5775 26.7182 27.8256 29.8221C27.5508 30.9565 27.5508 32.562 27.8256 33.6965C28.5922 36.8607 31.0283 39.2165 34.2054 39.8659C35.3595 40.1017 37.1258 40.0186 38.1817 39.6786C41.1605 38.7197 43.2833 36.3352 43.8521 33.3089C44.6351 29.1433 42.2458 25.153 38.1817 23.8387C37.5077 23.6207 37.2078 23.5804 36.0581 23.5531C35.0854 23.53 34.543 23.561 34.0745 23.6663ZM15.5378 25.4351C15.652 25.5641 15.7455 25.7753 15.7455 25.9045C15.7455 26.2313 15.2773 26.6837 14.939 26.6837C14.4092 26.6837 14.0236 26.0345 14.2799 25.574C14.5647 25.0622 15.1502 24.9976 15.5378 25.4351ZM37.7048 25.9632C39.5462 26.6203 40.8863 27.9743 41.5405 29.8391C41.7946 30.5632 41.8222 30.7509 41.8222 31.7593C41.8222 32.7676 41.7946 32.9553 41.5405 33.6794C40.8874 35.5411 39.561 36.8832 37.7048 37.5609C37.1045 37.7801 36.8913 37.8084 35.8273 37.8105C34.5237 37.8129 34.1268 37.7236 33.0574 37.1872C31.9563 36.6351 30.9191 35.5804 30.3751 34.46C29.9377 33.5594 29.7514 32.7525 29.7514 31.7593C29.7514 29.0741 31.4927 26.7168 34.073 25.9088C34.8271 25.6728 34.8607 25.669 35.9658 25.6959C36.829 25.7168 37.1542 25.7668 37.7048 25.9632ZM34.7655 29.6638V31.8058H35.8273H36.8891V29.6638V27.5219H35.8273H34.7655V29.6638ZM34.7655 34.8325V35.9035H35.8273H36.8891V34.8325V33.7616H35.8273H34.7655V34.8325Z" fill="#00A6CA"/>
</svg>
