<svg width="53" height="53" viewBox="0 0 53 53" fill="none" xmlns="http://www.w3.org/2000/svg">
<path fill-rule="evenodd" clip-rule="evenodd" d="M14.1053 15.0515C14.1053 15.0798 14.0342 15.103 13.9474 15.103C13.8605 15.103 13.7895 15.1262 13.7895 15.1545C13.7895 15.1828 13.7421 15.206 13.6842 15.206C13.6263 15.206 13.5789 15.2292 13.5789 15.2575C13.5789 15.2858 13.5316 15.309 13.4737 15.309C13.4158 15.309 13.3684 15.3322 13.3684 15.3605C13.3684 15.3888 13.3325 15.412 13.2886 15.412C13.1846 15.412 12.4211 16.1591 12.4211 16.2608C12.4211 16.3038 12.3974 16.3389 12.3684 16.3389C12.3395 16.3389 12.3158 16.3853 12.3158 16.4419C12.3158 16.4985 12.2921 16.5449 12.2632 16.5449C12.2342 16.5449 12.2105 16.5912 12.2105 16.6479C12.2105 16.7045 12.1868 16.7509 12.1579 16.7509C12.1289 16.7509 12.1053 16.8436 12.1053 16.9569C12.1053 17.0702 12.0816 17.1628 12.0526 17.1628C12.0178 17.1628 12 19.875 12 25.1963C12 30.5176 12.0178 33.2297 12.0526 33.2297C12.0816 33.2297 12.1053 33.2992 12.1053 33.3842C12.1053 33.4692 12.1289 33.5387 12.1579 33.5387C12.1868 33.5387 12.2105 33.6031 12.2105 33.6818C12.2105 33.7659 12.254 33.8556 12.3158 33.8992C12.3737 33.94 12.4211 34.0095 12.4211 34.0537C12.4211 34.0978 12.4684 34.1673 12.5263 34.2082C12.5842 34.249 12.6316 34.3128 12.6316 34.35C12.6316 34.4378 12.9758 34.7746 13.0656 34.7746C13.1036 34.7746 13.1688 34.821 13.2105 34.8776C13.2523 34.9343 13.3285 34.9806 13.3801 34.9806C13.4315 34.9806 13.4737 35.0038 13.4737 35.0321C13.4737 35.0604 13.5211 35.0836 13.5789 35.0836C13.6368 35.0836 13.6842 35.1068 13.6842 35.1351C13.6842 35.1634 13.7316 35.1866 13.7895 35.1866C13.8474 35.1866 13.8947 35.2098 13.8947 35.2381C13.8947 35.2664 14.0132 35.2896 14.1579 35.2896C14.3026 35.2896 14.4211 35.3128 14.4211 35.3411C14.4211 35.3751 16.4839 35.3926 20.5045 35.3926H26.5879L26.3672 35.148C26.0331 34.7778 25.5642 34.0568 25.3381 33.5656L25.1361 33.1267H19.8551H14.5742L14.445 33.0003C14.3739 32.9308 14.3158 32.8149 14.3158 32.7428C14.3158 32.6707 14.2921 32.6118 14.2632 32.6118C14.2283 32.6118 14.2105 30.1056 14.2105 25.1963C14.2105 20.287 14.2283 17.7808 14.2632 17.7808C14.2921 17.7808 14.3158 17.7218 14.3158 17.6497C14.3158 17.5052 14.5276 17.2658 14.6555 17.2658C14.7003 17.2658 14.7368 17.2427 14.7368 17.2143C14.7368 17.1802 18.5088 17.1628 25.9474 17.1628H37.1579V16.9569C37.1579 16.8436 37.1342 16.7509 37.1053 16.7509C37.0763 16.7509 37.0526 16.7045 37.0526 16.6479C37.0526 16.5912 37.0289 16.5449 37 16.5449C36.9711 16.5449 36.9474 16.4985 36.9474 16.4419C36.9474 16.3853 36.9237 16.3389 36.8947 16.3389C36.8658 16.3389 36.8421 16.3038 36.8421 16.2608C36.8421 16.1591 36.0785 15.412 35.9745 15.412C35.9306 15.412 35.8947 15.3888 35.8947 15.3605C35.8947 15.3322 35.8474 15.309 35.7895 15.309C35.7316 15.309 35.6842 15.2858 35.6842 15.2575C35.6842 15.2292 35.6368 15.206 35.5789 15.206C35.5211 15.206 35.4737 15.1828 35.4737 15.1545C35.4737 15.1262 35.4026 15.103 35.3158 15.103C35.2289 15.103 35.1579 15.0798 35.1579 15.0515C35.1579 15.0174 31.6141 15 24.6316 15C17.6491 15 14.1053 15.0174 14.1053 15.0515ZM16.6316 20.7161V21.7975H17.7368H18.8421V20.7161V19.6347H17.7368H16.6316V20.7161ZM21.2632 20.7161V21.7975H26.9474H32.6316V20.7161V19.6347H26.9474H21.2632V20.7161ZM35.0526 21.5341V23.4335L35.3417 23.5482C35.7368 23.7052 36.5229 24.1653 36.9283 24.4771L37.2632 24.7346V22.1846V19.6347H36.1579H35.0526V21.5341ZM16.6316 25.2478V26.3292H17.7368H18.8421V25.2478V24.1664H17.7368H16.6316V25.2478ZM21.2632 25.2478V26.3292H23.5463H25.8294L26.1356 25.9301C26.5131 25.4382 27.1699 24.7904 27.6526 24.4343L28.0157 24.1664H24.6394H21.2632V25.2478ZM31.5 24.3502C30.9728 24.4124 30.6191 24.4907 30.1842 24.6413C29.8613 24.7531 29.3925 24.9638 29.3252 25.0275C29.2869 25.0637 29.2333 25.0933 29.2059 25.0933C29.1522 25.0933 28.6368 25.4152 28.4228 25.5825C27.8689 26.0155 26.8947 27.108 26.8947 27.2963C26.8947 27.3261 26.877 27.3583 26.8553 27.3677C26.8047 27.3897 26.5263 27.9425 26.5263 28.0209C26.5263 28.0534 26.5026 28.0801 26.4737 28.0801C26.4447 28.0801 26.4211 28.1147 26.4211 28.1571C26.4211 28.1995 26.3762 28.3675 26.3213 28.5305C26.0863 29.2286 26.0362 29.5721 26.0374 30.4778C26.0381 30.9863 26.0636 31.431 26.0978 31.5335C26.1304 31.6309 26.1941 31.8496 26.2393 32.0196C26.2845 32.1895 26.3478 32.4271 26.3801 32.5474C26.4124 32.6677 26.4585 32.7663 26.4825 32.7663C26.5066 32.7663 26.5263 32.7929 26.5263 32.8255C26.5263 32.9067 26.802 33.4573 26.8533 33.4786C26.8761 33.4881 26.8947 33.5251 26.8947 33.5609C26.8947 33.6324 27.4789 34.4001 27.7203 34.6459C27.9288 34.8581 28.3136 35.1912 28.4938 35.3153C28.576 35.372 28.6712 35.4415 28.7054 35.4698C28.8054 35.5526 28.9501 35.637 29.3421 35.8414C30.4691 36.4287 31.8758 36.6803 33.0428 36.5032C34.9056 36.2207 36.1391 35.513 37.3592 34.0271C37.3828 33.9984 37.4707 33.8593 37.5544 33.7181C37.6381 33.577 37.7253 33.4537 37.7481 33.4443C37.7708 33.4348 37.7895 33.4048 37.7895 33.3775C37.7895 33.3503 37.8691 33.161 37.9664 32.957C38.0638 32.753 38.16 32.5281 38.1803 32.4573C38.2006 32.3865 38.2383 32.2822 38.2641 32.2255C38.2898 32.1689 38.3594 31.8863 38.4186 31.5977C38.5361 31.0254 38.5634 29.9451 38.4713 29.522C38.4435 29.3945 38.3942 29.1512 38.3616 28.9813C38.3292 28.8113 38.2851 28.6491 38.2638 28.6208C38.2425 28.5925 38.2093 28.5046 38.1899 28.4256C38.1706 28.3466 38.0726 28.1101 37.9722 27.9002C37.8717 27.6902 37.7895 27.4961 37.7895 27.4688C37.7895 27.4415 37.7708 27.4115 37.7481 27.402C37.7253 27.3926 37.638 27.269 37.5541 27.1274C37.4703 26.9858 37.3764 26.843 37.3455 26.8101C37.3147 26.7773 37.2069 26.6498 37.1061 26.5269C36.4612 25.7412 35.4277 25.0162 34.5 24.6986C33.8371 24.4716 33.6171 24.4212 32.9636 24.3464C32.2007 24.2591 32.2735 24.259 31.5 24.3502ZM33.1668 25.9434C33.6128 26.0475 33.8274 26.1145 34.0789 26.2285C34.1947 26.281 34.3487 26.3492 34.4211 26.3802C34.7594 26.5252 35.1695 26.8157 35.5203 27.159C35.826 27.4581 36.2105 27.9382 36.2105 28.0209C36.2105 28.0487 36.2283 28.0792 36.25 28.0887C36.3169 28.1177 36.6748 28.8676 36.713 29.0585C36.7328 29.1576 36.7686 29.2628 36.7926 29.2921C36.8893 29.4102 36.9494 30.4191 36.8922 30.9639C36.8612 31.2595 36.8169 31.5253 36.7937 31.5545C36.7706 31.5837 36.7359 31.6885 36.7167 31.7874C36.6844 31.9535 36.3386 32.7076 36.2677 32.7663C36.2506 32.7804 36.2036 32.8547 36.1633 32.9315C36.0905 33.0697 35.8103 33.4106 35.6026 33.6135C35.3528 33.8577 35.0538 34.1052 35.0087 34.1052C34.9821 34.1052 34.9287 34.1423 34.8902 34.1878C34.8516 34.2332 34.7718 34.292 34.7127 34.3186C34.6536 34.3451 34.475 34.4349 34.3158 34.5183C34.1566 34.6017 33.9896 34.6703 33.9447 34.6708C33.8999 34.6712 33.8407 34.6929 33.8132 34.719C33.7857 34.745 33.5541 34.8145 33.2985 34.8734C32.7317 35.0041 31.8531 35.018 31.4032 34.9034C31.2365 34.8609 31.0634 34.8261 31.0185 34.8261C30.9388 34.8261 30.7737 34.7626 30.3363 34.5639C30.2174 34.5099 30.1039 34.4656 30.0841 34.4656C30.0644 34.4656 30.0196 34.4418 29.9846 34.4128C29.9497 34.3837 29.8026 34.2864 29.6579 34.1966C29.4369 34.0593 28.6807 33.3563 28.4993 33.1192C28.3808 32.9645 28.0603 32.4072 28.0249 32.2945C28.0041 32.2282 27.9699 32.1509 27.9489 32.1226C27.9279 32.0942 27.8733 31.9552 27.8274 31.8136C27.516 30.8527 27.5799 29.4887 27.9748 28.6645C28.0176 28.5753 28.0526 28.4896 28.0526 28.4741C28.0526 28.4101 28.4439 27.7936 28.5086 27.7557C28.5473 27.733 28.5789 27.6864 28.5789 27.6522C28.5789 27.618 28.7625 27.4206 28.9868 27.2136C29.4964 26.7432 29.5075 26.7343 29.7632 26.5851C29.8789 26.5176 29.9816 26.444 29.9912 26.4215C30.0009 26.3991 30.0338 26.3807 30.0644 26.3807C30.095 26.3807 30.2174 26.3373 30.3363 26.2843C30.8133 26.0717 30.9434 26.0272 31.1901 25.9923C31.3316 25.9723 31.4829 25.9363 31.5263 25.9124C31.6615 25.8378 32.8071 25.8596 33.1668 25.9434ZM16.6316 29.7795V30.8609H17.7368H18.8421V29.7795V28.698H17.7368H16.6316V29.7795ZM21.2632 29.7795V30.8609H22.9474H24.6316L24.6319 30.3073C24.6321 30.0028 24.6676 29.524 24.7108 29.2432C24.7541 28.9625 24.7895 28.725 24.7895 28.7154C24.7895 28.7059 23.9961 28.698 23.0263 28.698H21.2632V29.7795ZM38.1991 35.5803C37.8965 35.8983 37.3721 36.393 37.3171 36.4124C37.2927 36.4209 37.8643 37.0066 38.5873 37.714L39.9017 39L40.4508 38.464C40.7529 38.1692 41 37.9146 41 37.8983C41 37.882 40.4205 37.3004 39.7123 36.606L38.4246 35.3434L38.1991 35.5803Z" fill="#00A6CA"/>
</svg>
