<svg width="18" height="18" viewBox="0 0 18 18" fill="none" xmlns="http://www.w3.org/2000/svg">
<path fill-rule="evenodd" clip-rule="evenodd" d="M9 1.28571C4.73952 1.28571 1.28571 4.73952 1.28571 9C1.28571 13.2605 4.73952 16.7143 9 16.7143C13.2605 16.7143 16.7143 13.2605 16.7143 9C16.7143 4.73952 13.2605 1.28571 9 1.28571ZM0 9C0 4.02944 4.02944 0 9 0C13.9706 0 18 4.02944 18 9C18 13.9706 13.9706 18 9 18C4.02944 18 0 13.9706 0 9Z" fill="#0BA11B"/>
<path fill-rule="evenodd" clip-rule="evenodd" d="M13.9492 5.32717C14.2023 5.57616 14.2056 5.98318 13.9566 6.23627L7.174 13.1307L4.04006 9.94506C3.79107 9.69197 3.79439 9.28495 4.04749 9.03596C4.30058 8.78697 4.7076 8.79029 4.9566 9.04339L7.174 11.2973L13.0401 5.3346C13.289 5.0815 13.6961 5.07818 13.9492 5.32717Z" fill="#0BA11B" stroke="#0BA11B" stroke-width="0.5" stroke-linecap="round"/>
</svg>
