<svg width="64" height="64" viewBox="0 0 64 64" fill="none" xmlns="http://www.w3.org/2000/svg">
<path d="M31.9999 63.9999C49.673 63.9999 63.9999 49.673 63.9999 31.9999C63.9999 14.3269 49.673 0 31.9999 0C14.3269 0 0 14.3269 0 31.9999C0 49.673 14.3269 63.9999 31.9999 63.9999Z" fill="#00A6CA"/>
<path d="M46.7854 14.8379L63.9993 31.9994V63.9993H27.1794L16.6699 53.4523L46.7854 14.8379Z" fill="#0087A5"/>
<path d="M42.0219 10H18.009C16.7895 10 16 11.055 16 12.2745V51.7259C16 52.9454 16.7895 54.0004 18.009 54.0004H46.0034C47.2229 54.0004 48.0124 52.9454 48.0124 51.7259V16.0715L42.0219 10Z" fill="white"/>
<path d="M24.9365 33.2136L32.1369 40.4048L21 40.9259L24.3586 44.3732L21 44.9153L24.1119 48.1406L21 48.9046L25.9625 53.9999H48V26.4746L39.7958 18.322L34.817 21.8924L30.728 17L24.9365 33.2136Z" fill="#DDE1F1"/>
<path d="M44.0925 16.069L48.012 16.0715L42.0215 10V13.98C42.0215 15.199 42.884 16.069 44.0925 16.069Z" fill="#C2DFDD"/>
<path d="M42 41.7499H22C21.586 41.7499 21.25 41.4139 21.25 40.9999C21.25 40.5859 21.586 40.2499 22 40.2499H42C42.414 40.2499 42.75 40.5859 42.75 40.9999C42.75 41.4139 42.414 41.7499 42 41.7499Z" fill="#495260"/>
<path d="M42 45.7499H22C21.586 45.7499 21.25 45.4139 21.25 44.9999C21.25 44.5859 21.586 44.2499 22 44.2499H42C42.414 44.2499 42.75 44.5859 42.75 44.9999C42.75 45.4139 42.414 45.7499 42 45.7499Z" fill="#495260"/>
<path d="M42 49.7499H22C21.586 49.7499 21.25 49.4139 21.25 48.9999C21.25 48.5859 21.586 48.2499 22 48.2499H42C42.414 48.2499 42.75 48.5859 42.75 48.9999C42.75 49.4139 42.414 49.7499 42 49.7499Z" fill="#495260"/>
<path d="M34.7825 15.9218L34.123 21.5733C35.28 22.0133 36.244 22.9373 36.689 24.1958C36.9755 25.0053 37.0045 25.8418 36.826 26.6213L41.9545 29.0688C42.218 29.1948 42.532 29.0573 42.619 28.7783C43.273 26.6843 43.2805 24.3688 42.4925 22.1418C41.303 18.7803 38.579 16.4033 35.3865 15.5148C35.1035 15.4358 34.8165 15.6298 34.7825 15.9218Z" fill="#00A6CA"/>
<path d="M33.3386 29.9503C31.5122 30.2843 29.6397 29.3903 28.7507 27.7603C28.2037 26.7573 28.0947 25.6733 28.3217 24.6818L23.1937 22.2343C22.9302 22.1088 22.6162 22.2458 22.5292 22.5243C21.8862 24.5833 21.8682 26.8558 22.6167 29.0488C24.4672 34.4698 30.4287 37.4403 35.8681 35.6443C38.1956 34.8758 40.0676 33.3788 41.3236 31.4943C41.4856 31.2513 41.3941 30.9208 41.1311 30.7953L36.0026 28.3473C35.3741 29.1478 34.4631 29.7448 33.3386 29.9503Z" fill="#F16E00"/>
<path d="M31.1183 21.5369C31.4853 21.4069 31.8578 21.3344 32.2283 21.3049L32.8863 15.6674C32.9198 15.3794 32.6918 15.1274 32.4023 15.1319C31.2933 15.1494 30.1678 15.3424 29.0643 15.7329C26.8368 16.5209 25.0418 17.9829 23.8248 19.8084C23.6628 20.0514 23.7538 20.3819 24.0173 20.5079L29.1458 22.9554C29.6398 22.3269 30.3088 21.8234 31.1183 21.5369Z" fill="#3BB012"/>
<path opacity="0.4" d="M32.5758 31.9044C36.0295 31.9044 38.8292 29.1047 38.8292 25.6509C38.8292 22.1972 36.0295 19.3975 32.5758 19.3975C29.122 19.3975 26.3223 22.1972 26.3223 25.6509C26.3223 29.1047 29.122 31.9044 32.5758 31.9044Z" fill="white"/>
</svg>
