<svg width="260" height="154" viewBox="0 0 260 154" fill="none" xmlns="http://www.w3.org/2000/svg">
<path d="M0.923297 148.242C1.0353 150.09 2.4073 151.168 4.1993 151.168C6.3553 151.168 7.6013 149.698 7.6013 147.878C7.6013 146.436 6.6633 145.064 5.0393 144.994L7.5173 141.466V141.214H1.3153V142.53H5.2633L3.0513 145.82V146.1C4.3953 145.764 6.0613 146.254 6.0613 147.892C6.0613 149.054 5.3053 149.754 4.1713 149.754C3.1633 149.754 2.4633 149.236 2.3653 148.242H0.923297ZM12.9517 141.046C10.9217 141.046 9.2977 142.32 9.2977 144.42V147.808C9.2977 149.922 10.9217 151.182 12.9517 151.182C14.9537 151.182 16.5777 149.922 16.5777 147.808V144.42C16.5777 142.32 14.9537 141.046 12.9517 141.046ZM12.9517 149.74C11.9437 149.74 11.1457 149.25 10.9357 148.312C10.8797 148.032 10.8377 147.724 10.8377 147.388V144.854C10.8377 144.518 10.8797 144.21 10.9357 143.93C11.1457 142.978 11.9437 142.474 12.9517 142.474C13.9597 142.474 14.7437 142.978 14.9537 143.93C15.0097 144.21 15.0517 144.518 15.0517 144.854V147.388C15.0517 147.724 15.0097 148.032 14.9537 148.312C14.7437 149.25 13.9597 149.74 12.9517 149.74ZM22.1392 141.046C20.1092 141.046 18.4852 142.32 18.4852 144.42V147.808C18.4852 149.922 20.1092 151.182 22.1392 151.182C24.1412 151.182 25.7652 149.922 25.7652 147.808V144.42C25.7652 142.32 24.1412 141.046 22.1392 141.046ZM22.1392 149.74C21.1312 149.74 20.3332 149.25 20.1232 148.312C20.0672 148.032 20.0252 147.724 20.0252 147.388V144.854C20.0252 144.518 20.0672 144.21 20.1232 143.93C20.3332 142.978 21.1312 142.474 22.1392 142.474C23.1472 142.474 23.9312 142.978 24.1412 143.93C24.1972 144.21 24.2392 144.518 24.2392 144.854V147.388C24.2392 147.724 24.1972 148.032 24.1412 148.312C23.9312 149.25 23.1472 149.74 22.1392 149.74Z" fill="#ACACAC"/>
<path d="M237.293 151L240.247 146.31C240.681 145.652 240.905 145.022 240.905 144.238C240.905 142.054 239.295 140.976 237.279 140.976C235.249 140.976 233.639 142.054 233.639 144.238C233.639 146.268 235.095 147.43 237.055 147.388C237.377 147.388 237.713 147.304 237.979 147.15L235.515 151H237.293ZM237.279 142.362C238.455 142.362 239.295 143.02 239.295 144.238C239.295 145.456 238.455 146.128 237.279 146.128C236.103 146.128 235.249 145.456 235.249 144.238C235.249 143.02 236.089 142.362 237.279 142.362ZM246.082 141.046C244.052 141.046 242.428 142.32 242.428 144.42V147.808C242.428 149.922 244.052 151.182 246.082 151.182C248.084 151.182 249.708 149.922 249.708 147.808V144.42C249.708 142.32 248.084 141.046 246.082 141.046ZM246.082 149.74C245.074 149.74 244.276 149.25 244.066 148.312C244.01 148.032 243.968 147.724 243.968 147.388V144.854C243.968 144.518 244.01 144.21 244.066 143.93C244.276 142.978 245.074 142.474 246.082 142.474C247.09 142.474 247.874 142.978 248.084 143.93C248.14 144.21 248.182 144.518 248.182 144.854V147.388C248.182 147.724 248.14 148.032 248.084 148.312C247.874 149.25 247.09 149.74 246.082 149.74ZM255.269 141.046C253.239 141.046 251.615 142.32 251.615 144.42V147.808C251.615 149.922 253.239 151.182 255.269 151.182C257.271 151.182 258.895 149.922 258.895 147.808V144.42C258.895 142.32 257.271 141.046 255.269 141.046ZM255.269 149.74C254.261 149.74 253.463 149.25 253.253 148.312C253.197 148.032 253.155 147.724 253.155 147.388V144.854C253.155 144.518 253.197 144.21 253.253 143.93C253.463 142.978 254.261 142.474 255.269 142.474C256.277 142.474 257.061 142.978 257.271 143.93C257.327 144.21 257.369 144.518 257.369 144.854V147.388C257.369 147.724 257.327 148.032 257.271 148.312C257.061 149.25 256.277 149.74 255.269 149.74Z" fill="#ACACAC"/>
<path d="M0 130C3.01418e-06 95.5218 13.6964 62.4558 38.0761 38.0761C62.4558 13.6964 95.5219 -4.11148e-07 130 0V13C98.9697 13 69.2103 25.3267 47.2685 47.2685C25.3268 69.2103 13 98.9697 13 130H0Z" fill="#F2F2F2"/>
<path d="M132.658 0.0273438C148.765 0.356707 164.67 3.67702 179.564 9.8191L174.607 21.8372C161.203 16.3093 146.889 13.3211 132.393 13.0246L132.658 0.0273438Z" fill="#E6E6E6"/>
<path d="M181.963 10.8359C196.73 17.2754 210.172 26.4036 221.603 37.7554L212.443 46.9798C202.155 36.7631 190.057 28.5478 176.767 22.7523L181.963 10.8359Z" fill="#D9D9D9"/>
<path d="M223.355 39.5312C234.566 51.1002 243.53 64.6524 249.789 79.4971L237.81 84.5475C232.177 71.1872 224.11 58.9903 214.02 48.5782L223.355 39.5312Z" fill="#BFBFBF"/>
<path d="M250.946 82.3359C256.853 97.3241 259.923 113.28 259.999 129.39L246.999 129.451C246.93 114.952 244.168 100.592 238.852 87.1025L250.946 82.3359Z" fill="#ACACAC"/>
<path d="M115.069 108.08H116.869V80H110.869V95.88L95.1489 79.88H93.2689V108H99.2289V92L115.069 108.08ZM120.827 107.96H126.587L140.107 80H134.347L120.827 107.96ZM166.75 108V80H160.75V90.68H150.03V80H144.07V108H150.03V96.16H160.75V108H166.75Z" fill="#ACACAC"/>
</svg>
