<svg width="295" height="238" viewBox="0 0 295 238" fill="none" xmlns="http://www.w3.org/2000/svg">
<mask id="mask0_6070_32482" style="mask-type:alpha" maskUnits="userSpaceOnUse" x="0" y="0" width="295" height="238">
<rect width="295" height="238" rx="6" fill="#FEEF93"/>
</mask>
<g mask="url(#mask0_6070_32482)">
<circle cx="203" cy="49" r="179" fill="url(#paint0_linear_6070_32482)"/>
<rect x="188.617" y="186" width="6.32883" height="20" rx="3.16441" fill="#F9E77E"/>
<rect x="286.964" y="72.8286" width="6.32883" height="44.3018" rx="3.16441" transform="rotate(-90 286.964 72.8286)" fill="#F9E77E"/>
<rect x="276.205" y="23.2488" width="6.32883" height="44.3018" rx="3.16441" transform="rotate(-120 276.205 23.2488)" fill="#F9E77E"/>
<path d="M188.422 -7.28265V68.8435L128.975 30.3528" stroke="#F9E77E" stroke-width="5"/>
<rect width="6.32883" height="20" rx="3.16441" transform="matrix(-0.822149 0.569273 0.569273 0.822149 255.203 167)" fill="#F9E77E"/>
<rect x="124.203" y="192.598" width="6.32883" height="20" rx="3.16441" transform="rotate(-145.3 124.203 192.598)" fill="#F9E77E"/>
<rect width="6.32883" height="20" rx="3.16441" transform="matrix(-0.5 0.866025 0.866025 0.5 68.6191 -4.38281)" fill="#F9E77E"/>
<rect width="6.32883" height="44.3018" rx="3.16441" transform="matrix(-0.5 0.866025 0.866025 0.5 274.939 114.599)" fill="#F9E77E"/>
<rect x="69.8853" y="142.231" width="6.32883" height="20" rx="3.16441" transform="rotate(-120 69.8853 142.231)" fill="#F9E77E"/>
<rect x="49" y="72.8289" width="6.32883" height="20" rx="3.16441" transform="rotate(-90 49 72.8289)" fill="#F9E77E"/>
</g>
<defs>
<linearGradient id="paint0_linear_6070_32482" x1="315.49" y1="-6.92366" x2="77.6535" y2="218.7" gradientUnits="userSpaceOnUse">
<stop stop-color="#FFF8D0"/>
<stop offset="0.814451" stop-color="#FFF8D0" stop-opacity="0"/>
</linearGradient>
</defs>
</svg>
