<svg width="14" height="17" viewBox="0 0 14 17" fill="none" xmlns="http://www.w3.org/2000/svg">
<path d="M4.27451 11.9V12.5667H4.94118H12.3529H13.0196V11.9V1.7V1.03333H12.3529H4.94118H4.27451V1.7V11.9ZM0.980392 15.3V15.9667H1.64706H9.88235C9.94067 15.9667 9.96193 15.979 9.99073 16.0087C10.0196 16.0385 10.0392 16.0702 10.0392 16.15C10.0392 16.2298 10.0196 16.2615 9.99073 16.2913C9.96193 16.321 9.94067 16.3333 9.88235 16.3333H1.64706C1.37921 16.3333 1.16261 16.2435 0.962114 16.0371C0.761566 15.8295 0.666667 15.5959 0.666667 15.3V4.25C0.666667 4.17088 0.686088 4.13869 0.715978 4.10784C0.743741 4.07918 0.764494 4.06667 0.823529 4.06667C0.882043 4.06667 0.903694 4.07901 0.931902 4.10784C0.961106 4.13831 0.980392 4.1709 0.980392 4.25V15.3ZM4.94118 12.9333C4.67323 12.9333 4.45704 12.8435 4.25715 12.6372C4.05585 12.4294 3.96078 12.1958 3.96078 11.9V1.7C3.96078 1.40417 4.05585 1.17061 4.25715 0.96284C4.45704 0.756529 4.67323 0.666667 4.94118 0.666667H12.3529C12.6207 0.666667 12.8373 0.756458 13.0378 0.962848C13.2384 1.17044 13.3333 1.40401 13.3333 1.7V11.9C13.3333 12.196 13.2384 12.4297 13.0377 12.6373C12.8372 12.8436 12.6207 12.9333 12.3529 12.9333H4.94118Z" stroke="white" stroke-width="1.33333"/>
</svg>
