<svg width="37" height="33" viewBox="0 0 37 33" fill="none" xmlns="http://www.w3.org/2000/svg">
<path fill-rule="evenodd" clip-rule="evenodd" d="M2.64128 5.9798C1.95554 6.29772 1.21304 7.15958 1.02787 7.85267C0.80982 8.66891 1.9314 22.6959 2.30213 23.7895C2.84597 25.3939 3.51245 26.1186 6.22574 28.0558C8.10214 29.3955 8.72958 30.0822 8.9954 31.0869C9.24774 32.0408 10.0582 32.3056 10.5718 31.6021C10.8122 31.2726 10.814 31.2276 10.6146 30.5288C10.5 30.1278 10.1591 29.4294 9.85707 28.9773C9.38989 28.2778 8.9823 27.9178 7.1303 26.5683C4.84784 24.9054 4.28025 24.317 3.9316 23.2528C3.81859 22.9078 3.60285 20.9615 3.4101 18.5467C3.22929 16.282 2.97285 13.1054 2.84019 11.4877C2.62664 8.8829 2.62048 8.49989 2.7869 8.13974C2.98017 7.72117 3.42127 7.43527 3.87368 7.43527C4.24442 7.43527 4.8427 7.77895 4.94608 8.05137C4.99475 8.17987 5.32015 9.63796 5.66919 11.2916C6.18477 13.7347 6.35569 14.3423 6.58132 14.5335C6.95206 14.8477 7.43862 14.7686 7.74887 14.3437L8.00198 13.9969L7.33306 10.8185C6.96528 9.07049 6.58748 7.49109 6.49361 7.309C6.26901 6.8729 5.56928 6.21001 5.05549 5.9466C4.50009 5.66188 3.29106 5.67849 2.64128 5.9798ZM31.9842 5.94398C31.4657 6.17223 30.7535 6.83016 30.5113 7.30455C30.4195 7.4843 30.0413 9.06291 29.6708 10.8126L28.9971 13.9941L29.2513 14.3422C29.5624 14.7685 30.0486 14.8481 30.4198 14.5335C30.6455 14.3423 30.8164 13.7347 31.332 11.2916C31.681 9.63796 32.0064 8.17987 32.0551 8.05137C32.1644 7.76339 32.7637 7.43527 33.1804 7.43527C33.553 7.43527 34.1457 7.88339 34.2923 8.27596C34.3532 8.43884 34.2964 9.80751 34.1589 11.4942C34.0274 13.1083 33.7719 16.282 33.5911 18.5467C33.3983 20.9615 33.1826 22.9078 33.0696 23.2528C32.7209 24.317 32.1533 24.9054 29.8709 26.5683C27.466 28.3205 26.8715 28.9938 26.4099 30.4878C26.1779 31.2388 26.1783 31.2581 26.4271 31.5989C26.943 32.3056 27.7529 32.0429 28.0058 31.0869C28.2722 30.0798 28.8977 29.3957 30.7752 28.0588C33.4739 26.1368 34.1534 25.3976 34.6995 23.7895C35.0692 22.7007 36.1897 8.67192 35.9723 7.85267C35.7885 7.1601 35.0463 6.29798 34.3599 5.9798C33.7322 5.68868 32.6026 5.67169 31.9842 5.94398ZM7.13582 15.3427C6.84072 15.4481 6.39358 15.7806 6.08487 16.1244C5.07308 17.2514 5.09581 18.8156 6.14073 19.952C6.40552 20.2401 7.41063 21.2476 8.37438 22.191C9.81392 23.6004 10.194 23.9064 10.5054 23.9064C10.9811 23.9064 11.3093 23.5478 11.3093 23.0281C11.3093 22.6819 11.0233 22.347 9.19046 20.5465C7.24099 18.6315 7.07161 18.4284 7.07161 18.0058C7.07161 17.6853 7.16831 17.454 7.39162 17.2406C7.94368 16.7124 8.31416 16.8263 9.98253 18.0368C10.8183 18.643 12.0125 19.4852 12.6364 19.9084C14.1108 20.9083 15.0777 21.8169 15.4092 22.5141C15.6596 23.0406 15.6754 23.2971 15.6754 26.8236C15.6754 30.399 15.6874 30.5854 15.9323 30.8347C16.2532 31.1614 16.8519 31.1725 17.1323 30.8571C17.3203 30.6456 17.3448 30.1555 17.3448 26.6005V22.583L17.0026 21.8394C16.5209 20.7928 15.3051 19.6255 13.1713 18.161C12.1825 17.4823 10.9431 16.6041 10.4171 16.2093C9.00336 15.1485 8.24302 14.9475 7.13582 15.3427ZM27.986 15.3412C27.7293 15.4374 27.0936 15.8344 26.5734 16.2235C26.0532 16.6127 24.8186 17.4855 23.8298 18.1631C21.6976 19.624 20.4807 20.7918 19.9985 21.8394L19.6563 22.583V26.6232C19.6563 30.3713 19.6733 30.6792 19.8912 30.8798C20.2097 31.1733 20.7568 31.1524 21.0689 30.8347C21.3138 30.5854 21.3257 30.399 21.3257 26.8236C21.3257 23.2971 21.3415 23.0406 21.5919 22.5141C21.9235 21.8169 22.8903 20.9083 24.3648 19.9084C24.9886 19.4852 26.1695 18.6528 26.989 18.0585C28.1681 17.2033 28.5718 16.9781 28.925 16.9781C29.5078 16.9781 29.9295 17.42 29.9295 18.0309C29.9295 18.4389 29.741 18.6634 27.8107 20.5543C25.9298 22.3967 25.6918 22.6771 25.6918 23.0517C25.6918 23.5563 26.0257 23.9064 26.507 23.9064C26.9845 23.9064 30.9615 20.0593 31.3723 19.2004C32.434 16.9796 30.2517 14.4926 27.986 15.3412Z" fill="#00A6CA" stroke="#00A6CA" stroke-width="0.4"/>
<path fill-rule="evenodd" clip-rule="evenodd" d="M13.3535 0.893007V1.78597L14.5351 1.80962C15.5251 1.82939 15.7759 1.84897 16.0817 1.93038C16.8308 2.1298 17.3255 2.47203 17.5986 2.9799L17.7514 3.26381H15.5525H13.3535V3.90238V4.54095H15.5935H17.8336L17.7843 4.71833C17.6518 5.1949 17.3023 5.64805 16.8675 5.90688C16.2221 6.29106 15.506 6.43231 14.2009 6.43273L13.3535 6.43301V7.30128V8.16955L13.8363 8.68485C14.6262 9.52781 15.9722 11.0571 17.0897 12.3812L18.1376 13.6229H19.5206H20.9036L20.3892 12.9961C19.0042 11.3084 17.6146 9.70165 16.5868 8.59933C16.0879 8.06435 16.0368 7.9942 16.1332 7.97689C16.193 7.9662 16.4611 7.92363 16.7289 7.88238C18.4753 7.61328 19.7211 6.59687 20.1289 5.10857C20.1823 4.91345 20.2378 4.69525 20.252 4.62373L20.2779 4.49365H21.4467H22.6155V3.87953V3.26546L21.4387 3.25279L20.2618 3.24016L20.1732 2.86794C20.1245 2.66322 20.0201 2.36172 19.9411 2.19796C19.7852 1.87418 19.3947 1.33107 19.3053 1.31356C19.2747 1.30756 20.0016 1.29157 20.9206 1.27809L22.5916 1.25349L22.6049 0.626746L22.6182 0H17.9859H13.3535V0.893007Z" fill="#00A6CA"/>
</svg>
