<svg width="21" height="21" viewBox="0 0 21 21" fill="none" xmlns="http://www.w3.org/2000/svg">
<circle cx="8.5" cy="8.5" r="8.5" fill="#FCD800"/>
<path fill-rule="evenodd" clip-rule="evenodd" d="M9.625 4.71429C9.14175 4.71429 8.75 5.09804 8.75 5.57143V18.4286C8.75 18.902 9.14175 19.2857 9.625 19.2857H18.375C18.8582 19.2857 19.25 18.902 19.25 18.4286V8.4979L15.3876 4.71429H9.625ZM7 5.57143C7 4.15127 8.17525 3 9.625 3H15.3876C15.8517 3 16.2968 3.18061 16.625 3.5021L20.4874 7.28571C20.8156 7.6072 21 8.04324 21 8.4979V18.4286C21 19.8487 19.8247 21 18.375 21H9.625C8.17525 21 7 19.8487 7 18.4286V5.57143Z" fill="#00A6CA"/>
<path fill-rule="evenodd" clip-rule="evenodd" d="M17.5 14.1429L10.5 14.1429L10.5 12.4286L17.5 12.4286V14.1429Z" fill="#00A6CA"/>
<path fill-rule="evenodd" clip-rule="evenodd" d="M17.5 17.5714H10.5L10.5 15.8571H17.5V17.5714Z" fill="#00A6CA"/>
</svg>
