<svg width="18" height="21" viewBox="0 0 18 21" fill="none" xmlns="http://www.w3.org/2000/svg">
<path d="M9.0005 0C9.92417 -7.0241e-07 10.8125 0.345131 11.4818 0.964008C12.151 1.58289 12.55 2.42816 12.5962 3.325L12.6007 3.5H17.1009C17.3304 3.50025 17.551 3.58564 17.7178 3.73874C17.8846 3.89184 17.985 4.10108 17.9985 4.32372C18.0119 4.54636 17.9374 4.76558 17.7901 4.9366C17.6429 5.10763 17.4341 5.21753 17.2063 5.24388L17.1009 5.25H16.3368L15.2747 17.9839C15.2062 18.8056 14.8221 19.5721 14.1987 20.1309C13.5753 20.6898 12.7583 21.0001 11.9104 21H6.09064C5.24265 21.0001 4.42571 20.6898 3.80232 20.1309C3.17893 19.5721 2.79477 18.8056 2.72625 17.9839L1.66329 5.25H0.90005C0.679598 5.24997 0.466823 5.17129 0.302082 5.02887C0.137341 4.88646 0.0320932 4.69022 0.00630032 4.47738L0 4.375C2.90811e-05 4.16068 0.0809648 3.95383 0.227456 3.79367C0.373948 3.63352 0.575806 3.5312 0.794744 3.50612L0.90005 3.5H5.4003C5.4003 2.57174 5.7796 1.6815 6.45477 1.02513C7.12994 0.368749 8.04567 0 9.0005 0ZM6.97539 8.09375C6.81226 8.09376 6.65466 8.15119 6.53172 8.25542C6.40879 8.35965 6.32883 8.50364 6.30665 8.66075L6.30035 8.75V15.75L6.30665 15.8392C6.32888 15.9963 6.40885 16.1403 6.53179 16.2445C6.65472 16.3486 6.81229 16.406 6.97539 16.406C7.13848 16.406 7.29606 16.3486 7.41899 16.2445C7.54192 16.1403 7.62189 15.9963 7.64412 15.8392L7.65042 15.75V8.75L7.64412 8.66075C7.62194 8.50364 7.54199 8.35965 7.41905 8.25542C7.29611 8.15119 7.13851 8.09376 6.97539 8.09375ZM11.0256 8.09375C10.8625 8.09376 10.7049 8.15119 10.5819 8.25542C10.459 8.35965 10.3791 8.50364 10.3569 8.66075L10.3506 8.75V15.75L10.3569 15.8392C10.3791 15.9963 10.4591 16.1403 10.582 16.2445C10.7049 16.3486 10.8625 16.406 11.0256 16.406C11.1887 16.406 11.3463 16.3486 11.4692 16.2445C11.5921 16.1403 11.6721 15.9963 11.6943 15.8392L11.7006 15.75V8.75L11.6943 8.66075C11.6722 8.50364 11.5922 8.35965 11.4693 8.25542C11.3463 8.15119 11.1887 8.09376 11.0256 8.09375ZM9.0005 1.75C8.54635 1.74986 8.10894 1.91661 7.77594 2.21681C7.44294 2.51701 7.23896 2.92849 7.2049 3.36875L7.2004 3.5H10.8006L10.7961 3.36875C10.762 2.92849 10.5581 2.51701 10.2251 2.21681C9.89206 1.91661 9.45464 1.74986 9.0005 1.75Z" fill="#707070"/>
</svg>
