<svg width="19" height="23" viewBox="0 0 19 23" fill="none" xmlns="http://www.w3.org/2000/svg">
<path fill-rule="evenodd" clip-rule="evenodd" d="M2.97882 1.98572V2.97145L1.98941 2.98962L1 3.00779L1.00033 12.4872L1.00072 21.9666L8.5162 21.9833L16.0317 22V21.0123V20.0246H17.0107C17.8351 20.0246 17.9905 20.009 17.9948 19.9259C17.9977 19.8715 18 15.7095 18 10.6769C18 5.64424 17.9977 1.40814 17.9948 1.26332L17.9897 1H10.4843H2.97882V1.98572ZM17.027 2.06972C17.0181 2.09691 17.0107 5.92566 17.0107 10.5781V19.0372H16.5212H16.0317V11.006V2.97487H9.99477H3.95779V2.48082V1.98678L10.5006 2.00356C14.0991 2.01278 17.036 2.04253 17.027 2.06972ZM15.0528 12.4875V21.0127L8.51 20.9959C4.91144 20.9867 1.97453 20.9569 1.98354 20.9298C1.99254 20.9026 1.99985 17.0738 1.99985 12.4213V3.96231H8.52632H15.0528V12.4875ZM8.33052 11.9935C8.33052 14.0934 8.30761 15.8115 8.27955 15.8115C8.25155 15.8115 7.59936 15.1744 6.83035 14.3956L5.43199 12.9796L5.11911 13.2905C4.94701 13.4614 4.80623 13.6323 4.80623 13.6701C4.80623 13.7078 5.68731 14.6271 6.76417 15.7128L8.72211 17.6869L10.7118 15.6807L12.7016 13.6745L12.3612 13.3269L12.0208 12.9792L10.6652 14.3454L9.30949 15.7116V11.9435V8.17537H8.82001H8.33052V11.9935Z" fill="#00A6CA" stroke="#00A6CA"/>
</svg>
