<svg width="19" height="13" viewBox="0 0 19 13" fill="none" xmlns="http://www.w3.org/2000/svg">
<path fill-rule="evenodd" clip-rule="evenodd" d="M14.7302 3.1058C15.1075 3.50906 15.0865 4.14187 14.6833 4.51923L10.1833 8.73017C9.79879 9.08994 9.2012 9.08994 8.81673 8.73017L4.31673 4.51923C3.91347 4.14187 3.89247 3.50906 4.26983 3.1058C4.64718 2.70253 5.28 2.68154 5.68326 3.05889L8.5 5.69469L8.5 1C8.5 0.447715 8.94771 -2.64554e-07 9.5 -2.40413e-07C10.0523 -2.16272e-07 10.5 0.447715 10.5 1L10.5 5.69469L13.3167 3.05889C13.72 2.68154 14.3528 2.70254 14.7302 3.1058Z" fill="black"/>
<path fill-rule="evenodd" clip-rule="evenodd" d="M1 7C1.55228 7 2 7.44772 2 8V10C2 10.5523 2.44772 11 3 11H16C16.5523 11 17 10.5523 17 10V8C17 7.44772 17.4477 7 18 7C18.5523 7 19 7.44772 19 8V10C19 11.6569 17.6569 13 16 13H3C1.34315 13 0 11.6569 0 10V8C0 7.44772 0.447715 7 1 7Z" fill="black"/>
</svg>
