<svg width="27" height="19" viewBox="0 0 27 19" fill="none" xmlns="http://www.w3.org/2000/svg">
<path fill-rule="evenodd" clip-rule="evenodd" d="M12.125 9.89307L10.8119 8.63089L9.49875 7.3687L8.53175 8.30139L7.56475 9.23407L9.81363 11.4124C11.0505 12.6106 12.2312 13.6772 12.4375 13.7827C12.9896 14.0652 14.0814 14.0384 14.6875 13.7274C14.9625 13.5863 16.1714 12.5176 17.3739 11.3525L19.5601 9.23395L18.5933 8.30139L17.6262 7.3687L16.3423 8.60292C15.636 9.28169 15.017 9.83713 14.9666 9.83713C14.8353 9.83713 14.875 1.44748 14.875 0H13.5H12.125V9.89307ZM0.0027504 12.0977C0.0052504 16.242 0.0258746 16.6922 0.233375 17.1313C0.57625 17.8567 1.05925 18.344 1.7775 18.6892L2.42412 19H7.2745H12.125V17.7341V16.4682H7.625C3.29162 16.4682 3.11575 16.4592 2.875 16.227C2.6345 15.9951 2.625 15.8252 2.625 11.7662V7.54642H1.3125H0L0.0027504 12.0977ZM24.375 11.7662C24.375 15.8252 24.3655 15.9951 24.125 16.227C23.8843 16.4592 23.7084 16.4682 19.375 16.4682H14.875V17.7341V19H19.7255H24.5759L25.2225 18.6892C25.9408 18.344 26.4237 17.8567 26.7666 17.1313C26.9741 16.6922 26.9947 16.242 26.9972 12.0977L27 7.54642H25.6875H24.375V11.7662Z" fill="#00A6CA"/>
</svg>
