<svg width="18" height="18" viewBox="0 0 18 18" fill="none" xmlns="http://www.w3.org/2000/svg">
<path d="M16.9159 7.14658H16.2027C15.6208 7.14658 15.1328 6.64514 15.1328 6.04999C15.1328 5.75007 15.2595 5.47826 15.4848 5.27675L15.9446 4.82687C16.3998 4.37699 16.3998 3.64124 15.9446 3.19136L14.8982 2.15569C14.6917 1.94949 14.3867 1.82765 14.0771 1.82765C13.7674 1.82765 13.467 1.94949 13.2559 2.15569L12.8148 2.5962C12.6037 2.83051 12.3221 2.95704 12.0171 2.95704C11.4165 2.95704 10.9144 2.46967 10.9144 1.89326V1.17626C10.9144 0.543608 10.4029 0 9.76478 0H8.33831C7.70015 0 7.19337 0.538922 7.19337 1.17626V1.88857C7.19337 2.46498 6.69129 2.95236 6.09067 2.95236C5.79036 2.95236 5.51351 2.82583 5.31174 2.60557L4.85658 2.15569C4.65012 1.94481 4.34512 1.82765 4.03542 1.82765C3.72573 1.82765 3.42542 1.94949 3.21426 2.15569L2.15848 3.18667C1.70802 3.63655 1.70802 4.3723 2.15848 4.8175L2.59956 5.25801C2.83418 5.46889 2.96557 5.75007 2.96557 6.04999C2.96557 6.64983 2.47756 7.14658 1.89571 7.14658H1.18247C0.53962 7.14658 0 7.64801 0 8.28534V8.99766V9.70997C0 10.3426 0.53962 10.8487 1.18247 10.8487H1.89571C2.47756 10.8487 2.96557 11.3502 2.96557 11.9453C2.96557 12.2452 2.83418 12.5264 2.59956 12.7373L2.15848 13.1731C1.70802 13.623 1.70802 14.3588 2.15848 14.804L3.20488 15.8443C3.41134 16.0552 3.71634 16.1724 4.02604 16.1724C4.33573 16.1724 4.63604 16.0505 4.8472 15.8443L5.30236 15.3944C5.49943 15.1742 5.78098 15.0476 6.08129 15.0476C6.68191 15.0476 7.18399 15.535 7.18399 16.1114V16.8237C7.18399 17.4564 7.69076 18 8.33361 18H9.76009C10.3982 18 10.905 17.4611 10.905 16.8237V16.1114C10.905 15.535 11.4071 15.0476 12.0077 15.0476C12.308 15.0476 12.5896 15.1789 12.8054 15.4085L13.2465 15.849C13.4577 16.0552 13.758 16.177 14.0677 16.177C14.3774 16.177 14.6777 16.0552 14.8888 15.849L15.9352 14.8086C16.3857 14.3588 16.3857 13.623 15.9352 13.1731L15.4754 12.7232C15.2501 12.5217 15.1234 12.2452 15.1234 11.95C15.1234 11.3502 15.6115 10.8534 16.1933 10.8534H16.9065C17.5447 10.8534 17.9999 10.352 17.9999 9.71466V8.99766V8.28534C18.0092 7.64801 17.5541 7.14658 16.9159 7.14658ZM12.8007 8.99766C12.8007 11.0643 11.1256 12.7467 9.04685 12.7467C6.96814 12.7467 5.29297 11.0643 5.29297 8.99766C5.29297 6.93101 6.96814 5.24863 9.04685 5.24863C11.1256 5.24863 12.8007 6.93101 12.8007 8.99766Z" fill="#2C2C2C"/>
</svg>
