<svg width="45" height="31" viewBox="0 0 45 31" fill="none" xmlns="http://www.w3.org/2000/svg">
<circle cx="14" cy="14" r="14" fill="#FCD800"/>
<path fill-rule="evenodd" clip-rule="evenodd" d="M11.8328 10.1065C11.3275 10.244 10.8207 10.6 10.4923 11.0479C9.98892 11.7343 10 11.5784 10 17.9669C10 23.8005 10.0038 23.9215 10.1985 24.3415C10.4869 24.964 10.8403 25.3406 11.3964 25.6185L11.8871 25.8638H20.1064H28.3256L28.2515 25.4119C28.2107 25.1634 28.1747 24.7137 28.1717 24.4129L28.166 23.8658H20.2925C12.5454 23.8658 12.416 23.8628 12.2293 23.6755C12.0439 23.4896 12.0395 23.3584 12.0395 17.934C12.0395 12.6769 12.0487 12.3745 12.213 12.2254C12.3724 12.0807 13.3113 12.0679 23.7807 12.0679H35.175L35.3226 12.2794C35.4408 12.4486 35.4703 12.7841 35.4703 13.9573V15.4239L35.9105 15.3633C36.1525 15.33 36.6007 15.3028 36.9065 15.3028H37.4624L37.4603 13.614C37.4585 12.1853 37.4316 11.8666 37.2853 11.5446C37.0278 10.9783 36.642 10.567 36.0983 10.2793L35.6126 10.0223L23.9447 10.0041C14.7632 9.9896 12.1821 10.0115 11.8328 10.1065ZM15.9883 13.9202C14.8816 14.3159 14.1807 15.64 14.4877 16.7552C14.5738 17.068 14.5522 17.1667 14.2929 17.647C13.4952 19.1241 14.0809 20.933 15.5993 21.6824C16.3027 22.0296 17.3853 22.0156 18.1279 21.6499C19.0877 21.1771 19.6304 20.3467 19.7025 19.2406C19.7504 18.5053 19.6413 18.0263 19.3038 17.4911C19.1542 17.2539 19.1135 17.0897 19.162 16.9203C19.6029 15.3806 18.438 13.7726 16.8904 13.7847C16.5963 13.787 16.1904 13.848 15.9883 13.9202ZM30.3226 13.9737C29.1335 14.2732 28.0711 15.492 28.0711 16.5566V16.8251H29.0557H30.0402L30.1596 16.5359C30.4091 15.9318 31.0624 15.7837 31.5737 16.2152C31.7342 16.3506 31.8656 16.5248 31.8656 16.6022C31.8656 16.7139 31.9219 16.7028 32.1383 16.5482C32.2884 16.441 32.7134 16.208 33.0828 16.0305L33.7546 15.7076L33.4901 15.2892C32.8235 14.235 31.4877 13.6801 30.3226 13.9737ZM21.1462 15.2032V16.2543H22.5668H23.9873L23.6577 16.9797C23.4764 17.3788 23.3281 17.7213 23.3281 17.7409C23.3281 17.7605 23.5242 17.7766 23.764 17.7766C24.3065 17.7766 24.7012 18.0024 24.9027 18.4283C25.2185 19.0959 24.694 19.8685 23.9243 19.8694C23.5641 19.8698 22.9767 19.4032 22.9309 19.0802C22.9026 18.8806 22.8516 18.8695 21.8494 18.844L20.7977 18.8173L20.8682 19.3379C20.9983 20.2997 21.6514 21.1952 22.5886 21.6972C22.9354 21.8829 23.1372 21.9153 23.9447 21.9152C24.7885 21.9152 24.946 21.8873 25.3714 21.6622C25.9554 21.3529 26.5962 20.6737 26.8667 20.0768C27.0213 19.7357 27.0685 19.4432 27.0693 18.8232C27.0701 18.1243 27.0342 17.9434 26.8047 17.4911C26.6586 17.2033 26.4514 16.8735 26.344 16.7581L26.1488 16.5484L26.4102 15.9316C26.716 15.21 26.6875 14.7965 26.3073 14.438C26.065 14.2095 26.0551 14.2086 23.6051 14.1804L21.1462 14.1521V15.2032ZM17.25 15.839C17.3581 15.9768 17.4466 16.15 17.4466 16.2238C17.4466 16.406 17.0169 16.8251 16.83 16.8251C16.747 16.8251 16.5744 16.72 16.4463 16.5916C16.3183 16.4631 16.2134 16.2899 16.2134 16.2067C16.2134 15.9941 16.6418 15.5883 16.8663 15.5883C16.9692 15.5883 17.1419 15.7011 17.25 15.839ZM35.5048 17.3478C30.801 18.3738 28.5598 23.8453 31.19 27.8815C32.4602 29.8308 34.6319 31.0046 36.9594 31C38.1092 30.9977 38.9716 30.7957 39.9762 30.2936C41.0517 29.7562 41.7804 29.1712 42.3889 28.3572C43.3807 27.0305 43.8181 25.7287 43.8181 24.1037C43.8181 23.0505 43.603 21.993 43.2461 21.2912L43.0418 20.8896L44.0208 19.9042L45 18.9189L44.245 18.1572L43.4901 17.3955L42.6221 18.2626L41.7541 19.1295L41.1972 18.674C39.7229 17.4681 37.4166 16.9308 35.5048 17.3478ZM17.2483 18.2954C17.7801 18.5712 17.8479 19.3085 17.3758 19.681C16.934 20.0295 16.3298 19.8958 16.0701 19.392C15.8828 19.0286 15.9678 18.697 16.3259 18.3947C16.648 18.1229 16.8697 18.099 17.2483 18.2954ZM38.4302 19.5737C39.0732 19.7967 39.7194 20.1634 40.0033 20.4664L40.2085 20.6855L38.599 22.2976L36.9896 23.9098L36.3239 23.2472L35.6582 22.5846L34.8982 23.3469L34.1383 24.1091L35.3579 25.3195C36.5453 26.4979 36.5884 26.5298 36.9912 26.5298C37.403 26.5298 37.4139 26.5208 39.4221 24.5146C40.7399 23.1981 41.4552 22.5465 41.4852 22.6355C42.2047 24.7709 41.2117 27.245 39.2073 28.3114C37.2844 29.3344 35.1741 29.0061 33.6129 27.441C32.8402 26.6663 32.4915 26.0128 32.2704 24.9249C32.0681 23.9305 32.2026 23.0505 32.7175 21.999C33.7574 19.8752 36.2492 18.8173 38.4302 19.5737Z" fill="#00A6CA"/>
</svg>
