<svg width="182" height="116" viewBox="0 0 182 116" fill="none" xmlns="http://www.w3.org/2000/svg">
<path d="M93.6852 100.268C93.6852 95.156 99.3372 93.284 99.3372 88.748C99.3372 83.744 95.5932 81.224 91.2732 81.332C86.9892 81.44 83.4252 83.852 83.4252 88.964H87.8532C88.0332 87.092 89.6532 86.156 91.2372 86.156C93.9372 86.156 94.6572 88.532 93.7932 90.44C92.3532 93.644 88.9332 94.616 88.9332 100.268H93.6852ZM91.3812 107.504C93.0732 107.504 94.2972 106.388 94.2972 104.768C94.2972 103.076 93.0732 101.996 91.3812 101.996C89.6892 101.996 88.3932 103.076 88.3932 104.768C88.3932 106.388 89.6892 107.504 91.3812 107.504Z" fill="#2C2C2C"/>
<path d="M0 88.5137C2.10992e-06 65.0384 9.58748 42.5246 26.6533 25.9251C43.7191 9.32552 66.8653 -2.7994e-07 91 0V8.85137C69.2788 8.85137 48.4472 17.2443 33.088 32.1839C17.7287 47.1235 9.1 67.3859 9.1 88.5137H0Z" fill="#EDEDED"/>
<path d="M93.3787 0C104.61 0.225466 115.7 2.4984 126.085 6.70298L122.629 14.93C113.283 11.1459 103.301 9.10025 93.1934 8.89733L93.3787 0Z" fill="#E0E0E0"/>
<path d="M127.448 7.46484C137.559 11.8348 146.763 18.0293 154.589 25.7329L148.318 31.9927C141.273 25.0595 132.99 19.4844 123.891 15.5515L127.448 7.46484Z" fill="#D1D1D1"/>
<path d="M156.498 26.6606C164.059 34.6086 170.103 43.919 174.324 54.1175L166.246 57.5871C162.447 48.4085 157.007 40.0292 150.203 32.876L156.498 26.6606Z" fill="#C0C0C0"/>
<path d="M175.429 56.521C179.717 66.6986 181.945 77.533 182 88.4723L172.564 88.5139C172.514 78.6685 170.509 68.9175 166.65 59.7577L175.429 56.521Z" fill="#9F9F9F"/>
</svg>
