<svg width="22" height="17" viewBox="0 0 22 17" fill="none" xmlns="http://www.w3.org/2000/svg">
<path d="M10.2656 3.52561C10.2656 3.14323 10.6304 2.83325 11.0804 2.83325H11.6508C12.1008 2.83325 12.4656 3.14323 12.4656 3.52561V8.09516C12.4656 8.47753 12.1008 8.78751 11.6508 8.78751H11.0804C10.6304 8.78751 10.2656 8.47753 10.2656 8.09516V3.52561Z" fill="#2C2C2C"/>
<path d="M10.2656 10.3799C10.2656 9.99755 10.6304 9.68758 11.0804 9.68758H11.6508C12.1008 9.68758 12.4656 9.99755 12.4656 10.3799V11.3492C12.4656 11.7316 12.1008 12.0416 11.6508 12.0416H11.0804C10.6304 12.0416 10.2656 11.7316 10.2656 11.3492V10.3799Z" fill="#2C2C2C"/>
<path fill-rule="evenodd" clip-rule="evenodd" d="M12.8289 2.00412H2.88143C2.17395 2.00412 2.10398 2.06955 2.10398 2.7407V12.391C2.10398 13.0303 2.18756 13.1089 2.85617 13.1089H19.1076C19.7996 13.1089 19.8851 13.0341 19.8851 12.3611C19.8851 11.4774 19.8862 10.5938 19.8873 9.71013C19.8894 7.94285 19.8916 6.17556 19.8851 4.40828C19.8851 4.00447 20.0037 3.8923 20.4079 3.92408C20.841 3.94745 21.2751 3.94745 21.7082 3.92408C21.9356 3.92408 21.9978 3.99886 21.9978 4.20824C21.9978 5.63647 21.9984 7.0592 21.9989 8.48385C21.9993 9.47201 21.9997 10.4611 21.9999 11.4536L22 12.7826V14.0062C22 15.6596 20.6065 17 18.8875 17H17.4797C17.2515 17 17.0664 16.822 17.0664 16.6025V15.0853C15.3167 15.0876 15.0335 15.0885 13.2837 15.0718L9.103 15.0924H2.59183C1.13994 15.0886 0.0320699 14.1053 0.0204081 12.7013C-0.00680271 9.26145 -0.00680271 5.82161 0.0204081 2.38176C0.0340136 1.01516 1.1516 3.57497e-05 2.57434 3.57497e-05H19.4283C19.9356 -0.00261004 20.4319 0.141659 20.8528 0.414069C21.2736 0.686479 21.5995 1.07442 21.7879 1.5274C21.9687 1.9686 21.9473 2.00038 21.4575 2.00038H12.8289V2.00412Z" fill="#2C2C2C"/>
</svg>
