<svg width="91" height="91" viewBox="0 0 91 91" fill="none" xmlns="http://www.w3.org/2000/svg">
<path d="M85.7207 42.6966L71.8633 35.1288L76.2996 19.9934C76.4775 19.3851 76.4885 18.7401 76.3315 18.126C76.1744 17.512 75.855 16.9515 75.4069 16.5034C74.9587 16.0552 74.3982 15.7358 73.7842 15.5788C73.1701 15.4217 72.5251 15.4327 71.9168 15.6107L56.7814 20.0469L49.2271 6.20288C48.9226 5.64742 48.4743 5.18403 47.9293 4.86125C47.3843 4.53847 46.7625 4.36816 46.129 4.36816C45.4956 4.36816 44.8738 4.53847 44.3288 4.86125C43.7837 5.18403 43.3355 5.64742 43.031 6.20288L35.4633 20.0402L20.3412 15.6107C19.7329 15.4327 19.0879 15.4217 18.4739 15.5788C17.8599 15.7358 17.2994 16.0552 16.8512 16.5034C16.403 16.9515 16.0837 17.512 15.9266 18.126C15.7696 18.7401 15.7806 19.3851 15.9585 19.9934L22.4757 42.0408L26.2696 39.9666C26.9752 39.5797 27.5276 38.9637 27.8354 38.2203C28.1432 37.4768 28.1881 36.6506 27.9625 35.8782L24.5366 24.2021L36.206 27.6213C36.9784 27.8482 37.805 27.8039 38.5488 27.496C39.2925 27.188 39.9084 26.6349 40.2943 25.9285L46.129 15.256L51.9637 25.9218C52.3496 26.6282 52.9656 27.1813 53.7093 27.4893C54.453 27.7972 55.2797 27.8415 56.0521 27.6146L67.7215 24.1954L64.3023 35.8649C64.0767 36.6372 64.1216 37.4635 64.4294 38.2069C64.7372 38.9503 65.2896 39.5664 65.9951 39.9532L76.6676 45.7678L66.0018 51.6025C65.2963 51.9893 64.7439 52.6054 64.4361 53.3488C64.1282 54.0922 64.0834 54.9184 64.309 55.6908L67.7282 67.3602L56.0587 63.9678C55.2864 63.741 54.4597 63.7852 53.716 64.0932C52.9723 64.4011 52.3563 64.9542 51.9704 65.6607L46.1357 76.3264L40.2943 65.6674C39.9066 64.9627 39.2904 64.4111 38.5473 64.1033C37.8042 63.7956 36.9784 63.7502 36.206 63.9745L24.5366 67.3937L27.9558 55.7243C28.1814 54.9519 28.1365 54.1257 27.8287 53.3823C27.5209 52.6388 26.9685 52.0228 26.2629 51.636L6.82507 40.9702L3.43933 47.1796L20.3814 56.4737L15.9451 71.6091C15.7691 72.218 15.76 72.863 15.9189 73.4766C16.0779 74.0901 16.3989 74.6496 16.8485 75.0965C17.298 75.5433 17.8595 75.8609 18.474 76.0161C19.0885 76.1713 19.7335 76.1583 20.3412 75.9785L35.4767 71.5422L43.0444 85.3796C43.3489 85.935 43.7971 86.3984 44.3422 86.7212C44.8872 87.044 45.509 87.2143 46.1424 87.2143C46.7759 87.2143 47.3977 87.044 47.9427 86.7212C48.4877 86.3984 48.936 85.935 49.2404 85.3796L56.8082 71.5422L71.9436 75.9785C72.5519 76.1564 73.1969 76.1674 73.8109 76.0104C74.425 75.8533 74.9855 75.534 75.4336 75.0858C75.8818 74.6376 76.2012 74.0771 76.3582 73.4631C76.5153 72.849 76.5043 72.2041 76.3263 71.5957L71.8633 56.4737L85.7006 48.906C86.2561 48.6015 86.7195 48.1533 87.0423 47.6082C87.3651 47.0632 87.5354 46.4414 87.5354 45.8079C87.5354 45.1745 87.3651 44.5527 87.0423 44.0077C86.7195 43.4627 86.2561 43.0144 85.7006 42.7099L85.7207 42.6966ZM49.6553 59.9196V52.8671H42.6028V59.9196H49.6553ZM49.6553 31.6762H42.6028V45.7678H49.6687L49.6553 31.6762Z" fill="#F00000"/>
</svg>
