<svg width="23" height="23" viewBox="0 0 23 23" fill="none" xmlns="http://www.w3.org/2000/svg">
<path d="M11.5 23C17.8514 23 23 17.8514 23 11.5C23 5.14862 17.8514 -4.50106e-07 11.5 -1.00536e-06C5.14862 -1.56062e-06 1.56062e-06 5.14862 1.00536e-06 11.5C4.50106e-07 17.8514 5.14862 23 11.5 23Z" fill="#D74025"/>
<path d="M11.4908 15C11.0813 15 10.7313 15.1495 10.4383 15.4461C10.1461 15.7435 10 16.0977 10 16.5104C10 16.9223 10.1493 17.274 10.448 17.5647C10.7466 17.8555 11.1006 18 11.5092 18C11.9187 18 12.2695 17.8513 12.5617 17.5547C12.8531 17.2573 13 16.9023 13 16.4904C13 16.0785 12.8499 15.7268 12.5512 15.4353C12.2542 15.1445 11.9002 15 11.4908 15Z" fill="white"/>
<path d="M10 5L13 5L13 13L10 13L10 5Z" fill="white"/>
</svg>
