<svg width="27" height="18" viewBox="0 0 27 18" fill="none" xmlns="http://www.w3.org/2000/svg">
<path fill-rule="evenodd" clip-rule="evenodd" d="M12.2539 0.0309725C12.1116 0.0563905 11.646 0.12948 11.2193 0.1935C8.56755 0.591433 5.34607 2.37269 3.15772 4.65092L2.59677 5.2349L2.9897 5.84609C3.20583 6.18222 3.49437 6.61 3.63083 6.79658L3.87913 7.13587L4.70452 6.30235C7.57662 3.40175 11.2415 1.89144 14.4667 2.27914C17.2738 2.61664 19.8779 3.98837 22.369 6.44167C23.4311 7.48761 24.6369 8.95974 25.4329 10.1821L25.9355 10.9538L26.3333 10.3931C27.2053 9.16361 27.2118 8.94656 26.4119 7.76267C25.205 5.97677 23.2638 3.9292 21.6935 2.78571C20.029 1.57366 17.8525 0.587214 16.0626 0.233578C15.2268 0.0684141 12.7755 -0.0619454 12.2539 0.0309725ZM12.0343 4.74964C9.94582 5.47537 8.71684 7.66849 9.14474 9.90611C9.5953 12.262 11.8653 13.8829 14.1688 13.4938C16.519 13.0969 18.132 10.9782 17.9121 8.5771C17.6465 5.67682 14.7652 3.80063 12.0343 4.74964ZM14.1558 6.84984C14.4121 6.92746 14.7713 7.1712 15.058 7.46219C15.8905 8.30731 15.9614 9.40039 15.2486 10.4034C14.4429 11.5372 12.5478 11.5372 11.7422 10.4034C11.0294 9.40049 11.1002 8.30815 11.9327 7.46113C12.6084 6.77369 13.2875 6.58701 14.1558 6.84984ZM0.488704 7.89387C-0.175291 8.91175 -0.16898 9.16466 0.54633 10.2196C3.36929 14.3825 7.23511 17.1432 11.2116 17.8362C12.4662 18.0547 14.5268 18.0546 15.7763 17.8358C18.3564 17.3839 20.9088 16.0607 23.2113 13.9812C23.7468 13.4975 24.2306 13.0265 24.2864 12.9345C24.3636 12.807 24.2581 12.5693 23.8417 11.9326C23.5414 11.4735 23.2578 11.0552 23.2115 11.003C23.1645 10.9499 22.6719 11.3497 22.0938 11.91C17.3708 16.4881 11.7053 17.0492 6.73913 13.4308C4.8984 12.0895 3.14965 10.2209 1.77065 8.12211C1.41941 7.58749 1.09756 7.14853 1.05535 7.14652C1.01313 7.14452 0.758109 7.48086 0.488704 7.89387Z" fill="#00A6CA"/>
</svg>
