<svg width="53" height="53" viewBox="0 0 53 53" fill="none" xmlns="http://www.w3.org/2000/svg">
<path fill-rule="evenodd" clip-rule="evenodd" d="M24.6896 10.0111C21.3441 10.2357 17.9673 11.6086 15.289 13.833C12.4347 16.2037 10.4027 19.4675 9.5004 23.1311C9.15032 24.5524 9.00603 25.6755 9.00082 27.0195C8.99737 27.9102 9.00082 27.9535 9.09164 28.1616C9.19418 28.3966 9.34625 28.5553 9.63909 28.733C10.0264 28.9682 9.98062 28.9656 14.0526 28.9834L17.7969 28.9998V27.5159V26.032H14.8173H11.8378V25.9384C11.8378 25.8868 11.8828 25.5789 11.9378 25.2541C12.2538 23.3883 12.8831 21.6342 13.814 20.0245C14.0917 19.5444 14.9243 18.2963 14.9669 18.2963C14.9775 18.2963 15.6821 19.0033 16.5329 19.8673L18.0799 21.4384L19.0905 20.3922L20.1012 19.346L18.5634 17.7529C17.7177 16.8767 17.0381 16.147 17.0533 16.1312C17.1216 16.0605 18.1719 15.3147 18.5217 15.0886C20.0587 14.095 22.0033 13.34 23.8219 13.0308C24.1025 12.9831 24.3812 12.9341 24.4413 12.9217L24.5505 12.8994V15.1247V17.3499H26.0006H27.4506V15.129V12.908L27.5599 12.9267C29.2333 13.2127 30.0193 13.4367 31.6322 14.0872L32.4964 14.4358L32.6849 14.2703C32.7886 14.1792 33.2626 13.7003 33.7382 13.206L34.603 12.3073L33.7382 11.8791C32.584 11.3076 32.0824 11.089 31.3241 10.8273C30.2623 10.4607 29.1097 10.2035 27.9075 10.0646C27.5154 10.0193 25.1523 9.98005 24.6896 10.0111ZM36.6391 14.4214C35.9392 15.0739 32.9797 18.0848 28.9094 22.2852L24.7449 26.5828L25.7574 27.6315L26.7699 28.6802L30.6361 24.6947C35.3868 19.7972 36.5407 18.6506 36.9273 18.4428C37.0372 18.3838 37.0482 18.3862 37.1575 18.4928C37.3056 18.6374 38.008 19.7387 38.3573 20.3742C39.0093 21.5601 39.4529 22.7177 39.8064 24.1556C39.9361 24.6833 40.1634 25.8575 40.1634 26.0001C40.1634 26.0176 38.8763 26.032 37.303 26.032H34.4427V27.516V29L38.0678 28.9826C40.5781 28.9705 41.7525 28.9508 41.8867 28.9184C42.1697 28.8501 42.414 28.7124 42.6535 28.4863C42.9601 28.1969 43.0052 28.0193 42.9996 27.1224C42.971 22.5634 41.1196 18.204 37.7739 14.8174C37.4821 14.5221 37.186 14.239 37.1159 14.1882L36.9882 14.0958L36.6391 14.4214Z" fill="#00A6CA"/>
</svg>
