<svg width="53" height="53" viewBox="0 0 53 53" fill="none" xmlns="http://www.w3.org/2000/svg">
<path fill-rule="evenodd" clip-rule="evenodd" d="M32.2654 14.1444C31.9019 14.3002 28.2556 17.7912 28.2556 17.9835C28.2556 18.0439 28.602 18.433 29.0252 18.8482L29.7948 19.6031L30.9225 18.493L32.0503 17.3829V25.9636V34.5442H33.1271H34.204V26.0378C34.204 21.3592 34.2395 17.5313 34.2829 17.5313C34.3263 17.5313 34.8214 17.9869 35.3832 18.5438L36.4048 19.5564L37.2024 18.7734L38 17.9905L36.179 16.1806C35.0692 15.0778 34.1975 14.2967 33.9476 14.1812C33.4571 13.9543 32.7454 13.9388 32.2654 14.1444ZM27.5377 28.4176V34.5442H28.6146H29.6914V28.4176V22.2909H28.6146H27.5377V28.4176ZM23.0251 30.0885V34.5442H24.102H25.1789V30.0885V25.6327H24.102H23.0251V30.0885ZM18.5126 31.81V34.5442H19.5894H20.6663V31.81V29.0758H19.5894H18.5126V31.81ZM14 33.4809V34.5442H15.0769H16.1537V33.4809V32.4176H15.0769H14V33.4809ZM14 37.9367V39H24.102H34.204V37.9367V36.8734H24.102H14V37.9367Z" fill="#00A6CA"/>
</svg>
