<svg width="53" height="53" viewBox="0 0 53 53" fill="none" xmlns="http://www.w3.org/2000/svg">
<path fill-rule="evenodd" clip-rule="evenodd" d="M24.4464 14.2211C23.3878 14.5018 22.7797 14.7842 21.9598 15.3761C20.5474 16.3957 19.4813 17.9291 19.0688 19.5342C18.8856 20.2469 18.8456 20.8789 18.7963 23.8326L18.7385 27.2954H19.9783H21.218L21.2706 23.9988C21.3186 20.9864 21.3434 20.6457 21.5576 20.0463C22.9594 16.1254 27.8334 15.3164 30.2991 18.5953C31.215 19.8133 31.2467 19.9871 31.3183 24.1927L31.3816 27.9049L31.6859 28.6252C31.8534 29.0213 32.0175 29.4078 32.0507 29.4839C32.0985 29.5941 30.3589 29.6225 23.5555 29.6225H15V30.8968V32.1711H18.6147H22.2293L22.2312 33.4731C22.2345 35.6696 22.588 36.7678 23.6183 37.7808C25.2556 39.3905 28.0201 39.4088 29.6534 37.8206C30.4528 37.0433 30.8724 36.1969 31.0399 35.0245L31.1151 34.4981H29.853H28.5908L28.4712 34.9477C28.4053 35.1949 28.1817 35.5873 27.9742 35.8196C27.0842 36.8161 25.6578 36.5926 24.9993 35.3533C24.8563 35.0842 24.7997 34.6504 24.7682 33.5839L24.7266 32.1711H30.9335C35.2893 32.1711 37.2119 32.1342 37.3798 32.0473C37.8059 31.8268 37.9973 31.4807 38 30.9262C38.0018 30.5083 37.941 30.3322 37.7007 30.06C37.4464 29.7722 37.2866 29.7045 36.6818 29.6285C35.509 29.4814 34.6617 28.9124 34.1372 27.9197C33.906 27.4823 33.8921 27.2975 33.8284 23.8049C33.7553 19.7827 33.7254 19.5727 33.0248 18.1536C32.2688 16.622 31.0938 15.4681 29.5102 14.7018C28.0407 13.9908 26.0342 13.8003 24.4464 14.2211Z" fill="#00A6CA"/>
</svg>
