<svg width="53" height="53" viewBox="0 0 53 53" fill="none" xmlns="http://www.w3.org/2000/svg">
<circle cx="26.5" cy="26.5" r="26.5" fill="#EDEDED"/>
<mask id="mask0_4096_13233" style="mask-type:alpha" maskUnits="userSpaceOnUse" x="12" y="11" width="30" height="30">
<rect x="12" y="11" width="30" height="30" fill="#D9D9D9"/>
</mask>
<g mask="url(#mask0_4096_13233)">
<path d="M36.5937 36.4447L37.3726 35.6658L35.0528 33.3461V29.8942H33.9471V33.7981L36.5937 36.4447ZM18.6346 36.6249C18.0112 36.6249 17.4788 36.4042 17.0373 35.9627C16.5958 35.5212 16.375 34.9887 16.375 34.3653V17.6346C16.375 17.0112 16.5958 16.4788 17.0373 16.0373C17.4788 15.5958 18.0112 15.375 18.6346 15.375H35.3653C35.9887 15.375 36.5212 15.5958 36.9627 16.0373C37.4042 16.4788 37.6249 17.0112 37.6249 17.6346V25.5408C37.3173 25.4094 37.0092 25.2981 36.7007 25.2067C36.3922 25.1154 36.0753 25.0424 35.75 24.988V17.6346C35.75 17.5385 35.7099 17.4503 35.6298 17.3702C35.5496 17.29 35.4615 17.25 35.3653 17.25H18.6346C18.5385 17.25 18.4503 17.29 18.3702 17.3702C18.29 17.4503 18.25 17.5385 18.25 17.6346V34.3653C18.25 34.4615 18.29 34.5496 18.3702 34.6298C18.4503 34.7099 18.5385 34.75 18.6346 34.75H25.9567C26.0032 35.0961 26.0721 35.4234 26.1634 35.7319C26.2548 36.0404 26.3661 36.3381 26.4976 36.6249H18.6346ZM18.25 34.75V17.25V24.988V24.8942V34.75ZM21.0625 31.7932H26.0841C26.1386 31.4679 26.2195 31.151 26.3269 30.8425C26.4343 30.534 26.5513 30.2259 26.6779 29.9183H21.0625V31.7932ZM21.0625 26.9374H28.988C29.5265 26.4807 30.101 26.0981 30.7115 25.7896C31.3221 25.4811 31.9759 25.262 32.673 25.1322V25.0625H21.0625V26.9374ZM21.0625 22.0817H32.9374V20.2067H21.0625V22.0817ZM34.5 39.197C32.9391 39.197 31.6114 38.6498 30.5168 37.5552C29.4223 36.4607 28.875 35.133 28.875 33.5721C28.875 32.0112 29.4223 30.6835 30.5168 29.5889C31.6114 28.4944 32.9391 27.9471 34.5 27.9471C36.0608 27.9471 37.3886 28.4944 38.4831 29.5889C39.5777 30.6835 40.1249 32.0112 40.1249 33.5721C40.1249 35.133 39.5777 36.4607 38.4831 37.5552C37.3886 38.6498 36.0608 39.197 34.5 39.197Z" fill="#00A6CA"/>
</g>
</svg>
