<svg width="53" height="53" viewBox="0 0 53 53" fill="none" xmlns="http://www.w3.org/2000/svg">
<path fill-rule="evenodd" clip-rule="evenodd" d="M13.2505 14.0558C13.2505 14.0865 13.1745 14.1116 13.0817 14.1116C12.9888 14.1116 12.9129 14.1367 12.9129 14.1674C12.9129 14.198 12.8623 14.2232 12.8004 14.2232C12.7385 14.2232 12.6878 14.2483 12.6878 14.2789C12.6878 14.3096 12.6372 14.3347 12.5753 14.3347C12.5134 14.3347 12.4628 14.3598 12.4628 14.3905C12.4628 14.4212 12.4244 14.4463 12.3775 14.4463C12.2663 14.4463 11.4501 15.2557 11.4501 15.3659C11.4501 15.4124 11.4248 15.4505 11.3938 15.4505C11.3629 15.4505 11.3376 15.5007 11.3376 15.5621C11.3376 15.6234 11.3123 15.6736 11.2813 15.6736C11.2504 15.6736 11.225 15.7238 11.225 15.7852C11.225 15.8466 11.1997 15.8968 11.1688 15.8968C11.1378 15.8968 11.1125 15.9972 11.1125 16.1199C11.1125 16.2427 11.0872 16.3431 11.0563 16.3431C11.019 16.3431 11 19.2813 11 25.046C11 30.8107 11.019 33.7489 11.0563 33.7489C11.0872 33.7489 11.1125 33.8242 11.1125 33.9162C11.1125 34.0083 11.1378 34.0836 11.1688 34.0836C11.1997 34.0836 11.225 34.1534 11.225 34.2386C11.225 34.3297 11.2715 34.4269 11.3376 34.4741C11.3995 34.5183 11.4501 34.5937 11.4501 34.6415C11.4501 34.6893 11.5007 34.7646 11.5626 34.8088C11.6245 34.8531 11.6751 34.9222 11.6751 34.9625C11.6751 35.0576 12.0431 35.4225 12.1391 35.4225C12.1797 35.4225 12.2494 35.4727 12.294 35.5341C12.3386 35.5954 12.4201 35.6457 12.4752 35.6457C12.5303 35.6457 12.5753 35.6708 12.5753 35.7014C12.5753 35.7321 12.626 35.7572 12.6878 35.7572C12.7497 35.7572 12.8004 35.7823 12.8004 35.813C12.8004 35.8437 12.851 35.8688 12.9129 35.8688C12.9748 35.8688 13.0254 35.8939 13.0254 35.9246C13.0254 35.9553 13.152 35.9804 13.3067 35.9804C13.4614 35.9804 13.588 36.0055 13.588 36.0362C13.588 36.073 15.7932 36.092 20.091 36.092H26.594L26.358 35.827C26.0008 35.4259 25.4996 34.6448 25.258 34.1128L25.042 33.6373H19.3968H13.7517L13.6136 33.5003C13.5377 33.425 13.4755 33.2995 13.4755 33.2214C13.4755 33.1433 13.4502 33.0794 13.4192 33.0794C13.382 33.0794 13.363 30.3644 13.363 25.046C13.363 19.7276 13.382 17.0125 13.4192 17.0125C13.4502 17.0125 13.4755 16.9487 13.4755 16.8706C13.4755 16.714 13.702 16.4547 13.8387 16.4547C13.8865 16.4547 13.9256 16.4296 13.9256 16.3989C13.9256 16.3618 17.9577 16.3431 25.9093 16.3431H37.8929V16.1199C37.8929 15.9972 37.8676 15.8968 37.8367 15.8968C37.8057 15.8968 37.7804 15.8466 37.7804 15.7852C37.7804 15.7238 37.7551 15.6736 37.7241 15.6736C37.6932 15.6736 37.6679 15.6234 37.6679 15.5621C37.6679 15.5007 37.6426 15.4505 37.6116 15.4505C37.5807 15.4505 37.5554 15.4124 37.5554 15.3659C37.5554 15.2557 36.7391 14.4463 36.6279 14.4463C36.581 14.4463 36.5427 14.4212 36.5427 14.3905C36.5427 14.3598 36.492 14.3347 36.4301 14.3347C36.3682 14.3347 36.3176 14.3096 36.3176 14.2789C36.3176 14.2483 36.267 14.2232 36.2051 14.2232C36.1432 14.2232 36.0926 14.198 36.0926 14.1674C36.0926 14.1367 36.0166 14.1116 35.9238 14.1116C35.8309 14.1116 35.755 14.0865 35.755 14.0558C35.755 14.0188 31.9667 14 24.5027 14C17.0387 14 13.2505 14.0188 13.2505 14.0558ZM15.951 20.1924V21.364H17.1325H18.314V20.1924V19.0209H17.1325H15.951V20.1924ZM20.902 20.1924V21.364H26.9782H33.0544V20.1924V19.0209H26.9782H20.902V20.1924ZM35.6425 21.0786V23.1363L35.9515 23.2606C36.3738 23.4306 37.2141 23.9291 37.6475 24.2668L38.0054 24.5458V21.7833V19.0209H36.824H35.6425V21.0786ZM15.951 25.1018V26.2733H17.1325H18.314V25.1018V23.9302H17.1325H15.951V25.1018ZM20.902 25.1018V26.2733H23.3426H25.7831L26.1104 25.841C26.514 25.3081 27.2162 24.6063 27.7321 24.2205L28.1202 23.9302H24.5111H20.902V25.1018ZM31.8448 24.1294C31.2813 24.1968 30.9032 24.2816 30.4383 24.4447C30.0931 24.5658 29.592 24.7942 29.5201 24.8631C29.4791 24.9023 29.4218 24.9344 29.3926 24.9344C29.3351 24.9344 28.7842 25.2832 28.5555 25.4644C27.9633 25.9334 26.922 27.117 26.922 27.3209C26.922 27.3533 26.903 27.3881 26.8798 27.3984C26.8258 27.4222 26.5281 28.021 26.5281 28.1059C26.5281 28.1412 26.5028 28.1701 26.4719 28.1701C26.4409 28.1701 26.4156 28.2076 26.4156 28.2536C26.4156 28.2995 26.3676 28.4814 26.309 28.658C26.0578 29.4143 26.0042 29.7865 26.0055 30.7676C26.0063 31.3185 26.0335 31.8002 26.0701 31.9113C26.1049 32.0168 26.173 32.2538 26.2213 32.4379C26.2696 32.622 26.3373 32.8793 26.3718 33.0097C26.4063 33.1401 26.4556 33.2468 26.4813 33.2468C26.5071 33.2468 26.5281 33.2757 26.5281 33.3109C26.5281 33.3989 26.8228 33.9955 26.8777 34.0185C26.902 34.0288 26.922 34.0689 26.922 34.1076C26.922 34.1851 27.5464 35.0168 27.8045 35.283C28.0273 35.5129 28.4387 35.8738 28.6313 36.0083C28.7192 36.0696 28.8209 36.145 28.8575 36.1756C28.9644 36.2653 29.119 36.3568 29.5381 36.5781C30.7428 37.2144 32.2465 37.487 33.494 37.2952C35.4853 36.9891 36.8039 36.2224 38.1081 34.6127C38.1334 34.5816 38.2273 34.4309 38.3167 34.278C38.4063 34.125 38.4994 33.9915 38.5238 33.9813C38.5481 33.9711 38.5681 33.9385 38.5681 33.909C38.5681 33.8795 38.6532 33.6744 38.7572 33.4534C38.8613 33.2324 38.9641 32.9888 38.9858 32.9121C39.0075 32.8353 39.0478 32.7224 39.0754 32.661C39.1029 32.5996 39.1773 32.2935 39.2406 31.9808C39.3661 31.3609 39.3954 30.1906 39.2969 29.7321C39.2672 29.5941 39.2144 29.3305 39.1797 29.1464C39.145 28.9623 39.0979 28.7865 39.0751 28.7559C39.0523 28.7252 39.0168 28.63 38.9962 28.5444C38.9755 28.4588 38.8707 28.2026 38.7633 27.9752C38.6559 27.7477 38.5681 27.5374 38.5681 27.5079C38.5681 27.4783 38.5481 27.4458 38.5238 27.4355C38.4994 27.4253 38.4061 27.2914 38.3165 27.138C38.2268 26.9846 38.1265 26.83 38.0935 26.7943C38.0605 26.7587 37.9454 26.6206 37.8375 26.4875C37.1481 25.6363 36.0434 24.8508 35.0517 24.5068C34.3431 24.2609 34.1079 24.2063 33.4094 24.1253C32.5938 24.0307 32.6717 24.0305 31.8448 24.1294ZM33.6266 25.8554C34.1034 25.9681 34.3327 26.0407 34.6016 26.1642C34.7254 26.221 34.89 26.295 34.9673 26.3286C35.329 26.4856 35.7674 26.8004 36.1424 27.1723C36.4692 27.4962 36.8802 28.0164 36.8802 28.1059C36.8802 28.1361 36.8992 28.1691 36.9224 28.1794C36.9939 28.2109 37.3766 29.0233 37.4173 29.2301C37.4385 29.3375 37.4768 29.4513 37.5025 29.4831C37.6058 29.611 37.67 30.704 37.6089 31.2942C37.5758 31.6145 37.5284 31.9024 37.5036 31.934C37.4789 31.9657 37.4419 32.0792 37.4213 32.1863C37.3868 32.3663 37.0171 33.1832 36.9414 33.2468C36.9231 33.2621 36.8728 33.3426 36.8297 33.4257C36.7519 33.5755 36.4524 33.9448 36.2304 34.1646C35.9633 34.4291 35.6438 34.6973 35.5955 34.6973C35.567 34.6973 35.51 34.7375 35.4688 34.7867C35.4276 34.8359 35.3423 34.8997 35.2791 34.9284C35.2159 34.9572 35.025 35.0545 34.8548 35.1448C34.6846 35.2352 34.5062 35.3095 34.4582 35.31C34.4102 35.3105 34.3469 35.334 34.3175 35.3622C34.2881 35.3904 34.0405 35.4657 33.7673 35.5296C33.1615 35.6711 32.2222 35.6862 31.7414 35.562C31.5632 35.5159 31.3781 35.4783 31.3301 35.4783C31.245 35.4783 31.0684 35.4095 30.6009 35.1943C30.4737 35.1357 30.3524 35.0878 30.3313 35.0878C30.3102 35.0878 30.2623 35.062 30.225 35.0305C30.1876 34.999 30.0304 34.8936 29.8757 34.7963C29.6394 34.6476 28.8311 33.8859 28.6371 33.6291C28.5105 33.4615 28.1679 32.8578 28.1301 32.7357C28.1078 32.6639 28.0713 32.5801 28.0489 32.5494C28.0264 32.5187 27.968 32.3681 27.9189 32.2147C27.5861 31.1737 27.6544 29.6961 28.0766 28.8032C28.1223 28.7065 28.1597 28.6137 28.1597 28.597C28.1597 28.5276 28.578 27.8597 28.6472 27.8186C28.6885 27.7941 28.7223 27.7437 28.7223 27.7066C28.7223 27.6695 28.9186 27.4556 29.1583 27.2314C29.7031 26.7218 29.7149 26.7122 29.9882 26.5506C30.112 26.4774 30.2217 26.3977 30.232 26.3733C30.2423 26.349 30.2775 26.3291 30.3102 26.3291C30.3429 26.3291 30.4737 26.2821 30.6009 26.2247C31.1107 25.9943 31.2498 25.9461 31.5136 25.9083C31.6648 25.8866 31.8265 25.8477 31.873 25.8218C32.0175 25.741 33.242 25.7645 33.6266 25.8554ZM15.951 30.0111V31.1826H17.1325H18.314V30.0111V28.8395H17.1325H15.951V30.0111ZM20.902 30.0111V31.1826H22.7024H24.5027L24.5031 30.5829C24.5032 30.253 24.5412 29.7343 24.5875 29.4302C24.6337 29.126 24.6715 28.8687 24.6715 28.8583C24.6715 28.848 23.8234 28.8395 22.7868 28.8395H20.902V30.0111ZM39.0059 36.2954C38.6825 36.6398 38.1219 37.1757 38.0631 37.1967C38.0371 37.206 38.6481 37.8405 39.4209 38.6068L40.8259 40L41.413 39.4193C41.7359 39.0999 42 38.8242 42 38.8065C42 38.7888 41.3806 38.1588 40.6235 37.4065L39.247 36.0387L39.0059 36.2954Z" fill="#00A6CA"/>
</svg>
