<svg width="22" height="22" viewBox="0 0 22 22" fill="none" xmlns="http://www.w3.org/2000/svg">
<path fill-rule="evenodd" clip-rule="evenodd" d="M9.1916 1.14568C5.08453 1.90901 1.89632 5.12192 1.15602 9.24355C0.4357 13.2543 2.2519 17.3316 5.72986 19.5113C8.55599 21.2824 12.3473 21.4917 15.3043 20.0398C18.8598 18.294 21 14.8962 21 10.9971C21 8.26566 20.0073 5.87574 18.0656 3.93304C16.5392 2.40561 14.8336 1.50752 12.7587 1.13855C11.7049 0.951194 10.2222 0.954131 9.1916 1.14568ZM12.4739 2.22238C16.1661 2.8134 19.1844 5.83378 19.775 9.52853C20.4781 13.9263 17.9272 18.1043 13.6969 19.4834C12.5087 19.8707 10.8674 19.9846 9.53866 19.7719C5.85174 19.1817 2.82728 16.1552 2.23751 12.4658C1.54465 8.13181 4.00563 4.01144 8.15337 2.56107C9.34787 2.14343 11.1152 2.00489 12.4739 2.22238ZM7.40377 6.28681C7.17091 6.53829 7.17602 6.86551 7.41663 7.1063L7.60092 7.29064H8.97642C10.6635 7.29064 10.9184 7.34855 11.3644 7.8327L11.6702 8.16482L7.59289 8.23475L7.41265 8.40427C7.16434 8.63785 7.16434 9.02053 7.41265 9.25411L7.59289 9.42363L9.57912 9.44419C10.6716 9.45552 11.5654 9.49055 11.5654 9.52217C11.5654 9.64979 11.2567 9.95939 10.9488 10.1405C10.6279 10.3293 10.5958 10.3334 9.20034 10.3677C7.81051 10.4019 7.77578 10.4064 7.64537 10.5678C7.56927 10.6619 7.51196 10.8412 7.51196 10.985C7.51196 11.2225 7.64286 11.3682 9.79458 13.525C11.132 14.8656 12.1493 15.8313 12.2514 15.8569C12.679 15.9643 13.1134 15.4855 12.9592 15.0767C12.9181 14.9676 12.1623 14.1529 11.2795 13.2662C10.3968 12.3793 9.69639 11.6319 9.72309 11.6052C9.74979 11.5785 9.96748 11.5566 10.2068 11.5566C11.3565 11.5566 12.4248 10.8324 12.8028 9.79659L12.9219 9.4702L13.6708 9.44692C14.3505 9.4258 14.4365 9.40789 14.6 9.25411C14.8661 9.0036 14.8509 8.62142 14.5651 8.38084C14.3649 8.21223 14.3013 8.19971 13.6391 8.19873L12.9281 8.19776L12.7709 7.78864C12.6844 7.56366 12.6137 7.3596 12.6137 7.33512C12.6137 7.31064 13.0182 7.29064 13.5127 7.29064C14.3165 7.29064 14.4314 7.27526 14.596 7.14567C14.8483 6.94706 14.8545 6.51948 14.6086 6.27345L14.4371 6.10176H7.57521L7.40377 6.28681Z" fill="#00A6CA" stroke="#00A6CA" stroke-width="0.3"/>
</svg>
