<svg width="29" height="16" viewBox="0 0 29 16" fill="none" xmlns="http://www.w3.org/2000/svg">
<path d="M25.7482 9.78089C25.2902 9.14336 24.8743 8.52966 24.4219 7.94892C23.0937 6.23787 21.5622 4.74482 19.6294 3.7354C15.9948 1.8155 12.439 1.28973 8.48924 4.61841C7.72531 4.24102 7.04199 3.90578 6.55469 3.64014C11.2647 -1.18709 17.3944 -0.774898 22.6339 3.32871C24.1324 4.52369 25.431 5.94973 26.481 7.55322C26.6171 7.72745 26.691 7.94219 26.691 8.16326C26.691 8.38434 26.6171 8.59907 26.481 8.77331C26.2337 9.10306 25.9992 9.42915 25.7482 9.78089Z" fill="#ACACAC"/>
<path d="M15.1592 15.6998C12.2244 15.6576 9.67982 14.5841 7.43749 12.7265C6.0959 11.5976 4.92365 10.2816 3.95676 8.81891C3.64716 8.36276 3.62151 7.93774 3.95676 7.49074C4.12164 7.26907 4.28285 7.04374 4.43124 6.80925C4.57963 6.57476 4.69321 6.50148 4.8874 6.80925C5.67086 8.09703 6.61385 9.28068 7.69397 10.3321C9.36106 11.9388 11.2407 13.179 13.5654 13.6095C16.2969 14.1151 18.7334 13.3768 20.9647 11.8105C21.245 11.6145 21.4484 11.4551 21.7103 11.2371C22.161 11.4661 22.8095 11.7867 23.5716 12.1531C21.7653 13.8019 19.7538 14.9963 17.2935 15.4781C16.5906 15.6189 15.876 15.6931 15.1592 15.6998Z" fill="#ACACAC"/>
<path d="M27.6695 14.0946L27.4807 14.4917C27.4672 14.5202 27.4482 14.5457 27.4248 14.5668C27.4014 14.5879 27.3741 14.6042 27.3444 14.6148C27.3147 14.6253 27.2832 14.6299 27.2517 14.6283C27.2202 14.6267 27.1894 14.6189 27.1609 14.6054L1.18579 2.25481C0.871181 2.10522 0.628876 1.83678 0.512188 1.50854C0.395499 1.18029 0.413982 0.819139 0.563574 0.504525L0.697307 0.223265C0.725472 0.164028 0.776018 0.118407 0.837821 0.0964367C0.899625 0.0744662 0.967623 0.0779456 1.02686 0.106111L27.1095 12.5078C27.3937 12.6445 27.6122 12.8883 27.7171 13.1856C27.822 13.483 27.8049 13.8098 27.6695 14.0946Z" fill="#ACACAC"/>
<path d="M14.3702 11.8674C13.7707 11.7935 13.1973 11.5782 12.6973 11.2394C12.1972 10.9005 11.7848 10.4477 11.494 9.91823C11.3479 9.65739 11.237 9.37833 11.1642 9.08835C10.9964 8.4521 10.9974 7.78309 11.167 7.14732C11.3366 6.51154 11.6691 5.93097 12.1315 5.46289L13.566 6.879C13.238 7.21134 13.0555 7.66034 13.0586 8.12724C13.0617 8.59413 13.2501 9.04068 13.5824 9.36864C13.8639 9.64631 14.2302 9.82174 14.623 9.86694C14.9305 9.9068 15.2218 10.0277 15.4671 10.2174C15.7124 10.407 15.9029 10.6584 16.019 10.946L16.2919 11.5945C15.686 11.8511 15.0236 11.9451 14.3702 11.8674Z" fill="#ACACAC"/>
<path d="M15.5783 3.77775C16.1819 3.79792 16.772 3.96145 17.2998 4.25484C17.8277 4.54823 18.2781 4.96305 18.6139 5.465C18.7827 5.71172 18.9183 5.97968 19.0169 6.2619C19.2396 6.88095 19.2975 7.5473 19.1847 8.19546C19.072 8.84363 18.7926 9.45131 18.3739 9.95881L16.8204 8.67643C17.0303 8.42136 17.1643 8.11244 17.2071 7.78489C17.2499 7.45734 17.1998 7.12435 17.0625 6.82392C16.9251 6.52348 16.7061 6.26769 16.4304 6.08572C16.1547 5.90375 15.8335 5.80292 15.5032 5.79475C15.1947 5.78234 14.8949 5.6883 14.6345 5.52224C14.3742 5.35617 14.1625 5.12402 14.0212 4.84945L13.6914 4.22842C14.27 3.91529 14.9207 3.75987 15.5783 3.77775Z" fill="#ACACAC"/>
</svg>
