<svg width="23" height="23" viewBox="0 0 23 23" fill="none" xmlns="http://www.w3.org/2000/svg">
<path d="M11.5 0C5.14862 0 0 5.14862 0 11.5C0 17.8514 5.14862 23 11.5 23C17.8514 23 23 17.8514 23 11.5C23 5.14862 17.8514 0 11.5 0Z" fill="#E5EDFC"/>
<path d="M11.5092 8C11.9187 8 12.2687 7.85046 12.5617 7.55388C12.8539 7.25647 13 6.90226 13 6.48956C13 6.0777 12.8507 5.72598 12.552 5.43526C12.2534 5.14453 11.8994 5 11.4908 5C11.0813 5 10.7305 5.14871 10.4383 5.44528C10.1469 5.74269 10 6.09774 10 6.50961C10 6.92147 10.1501 7.27318 10.4488 7.56475C10.7458 7.85547 11.0998 8 11.5092 8Z" fill="#00A6CA"/>
<path d="M13 18L10 18L10 10L13 10L13 18Z" fill="#00A6CA"/>
</svg>
