<svg width="114" height="60" viewBox="0 0 114 60" fill="none" xmlns="http://www.w3.org/2000/svg">
<path fill-rule="evenodd" clip-rule="evenodd" d="M0.43934 47.7412C-0.146447 48.327 -0.146447 49.2767 0.43934 49.8625L9.98528 59.4085C10.5711 59.9943 11.5208 59.9943 12.1066 59.4085C12.6924 58.8227 12.6924 57.8729 12.1066 57.2871L5.1384 50.3189C8.28796 50.3467 11.5226 50.4045 14.8155 50.4634C32.5032 50.7795 51.8743 51.1258 68.7921 47.0092C79.491 44.4059 89.3293 39.9989 97.2358 32.6001C105.156 25.1887 111.04 14.8658 113.969 0.603474L111.031 -3.8147e-06C108.21 13.7376 102.594 23.4772 95.186 30.4096C87.7645 37.3545 78.4465 41.5726 68.0829 44.0943C51.5819 48.1094 32.7353 47.7762 15.0849 47.4642C11.7063 47.4045 8.3714 47.3455 5.10522 47.318L12.1066 40.3166C12.6924 39.7308 12.6924 38.7811 12.1066 38.1953C11.5208 37.6095 10.5711 37.6095 9.98528 38.1953L0.43934 47.7412Z" fill="white"/>
</svg>
