<svg width="60" height="105" viewBox="0 0 60 105" fill="none" xmlns="http://www.w3.org/2000/svg">
<path fill-rule="evenodd" clip-rule="evenodd" d="M12.3898 104.061C11.804 104.646 10.8543 104.646 10.2685 104.061L0.722543 94.5147C0.136756 93.9289 0.136756 92.9792 0.722543 92.3934C1.30833 91.8076 2.25808 91.8076 2.84386 92.3934L9.809 99.3585C9.7806 96.6058 9.72601 93.7811 9.67045 90.9063C9.35934 74.8092 9.01784 57.1393 13.073 41.7116C15.6398 31.9459 19.9861 22.9664 27.2755 15.7552C34.5717 8.53732 44.7186 3.18815 58.72 0.526388L59.2803 3.47361C45.7604 6.04383 36.1877 11.1586 29.3854 17.8879C22.5763 24.624 18.445 33.0749 15.9744 42.4742C12.0369 57.4546 12.3632 74.5597 12.6695 90.6164C12.7262 93.586 12.7822 96.5197 12.8103 99.3975L19.8144 92.3934C20.4002 91.8076 21.35 91.8076 21.9357 92.3934C22.5215 92.9792 22.5215 93.9289 21.9357 94.5147L12.3898 104.061Z" fill="white"/>
</svg>
