<svg width="114" height="61" viewBox="0 0 114 61" fill="none" xmlns="http://www.w3.org/2000/svg">
<path fill-rule="evenodd" clip-rule="evenodd" d="M0.43934 13.0607C-0.146447 12.4749 -0.146447 11.5251 0.43934 10.9394L9.98528 1.39341C10.5711 0.807625 11.5208 0.807625 12.1066 1.39341C12.6924 1.9792 12.6924 2.92894 12.1066 3.51473L5.1384 10.4829C8.28796 10.4552 11.5226 10.3973 14.8155 10.3385C32.5032 10.0223 51.8743 9.6761 68.7921 13.7926C79.491 16.3959 89.3293 20.803 97.2358 28.2018C105.156 35.6132 111.04 45.9361 113.969 60.1984L111.031 60.8019C108.21 47.0643 102.594 37.3247 95.186 30.3923C87.7645 23.4473 78.4465 19.2293 68.0829 16.7076C51.5819 12.6925 32.7353 13.0257 15.0849 13.3377C11.7063 13.3974 8.3714 13.4564 5.10522 13.4839L12.1066 20.4853C12.6924 21.0711 12.6924 22.0208 12.1066 22.6066C11.5208 23.1924 10.5711 23.1924 9.98528 22.6066L0.43934 13.0607Z" fill="white"/>
</svg>
