<svg width="54" height="53" viewBox="0 0 54 53" fill="none" xmlns="http://www.w3.org/2000/svg">
<path fill-rule="evenodd" clip-rule="evenodd" d="M14.824 15.1938C14.2166 15.4948 14.1469 15.8578 14.2691 18.087C14.5882 23.9061 16.2035 28.3227 19.5123 32.4223C20.2616 33.3508 23.1373 36.2386 23.3126 36.2386C23.4266 36.2386 25.2927 34.8874 25.2989 34.8005C25.301 34.7701 24.8711 34.3719 24.3435 33.9156C23.2546 32.9738 21.6456 31.2468 20.7852 30.0964C18.3061 26.782 17.1105 23.3472 16.6565 18.2356L16.5852 17.4336H23.9849H31.3845L32.6071 16.2168L33.8297 15L24.522 15.0002C15.8839 15.0003 15.1861 15.0143 14.824 15.1938ZM32.2734 19.977L27.2579 24.954L26.1951 23.9036L25.1325 22.8532L24.2696 23.7144L23.4066 24.5757L25.0606 26.2037L26.7147 27.8316H27.2609H27.8072L32.8289 22.8538C35.5908 20.1161 37.8855 17.8761 37.9283 17.8761C38.1237 17.8761 37.692 21.1386 37.2816 22.7635C35.9463 28.0497 32.7102 32.289 26.3356 37.1026C25.8298 37.4845 25.4158 37.8353 25.4158 37.882C25.4158 37.9678 25.7532 38.2343 26.4909 38.731C27.0386 39.0998 27.5958 39.0894 28.1784 38.6998C28.4286 38.5324 29.1761 37.9673 29.8397 37.4438C36.022 32.5668 39.0131 27.7883 40.0721 21.0957C40.3364 19.4259 40.4823 16.28 40.3186 15.7823C40.1229 15.1874 39.652 15.0003 38.3486 15.0002L37.2889 15L32.2734 19.977Z" fill="#00A6CA"/>
</svg>
