<svg width="54" height="53" viewBox="0 0 54 53" fill="none" xmlns="http://www.w3.org/2000/svg">
<path fill-rule="evenodd" clip-rule="evenodd" d="M15.1895 16.7157C13.6807 18.2093 12.3865 19.5747 12.3134 19.7501C12.2217 19.9701 12.1911 22.6838 12.2146 28.5182L12.2488 36.9676L12.5877 37.5404C13.0081 38.2511 13.6674 38.8017 14.3906 39.0465C15.2186 39.3268 29.8962 39.3408 30.719 39.3408C31.4648 39.224 31.6644 39.0465 32.4992 37.5404L32.8381 36.9676L32.8743 35.8063L32.9106 34.6451L31.6106 35.9291L30.7033 36.5388L30.3107 36.6038C30.3076 36.4798 30.2718 36.0495 30.1187 36.2665L29.9269 36.5388H22.5516C15.8424 36.5388 15.161 36.5206 15.007 36.3364C14.8683 36.1703 14.8379 34.9625 14.8379 29.6298V23.1258L17.1187 23.0611C19.5685 22.9915 19.8958 22.9189 20.6657 22.274C20.8874 22.0883 21.2203 21.6802 21.4055 21.3674C21.7313 20.8165 21.7434 20.731 21.7831 18.6854L21.824 16.5724H25.7972C29.031 16.5724 28.9922 16.6047 29.187 16.7459C29.4017 16.9019 29.4325 17.1214 29.4879 18.8924L29.5496 20.8653L30.8266 19.5916L31.2807 18.3179L31.2329 17.292C31.1785 16.126 30.9474 15.0444 30.719 14.8174C30.3076 14.4087 31.1304 14 24.2141 14.0027L17.9327 14L15.1895 16.7157ZM19.1933 18.3302C19.1648 19.4866 19.1034 20.0246 18.9838 20.1676C18.8412 20.3379 18.541 20.3697 17.0743 20.3697H15.3341L17.1804 18.5323C18.1958 17.5217 19.0732 16.6949 19.1302 16.6949C19.1871 16.6949 19.2156 17.4307 19.1933 18.3302ZM17.6119 27.1681V28.4543H18.9064H20.2009V27.1681V25.8819H18.9064H17.6119V27.1681ZM17.6119 32.5578V33.844H18.9064H20.2009V32.5578V31.2716H18.9064H17.6119V32.5578Z" fill="#00A6CA"/>
<path fill-rule="evenodd" clip-rule="evenodd" d="M30.5827 18.2424C30.4713 18.3294 29.9556 19.1745 29.4366 20.1206C28.9175 21.0666 28.4467 21.8582 28.39 21.8798C28.3334 21.9014 27.4759 21.683 26.4844 21.3946C25.493 21.1062 24.5325 20.8703 24.3502 20.8703C23.9033 20.8703 23.55 21.2036 23.55 21.6251C23.55 21.7842 23.9169 23.1475 24.3652 24.6546L25.1804 27.3947L25.7478 27.0865C26.1784 26.8527 26.3521 26.706 26.4682 26.4782L26.6212 26.1782L26.1684 24.6246C25.9194 23.7702 25.7313 23.0555 25.7505 23.0364C25.7697 23.0174 26.4172 23.1849 27.1894 23.4087C28.7704 23.8668 29.1584 23.9064 29.4246 23.6364C29.5219 23.538 29.926 22.8579 30.3227 22.1253C30.7195 21.3927 31.0621 20.7936 31.0841 20.794C31.1062 20.7944 31.4649 21.4236 31.8815 22.1922C32.2979 22.9609 32.7118 23.6406 32.801 23.7027C33.0756 23.8937 33.5317 23.8315 34.9815 23.4056C35.7489 23.1802 36.3934 23.0122 36.4138 23.0325C36.4342 23.0527 36.2485 23.7655 36.0012 24.6166C35.4029 26.675 35.3191 26.4801 37.2577 27.5384C38.6428 28.2946 38.7091 28.3415 38.5284 28.4371C37.2252 29.1262 35.9783 29.833 35.8372 29.9624C35.512 30.2609 35.5299 30.4815 36.0118 32.1027C36.2604 32.9392 36.4519 33.6354 36.4374 33.6498C36.4228 33.6643 35.73 33.4783 34.898 33.2366C33.2721 32.7644 33.0095 32.7445 32.7093 33.0704C32.6192 33.1683 32.2263 33.8305 31.8361 34.5419C31.4459 35.2533 31.1051 35.8354 31.0787 35.8354C31.0522 35.8354 30.7004 35.2323 30.2968 34.4953C29.8933 33.7583 29.495 33.094 29.4118 33.0192C29.1113 32.7491 28.7873 32.782 27.2397 33.2401C26.4256 33.4811 25.7477 33.6664 25.733 33.6519C25.7184 33.6374 25.9077 32.9354 26.1535 32.092C26.5408 30.7629 26.589 30.5241 26.515 30.3011C26.4679 30.1596 26.3676 29.9898 26.2921 29.9239C26.1342 29.7861 21.2962 27.1396 21.2671 27.1751C21.2565 27.188 21.0656 27.5292 20.8427 27.9332L20.4375 28.6677L21.7734 29.3963C22.5081 29.797 23.4587 30.318 23.8858 30.554L24.6624 30.9833L24.5514 31.3595C24.4904 31.5666 24.2401 32.4125 23.9952 33.2394C23.7503 34.0664 23.55 34.8473 23.55 34.9747C23.55 35.452 23.9146 35.8354 24.3681 35.8354C24.4613 35.8354 25.4033 35.5835 26.4616 35.2755C27.5198 34.9675 28.4112 34.7437 28.4426 34.778C28.4738 34.8123 28.9216 35.6105 29.4376 36.5518C29.9536 37.4931 30.449 38.326 30.5385 38.4025C30.7585 38.591 31.41 38.591 31.6294 38.4025C31.7186 38.326 32.2127 37.4931 32.7272 36.5518C33.2418 35.6105 33.6891 34.8129 33.7212 34.7794C33.7535 34.7459 34.643 34.9696 35.6981 35.2767C36.7532 35.5837 37.6958 35.835 37.7929 35.8352C38.251 35.8358 38.6182 35.4555 38.6182 34.9804C38.6182 34.8561 38.3675 33.914 38.061 32.8869C37.557 31.1976 37.5163 31.0101 37.634 30.9211C37.7056 30.867 38.5372 30.4056 39.482 29.8958C41.0272 29.0622 41.2118 28.9406 41.3182 28.6878C41.4651 28.3387 41.4017 27.955 41.1618 27.7406C41.0633 27.6526 40.2072 27.1601 39.2594 26.6462C38.3117 26.1323 37.5289 25.7047 37.52 25.6961C37.511 25.6875 37.7545 24.8303 38.061 23.7913C38.3675 22.7523 38.6182 21.7747 38.6182 21.6189C38.6182 21.1962 38.2622 20.8699 37.8029 20.8714C37.6121 20.872 36.6631 21.1049 35.694 21.3888C34.7248 21.6727 33.8772 21.9042 33.8104 21.9031C33.7353 21.9018 33.3267 21.2337 32.7392 20.1512C32.2167 19.1889 31.6979 18.3301 31.5862 18.2429C31.3212 18.0357 30.8475 18.0356 30.5827 18.2424Z" fill="#00A6CA"/>
</svg>
