<svg width="54" height="53" viewBox="0 0 54 53" fill="none" xmlns="http://www.w3.org/2000/svg">
<path fill-rule="evenodd" clip-rule="evenodd" d="M23.451 12.2228C22.7981 12.5712 22.4937 13.115 22.4937 13.9323V14.625L20.9553 14.6673C19.4876 14.7075 19.3897 14.7262 18.831 15.0733C18.1371 15.5044 17.5132 16.2824 17.3382 16.935C17.2539 17.2498 17.2232 20.7669 17.2451 27.6182C17.276 37.3132 17.2891 37.8537 17.501 38.2537C17.8126 38.8422 18.391 39.4326 18.9564 39.7396C19.4341 39.9989 19.4672 40 27.29 40C35.1128 40 35.1459 39.9989 35.6236 39.7396C36.189 39.4326 36.7674 38.8422 37.0791 38.2537C37.2901 37.8552 37.3041 37.344 37.3353 28.8902L37.3682 19.9482H36.1062H34.8442V28.444V36.94L34.5498 37.2355L34.2556 37.5312H27.29H20.3244L20.0302 37.2355L19.7358 36.94V27.387C19.7358 18.9358 19.7574 17.8032 19.9225 17.5664C20.0941 17.3203 20.2052 17.2987 21.3014 17.2987H22.4937V18.6235V19.9482H27.29H32.0863V18.6258V17.3033L34.7133 17.2709L37.3401 17.2385L37.1804 16.7721C36.9602 16.1291 36.4278 15.4996 35.7415 15.0708C35.1905 14.7264 35.0907 14.7074 33.6247 14.6673L32.0863 14.625V13.9323C32.0863 13.107 31.7666 12.5346 31.1247 12.2108C30.7565 12.0249 30.3041 12.0001 27.2881 12C24.1904 11.9998 23.8296 12.0207 23.451 12.2228ZM29.3907 14.937C29.5318 15.1533 29.5697 15.4744 29.5433 16.2316L29.5083 17.2385H27.29H25.0717V16.1427C25.0717 15.3906 25.1234 14.9844 25.2362 14.8481C25.3765 14.6786 25.6814 14.6492 27.3019 14.6492C29.1739 14.6492 29.2059 14.6537 29.3907 14.937ZM22.4937 28.1977V29.4623H27.29H32.0863V28.1977V26.9332H27.29H22.4937V28.1977ZM22.4937 33.4967V34.7612H27.29H32.0863V33.4967V32.2322H27.29H22.4937V33.4967Z" fill="#00A6CA"/>
</svg>
