<svg width="40" height="40" viewBox="0 0 40 40" fill="none" xmlns="http://www.w3.org/2000/svg">
<path fill-rule="evenodd" clip-rule="evenodd" d="M13.1233 21.4035C12.0402 21.7226 11.0603 22.2332 10.0923 22.9832L9.22187 23.6578L8.71646 23.1211C7.89017 22.2433 7.1351 21.9539 5.45755 21.8718C4.60742 21.8302 3.58604 21.8854 3.10879 21.9988C1.67195 22.3405 0.473241 23.5352 0.220376 24.8779L0.120031 25.4108H3.08943C5.57534 25.4108 6.09964 25.4543 6.31025 25.6779C6.52647 25.9077 6.56167 26.5926 6.56167 30.5737C6.56167 33.9473 6.50966 35.2578 6.36963 35.4066C6.25392 35.5295 5.69393 35.6106 4.96127 35.6106C4.2286 35.6106 3.66862 35.5295 3.55291 35.4066C3.41799 35.2633 3.36086 34.3035 3.36086 32.1766V29.1507H1.68043H0V32.2647C0 36.0434 0.162921 36.8126 1.19615 37.9099C2.07157 38.84 3.08079 39.1805 4.96127 39.1805C6.7478 39.1805 7.82088 38.84 8.63884 38.0133L9.27645 37.3692L9.79946 37.8256C10.6499 38.5676 12.016 39.3151 13.0369 39.5971C13.7771 39.8015 14.9024 39.8605 18.0587 39.8605H22.1266L29.5435 36.358C37.7792 32.4689 38.0081 32.3227 38.8379 30.4213C39.2036 29.583 39.2819 29.1677 39.2855 28.0422C39.2895 26.8377 39.2284 26.5457 38.7619 25.5391C37.8249 23.5172 36.1924 22.4595 34.0087 22.4593C32.7592 22.4591 32.6618 22.4908 29.9641 23.7651C28.4437 24.4831 27.1404 25.0708 27.0677 25.0708C26.9949 25.0708 27.0042 24.6475 27.088 24.1302C27.2842 22.9205 27.1436 22.16 26.621 21.6049L26.203 21.1609L20.0233 21.176C15.6161 21.1869 13.6369 21.2522 13.1233 21.4035ZM23.2747 25.1133C23.0662 25.8213 22.2247 26.9535 21.4722 27.539C20.3823 28.3867 19.5397 28.6407 17.8161 28.6407H16.3242V30.5107V32.3806L17.7245 32.3777C18.4948 32.376 19.593 32.2669 20.1651 32.1352C20.7661 31.9966 23.8274 30.67 27.4148 28.9931C30.8301 27.3969 33.8045 26.0908 34.0245 26.0908C35.4313 26.0908 36.2925 27.7816 35.547 29.08C35.2845 29.5371 34.3352 30.0343 28.1385 32.96L21.0313 36.3155L17.5975 36.2605C14.2636 36.2071 14.137 36.1923 13.252 35.7517C9.78586 34.0259 8.95605 29.3183 11.6193 26.4894C12.358 25.7049 13.2704 25.1487 14.2011 24.9158C14.5327 24.8328 16.7352 24.7573 19.0956 24.7478L23.3876 24.7308L23.2747 25.1133Z" fill="#3EA3CE"/>
<path d="M27.1997 1.69243H24.2382C24.7736 2.27086 25.1124 2.97783 25.2547 3.81333H27.7769L27.1997 5.50577H25.2923C25.1417 6.77688 24.5519 7.73378 23.523 8.37648C22.494 9.01917 21.0635 9.34052 19.2314 9.34052L25.4178 15.4676V15.5961H22.5693L15.9186 8.98704L15.906 7.64809H19.0306C20.0763 7.64095 20.9254 7.44814 21.578 7.06966C22.2305 6.68404 22.6446 6.16275 22.8203 5.50577H15.5547L16.1319 3.81333H22.7952C22.3936 2.45653 21.1639 1.74956 19.1059 1.69243H15.5798L16.1696 0H27.7769L27.1997 1.69243Z" fill="#3EA3CE"/>
</svg>
