<svg width="40" height="40" viewBox="0 0 40 40" fill="none" xmlns="http://www.w3.org/2000/svg">
<circle cx="20" cy="20" r="18.75" fill="white" stroke="#3EA3CE" stroke-width="2.5"/>
<path fill-rule="evenodd" clip-rule="evenodd" d="M25.754 15.4587C25.754 16.5049 25.2798 17.4426 24.5305 18.0768C26.8403 18.8552 28.5 21.0023 28.5 23.5292C28.5 23.8062 28.5 24.1412 28.5 24.4977C28.5 26.1544 27.1571 27.4978 25.5004 27.498L14.5006 27.4996C12.8435 27.4998 11.5001 26.1564 11.5001 24.4993C11.5001 24.3801 11.5001 24.2678 11.5001 24.165C11.5001 21.8082 13.3203 19.814 15.6672 19.814V21.095C14.1335 21.095 12.8078 22.4232 12.8078 24.165V25.8347C12.8078 26.0469 12.9835 26.219 13.2001 26.219H26.1923C26.7446 26.219 27.1923 25.7713 27.1923 25.219V23.5292C27.1923 21.053 25.1431 19.0457 22.6154 19.0457H21.5693C19.0415 19.0457 16.9924 21.053 16.9924 23.5292H15.6847C15.6847 20.933 17.4368 18.7376 19.8458 18.0158C19.1372 17.3833 18.6925 16.4719 18.6925 15.4587C18.6925 13.5485 20.2733 12 22.2232 12C24.1732 12 25.754 13.5485 25.754 15.4587ZM24.4463 15.4587C24.4463 16.6614 23.451 17.6364 22.2232 17.6364C20.9955 17.6364 20.0002 16.6614 20.0002 15.4587C20.0002 14.256 20.9955 13.281 22.2232 13.281C23.451 13.281 24.4463 14.256 24.4463 15.4587Z" fill="#00A5C9"/>
<path fill-rule="evenodd" clip-rule="evenodd" d="M12.6774 16.355C12.6774 17.77 13.8484 18.917 15.2928 18.917C16.7372 18.917 17.9081 17.77 17.9081 16.355C17.9081 14.9401 16.7372 13.793 15.2928 13.793C13.8484 13.793 12.6774 14.9401 12.6774 16.355ZM13.9851 16.355C13.9851 17.0625 14.5706 17.636 15.2928 17.636C16.015 17.636 16.6005 17.0625 16.6005 16.355C16.6005 15.6475 16.015 15.074 15.2928 15.074C14.5706 15.074 13.9851 15.6475 13.9851 16.355Z" fill="#00A5C9"/>
</svg>
