<svg width="40" height="40" viewBox="0 0 40 40" fill="none" xmlns="http://www.w3.org/2000/svg">
<path fill-rule="evenodd" clip-rule="evenodd" d="M16.7914 9.21211C11.6072 10.0994 7.11118 12.8118 4.01457 16.9202C1.66327 20.0397 0.261412 23.839 0.0384905 27.6968C-0.0709077 29.589 0.0152673 29.893 0.796334 30.3689C1.24951 30.645 1.59726 30.6656 5.82865 30.6661L10.3742 30.6667V28.9871V27.3075H6.84655H3.31891L3.42204 26.6585C3.86483 23.8729 4.90595 21.3571 6.55838 19.0802L7.04395 18.411L8.86247 20.2235L10.681 22.036L11.8627 20.8551L13.0444 19.6742L11.2307 17.8568L9.41694 16.0395L10.0866 15.5543C12.3652 13.9028 14.9458 12.835 17.6699 12.4166L18.3193 12.3169V14.8498V17.3826H20H21.6807V14.8498V12.3169L22.3301 12.418C23.6086 12.617 24.9874 13.0014 26.3159 13.5294L27.6661 14.0661L28.8823 12.8614L30.0984 11.6567L28.4619 10.865C25.768 9.56177 23.0586 8.97544 19.8472 9.00079C18.7968 9.00918 17.4217 9.10416 16.7914 9.21211ZM25.6536 20.8178L18.5503 27.9176L19.7338 29.1004L20.9172 30.283L26.8657 24.3399C31.9528 19.2573 32.8477 18.425 33.0476 18.5908C33.4812 18.9504 34.8774 21.2676 35.3851 22.4707C35.8806 23.6441 36.3744 25.3782 36.578 26.6585L36.6811 27.3075H33.3063H29.9314V28.9871V30.6667L34.3241 30.6661C38.4043 30.6656 38.7516 30.6444 39.2037 30.3689C39.9847 29.893 40.0709 29.589 39.9615 27.6968C39.6859 22.9289 37.7424 18.5527 34.3171 14.9872C33.6465 14.2891 33.0211 13.718 32.9273 13.718C32.8335 13.718 29.5603 16.9129 25.6536 20.8178Z" fill="#00A6CA"/>
</svg>
