<svg width="53" height="53" viewBox="0 0 53 53" fill="none" xmlns="http://www.w3.org/2000/svg">
<circle cx="26.5" cy="26.5" r="26.5" fill="#EDEDED"/>
<mask id="mask0_8516_44593" style="mask-type:alpha" maskUnits="userSpaceOnUse" x="11" y="11" width="32" height="32">
<rect x="11" y="11" width="32" height="32" fill="#D9D9D9"/>
</mask>
<g mask="url(#mask0_8516_44593)">
<path d="M25.6 31.2719L32.6717 24.2001L31.2461 22.7745L25.6 28.4206L22.7743 25.595L21.3487 27.0206L25.6 31.2719ZM27 39.6411C24.1162 38.8548 21.7286 37.1573 19.8372 34.5488C17.9457 31.9402 17 29.024 17 25.8001V18.1283L27 14.3848L36.9999 18.1283V25.8001C36.9999 29.024 36.0542 31.9402 34.1628 34.5488C32.2713 37.1573 29.8837 38.8548 27 39.6411ZM27 37.5334C29.3111 36.8001 31.2222 35.3334 32.7333 33.1334C34.2444 30.9334 35 28.489 35 25.8001V19.5001L27 16.5129L19 19.5001V25.8001C19 28.489 19.7555 30.9334 21.2666 33.1334C22.7777 35.3334 24.6889 36.8001 27 37.5334Z" fill="#00A6CA"/>
</g>
</svg>
