<svg width="20" height="20" viewBox="0 0 20 20" fill="none" xmlns="http://www.w3.org/2000/svg">
<path d="M10 0C4.47706 0 0 4.47706 0 10C0 15.5229 4.47706 20 10 20C15.5229 20 20 15.5229 20 10C20 4.47706 15.5229 0 10 0Z" fill="white"/>
<path d="M10.0084 13.0435C10.3644 13.0435 10.6687 13.1735 10.9235 13.4314C11.1776 13.69 11.3047 13.998 11.3047 14.3569C11.3047 14.715 11.1748 15.0209 10.9152 15.2737C10.6555 15.5265 10.3476 15.6522 9.99231 15.6522C9.6363 15.6522 9.33124 15.5228 9.07714 15.265C8.82374 15.0063 8.69599 14.6976 8.69599 14.3395C8.69599 13.9813 8.82653 13.6755 9.08621 13.4219C9.3445 13.1691 9.65235 13.0435 10.0084 13.0435Z" fill="#2C2C2C"/>
<path d="M11.3047 4.34778L8.69599 4.34778L8.69599 11.3043L11.3047 11.3043L11.3047 4.34778Z" fill="#2C2C2C"/>
</svg>
