<svg width="712" height="273" viewBox="0 0 712 273" fill="none" xmlns="http://www.w3.org/2000/svg">
<circle cx="512" cy="68" r="68" fill="#C5EFF8"/>
<circle cx="68" cy="68" r="68" fill="#FEF09A"/>
<rect x="39.5" y="45.5" width="223" height="227" fill="white" stroke="#EDEDED"/>
<rect x="488.5" y="45.5" width="223" height="227" fill="white" stroke="#EDEDED"/>
<rect x="47" y="55" width="49" height="18" fill="#CAEFF7"/>
<rect x="496" y="55" width="49" height="205" fill="#CAEFF7"/>
<rect x="153" y="88" width="102" height="80" fill="#CAEFF7"/>
<rect x="628" y="79" width="76" height="60" fill="#CAEFF7"/>
<rect x="153" y="183" width="102" height="35" fill="#CAEFF7"/>
<rect x="667" y="180" width="37" height="35" fill="#CAEFF7"/>
<rect x="47" y="183" width="102" height="35" fill="#CAEFF7"/>
<rect x="555" y="180" width="50" height="35" fill="#CAEFF7"/>
<rect x="555" y="146" width="149" height="28" fill="#CAEFF7"/>
<rect x="611" y="180" width="50" height="35" fill="#CAEFF7"/>
<rect x="47" y="225" width="102" height="35" fill="#CAEFF7"/>
<rect x="555" y="225" width="50" height="35" fill="#CAEFF7"/>
<rect x="611" y="225" width="50" height="35" fill="#CAEFF7"/>
<rect x="153" y="225" width="102" height="35" fill="#CAEFF7"/>
<rect x="667" y="225" width="37" height="35" fill="#CAEFF7"/>
<rect x="100" y="55" width="49" height="18" fill="#CAEFF7"/>
<rect x="153" y="55" width="49" height="18" fill="#CAEFF7"/>
<rect x="206" y="55" width="49" height="18" fill="#CAEFF7"/>
<rect x="555" y="55" width="149" height="14" fill="#CAEFF7"/>
<circle cx="96" cy="128" r="40" fill="#CAEFF7"/>
<circle cx="585" cy="109" r="30" fill="#CAEFF7"/>
<path d="M479.011 101.5C479.84 101.494 480.506 100.817 480.5 99.9885L480.397 86.4889C480.391 85.6605 479.714 84.9941 478.886 85.0004C478.057 85.0067 477.391 85.6834 477.397 86.5118L477.489 98.5114L465.489 98.6027C464.661 98.609 463.994 99.2856 464 100.114C464.007 100.942 464.683 101.609 465.512 101.603L479.011 101.5ZM432.89 69.6555L432.324 71.0444L432.89 69.6555ZM378.5 59V57.5V59ZM324.11 69.6556L324.676 71.0444L324.11 69.6556ZM480.053 98.9313C466.714 85.7945 450.881 75.375 433.457 68.2667L432.324 71.0444C449.387 78.0056 464.89 88.2082 477.947 101.069L480.053 98.9313ZM433.457 68.2667C416.033 61.1583 397.358 57.5 378.5 57.5V60.5C396.971 60.5 415.26 64.0832 432.324 71.0444L433.457 68.2667ZM378.5 57.5C359.642 57.5 340.967 61.1583 323.543 68.2667L324.676 71.0444C341.74 64.0832 360.029 60.5 378.5 60.5V57.5ZM323.543 68.2667C306.119 75.3751 290.286 85.7945 276.947 98.9313L279.053 101.069C292.11 88.2083 307.613 78.0057 324.676 71.0444L323.543 68.2667Z" fill="#00A6CA"/>
<path d="M51.112 26.4C51.112 22.64 48.344 20.624 45.416 20.624C42.44 20.624 39.672 22.624 39.672 26.4C39.672 30.176 42.376 32.192 45.368 32.192C48.76 32.192 51.112 29.808 51.112 26.4ZM42.088 26.4C42.088 24.032 43.656 22.832 45.416 22.832C47.16 22.832 48.728 24.016 48.728 26.4C48.728 28.848 47.144 30 45.4 30C43.608 30 42.088 28.848 42.088 26.4ZM55.7972 20.8H53.3972V32H60.4692V29.856H55.7972V20.8ZM62.3582 20.816V32H66.5182C70.1342 32 72.0542 29.232 72.0063 26.368C72.0063 23.52 70.0862 20.816 66.5182 20.816H62.3582ZM64.7422 29.84V22.976H66.4862C68.5182 22.976 69.6222 24.592 69.6222 26.384C69.6222 28.176 68.5502 29.84 66.4862 29.84H64.7422ZM78.5607 20.816V32H82.7207C86.3367 32 88.2567 29.232 88.2087 26.368C88.2087 23.52 86.2887 20.816 82.7207 20.816H78.5607ZM80.9447 29.84V22.976H82.6887C84.7207 22.976 85.8247 24.592 85.8247 26.384C85.8247 28.176 84.7527 29.84 82.6887 29.84H80.9447ZM96.8169 30.144L97.6969 32H100.177V31.68L95.0569 20.704H93.9529L88.8009 31.68V32H91.2969L92.1609 30.144H96.8169ZM94.4969 24.432L96.0489 28.128H92.9449L94.4969 24.432ZM100.951 28.688C100.951 31.136 103.271 32.24 105.511 32.24C107.719 32.192 110.007 31.376 110.007 28.736C110.007 26.112 107.975 25.584 105.607 25.376C104.439 25.248 103.463 25.024 103.463 24.032C103.463 23.168 104.407 22.656 105.367 22.656C106.327 22.656 107.271 23.04 107.399 23.952H109.639C109.639 21.44 107.463 20.56 105.367 20.56C103.143 20.56 101.111 21.6 101.111 24.08C101.111 26.4 103.159 27.088 105.191 27.264C106.263 27.344 107.639 27.456 107.639 28.736C107.639 29.904 106.487 30.144 105.495 30.144C104.407 30.144 103.287 29.712 103.239 28.688H100.951ZM121.342 32V20.8H118.942V25.072H114.654V20.8H112.27V32H114.654V27.264H118.942V32H121.342ZM132.535 24.128C132.535 22.032 131.063 20.816 129.015 20.816H124.263V32H129.463C131.703 32 133.015 30.656 133.015 28.688C133.015 27.536 132.455 26.624 131.415 26.192C132.119 25.76 132.535 24.944 132.535 24.128ZM128.839 22.864C129.671 22.864 130.199 23.392 130.183 24.208C130.167 24.96 129.655 25.408 128.839 25.408H126.647V22.864H128.839ZM129.191 27.36C129.559 27.36 129.879 27.392 130.151 27.584C130.487 27.824 130.663 28.24 130.647 28.688C130.599 29.44 130.119 29.92 129.303 29.92H126.647V27.36H129.191ZM146.133 26.4C146.133 22.64 143.365 20.624 140.437 20.624C137.461 20.624 134.693 22.624 134.693 26.4C134.693 30.176 137.397 32.192 140.389 32.192C143.781 32.192 146.133 29.808 146.133 26.4ZM137.109 26.4C137.109 24.032 138.677 22.832 140.437 22.832C142.181 22.832 143.749 24.016 143.749 26.4C143.749 28.848 142.165 30 140.421 30C138.629 30 137.109 28.848 137.109 26.4ZM154.745 30.144L155.625 32H158.105V31.68L152.985 20.704H151.881L146.729 31.68V32H149.225L150.089 30.144H154.745ZM152.425 24.432L153.977 28.128H150.873L152.425 24.432ZM166.396 27.92C167.676 27.296 168.396 26.048 168.396 24.624C168.396 22.64 167.004 20.784 164.444 20.784C162.844 20.768 161.26 20.784 159.66 20.784V31.984H162.06V28.288H164.06L166.364 31.984H168.924V31.648L166.396 27.92ZM162.028 26.32V22.88H164.428C165.452 22.88 166.076 23.632 166.076 24.576C166.092 25.536 165.436 26.32 164.428 26.32H162.028ZM171.043 20.816V32H175.203C178.819 32 180.739 29.232 180.691 26.368C180.691 23.52 178.771 20.816 175.203 20.816H171.043ZM173.427 29.84V22.976H175.171C177.203 22.976 178.307 24.592 178.307 26.384C178.307 28.176 177.235 29.84 175.171 29.84H173.427Z" fill="#2C2C2C"/>
<path d="M498.016 32.032H498.736V20.8H496.336V27.152L490.048 20.752H489.296V32H491.68V25.6L498.016 32.032ZM508.511 20.8H501.647V32H508.639V29.824H504.063V27.264H508.223V25.168H504.063V22.896H508.511V20.8ZM517.091 20.992L514.755 27.936H514.707L513.699 24.224L512.563 20.8H510.051V21.152L513.923 32.096H515.395L517.555 26.048H517.603L519.827 32.096H521.252L525.108 21.152V20.8H522.595L521.476 24.208L520.531 27.936H520.483L518.068 20.992H517.091ZM530.701 20.816V32H534.861C538.477 32 540.397 29.232 540.349 26.368C540.349 23.52 538.429 20.816 534.861 20.816H530.701ZM533.085 29.84V22.976H534.829C536.861 22.976 537.965 24.592 537.965 26.384C537.965 28.176 536.893 29.84 534.829 29.84H533.085ZM548.957 30.144L549.837 32H552.317V31.68L547.197 20.704H546.093L540.941 31.68V32H543.437L544.301 30.144H548.957ZM546.637 24.432L548.189 28.128H545.085L546.637 24.432ZM553.092 28.688C553.092 31.136 555.412 32.24 557.652 32.24C559.86 32.192 562.148 31.376 562.148 28.736C562.148 26.112 560.116 25.584 557.748 25.376C556.58 25.248 555.604 25.024 555.604 24.032C555.604 23.168 556.548 22.656 557.508 22.656C558.468 22.656 559.412 23.04 559.54 23.952H561.78C561.78 21.44 559.604 20.56 557.508 20.56C555.284 20.56 553.252 21.6 553.252 24.08C553.252 26.4 555.3 27.088 557.332 27.264C558.404 27.344 559.78 27.456 559.78 28.736C559.78 29.904 558.628 30.144 557.636 30.144C556.548 30.144 555.428 29.712 555.38 28.688H553.092ZM573.483 32V20.8H571.083V25.072H566.795V20.8H564.411V32H566.795V27.264H571.083V32H573.483ZM584.675 24.128C584.675 22.032 583.203 20.816 581.155 20.816H576.403V32H581.603C583.843 32 585.155 30.656 585.155 28.688C585.155 27.536 584.595 26.624 583.555 26.192C584.259 25.76 584.675 24.944 584.675 24.128ZM580.979 22.864C581.811 22.864 582.339 23.392 582.323 24.208C582.307 24.96 581.795 25.408 580.979 25.408H578.787V22.864H580.979ZM581.331 27.36C581.699 27.36 582.019 27.392 582.291 27.584C582.627 27.824 582.803 28.24 582.787 28.688C582.739 29.44 582.259 29.92 581.443 29.92H578.787V27.36H581.331ZM598.273 26.4C598.273 22.64 595.505 20.624 592.577 20.624C589.601 20.624 586.833 22.624 586.833 26.4C586.833 30.176 589.537 32.192 592.529 32.192C595.921 32.192 598.273 29.808 598.273 26.4ZM589.249 26.4C589.249 24.032 590.817 22.832 592.577 22.832C594.321 22.832 595.889 24.016 595.889 26.4C595.889 28.848 594.305 30 592.561 30C590.769 30 589.249 28.848 589.249 26.4ZM606.886 30.144L607.766 32H610.246V31.68L605.126 20.704H604.022L598.87 31.68V32H601.366L602.23 30.144H606.886ZM604.566 24.432L606.118 28.128H603.014L604.566 24.432ZM618.537 27.92C619.817 27.296 620.537 26.048 620.537 24.624C620.537 22.64 619.145 20.784 616.585 20.784C614.985 20.768 613.401 20.784 611.801 20.784V31.984H614.201V28.288H616.201L618.505 31.984H621.065V31.648L618.537 27.92ZM614.169 26.32V22.88H616.569C617.593 22.88 618.217 23.632 618.217 24.576C618.233 25.536 617.577 26.32 616.569 26.32H614.169ZM623.183 20.816V32H627.343C630.959 32 632.879 29.232 632.831 26.368C632.831 23.52 630.911 20.816 627.343 20.816H623.183ZM625.567 29.84V22.976H627.311C629.343 22.976 630.447 24.592 630.447 26.384C630.447 28.176 629.375 29.84 627.311 29.84H625.567Z" fill="#2C2C2C"/>
</svg>
