<svg width="334" height="189" viewBox="0 0 334 189" fill="none" xmlns="http://www.w3.org/2000/svg">
<circle cx="31.4135" cy="45.4135" r="31.4135" fill="#FEF09A"/>
<rect x="17.2728" y="35.2728" width="103.454" height="102.454" fill="white" stroke="#EDEDED" stroke-width="0.545506"/>
<rect x="22.1058" y="39.5962" width="22.1058" height="8.14423" fill="#CAEFF7"/>
<rect x="70.9712" y="54.7212" width="46.5385" height="36.0673" fill="#CAEFF7"/>
<rect x="70.9712" y="97.769" width="46.5385" height="16.2885" fill="#CAEFF7"/>
<rect x="22.1058" y="97.769" width="46.5385" height="16.2885" fill="#CAEFF7"/>
<rect x="22.1058" y="117.548" width="46.5385" height="16.2885" fill="#CAEFF7"/>
<rect x="70.9712" y="117.548" width="46.5385" height="16.2885" fill="#CAEFF7"/>
<rect x="46.5385" y="39.5962" width="22.1058" height="8.14423" fill="#CAEFF7"/>
<rect x="70.9712" y="39.5962" width="22.1058" height="8.14423" fill="#CAEFF7"/>
<rect x="94.2404" y="39.5962" width="23.2692" height="8.14423" fill="#CAEFF7"/>
<ellipse cx="44.2115" cy="72.7548" rx="18.6154" ry="18.0337" fill="#CAEFF7"/>
<path d="M28.0779 32.1C28.0779 28.908 25.7679 27.032 23.0939 27.032C20.4339 27.032 18.0959 28.908 18.0959 32.1C18.0959 35.292 20.3779 37.168 23.0659 37.168C26.0199 37.168 28.0779 35.082 28.0779 32.1ZM19.7479 32.1C19.7479 29.832 21.2599 28.558 23.1079 28.558C24.9419 28.558 26.4539 29.86 26.4539 32.1C26.4539 34.382 24.9279 35.628 23.0939 35.628C21.2459 35.628 19.7479 34.382 19.7479 32.1ZM31.5736 27.2H29.9356V37H35.7876V35.53H31.5736V27.2ZM37.2503 27.214V37H40.7923C43.8723 37 45.5803 34.662 45.5803 32.086C45.5803 29.51 43.8443 27.214 40.7923 27.214H37.2503ZM38.8743 35.516V28.684H40.7783C42.7803 28.684 43.9563 30.252 43.9563 32.1C43.9563 33.948 42.7943 35.516 40.7643 35.516H38.8743ZM50.9906 27.214V37H54.5326C57.6126 37 59.3206 34.662 59.3206 32.086C59.3206 29.51 57.5846 27.214 54.5326 27.214H50.9906ZM52.6146 35.516V28.684H54.5186C56.5206 28.684 57.6966 30.252 57.6966 32.1C57.6966 33.948 56.5346 35.516 54.5046 35.516H52.6146ZM66.8247 34.97L67.7907 37H69.4847V36.79L64.9767 27.13H64.2207L59.6847 36.79V37H61.3927L62.3447 34.97H66.8247ZM64.5987 29.678L66.3067 33.598H62.8767L64.5987 29.678ZM69.994 34.214C70.036 36.272 72.038 37.224 73.956 37.182C75.79 37.182 77.82 36.37 77.82 34.214C77.82 31.96 76 31.568 74.012 31.344C72.878 31.19 71.772 31.05 71.772 29.944C71.772 28.838 72.934 28.474 73.83 28.474C74.796 28.474 75.902 28.81 75.972 29.86H77.512C77.47 27.858 75.706 27.018 73.844 27.018C71.94 27.018 70.162 27.97 70.162 29.986C70.162 31.946 71.94 32.52 73.732 32.674C74.866 32.786 76.196 32.912 76.196 34.2C76.196 35.418 74.964 35.726 73.928 35.726C72.864 35.726 71.66 35.32 71.59 34.214H69.994ZM87.3885 37V27.2H85.7505V31.134H81.2705V27.2H79.6465V37H81.2705V32.632H85.7505V37H87.3885ZM96.8744 29.958C96.8744 28.11 95.5724 27.2 93.7944 27.2H89.8184V37H94.2004C96.1044 37 97.3084 35.866 97.3084 34.116C97.3084 33.01 96.7484 32.198 95.7264 31.848C96.4964 31.47 96.8744 30.784 96.8744 29.958ZM93.6824 28.614C94.6344 28.614 95.2784 29.034 95.2784 30C95.2644 30.952 94.6204 31.316 93.6824 31.316H91.4424V28.614H93.6824ZM93.9204 32.646C94.3684 32.646 94.8164 32.674 95.1944 32.954C95.5304 33.234 95.6984 33.626 95.6984 34.116C95.6564 35.054 95.0124 35.572 94.1024 35.572H91.4424V32.646H93.9204ZM108.592 32.1C108.592 28.908 106.282 27.032 103.608 27.032C100.948 27.032 98.6096 28.908 98.6096 32.1C98.6096 35.292 100.892 37.168 103.58 37.168C106.534 37.168 108.592 35.082 108.592 32.1ZM100.262 32.1C100.262 29.832 101.774 28.558 103.622 28.558C105.456 28.558 106.968 29.86 106.968 32.1C106.968 34.382 105.442 35.628 103.608 35.628C101.76 35.628 100.262 34.382 100.262 32.1ZM116.084 34.97L117.05 37H118.744V36.79L114.236 27.13H113.48L108.944 36.79V37H110.652L111.604 34.97H116.084ZM113.858 29.678L115.566 33.598H112.136L113.858 29.678ZM125.382 33.332C126.628 32.884 127.44 31.75 127.44 30.392C127.44 28.642 126.166 27.2 124.038 27.2H119.992V37H121.63V33.584H123.786L126.222 37H127.874V36.762L125.382 33.332ZM121.602 32.24V28.614H124.024C125.102 28.614 125.858 29.384 125.858 30.406C125.858 31.47 125.088 32.24 124.024 32.24H121.602ZM129.549 27.214V37H133.091C136.171 37 137.879 34.662 137.879 32.086C137.879 29.51 136.143 27.214 133.091 27.214H129.549ZM131.173 35.516V28.684H133.077C135.079 28.684 136.255 30.252 136.255 32.1C136.255 33.948 135.093 35.516 133.063 35.516H131.173Z" fill="#2C2C2C"/>
<circle cx="204.896" cy="57.8955" r="43.8955" fill="#C5EFF8"/>
<rect x="189.323" y="43.3228" width="144.354" height="145.354" fill="white" stroke="#EDEDED" stroke-width="0.645522"/>
<rect x="194.567" y="49.5039" width="31.6306" height="132.332" fill="#CAEFF7"/>
<rect x="279.776" y="64.9961" width="49.0597" height="38.7313" fill="#CAEFF7"/>
<rect x="304.951" y="130.194" width="23.8843" height="22.5933" fill="#CAEFF7"/>
<rect x="232.653" y="130.194" width="32.2761" height="22.5933" fill="#CAEFF7"/>
<rect x="232.653" y="108.246" width="96.1828" height="18.0746" fill="#CAEFF7"/>
<rect x="268.802" y="130.194" width="32.2761" height="22.5933" fill="#CAEFF7"/>
<rect x="232.653" y="159.243" width="32.2761" height="22.5933" fill="#CAEFF7"/>
<rect x="268.802" y="159.243" width="32.2761" height="22.5933" fill="#CAEFF7"/>
<rect x="304.951" y="159.243" width="23.8843" height="22.5933" fill="#CAEFF7"/>
<rect x="232.653" y="49.5039" width="96.1828" height="9.03731" fill="#CAEFF7"/>
<circle cx="252.019" cy="84.3618" r="19.3657" fill="#CAEFF7"/>
<path d="M198.111 37.014H198.671V27.2H197.047V30.77L197.159 33.766L191.209 27.172H190.621V37H192.231V33.444L192.119 30.336L198.111 37.014ZM207.071 27.2H201.107V37H207.155V35.516H202.745V32.66H206.833V31.218H202.745V28.628H207.071V27.2ZM214.465 27.368L212.113 34.032H212.085L211.063 30.504L209.999 27.2H208.305V27.438L211.553 37.07H212.449L214.815 30.784H214.843L217.209 37.07H218.049L221.311 27.438V27.2H219.589L218.553 30.504L217.573 34.018H217.545L215.193 27.368H214.465ZM225.922 27.214V37H229.464C232.544 37 234.252 34.662 234.252 32.086C234.252 29.51 232.516 27.214 229.464 27.214H225.922ZM227.546 35.516V28.684H229.45C231.452 28.684 232.628 30.252 232.628 32.1C232.628 33.948 231.466 35.516 229.436 35.516H227.546ZM241.756 34.97L242.722 37H244.416V36.79L239.908 27.13H239.152L234.616 36.79V37H236.324L237.276 34.97H241.756ZM239.53 29.678L241.238 33.598H237.808L239.53 29.678ZM244.926 34.214C244.968 36.272 246.97 37.224 248.888 37.182C250.722 37.182 252.752 36.37 252.752 34.214C252.752 31.96 250.932 31.568 248.944 31.344C247.81 31.19 246.704 31.05 246.704 29.944C246.704 28.838 247.866 28.474 248.762 28.474C249.728 28.474 250.834 28.81 250.904 29.86H252.444C252.402 27.858 250.638 27.018 248.776 27.018C246.872 27.018 245.094 27.97 245.094 29.986C245.094 31.946 246.872 32.52 248.664 32.674C249.798 32.786 251.128 32.912 251.128 34.2C251.128 35.418 249.896 35.726 248.86 35.726C247.796 35.726 246.592 35.32 246.522 34.214H244.926ZM262.32 37V27.2H260.682V31.134H256.202V27.2H254.578V37H256.202V32.632H260.682V37H262.32ZM271.806 29.958C271.806 28.11 270.504 27.2 268.726 27.2H264.75V37H269.132C271.036 37 272.24 35.866 272.24 34.116C272.24 33.01 271.68 32.198 270.658 31.848C271.428 31.47 271.806 30.784 271.806 29.958ZM268.614 28.614C269.566 28.614 270.21 29.034 270.21 30C270.196 30.952 269.552 31.316 268.614 31.316H266.374V28.614H268.614ZM268.852 32.646C269.3 32.646 269.748 32.674 270.126 32.954C270.462 33.234 270.63 33.626 270.63 34.116C270.588 35.054 269.944 35.572 269.034 35.572H266.374V32.646H268.852ZM283.523 32.1C283.523 28.908 281.213 27.032 278.539 27.032C275.879 27.032 273.541 28.908 273.541 32.1C273.541 35.292 275.823 37.168 278.511 37.168C281.465 37.168 283.523 35.082 283.523 32.1ZM275.193 32.1C275.193 29.832 276.705 28.558 278.553 28.558C280.387 28.558 281.899 29.86 281.899 32.1C281.899 34.382 280.373 35.628 278.539 35.628C276.691 35.628 275.193 34.382 275.193 32.1ZM291.016 34.97L291.982 37H293.676V36.79L289.168 27.13H288.412L283.876 36.79V37H285.584L286.536 34.97H291.016ZM288.79 29.678L290.498 33.598H287.068L288.79 29.678ZM300.314 33.332C301.56 32.884 302.372 31.75 302.372 30.392C302.372 28.642 301.098 27.2 298.97 27.2H294.924V37H296.562V33.584H298.718L301.154 37H302.806V36.762L300.314 33.332ZM296.534 32.24V28.614H298.956C300.034 28.614 300.79 29.384 300.79 30.406C300.79 31.47 300.02 32.24 298.956 32.24H296.534ZM304.481 27.214V37H308.023C311.103 37 312.811 34.662 312.811 32.086C312.811 29.51 311.075 27.214 308.023 27.214H304.481ZM306.105 35.516V28.684H308.009C310.011 28.684 311.187 30.252 311.187 32.1C311.187 33.948 310.025 35.516 307.995 35.516H306.105Z" fill="#2C2C2C"/>
<path d="M184.01 14.9999C184.562 14.9946 185.005 14.5425 185 13.9903L184.913 4.9907C184.907 4.43844 184.455 3.9951 183.903 4.00046C183.351 4.00582 182.907 4.45786 182.913 5.01012L182.99 13.0097L174.991 13.0874C174.438 13.0927 173.995 13.5448 174 14.097C174.006 14.6493 174.458 15.0927 175.01 15.0873L184.01 14.9999ZM134.682 4.37859L134.305 3.45213V3.45213L134.682 4.37859ZM184.7 13.286C180.404 9.07263 175.305 5.73137 169.695 3.45212L168.942 5.30505C174.313 7.48688 179.191 10.6843 183.3 14.7139L184.7 13.286ZM169.695 3.45212C164.084 1.17287 158.072 0 152 0V2C157.814 2 163.571 3.12321 168.942 5.30505L169.695 3.45212ZM152 0C145.928 0 139.916 1.17288 134.305 3.45213L135.058 5.30506C140.429 3.12322 146.186 2 152 2V0ZM134.305 3.45213C128.695 5.73138 123.596 9.07265 119.3 13.2861L120.7 14.7139C124.809 10.6843 129.687 7.48689 135.058 5.30506L134.305 3.45213Z" fill="#00A6CA"/>
</svg>
