<svg width="33" height="38" viewBox="0 0 33 38" fill="none" xmlns="http://www.w3.org/2000/svg">
<circle cx="14" cy="14" r="14" fill="#FCD800"/>
<path d="M19.5631 24.0949L19.6197 24.2H19.7391H21.2174H21.5617L21.3911 23.9009L18.7641 19.2953C19.4372 19.1587 19.998 18.8999 20.437 18.5111L20.4373 18.5108C20.9153 18.0856 21.1975 17.5115 21.2945 16.805H23H23.2V16.605V15.619V15.419H23H21.2589C21.1747 14.9433 20.9984 14.5306 20.7277 14.186H23H23.2V13.986V13V12.8H23H17H16.8V13V13.986V14.186H17H17.3188C18.0338 14.186 18.561 14.3117 18.922 14.5402L18.922 14.5402L18.9238 14.5413C19.2258 14.7279 19.4369 15.0142 19.5487 15.419H17H16.8V15.619V16.605V16.805H17H19.5786C19.4883 17.2508 19.2851 17.541 18.9881 17.7099L18.9881 17.7099L18.9863 17.7109C18.6249 17.9213 18.0768 18.0381 17.3188 18.0381H17H16.8V18.2381V18.916V18.9664L16.8239 19.0108L19.5631 24.0949Z" fill="#00A6CA" stroke="#00A6CA" stroke-width="0.4"/>
<path fill-rule="evenodd" clip-rule="evenodd" d="M15.6853 27.1427C14.9684 27.3304 14.3199 27.6308 13.6793 28.072L13.1032 28.4688L12.7687 28.1531C12.2219 27.6367 11.7221 27.4665 10.6119 27.4182C10.0493 27.3937 9.3733 27.4262 9.05746 27.4929C8.10652 27.6939 7.3132 28.3967 7.14585 29.1865L7.07944 29.5H9.04464C10.6899 29.5 11.0368 29.5256 11.1762 29.6571C11.3193 29.7923 11.3426 30.1952 11.3426 32.5371C11.3426 34.5216 11.3082 35.2925 11.2155 35.38C11.139 35.4523 10.7683 35.5 10.2835 35.5C9.79856 35.5 9.42796 35.4523 9.35138 35.38C9.26209 35.2957 9.22428 34.7311 9.22428 33.48V31.7H8.11214H7V33.5318C7 35.7546 7.10782 36.2071 7.79163 36.8526C8.371 37.3997 9.03892 37.6 10.2835 37.6C11.4658 37.6 12.176 37.3997 12.7173 36.9134L13.1393 36.5345L13.4855 36.803C14.0483 37.2395 14.9524 37.6792 15.6281 37.8451C16.1179 37.9653 16.8627 38 18.9516 38H21.6438L26.5525 35.9397C32.003 33.6519 32.1544 33.5659 32.7036 32.4474C32.9457 31.9543 32.9974 31.71 32.9999 31.0479C33.0025 30.3394 32.9621 30.1676 32.6533 29.5755C32.0332 28.3861 30.9528 27.7639 29.5076 27.7638C28.6807 27.7637 28.6162 27.7823 26.8308 28.5319C25.8246 28.9543 24.962 29.3 24.9139 29.3C24.8657 29.3 24.8719 29.051 24.9274 28.7467C25.0572 28.0351 24.9641 27.5877 24.6183 27.2612L24.3416 27L20.2518 27.0089C17.335 27.0153 16.0252 27.0537 15.6853 27.1427ZM22.4036 29.325C22.2656 29.7415 21.7087 30.4075 21.2107 30.7519C20.4894 31.2506 19.9317 31.4 18.791 31.4H17.8036V32.5V33.6L18.7304 33.5983C19.2402 33.5973 19.967 33.5331 20.3457 33.4556C20.7434 33.3741 22.7694 32.5937 25.1436 31.6073C27.4039 30.6683 29.3724 29.9 29.518 29.9C30.4491 29.9 31.019 30.8946 30.5256 31.6584C30.3519 31.9273 29.7236 32.2198 25.6226 33.9408L20.9189 35.9147L18.6463 35.8823C16.4399 35.8509 16.3562 35.8422 15.7704 35.583C13.4765 34.5678 12.9273 31.7986 14.6899 30.1345C15.1788 29.673 15.7826 29.3458 16.3985 29.2088C16.618 29.16 18.0756 29.1156 19.6378 29.11L22.4783 29.1L22.4036 29.325Z" fill="#00A6CA"/>
<path d="M30.8096 26.8717C32.1381 24.8335 32.8912 22.4742 32.9891 20.0432C33.087 17.6122 32.5261 15.1999 31.3657 13.0615C30.2054 10.923 28.4887 9.13792 26.3972 7.8949C24.3058 6.65189 21.9172 5.99718 19.4843 6.00001C17.0513 6.00284 14.6643 6.66311 12.5758 7.91099C10.4872 9.15887 8.77469 10.948 7.61932 13.0891C6.46395 15.2302 5.90868 17.6438 6.01223 20.0746C6.11578 22.5053 6.8743 24.8629 8.20758 26.8981L10.0786 25.6723C8.96619 23.9744 8.33335 22.0074 8.24696 19.9794C8.16056 17.9514 8.62383 15.9377 9.58777 14.1513C10.5517 12.3649 11.9805 10.8722 13.723 9.83112C15.4655 8.78999 17.457 8.23912 19.4869 8.23676C21.5167 8.2344 23.5095 8.78063 25.2545 9.8177C26.9994 10.8548 28.4316 12.3441 29.3997 14.1282C30.3678 15.9124 30.8358 17.925 30.7541 19.9532C30.6725 21.9814 30.0442 23.9498 28.9358 25.6504L30.8096 26.8717Z" fill="#00A6CA"/>
</svg>
