<svg width="133" height="34" viewBox="0 0 133 34" fill="none" xmlns="http://www.w3.org/2000/svg">
<path d="M0 6C0 2.68629 2.70945 0 6.05172 0H126.948C130.291 0 133 2.68629 133 6V17C133 20.3137 130.291 23 126.948 23H6.36814C3.53017 23 0 25.5 0 30V6Z" fill="#00A6CA"/>
<path d="M12.6395 4.42834L14.2449 7.92146C14.3147 8.13105 14.5242 8.27077 14.7336 8.34063L18.3633 8.89953C18.9915 8.89953 19.2009 9.59816 18.7821 10.0173L16.1296 12.742C15.99 12.8817 15.9202 13.1611 15.9202 13.3707L16.5484 17.1433C16.6182 17.7022 16.0598 18.1912 15.5712 17.9118L12.2905 16.0954C12.0811 15.9556 11.8717 15.9556 11.6623 16.0954L8.38154 17.9118C7.89292 18.1912 7.2647 17.772 7.40431 17.1433L8.03253 13.3707C8.10233 13.1611 7.96273 12.8817 7.82312 12.742L5.17063 10.0173C4.82162 9.59816 5.03102 8.89953 5.58944 8.82967L9.21917 8.27077C9.42858 8.27077 9.63799 8.06118 9.70779 7.8516L11.3132 4.35848C11.6623 3.86945 12.3603 3.86945 12.6395 4.42834Z" fill="url(#paint0_linear_6272_5623)" stroke="url(#paint1_linear_6272_5623)" stroke-width="0.697767"/>
<path d="M27.448 16V13.48H29.524C31.372 13.48 32.488 12.136 32.488 10.564C32.488 8.968 31.396 7.6 29.524 7.6H26.044V16H27.448ZM27.424 12.256V8.812H29.524C30.496 8.812 31.144 9.556 31.144 10.528C31.144 11.5 30.472 12.256 29.524 12.256H27.424ZM35.0961 11.056C35.0361 10.12 34.1001 9.976 33.2481 10.168L33.2601 11.056C33.8841 11.02 33.8841 11.284 33.8841 11.8V16H35.1801V12.652C35.1801 11.716 35.8761 11.212 36.6561 11.212C37.0761 11.212 37.4601 11.332 37.8081 11.56L38.1321 10.432C37.7601 10.156 37.2801 10.012 36.8001 10.024C36.0921 10.024 35.3241 10.384 35.0961 11.056ZM41.5936 10.084C40.0216 10.084 38.6296 11.056 38.5936 12.988C38.5336 14.944 39.9376 16.168 41.8456 16.132C42.5776 16.132 43.3576 15.94 44.0296 15.64L43.8616 14.668C43.1776 14.968 42.4816 15.064 41.7616 15.028C40.7056 15.028 39.8776 14.404 39.8776 13.348H44.1496C44.5336 11.428 43.6216 10.084 41.5936 10.084ZM41.5816 11.092C42.4096 11.092 43.1296 11.548 43.0936 12.424H39.9016C40.0816 11.512 40.7176 11.092 41.5816 11.092ZM54.7189 16V12.616C54.7549 11.224 54.3469 10.096 52.7629 10.096C51.8749 10.096 50.9749 10.42 50.6509 11.188C50.4229 10.48 49.9069 10.096 48.8989 10.096C48.1069 10.096 47.2549 10.456 46.9309 11.164C46.9669 9.952 45.8869 10.012 45.1189 10.204L45.1309 11.008C45.7069 10.972 45.7429 11.188 45.7429 11.86V16H47.0509V12.664C47.0509 11.752 47.6389 11.176 48.4549 11.164C49.2709 11.152 49.6429 11.752 49.6429 12.652V16H50.9269V12.652C50.9389 11.74 51.4789 11.164 52.2829 11.152C53.0509 11.14 53.4109 11.752 53.3989 12.616V16H54.7189ZM56.2359 8.428C56.2359 8.956 56.6439 9.22 57.0399 9.208C57.4239 9.196 57.8079 8.944 57.8079 8.428C57.8079 7.924 57.4239 7.66 57.0279 7.66C56.6319 7.66 56.2359 7.912 56.2359 8.428ZM57.6759 10.276H56.3679V16H57.6759V10.276ZM63.3511 10.216V13.528C63.3511 14.452 62.7151 15.052 61.8871 15.052C61.1191 15.052 60.6271 14.488 60.6391 13.564V10.216H59.3191V13.564C59.3191 14.98 59.8831 16.096 61.4791 16.096C62.2951 16.096 63.0871 15.844 63.4831 15.064C63.4831 16.312 64.5391 16.156 65.2831 16.024L65.2711 15.172C64.7191 15.232 64.6591 15.04 64.6591 14.344V10.216H63.3511ZM75.7072 16V12.616C75.7432 11.224 75.3352 10.096 73.7512 10.096C72.8632 10.096 71.9632 10.42 71.6392 11.188C71.4112 10.48 70.8952 10.096 69.8872 10.096C69.0952 10.096 68.2432 10.456 67.9192 11.164C67.9552 9.952 66.8752 10.012 66.1072 10.204L66.1192 11.008C66.6952 10.972 66.7312 11.188 66.7312 11.86V16H68.0392V12.664C68.0392 11.752 68.6272 11.176 69.4432 11.164C70.2592 11.152 70.6312 11.752 70.6312 12.652V16H71.9152V12.652C71.9272 11.74 72.4672 11.164 73.2712 11.152C74.0392 11.14 74.3992 11.752 74.3872 12.616V16H75.7072ZM81.9519 16V13.48H84.0279C85.8759 13.48 86.9919 12.136 86.9919 10.564C86.9919 8.968 85.8999 7.6 84.0279 7.6H80.5479V16H81.9519ZM81.9279 12.256V8.812H84.0279C84.9999 8.812 85.6479 9.556 85.6479 10.528C85.6479 11.5 84.9759 12.256 84.0279 12.256H81.9279ZM91.8228 15.028C91.8588 16.168 92.5668 16.168 93.4788 16.012L93.4548 15.268C92.8308 15.328 92.8548 14.98 92.8548 14.44V12.16C92.8548 10.564 91.6068 10.072 90.2028 10.072C89.4348 10.072 88.6548 10.228 88.0668 10.528L88.2588 11.464C88.9788 11.104 91.5828 10.6 91.5828 12.124V12.7C91.0668 12.412 90.4308 12.268 89.8668 12.268C88.5948 12.268 87.5868 12.928 87.6228 14.308C87.6228 15.436 88.6428 16.108 89.6988 16.108C90.5148 16.108 91.4388 15.796 91.8228 15.028ZM91.5828 14.02C91.4508 14.752 90.6468 15.076 89.9628 15.076C89.4348 15.076 88.9068 14.812 88.9068 14.236C88.9068 13.528 89.4468 13.156 90.0828 13.144C90.5988 13.132 91.1508 13.288 91.5828 13.54V14.02ZM96.0688 11.056C96.0088 10.12 95.0728 9.976 94.2208 10.168L94.2328 11.056C94.8568 11.02 94.8568 11.284 94.8568 11.8V16H96.1528V12.652C96.1528 11.716 96.8488 11.212 97.6288 11.212C98.0488 11.212 98.4328 11.332 98.7808 11.56L99.1048 10.432C98.7328 10.156 98.2528 10.012 97.7728 10.024C97.0648 10.024 96.2968 10.384 96.0688 11.056ZM101.939 8.44H100.787L100.655 10.228H99.4786V11.08L100.655 11.164V13.792C100.655 16.06 102.203 16.516 104.183 15.904L104.051 14.92C102.863 15.34 101.939 15.244 101.939 13.768V11.164H103.943V10.228H101.939V8.44ZM110.91 16V12.604C110.91 11.176 110.19 10.096 108.618 10.096C107.862 10.096 106.974 10.372 106.65 11.104C106.65 10 105.678 10.048 104.838 10.204V11.056C105.426 11.02 105.45 11.212 105.45 11.896V16H106.77V12.712C106.77 11.776 107.418 11.14 108.234 11.14C109.014 11.152 109.602 11.704 109.59 12.604V16H110.91ZM115.176 10.084C113.604 10.084 112.212 11.056 112.176 12.988C112.116 14.944 113.52 16.168 115.428 16.132C116.16 16.132 116.94 15.94 117.612 15.64L117.444 14.668C116.76 14.968 116.064 15.064 115.344 15.028C114.288 15.028 113.46 14.404 113.46 13.348H117.732C118.116 11.428 117.204 10.084 115.176 10.084ZM115.164 11.092C115.992 11.092 116.712 11.548 116.676 12.424H113.484C113.664 11.512 114.3 11.092 115.164 11.092ZM120.561 11.056C120.501 10.12 119.565 9.976 118.713 10.168L118.725 11.056C119.349 11.02 119.349 11.284 119.349 11.8V16H120.645V12.652C120.645 11.716 121.341 11.212 122.121 11.212C122.541 11.212 122.925 11.332 123.273 11.56L123.597 10.432C123.225 10.156 122.745 10.012 122.265 10.024C121.557 10.024 120.789 10.384 120.561 11.056Z" fill="white"/>
<path d="M5 23C3.67392 23 2.40215 23.5795 1.46447 24.6109C0.526784 25.6424 4.21515e-08 27.0413 0 28.5C-4.21515e-08 29.9587 0.526784 31.3576 1.46447 32.3891C2.40215 33.4205 3.67392 34 5 34V23Z" fill="#006685"/>
<defs>
<linearGradient id="paint0_linear_6272_5623" x1="8.49012" y1="7.1438" x2="16.1761" y2="16.2194" gradientUnits="userSpaceOnUse">
<stop stop-color="#FCD800"/>
<stop offset="1" stop-color="#FF9900"/>
</linearGradient>
<linearGradient id="paint1_linear_6272_5623" x1="6.74506" y1="5.39725" x2="14.4332" y2="18.6654" gradientUnits="userSpaceOnUse">
<stop stop-color="#FF8A00"/>
<stop offset="0.503125" stop-color="#FFBF1C"/>
<stop offset="1" stop-color="#EFB623"/>
</linearGradient>
</defs>
</svg>
