<svg width="20" height="23" viewBox="0 0 20 23" fill="none" xmlns="http://www.w3.org/2000/svg">
<path fill-rule="evenodd" clip-rule="evenodd" d="M15.5544 0.0121971L16.0548 0.272406C16.335 0.412518 16.6853 0.682735 16.8454 0.872888C17.0055 1.06304 17.2157 1.39331 17.3158 1.61348C17.4859 1.98378 17.5059 2.41413 17.5059 13.1728L17.9563 13.2728C18.2065 13.3329 18.5868 13.483 18.807 13.6231C19.0271 13.7632 19.3274 14.0435 19.4875 14.2436C19.6376 14.4538 19.8078 14.774 19.8778 14.9742C19.9579 15.2077 19.9979 16.1085 19.9979 17.6764C20.0079 19.8281 19.9879 20.0683 19.7978 20.4786C19.6877 20.7288 19.4475 21.0791 19.2773 21.2693C19.0972 21.4494 18.7269 21.7096 18.4567 21.8397C18.1765 21.9698 17.8962 22.0799 17.8262 22.0799C17.7361 22.0799 17.7061 21.3693 17.7061 18.8773C17.7061 15.7748 17.6961 15.6748 17.5059 15.5747C17.3758 15.5146 14.6737 15.4746 9.9999 15.4746C5.32615 15.4746 2.62398 15.5146 2.49388 15.5747C2.30372 15.6648 2.29372 15.7748 2.29372 17.6063C2.29372 19.0275 2.32374 19.5579 2.41381 19.658C2.51389 19.758 3.93503 19.7781 15.6044 19.7781V22.0799H2.04352L1.54311 21.8397C1.26289 21.7196 0.882584 21.4394 0.682423 21.2192C0.492271 21.0091 0.252077 20.6287 0.151997 20.3785C0.00187664 19.9882 -0.0181396 19.6179 0.0118845 17.4762C0.0419086 15.0443 0.0419088 15.0242 0.302118 14.5739C0.44223 14.3237 0.742471 13.9734 0.95264 13.7933C1.16281 13.6131 1.56313 13.4029 1.84335 13.3229C2.26369 13.1928 3.38459 13.1728 15.2041 13.1728V7.81846C15.2041 2.56425 15.2041 2.46416 15.0039 2.36408C14.8738 2.30404 13.0023 2.264 9.9999 2.264C6.99749 2.264 5.11598 2.30404 4.99589 2.36408C4.79573 2.46416 4.79572 2.56425 4.79572 11.0711H2.49388V6.53743C2.49388 2.37409 2.51389 1.98378 2.68403 1.61348C2.78411 1.39331 2.99428 1.06304 3.15441 0.872888C3.31454 0.692743 3.62479 0.442543 3.84496 0.332454C4.06514 0.222366 4.35537 0.0922613 4.49548 0.0522292C4.6356 0.012197 7.17764 -0.017827 15.5544 0.0121971ZM6.79733 4.36569H13.2025V6.66754H6.79733V4.36569ZM6.79733 8.76923H13.2025V11.0711H6.79733V8.76923Z" fill="#00A6CA"/>
</svg>
