<svg width="44" height="44" viewBox="0 0 44 44" fill="none" xmlns="http://www.w3.org/2000/svg">
<circle cx="22" cy="22" r="22" fill="#FCD800"/>
<path d="M32 17C32 22.5228 27.5228 27 22 27C16.4772 27 12 22.5228 12 17C12 11.4772 16.4772 7 22 7C27.5228 7 32 11.4772 32 17ZM14 17C14 21.4183 17.5817 25 22 25C26.4183 25 30 21.4183 30 17C30 12.5817 26.4183 9 22 9C17.5817 9 14 12.5817 14 17Z" fill="#2C2C2C"/>
<path fill-rule="evenodd" clip-rule="evenodd" d="M18.4337 12.517C18.3755 12.5682 18.3623 12.6848 18.3623 13.1496C18.3623 13.642 18.3731 13.7278 18.4418 13.7812C18.5067 13.8318 18.708 13.8468 19.5432 13.8633C20.6313 13.8848 20.8881 13.921 21.322 14.1143C21.5441 14.2132 21.8183 14.4275 21.905 14.5699C21.9534 14.6493 21.9408 14.6499 20.259 14.6499C18.7986 14.6499 18.5503 14.6585 18.4633 14.7121C18.3687 14.7703 18.3623 14.8038 18.3623 15.2448C18.3623 15.65 18.3738 15.7246 18.4454 15.7814C18.5197 15.8406 18.7156 15.8475 20.3053 15.8475H22.0821L22.0335 15.9699C21.9441 16.1953 21.6946 16.4643 21.4239 16.627C20.9324 16.9225 20.2688 17.0451 19.1609 17.0451C18.3232 17.0451 18.3621 17.0119 18.3629 17.7269L18.3636 18.2627L19.0041 18.8814C19.7114 19.5646 20.9167 20.7817 21.89 21.7956L22.5224 22.4543H24.4233L24.4784 22.3571C24.5211 22.2818 24.5214 22.2396 24.4798 22.1702C24.3695 21.9866 22.0288 19.5419 21.1909 18.7353C20.9592 18.5123 20.7696 18.3212 20.7696 18.3107C20.7696 18.3003 20.8658 18.279 20.9834 18.2635C21.3673 18.2129 21.9618 18.042 22.3117 17.8817C23.1769 17.4852 23.7321 16.8871 23.9407 16.1271L24.0172 15.8481L24.7482 15.8478C25.6713 15.8474 25.6296 15.8763 25.6296 15.2379C25.6296 14.6279 25.6638 14.6499 24.7168 14.6499H24.0059L23.9031 14.369C23.8466 14.2145 23.7316 13.9878 23.6476 13.8652C23.5636 13.7426 23.4948 13.6399 23.4948 13.6371C23.4948 13.6343 23.878 13.6374 24.3464 13.6441C25.2648 13.6572 25.4524 13.6423 25.56 13.5477C25.6606 13.4593 25.6598 12.6696 25.5589 12.543L25.4882 12.4543H21.9966C18.8831 12.4543 18.4973 12.4611 18.4337 12.517Z" fill="#2C2C2C"/>
<path fill-rule="evenodd" clip-rule="evenodd" d="M22 26.0909C27.0208 26.0909 31.0909 22.0208 31.0909 17C31.0909 11.9792 27.0208 7.90905 22 7.90905C16.9792 7.90905 12.9091 11.9792 12.9091 17C12.9091 22.0208 16.9792 26.0909 22 26.0909ZM22 25.9091C17.0797 25.9091 13.0909 21.9203 13.0909 17C13.0909 12.0797 17.0797 8.09095 22 8.09095C26.9203 8.09095 30.9091 12.0797 30.9091 17C30.9091 21.9203 26.9203 25.9091 22 25.9091ZM22 27C27.5228 27 32 22.5228 32 17C32 11.4772 27.5228 7 22 7C16.4772 7 12 11.4772 12 17C12 22.5228 16.4772 27 22 27ZM22 25C17.5817 25 14 21.4183 14 17C14 12.5817 17.5817 9 22 9C26.4183 9 30 12.5817 30 17C30 21.4183 26.4183 25 22 25Z" fill="#2C2C2C"/>
<path fill-rule="evenodd" clip-rule="evenodd" d="M15.75 35.9073L17 24.5H18.9231L17.6731 34.279L21.1014 31.374C21.6127 30.9406 22.3873 30.9406 22.8986 31.374L26.3269 34.279L25.0769 24.5H27L28.25 35.9073C28.25 36.8505 27.0689 37.3489 26.3259 36.7193L22 33.0536L17.6741 36.7193C16.9311 37.3489 15.75 36.8505 15.75 35.9073Z" fill="#2C2C2C"/>
</svg>
