<svg width="273" height="320" viewBox="0 0 273 320" fill="none" xmlns="http://www.w3.org/2000/svg">
<path d="M160 310C242.843 310 310 242.843 310 160C310 77.1573 242.843 10 160 10C77.1573 10 10 77.1573 10 160C10 242.843 77.1573 310 160 310Z" fill="url(#paint0_linear_2523_3214)"/>
<path d="M319 160C319 247.813 247.813 319 160 319C72.1867 319 1 247.813 1 160C1 72.1867 72.1867 1 160 1C247.813 1 319 72.1867 319 160Z" stroke="#FCD800" stroke-width="2"/>
<path d="M258 134C258.334 136.568 259.945 138.582 262 139C259.945 139.418 258.334 141.432 258 144C257.666 141.432 256.055 139.418 254 139C256.055 138.582 257.666 136.568 258 134Z" fill="#FCD800"/>
<path d="M194 68C194.502 72.1095 196.918 75.331 200 76C196.918 76.669 194.502 79.8905 194 84C193.498 79.8905 191.082 76.669 188 76C191.082 75.331 193.498 72.1095 194 68Z" fill="#FCD800"/>
<mask id="mask0_2523_3214" style="mask-type:alpha" maskUnits="userSpaceOnUse" x="10" y="10" width="300" height="300">
<path d="M160 310C242.843 310 310 242.843 310 160C310 77.1573 242.843 10 160 10C77.1573 10 10 77.1573 10 160C10 242.843 77.1573 310 160 310Z" fill="url(#paint1_linear_2523_3214)"/>
</mask>
<g mask="url(#mask0_2523_3214)">
<path d="M74.5 125C74.5 110.917 85.9167 99.5 100 99.5H212C226.083 99.5 237.5 110.917 237.5 125V301C237.5 310.665 229.665 318.5 220 318.5H92C82.335 318.5 74.5 310.665 74.5 301V125Z" fill="white" stroke="#E0EBFB"/>
<rect x="133" y="109" width="53" height="8" rx="4" fill="#E0EBFB"/>
<rect x="86" y="160" width="140" height="35" rx="3" fill="#F0F6FF"/>
<rect x="86" y="138" width="140" height="12" rx="3" fill="#F0F6FF"/>
<rect x="86" y="203" width="140" height="45" rx="3" fill="#F0F6FF"/>
</g>
<path d="M243.139 192C254.108 192 263 200.938 263 211.963C263 222.988 254.108 231.926 243.139 231.926H156.833L147.806 241V231.273C139.285 229.026 133 221.232 133 211.963C133 200.938 141.892 192 152.861 192H243.139Z" fill="#FFDC5B"/>
<rect x="153.943" y="206.411" width="71.5" height="5.04412" rx="2.52206" fill="#EDEDED"/>
<rect x="172.721" y="214.338" width="52.7222" height="3.60294" rx="1.80147" fill="#EDEDED"/>
<path fill-rule="evenodd" clip-rule="evenodd" d="M239.653 202.921C238.233 203.262 237.015 204.507 236.72 205.919C236.207 208.38 238.09 210.689 240.61 210.689C242.799 210.689 244.583 208.921 244.583 206.752C244.583 204.206 242.156 202.32 239.653 202.921ZM236.215 212.47C234.867 212.824 233.773 213.704 233.146 214.939C232.753 215.713 232.668 216.192 232.667 217.661L232.666 218.948L232.885 219.165L233.104 219.382H240.61H248.117L248.336 219.165L248.555 218.948L248.554 217.661C248.553 216.144 248.466 215.689 248.015 214.83C247.467 213.786 246.436 212.925 245.257 212.527C244.781 212.367 244.678 212.362 240.76 212.346C237.031 212.33 236.713 212.339 236.215 212.47Z" fill="#EDEDED"/>
<path d="M79.5833 150C70.9769 150 64 156.931 64 165.481C64 174.032 70.9769 180.963 79.5833 180.963H147.3L154.383 188V180.457C161.069 178.714 166 172.67 166 165.481C166 156.931 159.023 150 150.417 150H79.5833Z" fill="#47AFC6"/>
<rect x="93.4648" y="161.177" width="56.1" height="3.91177" rx="1.95588" fill="#F5F9FF"/>
<rect x="93.4648" y="167.323" width="41.3667" height="2.79412" rx="1.39706" fill="#F5F9FF"/>
<path fill-rule="evenodd" clip-rule="evenodd" d="M80.8142 158.47C79.7001 158.734 78.7446 159.7 78.5132 160.795C78.11 162.704 79.5875 164.494 81.5654 164.494C83.2828 164.494 84.682 163.123 84.682 161.44C84.682 159.466 82.7784 158.004 80.8142 158.47ZM78.1163 165.875C77.0588 166.15 76.2007 166.832 75.7084 167.79C75.4 168.39 75.3339 168.762 75.3329 169.901L75.332 170.899L75.5039 171.067L75.6758 171.236H81.5654H87.4549L87.6268 171.067L87.7987 170.899L87.7978 169.901C87.7968 168.724 87.729 168.372 87.3752 167.705C86.9453 166.896 86.1362 166.228 85.2113 165.919C84.8378 165.795 84.7571 165.792 81.683 165.779C78.7566 165.767 78.5076 165.773 78.1163 165.875Z" fill="#F5F9FF"/>
<path d="M228.5 133C244.24 133 257 120.24 257 104.5C257 88.7599 244.24 76 228.5 76C212.76 76 200 88.7599 200 104.5C200 120.24 212.76 133 228.5 133Z" fill="url(#paint2_linear_2523_3214)"/>
<path d="M228.021 127.347C240.851 127.347 251.252 117.118 251.252 104.5C251.252 91.8823 240.851 81.6533 228.021 81.6533C215.191 81.6533 204.79 91.8823 204.79 104.5C204.79 117.118 215.191 127.347 228.021 127.347Z" fill="url(#paint3_linear_2523_3214)"/>
<path d="M228.26 125.463C239.9 125.463 249.336 116.183 249.336 104.735C249.336 93.2879 239.9 84.008 228.26 84.008C216.621 84.008 207.185 93.2879 207.185 104.735C207.185 116.183 216.621 125.463 228.26 125.463Z" fill="url(#paint4_linear_2523_3214)"/>
<path d="M214.644 120.281L249.336 100.919C248.233 94.7918 245.418 90.6059 240.914 87.3057L207.185 105.943C207.185 107.36 208.238 114.762 214.644 120.281Z" fill="url(#paint5_linear_2523_3214)"/>
<path d="M235.448 94.7471H229.628C230.18 95.1903 230.638 95.7409 230.977 96.3666C231.316 96.9922 231.528 97.6803 231.6 98.3901H235.448V100.178H231.635C231.286 103.826 228.426 106.149 223.914 106.293C226.662 109.186 229.663 112.834 232.624 116.513H229.237C226.49 113.152 223.914 110.044 220.619 106.467V104.263H222.561C226.368 104.263 228.411 102.655 228.644 100.189H220.599V98.4004H228.533C228.026 96.3451 226.17 95.3174 223.103 95.3174H220.599V92.959H235.448V94.7471Z" fill="#BD9803"/>
<defs>
<linearGradient id="paint0_linear_2523_3214" x1="253.027" y1="38.0415" x2="57.6261" y2="310" gradientUnits="userSpaceOnUse">
<stop stop-color="#FFE893"/>
<stop offset="1" stop-color="white"/>
</linearGradient>
<linearGradient id="paint1_linear_2523_3214" x1="253.027" y1="38.0415" x2="57.6261" y2="310" gradientUnits="userSpaceOnUse">
<stop stop-color="#FFE893"/>
<stop offset="1" stop-color="white"/>
</linearGradient>
<linearGradient id="paint2_linear_2523_3214" x1="200" y1="104.5" x2="257" y2="104.5" gradientUnits="userSpaceOnUse">
<stop stop-color="#FBD801"/>
<stop offset="1" stop-color="#ECBF1D"/>
</linearGradient>
<linearGradient id="paint3_linear_2523_3214" x1="254.455" y1="85.1607" x2="204.58" y2="120.277" gradientUnits="userSpaceOnUse">
<stop stop-color="#FFE062"/>
<stop offset="1" stop-color="#FFF4C4"/>
</linearGradient>
<linearGradient id="paint4_linear_2523_3214" x1="207.986" y1="118.661" x2="254.898" y2="86.2735" gradientUnits="userSpaceOnUse">
<stop stop-color="#FFEDA0"/>
<stop offset="1" stop-color="#FFD113"/>
</linearGradient>
<linearGradient id="paint5_linear_2523_3214" x1="202.092" y1="129.341" x2="262.189" y2="96.2352" gradientUnits="userSpaceOnUse">
<stop stop-color="#FFEDA0"/>
<stop offset="0.0001" stop-color="#FFF2BA"/>
<stop offset="1" stop-color="#FFD838"/>
</linearGradient>
</defs>
</svg>
