<svg width="52" height="33" viewBox="0 0 52 33" fill="none" xmlns="http://www.w3.org/2000/svg">
<path fill-rule="evenodd" clip-rule="evenodd" d="M2.54351 0.083152C1.54288 0.391404 0.715403 1.1308 0.273142 2.11209C0.00778485 2.70073 0 2.95797 0 11.1981C0 19.118 0.0161067 19.7139 0.244687 20.2168C0.608965 21.018 1.15485 21.5999 1.92421 22.007L2.61142 22.3706L14.0538 22.4085L25.4963 22.4465V20.9615V19.4765H14.3635H3.23059L3.02174 19.1773C2.83853 18.915 2.81276 17.9278 2.81276 11.162V3.44592L3.14227 3.1156L3.47165 2.78513L19.4838 2.78715C32.1133 2.78863 35.5667 2.82498 35.8314 2.95918C36.1619 3.12663 36.1674 3.15679 36.2044 4.99095C36.2415 6.8414 36.2435 6.85217 36.5399 6.77114C36.7039 6.72631 37.2306 6.62347 37.7105 6.54271C38.1903 6.46181 38.7187 6.3696 38.8849 6.3377C39.1778 6.28157 39.1869 6.23177 39.1869 4.69145C39.1869 2.24428 38.7496 1.23176 37.3314 0.395711L36.7038 0.0256745L19.7918 0.00252185C10.4902 -0.0101313 2.72846 0.0260783 2.54351 0.083152ZM9.25541 5.32909C8.24713 5.54378 7.34852 6.25155 6.90022 7.18412C6.61526 7.77679 6.4899 9.15706 6.6762 9.65013C6.77915 9.92244 6.726 10.1244 6.39769 10.708C5.87651 11.6347 5.7494 13.0299 6.09193 14.0641C6.36266 14.8815 7.1798 15.8499 8.01144 16.3387C8.81395 16.8103 10.3682 16.927 11.3757 16.5914C12.2396 16.3038 13.1939 15.462 13.6563 14.5799C13.9708 13.9802 14.018 13.7324 14.0191 12.6788C14.0202 11.5735 13.9839 11.4025 13.6058 10.727C13.246 10.084 13.208 9.92473 13.3178 9.51552C13.6101 8.42601 13.1905 7.02689 12.3208 6.19085C11.5646 5.46396 10.2966 5.10752 9.25541 5.32909ZM28.9852 5.60301C27.536 6.04506 26.1721 7.69536 26.1687 9.01074L26.1674 9.51552H27.5605H28.9534L29.1229 9.10537C29.477 8.24792 30.6975 8.07872 31.2694 8.80789C31.5263 9.13539 31.5772 9.15047 31.8458 8.97857C32.0958 8.81866 33.1138 8.20417 33.8166 7.78891C33.9849 7.68943 33.9568 7.58484 33.6379 7.12327C33.2264 6.52777 32.5582 6.01195 31.7754 5.68539C31.25 5.46625 29.5938 5.41739 28.9852 5.60301ZM16.3692 7.22719V8.70788H18.3154C19.3858 8.70788 20.2616 8.7601 20.2616 8.82391C20.2616 8.88771 20.0804 9.34067 19.8589 9.8305C19.6375 10.3203 19.4563 10.7527 19.4563 10.7913C19.4563 10.83 19.6696 10.8616 19.9303 10.8616C21.0123 10.8616 21.7649 11.5025 21.7649 12.4237C21.7649 13.0596 21.3755 13.5765 20.7341 13.7917C20.2936 13.9397 20.1607 13.9307 19.7403 13.7244C19.4528 13.5835 19.1454 13.2808 18.9865 12.9821L18.7181 12.4776L17.2634 12.4773L15.8087 12.4769L15.8995 13.049C16.1148 14.4034 17.0768 15.7811 18.2134 16.3626C18.9868 16.7584 20.1185 16.9282 21.0108 16.7826C22.4897 16.5411 23.647 15.6667 24.3041 14.2941C24.6258 13.622 24.6908 13.3143 24.6908 12.4602C24.6909 11.2829 24.4747 10.5602 23.8696 9.71515L23.4436 9.12031L23.7316 8.42506C24.261 7.14764 24.0413 6.22194 23.1258 5.8729C22.9435 5.80331 21.3487 5.7465 19.5818 5.7465H16.3692V7.22719ZM10.6872 8.25223C10.8913 8.56479 10.8955 8.64272 10.7239 8.94559C10.4368 9.45253 10.1407 9.59575 9.70116 9.44068C8.82469 9.13149 9.05851 7.90023 9.99363 7.90023C10.3454 7.90023 10.5127 7.98503 10.6872 8.25223ZM38.9185 9.38522C34.0494 9.96282 30.137 13.3815 28.833 18.1977C28.5988 19.0628 28.5415 19.645 28.5415 21.1591C28.5415 22.6732 28.5988 23.2553 28.833 24.1205C30.3927 29.8814 35.6898 33.5612 41.5142 32.9297C43.1564 32.7516 44.2904 32.4085 45.7858 31.6372C48.0086 30.4908 49.7055 28.7417 50.858 26.4088C51.8491 24.4027 52 23.709 52 21.1591C52 18.6092 51.8491 17.9154 50.858 15.9094C49.0333 12.2159 45.6419 9.84168 41.5358 9.38334C40.2116 9.23554 40.1797 9.23554 38.9185 9.38522ZM10.947 11.9538C11.3473 12.3973 11.2624 13.1175 10.7565 13.5708C10.2732 14.0039 9.95497 14.0488 9.40185 13.762C8.67624 13.3858 8.55531 12.3944 9.16615 11.8301C9.6872 11.3486 10.4486 11.4015 10.947 11.9538ZM43.0761 12.6921C45.3544 13.451 47.2099 15.089 48.2458 17.2555C48.9744 18.7792 49.1778 19.6314 49.1778 21.1591C49.1778 22.6868 48.9744 23.539 48.2458 25.0627C47.2091 27.231 45.3519 28.8698 43.0761 29.6242C38.4767 31.149 33.6668 28.7922 31.8973 24.1467C31.4989 23.1008 31.4771 22.9457 31.4771 21.1591C31.4771 19.3724 31.4989 19.2174 31.8973 18.1715C33.0132 15.2416 35.4533 13.0781 38.3992 12.4061C39.7192 12.1051 41.672 12.2245 43.0761 12.6921ZM35.6971 17.9958V19.4765H37.1736H38.65V17.9958V16.5151H37.1736H35.6971V17.9958ZM41.8713 17.9958V19.4765H43.3478H44.8242V17.9958V16.5151H43.3478H41.8713V17.9958ZM34.6862 23.0773C34.9836 24.275 36.4317 25.899 37.7675 26.5328C39.2002 27.2125 41.2237 27.2393 42.6697 26.5979C44.0649 25.979 45.3473 24.62 45.8295 23.2494L46.0203 22.7071H44.4409H42.8614L42.5753 23.095C42.418 23.3084 41.972 23.6415 41.5842 23.8354C40.3891 24.4326 39.2629 24.2524 38.2492 23.3016L37.6156 22.7071H36.1049H34.5942L34.6862 23.0773Z" fill="#3EA3CE"/>
</svg>
