<svg width="44" height="44" viewBox="0 0 44 44" fill="none" xmlns="http://www.w3.org/2000/svg">
<circle cx="22" cy="22" r="22" fill="#FCD800"/>
<path d="M21.5803 18.3693L21.5804 18.3693C21.7483 18.4441 21.9196 18.554 22.0613 18.6647C22.1931 18.7677 22.3499 18.9105 22.4453 19.0672L22.4454 19.0673L22.4459 19.0681C22.4493 19.0738 22.4627 19.0957 22.4755 19.1216C22.4881 19.1473 22.5165 19.2085 22.5274 19.2913C22.5398 19.3861 22.5283 19.5063 22.46 19.622C22.3971 19.7285 22.3118 19.7873 22.2566 19.8172C22.1603 19.8695 22.0632 19.8834 22.0258 19.8887C21.9729 19.8961 21.9133 19.9004 21.8509 19.9034C21.6073 19.9153 21.1242 19.9153 20.2103 19.9153H20.2075C19.4013 19.9153 18.9411 19.9177 18.6706 19.9271C18.6532 19.9277 18.6368 19.9283 18.6215 19.9289C18.6212 19.9697 18.6211 20.0162 18.6211 20.0697C18.6211 20.1275 18.6213 20.1774 18.6218 20.2208C18.6239 20.2209 18.626 20.221 18.6281 20.2211C18.8998 20.2307 19.3801 20.2327 20.2584 20.2327H22.213H22.9493L22.6778 20.9171L22.6244 21.0517C22.6244 21.0517 22.6244 21.0517 22.6244 21.0517C22.4749 21.4286 22.1099 21.8004 21.7467 22.0187C21.0844 22.4169 20.2387 22.5501 18.9996 22.5501C18.9541 22.5501 18.9121 22.5501 18.8733 22.55C18.7694 22.5498 18.688 22.5497 18.6214 22.551C18.6211 22.5947 18.6213 22.6408 18.6215 22.6939C18.6216 22.7262 18.6217 22.7611 18.6218 22.7995V22.7995L18.6222 23.1771L19.1745 23.7105C19.1745 23.7105 19.1745 23.7105 19.1745 23.7105C19.9586 24.4679 21.289 25.8115 22.3625 26.9296L22.0018 27.2759L22.3625 26.9296L22.9105 27.5005H23.7429H24.0188C24.0116 27.4927 24.0044 27.4849 23.997 27.477C23.7267 27.1853 23.3667 26.8046 22.9806 26.4015C22.2067 25.5932 21.3388 24.7056 20.886 24.2697L21.5803 18.3693ZM21.5803 18.3693C21.0024 18.1119 20.6294 18.0737 19.43 18.05C19.0434 18.0424 18.7906 18.0352 18.6228 18.026C18.6216 17.9559 18.6211 17.8704 18.6211 17.7648C18.6211 17.665 18.6217 17.5842 18.6229 17.5184M21.5803 18.3693L18.6229 17.5184M20.9391 22.8947L20.9391 22.8947C21.3122 22.8455 21.918 22.6713 22.2573 22.5158L22.2573 22.5158C23.1053 22.1272 23.5932 21.5717 23.7754 20.9079L23.8595 20.601L23.9604 20.2335L24.3415 20.2333L25.1457 20.233C25.1929 20.233 25.2369 20.233 25.278 20.2331C25.4209 20.2332 25.5291 20.2333 25.6158 20.2309C25.6158 20.2075 25.6157 20.1827 25.6157 20.1556C25.6156 20.1273 25.6155 20.0965 25.6155 20.062C25.6155 20.0355 25.6155 20.0111 25.6156 19.9885C25.6156 19.9632 25.6157 19.94 25.6156 19.9183C25.5166 19.915 25.39 19.9151 25.2178 19.9152C25.1841 19.9152 25.1487 19.9153 25.1113 19.9153H24.3293H23.9798L23.8597 19.5871L23.7467 19.2781L23.7466 19.278C23.6973 19.1432 23.5892 18.9317 23.5226 18.8345C23.4758 18.7662 23.4328 18.7028 23.4011 18.6555C23.3854 18.6321 23.3716 18.6112 23.3611 18.5952C23.3562 18.5877 23.3503 18.5785 23.3449 18.5696C23.3426 18.5659 23.3373 18.5574 23.3316 18.547C23.3291 18.5427 23.3225 18.5308 23.3152 18.5152C23.3117 18.5079 23.3043 18.4918 23.2967 18.4707C23.2966 18.4706 23.2965 18.4703 23.2964 18.4699C23.2932 18.4614 23.2686 18.3958 23.2671 18.3091C23.2671 18.3065 23.2671 18.3038 23.2671 18.3011H23.7671L20.9391 22.8947ZM20.9391 22.8947C20.8645 22.9045 20.7908 22.9169 20.7304 22.9302C20.7026 22.9364 20.6643 22.9456 20.6262 22.9586C20.6104 22.964 20.5716 22.9776 20.5284 23.002C20.5084 23.0133 20.4632 23.0402 20.4167 23.0867C20.3782 23.1253 20.2692 23.2468 20.2692 23.4424C20.2692 23.527 20.2909 23.5906 20.2999 23.6151M20.9391 22.8947L20.2999 23.6151M18.6229 17.5184C18.6991 17.5158 18.7933 17.5134 18.91 17.5113C19.4475 17.5019 20.4045 17.5 22.119 17.5H25.6161C25.6195 17.5515 25.6214 17.6081 25.6214 17.6665C25.6215 17.7155 25.6203 17.7623 25.618 17.8051L18.6229 17.5184ZM20.2999 23.6151C20.3111 23.6457 20.3231 23.669 20.3302 23.6822M20.2999 23.6151L20.3302 23.6822M20.3302 23.6822C20.3445 23.7086 20.3582 23.7283 20.3644 23.7369M20.3302 23.6822L20.3644 23.7369M20.3644 23.7369C20.378 23.756 20.3907 23.7713 20.397 23.7787M20.3644 23.7369L20.397 23.7787M20.397 23.7787C20.4113 23.7956 20.4272 23.8128 20.4407 23.8273M20.397 23.7787L20.4407 23.8273M20.4407 23.8273C20.4692 23.8578 20.5072 23.8968 20.5505 23.9404M20.4407 23.8273L20.5505 23.9404M20.5505 23.9404C20.6378 24.0284 20.7566 24.1451 20.8859 24.2696L20.5505 23.9404ZM21.8872 18.8983C21.8865 18.8984 21.8858 18.8985 21.885 18.8986C21.8939 18.8968 21.8956 18.8971 21.8872 18.8983ZM18.6305 22.3717C18.6305 22.3718 18.6302 22.3735 18.6295 22.3766C18.63 22.3732 18.6304 22.3716 18.6305 22.3717ZM18.411 19.9457C18.4109 19.9457 18.4119 19.9454 18.414 19.945C18.4121 19.9455 18.411 19.9457 18.411 19.9457ZM25.7862 19.9328C25.7862 19.9329 25.7858 19.9328 25.785 19.9325L25.7862 19.9328ZM25.6093 19.7431C25.6091 19.7421 25.609 19.7416 25.609 19.7416L25.6093 19.7431ZM25.6091 20.4118C25.6091 20.4118 25.6092 20.4113 25.6094 20.4104L25.6091 20.4118ZM18.4033 18.0058C18.3993 18.0049 18.3999 18.0048 18.4041 18.0059L18.4033 18.0058Z" fill="#2C2C2C" stroke="#2C2C2C"/>
<mask id="path-3-inside-1_2525_17238" fill="white">
<path d="M22.1216 12.1C22.1216 11.4925 22.6153 10.9943 23.2198 11.055C25.0075 11.2343 26.73 11.8496 28.2331 12.8539C30.0421 14.0627 31.4521 15.7807 32.2847 17.7908C33.1173 19.8008 33.3351 22.0127 32.9107 24.1466C32.4862 26.2804 31.4385 28.2405 29.9001 29.779C28.3616 31.3174 26.4015 32.3651 24.2676 32.7896C22.1338 33.214 19.9219 32.9962 17.9119 32.1636C15.9018 31.331 14.1838 29.921 12.975 28.112C11.9707 26.6089 11.3554 24.8864 11.176 23.0987C11.1154 22.4942 11.6136 22.0005 12.2211 22.0005V22.0005C12.8287 22.0005 13.3141 22.4949 13.3898 23.0977C13.5597 24.4494 14.0419 25.7486 14.8043 26.8897C15.7713 28.3369 17.1457 29.4649 18.7538 30.131C20.3619 30.797 22.1313 30.9713 23.8384 30.6317C25.5455 30.2922 27.1136 29.454 28.3444 28.2233C29.5751 26.9925 30.4133 25.4244 30.7528 23.7173C31.0924 22.0102 30.9181 20.2408 30.252 18.6327C29.586 17.0247 28.458 15.6502 27.0108 14.6832C25.8697 13.9208 24.5705 13.4386 23.2188 13.2688C22.616 13.193 22.1216 12.7076 22.1216 12.1V12.1Z"/>
</mask>
<path d="M22.1216 12.1C22.1216 11.4925 22.6153 10.9943 23.2198 11.055C25.0075 11.2343 26.73 11.8496 28.2331 12.8539C30.0421 14.0627 31.4521 15.7807 32.2847 17.7908C33.1173 19.8008 33.3351 22.0127 32.9107 24.1466C32.4862 26.2804 31.4385 28.2405 29.9001 29.779C28.3616 31.3174 26.4015 32.3651 24.2676 32.7896C22.1338 33.214 19.9219 32.9962 17.9119 32.1636C15.9018 31.331 14.1838 29.921 12.975 28.112C11.9707 26.6089 11.3554 24.8864 11.176 23.0987C11.1154 22.4942 11.6136 22.0005 12.2211 22.0005V22.0005C12.8287 22.0005 13.3141 22.4949 13.3898 23.0977C13.5597 24.4494 14.0419 25.7486 14.8043 26.8897C15.7713 28.3369 17.1457 29.4649 18.7538 30.131C20.3619 30.797 22.1313 30.9713 23.8384 30.6317C25.5455 30.2922 27.1136 29.454 28.3444 28.2233C29.5751 26.9925 30.4133 25.4244 30.7528 23.7173C31.0924 22.0102 30.9181 20.2408 30.252 18.6327C29.586 17.0247 28.458 15.6502 27.0108 14.6832C25.8697 13.9208 24.5705 13.4386 23.2188 13.2688C22.616 13.193 22.1216 12.7076 22.1216 12.1V12.1Z" fill="#2C2C2C" stroke="#2C2C2C" stroke-width="2" mask="url(#path-3-inside-1_2525_17238)"/>
<path d="M14.2434 21.706L10.2839 22.2738L11.9797 20.0102L14.2434 21.706Z" stroke="#2C2C2C" stroke-width="2"/>
</svg>
