<svg width="26" height="22" viewBox="0 0 26 22" fill="none" xmlns="http://www.w3.org/2000/svg">
<path fill-rule="evenodd" clip-rule="evenodd" d="M14.1212 1.10003C14.1212 0.492493 14.615 -0.00571433 15.2195 0.0549379C17.0071 0.2343 18.7296 0.849554 20.2327 1.8539C22.0418 3.06265 23.4517 4.78068 24.2843 6.79076C25.1169 8.80083 25.3348 11.0127 24.9103 13.1465C24.4858 15.2804 23.4382 17.2405 21.8997 18.779C20.3613 20.3174 18.4012 21.3651 16.2673 21.7895C14.1334 22.214 11.9216 21.9962 9.91151 21.1636C7.90144 20.331 6.1834 18.921 4.97465 17.112C3.9809 15.6247 3.36807 13.9227 3.18151 12.1552L2.42542 12.2637L0.0356445 12.6063L1.48316 10.6742L3.17902 8.41056L3.7786 7.61024L4.57891 8.20981L6.84255 9.90567L8.77468 11.3532L6.38492 11.6959L5.33268 11.8468C5.35944 11.9274 5.37866 12.0114 5.38949 12.0977C5.55935 13.4494 6.04151 14.7486 6.80396 15.8897C7.77096 17.3369 9.14539 18.4649 10.7534 19.1309C12.3615 19.797 14.131 19.9713 15.8381 19.6317C17.5452 19.2922 19.1133 18.454 20.344 17.2233C21.5748 15.9925 22.4129 14.4244 22.7525 12.7173C23.092 11.0102 22.9178 9.24075 22.2517 7.6327C21.5856 6.02464 20.4576 4.65021 19.0104 3.68321C17.8693 2.92075 16.5702 2.4386 15.2184 2.26874C14.6156 2.19299 14.1212 1.70757 14.1212 1.10003ZM10.1994 6.06899C10.1354 6.12529 10.1209 6.25356 10.1209 6.76481C10.1209 7.30657 10.1327 7.40086 10.2083 7.4597C10.2798 7.51534 10.5011 7.53181 11.42 7.54995C12.6169 7.57357 12.8993 7.61345 13.3767 7.82603C13.621 7.93485 13.9226 8.17058 14.018 8.32727C14.0712 8.41461 14.0574 8.41527 12.2073 8.41527C10.6008 8.41527 10.3276 8.42471 10.2319 8.48365C10.1279 8.54772 10.1209 8.58452 10.1209 9.06968C10.1209 9.51541 10.1336 9.59744 10.2123 9.66002C10.294 9.72505 10.5096 9.73269 12.2582 9.73269H14.2128L14.1594 9.86733C14.0611 10.1153 13.7866 10.4112 13.4888 10.5902C12.9481 10.9153 12.2181 11.0501 10.9994 11.0501C10.9584 11.0501 10.9192 11.05 10.8819 11.05C10.4803 11.0492 10.2901 11.0489 10.2003 11.1437C10.1195 11.229 10.1201 11.3914 10.1213 11.6999C10.1214 11.7317 10.1215 11.7651 10.1216 11.8001L10.1223 12.3895L10.8269 13.0702C11.605 13.8217 12.9308 15.1606 14.0016 16.2759L14.6972 17.0005H16.7882L16.8489 16.8935C16.8959 16.8108 16.8962 16.7643 16.8504 16.688C16.7291 16.486 14.1541 13.7967 13.2325 12.9094C12.9776 12.664 12.769 12.4539 12.769 12.4424C12.769 12.4309 12.8748 12.4075 13.0042 12.3904C13.4265 12.3348 14.0805 12.1468 14.4654 11.9704C15.4172 11.5342 16.0279 10.8763 16.2573 10.0402L16.3415 9.73331L17.1457 9.733C17.1896 9.73298 17.2316 9.73303 17.2716 9.73307C17.746 9.73355 17.9543 9.73377 18.0454 9.63057C18.1166 9.54984 18.1162 9.40582 18.1154 9.14912C18.1154 9.12142 18.1153 9.09242 18.1153 9.06204C18.1153 9.03862 18.1153 9.01605 18.1154 8.9943C18.1159 8.74654 18.1161 8.60465 18.0461 8.52344C17.9522 8.41459 17.7319 8.41478 17.2163 8.41521C17.1825 8.41524 17.1475 8.41527 17.1111 8.41527H16.3291L16.216 8.10625C16.1538 7.9363 16.0273 7.68691 15.9349 7.55201C15.8425 7.41715 15.7669 7.30425 15.7669 7.30113C15.7668 7.29801 16.1884 7.30148 16.7037 7.30881C17.7139 7.32322 17.9203 7.30684 18.0387 7.20276C18.1494 7.10549 18.1484 6.23678 18.0375 6.09762L17.9597 6H14.1188C10.6937 6 10.2694 6.00747 10.1994 6.06899Z" fill="white"/>
</svg>
