<svg width="50" height="50" viewBox="0 0 50 50" fill="none" xmlns="http://www.w3.org/2000/svg">
<circle cx="25" cy="25" r="25" fill="#F9F9F9"/>
<path fill-rule="evenodd" clip-rule="evenodd" d="M20.3602 11.0998C20.1073 11.1789 18.9062 12.3247 16.9857 14.319L14.0039 17.4155L14.04 26.9548L14.0762 36.4941L14.4361 37.1275C14.634 37.4759 15.0169 37.9501 15.287 38.1812C16.2231 38.9821 16.4053 39 23.657 39H30.2444V37.51V36.02H23.706H17.1675L16.9638 35.7189C16.7856 35.4557 16.76 34.5213 16.76 28.2816V21.1453L19.2147 21.0988C21.6581 21.0525 21.6726 21.0503 22.3847 20.6459C23.1809 20.1936 23.8795 19.3436 24.0853 18.5768C24.1598 18.2992 24.2211 17.1427 24.2215 16.0065L24.2223 13.9408H28.4521C31.8982 13.9408 32.7289 13.9765 32.936 14.1331C33.1838 14.3207 33.191 14.6276 33.2249 26.6091L33.2596 38.8929L33.6176 38.8028C34.4936 38.5821 35.471 37.602 35.818 36.5959C36.0573 35.9023 36.0697 14.1111 35.8312 13.4418C35.5159 12.5572 34.8826 11.8219 34.0883 11.4184L33.321 11.0286L27.037 11.0027C23.5699 10.9885 20.5769 11.032 20.3602 11.0998ZM21.4513 15.919C21.4056 17.5396 21.369 17.7845 21.1492 17.9509C20.9644 18.0906 20.437 18.1399 19.1258 18.1399H17.3524L19.3129 16.1081C20.3911 14.9906 21.3251 14.0763 21.3883 14.0763C21.4515 14.0763 21.4799 14.9056 21.4513 15.919ZM19.7711 25.59V27.08H25.0078H30.2444V25.59V24.1H25.0078H19.7711V25.59ZM19.7711 31.55V33.04H25.0078H30.2444V31.55V30.06H25.0078H19.7711V31.55Z" fill="#00A6CA"/>
</svg>
