<svg width="22" height="18" viewBox="0 0 22 18" fill="none" xmlns="http://www.w3.org/2000/svg">
<path fill-rule="evenodd" clip-rule="evenodd" d="M1.45467 0.18551C0.949385 0.412497 0.494912 0.833198 0.231308 1.3178C0.033559 1.68144 0.0329166 1.70231 0.00631778 8.79289C-0.0123931 13.7691 0.00989459 16.0128 0.0807026 16.268C0.23681 16.8309 0.719993 17.4193 1.27848 17.7265L1.77569 18H10.9936H20.2115L20.7103 17.7265C21.2211 17.4466 21.6766 16.9199 21.8784 16.3759C21.9564 16.1654 21.988 14.4388 21.993 10.0919L22 4.09817H21.039H20.0778L20.053 9.91843C20.0325 14.6903 20.0054 15.7658 19.9022 15.8894C19.7867 16.0276 19.0502 16.0401 10.9936 16.0401C2.93586 16.0401 2.20054 16.0276 2.08497 15.8893C1.98078 15.7646 1.95913 14.5773 1.95913 8.99872V2.25884L2.17568 2.08464C2.38582 1.91544 2.67923 1.91034 12.1503 1.91034C22.9951 1.91034 22.0844 1.96914 21.7329 1.29137C21.4976 0.837756 21.0345 0.411038 20.5325 0.18551C20.1262 0.00291709 19.9751 0 10.9936 0C2.01206 0 1.8609 0.00291709 1.45467 0.18551ZM4.02284 5.05534V6.01252H4.9859H5.94896V5.05534V4.09817H4.9859H4.02284V5.05534ZM8.05853 5.05534V6.01252H13.0114H17.9643V5.05534V4.09817H13.0114H8.05853V5.05534ZM4.02284 9.06636V10.0235H4.9859H5.94896V9.06636V8.10919H4.9859H4.02284V9.06636ZM8.05853 9.06636V10.0235H13.0114H17.9643V9.06636V8.10919H13.0114H8.05853V9.06636ZM4.02284 13.0774V14.0346H4.9859H5.94896V13.0774V12.1202H4.9859H4.02284V13.0774ZM8.05853 13.0774V14.0346H13.0114H17.9643V13.0774V12.1202H13.0114H8.05853V13.0774Z" fill="#2C2C2C"/>
</svg>
