<svg width="30" height="30" viewBox="0 0 30 30" fill="none" xmlns="http://www.w3.org/2000/svg">
<circle cx="15" cy="15" r="15" fill="#00A6CA"/>
<path fill-rule="evenodd" clip-rule="evenodd" d="M14.3749 6.00975C14.3085 6.01734 14.1066 6.04008 13.9263 6.06031C12.5851 6.21072 11.1868 6.73992 10.0232 7.53749C9.38548 7.97458 9.3674 7.90792 10.4754 9.20636C10.9689 9.78463 11.4027 10.2736 11.4394 10.2928C11.578 10.3657 11.7026 10.3297 12.0307 10.122C12.6585 9.72471 13.3463 9.45243 14.0471 9.32375C14.3007 9.27719 14.5522 9.26038 14.996 9.26038C15.4399 9.26038 15.6914 9.27719 15.945 9.32375C18.3679 9.76863 20.1725 11.7569 20.3327 14.158L20.3553 14.4964H19.2615H18.1677L18.0797 14.5829C17.9868 14.6741 17.9875 14.7931 18.0817 14.9031C18.1057 14.9311 18.9365 15.9039 19.928 17.0649C20.9196 18.2259 21.7636 19.2057 21.8036 19.2423C21.886 19.3177 22.0909 19.3304 22.1766 19.2654C22.2709 19.1939 25.899 14.937 25.953 14.8346C26.022 14.7035 26.0185 14.6767 25.9196 14.5796L25.8349 14.4964H24.7463H23.6577L23.6576 14.3185C23.6574 14.0075 23.5867 13.3759 23.5005 12.9155C23.2633 11.6486 22.715 10.4354 21.8879 9.34809C21.57 8.93005 20.664 8.04033 20.2383 7.72806C19.0301 6.84173 17.714 6.30263 16.2039 6.07543C15.8603 6.02375 14.6368 5.97979 14.3749 6.00975ZM7.79301 9.75057C7.75301 9.78717 6.90903 10.767 5.91749 11.928C4.92599 13.089 4.09512 14.0618 4.07117 14.0898C3.977 14.1997 3.97624 14.3188 4.06917 14.41L4.15717 14.4964H5.2406H6.324L6.3475 14.9116C6.44561 16.6456 7.03899 18.2443 8.10417 19.6448C8.42213 20.0628 9.32809 20.9526 9.75376 21.2648C12.8099 23.5068 16.8656 23.5824 19.9689 21.4554C20.6066 21.0183 20.6247 21.085 19.5167 19.7865C19.0232 19.2082 18.5894 18.7193 18.5527 18.7C18.4141 18.6272 18.2895 18.6632 17.9613 18.8709C17.3336 19.2682 16.6458 19.5404 15.945 19.6691C15.6914 19.7157 15.4399 19.7325 14.996 19.7325C14.5522 19.7325 14.3007 19.7157 14.0471 19.6691C11.6242 19.2242 9.81963 17.236 9.65941 14.8349L9.63681 14.4964H10.7306H11.8244L11.9124 14.41C12.0053 14.3188 12.0046 14.1997 11.9103 14.0898C11.8863 14.0618 11.0563 13.0898 10.0658 11.9297C9.07525 10.7695 8.2313 9.78968 8.1903 9.75219C8.0924 9.66262 7.89004 9.66178 7.79301 9.75057Z" fill="white"/>
</svg>
