<svg width="175" height="125" viewBox="0 0 175 125" fill="none" xmlns="http://www.w3.org/2000/svg">
<path d="M139.969 22.2002H68.2293C65.341 22.2002 62.9995 24.5588 62.9995 27.4682V99.732C62.9995 102.641 65.341 105 68.2293 105H139.969C142.858 105 145.199 102.641 145.199 99.732V27.4682C145.199 24.5588 142.858 22.2002 139.969 22.2002Z" fill="url(#paint0_linear_141_627)"/>
<path d="M63.1743 59.5673V71.3003H145.401V59.5673L63.1743 59.5673Z" fill="#FEE784"/>
<path d="M113.161 105H96.6167L96.839 32.98H113.384L113.161 105Z" fill="#FFF2B0"/>
<path d="M147.733 22.5601H62.267C61.015 22.5601 60 23.5751 60 24.8273V30.757C60 32.0092 61.015 33.0242 62.267 33.0242H147.733C148.985 33.0242 150 32.0092 150 30.757V24.8273C150 23.5751 148.985 22.5601 147.733 22.5601Z" fill="#00A6CA"/>
<path d="M146.111 33.0239H63.8845V35.64H146.111V33.0239Z" fill="#009DB7"/>
<path d="M110.921 105H99.1892L99.3462 33.0239H111.078L110.921 105Z" fill="#FBD801"/>
<path d="M139.723 39.5199L140.8 41.7C140.826 41.7524 140.864 41.7978 140.911 41.832C140.958 41.8663 141.013 41.8883 141.07 41.8962L143.477 42.2493C143.543 42.2582 143.605 42.2856 143.656 42.3282C143.707 42.3709 143.745 42.4272 143.766 42.4906C143.786 42.5539 143.789 42.6218 143.772 42.6864C143.756 42.7509 143.721 42.8095 143.673 42.8554L141.929 44.5558C141.888 44.5965 141.856 44.6467 141.838 44.7021C141.82 44.7575 141.815 44.8165 141.825 44.8741L142.239 47.2678C142.25 47.3339 142.242 47.4017 142.216 47.4636C142.191 47.5256 142.148 47.5792 142.094 47.6185C142.04 47.6578 141.976 47.6813 141.909 47.6864C141.842 47.6914 141.775 47.6778 141.716 47.6471L139.566 46.5135C139.514 46.4877 139.457 46.4743 139.399 46.4743C139.34 46.4743 139.283 46.4877 139.231 46.5135L137.077 47.6471C137.018 47.6784 136.951 47.6924 136.884 47.6875C136.817 47.6827 136.753 47.6591 136.699 47.6196C136.645 47.58 136.603 47.5261 136.578 47.4639C136.553 47.4017 136.546 47.3337 136.558 47.2678L136.994 44.8741C137.003 44.8166 136.998 44.7577 136.98 44.7024C136.962 44.6472 136.931 44.5969 136.89 44.5558L135.146 42.8554C135.098 42.8095 135.063 42.7509 135.047 42.6864C135.03 42.6218 135.033 42.5539 135.053 42.4906C135.074 42.4272 135.112 42.3709 135.163 42.3282C135.214 42.2856 135.276 42.2582 135.342 42.2493L137.748 41.8962C137.806 41.8883 137.861 41.8663 137.908 41.832C137.955 41.7978 137.993 41.7524 138.019 41.7L139.096 39.5199C139.126 39.4635 139.172 39.4164 139.227 39.3836C139.282 39.3508 139.345 39.3335 139.409 39.3335C139.474 39.3335 139.537 39.3508 139.592 39.3836C139.647 39.4164 139.693 39.4635 139.723 39.5199Z" fill="url(#paint1_linear_141_627)"/>
<path d="M129.453 92.3383L130.199 93.8425C130.216 93.8782 130.242 93.9092 130.274 93.9328C130.305 93.9563 130.343 93.9717 130.382 93.9777L132.043 94.2175C132.091 94.2219 132.138 94.2405 132.176 94.2711C132.214 94.3016 132.242 94.3427 132.257 94.3892C132.272 94.4358 132.273 94.4856 132.26 94.5326C132.246 94.5796 132.219 94.6217 132.182 94.6535L130.979 95.8264C130.951 95.8546 130.93 95.8891 130.918 95.927C130.906 95.9649 130.903 96.0051 130.909 96.0444L131.193 97.7012C131.201 97.7465 131.196 97.7932 131.179 97.8359C131.161 97.8786 131.132 97.9155 131.095 97.9424C131.058 97.9693 131.013 97.9851 130.967 97.9879C130.921 97.9908 130.876 97.9805 130.835 97.9584L129.349 97.1649C129.313 97.1454 129.273 97.1352 129.233 97.1352C129.193 97.1352 129.153 97.1454 129.118 97.1649L127.631 97.9454C127.591 97.9675 127.545 97.9777 127.499 97.9749C127.453 97.972 127.409 97.9562 127.371 97.9293C127.334 97.9024 127.305 97.8655 127.287 97.8228C127.27 97.7801 127.265 97.7334 127.273 97.6881L127.557 96.0313C127.563 95.992 127.56 95.9518 127.548 95.9139C127.536 95.8761 127.515 95.8416 127.487 95.8133L126.284 94.6404C126.247 94.6086 126.22 94.5665 126.207 94.5196C126.193 94.4726 126.194 94.4227 126.209 94.3762C126.224 94.3297 126.252 94.2886 126.29 94.258C126.328 94.2275 126.375 94.2088 126.423 94.2044L128.084 93.9646C128.124 93.9586 128.161 93.9432 128.193 93.9197C128.225 93.8961 128.25 93.8652 128.267 93.8294L129.013 92.3252C129.034 92.2843 129.066 92.2501 129.106 92.2267C129.146 92.2033 129.191 92.1916 129.237 92.193C129.283 92.1943 129.328 92.2087 129.366 92.2344C129.404 92.2601 129.435 92.2962 129.453 92.3383Z" fill="url(#paint2_linear_141_627)"/>
<path d="M74.3673 92.3987L75.4397 94.5787C75.4654 94.631 75.5035 94.6761 75.5506 94.7103C75.5977 94.7445 75.6524 94.7667 75.71 94.7749L78.1165 95.1237C78.1829 95.1329 78.2453 95.1604 78.2967 95.2033C78.3481 95.2462 78.3865 95.3027 78.4074 95.3663C78.4283 95.4299 78.4309 95.4981 78.4149 95.5632C78.399 95.6282 78.3651 95.6874 78.3171 95.7341L76.5732 97.4346C76.5323 97.4748 76.5017 97.5244 76.4842 97.5791C76.4668 97.6338 76.4629 97.6919 76.473 97.7485L76.8828 100.147C76.8946 100.212 76.8877 100.28 76.8628 100.343C76.8379 100.405 76.796 100.459 76.7419 100.498C76.6878 100.538 76.6237 100.561 76.5569 100.566C76.4901 100.571 76.4232 100.557 76.364 100.526L74.2103 99.3922C74.1589 99.3665 74.1022 99.3531 74.0447 99.3531C73.9871 99.3531 73.9304 99.3665 73.879 99.3922L71.7253 100.526C71.6661 100.557 71.5993 100.571 71.5324 100.566C71.4656 100.561 71.4015 100.538 71.3474 100.498C71.2933 100.459 71.2515 100.405 71.2265 100.343C71.2016 100.28 71.1947 100.212 71.2065 100.147L71.6163 97.7485C71.6264 97.6919 71.6225 97.6338 71.6051 97.5791C71.5876 97.5244 71.5571 97.4748 71.5161 97.4346L69.7722 95.7341C69.7242 95.6874 69.6903 95.6282 69.6744 95.5632C69.6584 95.4981 69.661 95.4299 69.6819 95.3663C69.7028 95.3027 69.7412 95.2462 69.7926 95.2033C69.844 95.1604 69.9064 95.1329 69.9728 95.1237L72.3793 94.7749C72.4369 94.7667 72.4916 94.7445 72.5387 94.7103C72.5859 94.6761 72.6239 94.631 72.6496 94.5787L73.722 92.3987C73.7523 92.3391 73.7985 92.2891 73.8554 92.2541C73.9123 92.2192 73.9778 92.2007 74.0447 92.2007C74.1115 92.2007 74.177 92.2192 74.2339 92.2541C74.2909 92.2891 74.337 92.3391 74.3673 92.3987Z" fill="url(#paint3_linear_141_627)"/>
<path d="M117.644 83.5487L118.35 84.9875C118.368 85.0215 118.393 85.0508 118.424 85.0728C118.455 85.0948 118.491 85.1089 118.529 85.114L120.116 85.345C120.159 85.3514 120.2 85.3697 120.234 85.398C120.267 85.4262 120.292 85.4633 120.306 85.505C120.319 85.5467 120.321 85.5914 120.311 85.634C120.3 85.6766 120.278 85.7155 120.247 85.7462L119.1 86.8667C119.072 86.8932 119.051 86.9262 119.039 86.9627C119.027 86.9992 119.024 87.0381 119.03 87.076L119.305 88.6587C119.313 88.7024 119.308 88.7474 119.292 88.7886C119.275 88.8298 119.247 88.8655 119.211 88.8915C119.175 88.9175 119.133 88.9327 119.088 88.9355C119.044 88.9383 119 88.9285 118.961 88.9072L117.539 88.1617C117.506 88.1425 117.469 88.1324 117.43 88.1324C117.392 88.1324 117.355 88.1425 117.321 88.1617L115.9 88.9072C115.861 88.9273 115.818 88.9361 115.774 88.9327C115.731 88.9293 115.689 88.9139 115.653 88.8881C115.618 88.8623 115.591 88.8271 115.574 88.7866C115.558 88.7461 115.553 88.7018 115.56 88.6587L115.83 87.076C115.837 87.0381 115.834 86.9992 115.822 86.9627C115.809 86.9262 115.789 86.8932 115.761 86.8667L114.592 85.7462C114.561 85.7155 114.539 85.6766 114.528 85.634C114.518 85.5914 114.52 85.5467 114.533 85.505C114.547 85.4633 114.572 85.4262 114.605 85.398C114.639 85.3697 114.68 85.3514 114.723 85.345L116.31 85.114C116.348 85.1097 116.384 85.0958 116.416 85.0737C116.447 85.0516 116.472 85.022 116.489 84.9875L117.199 83.5487C117.215 83.5025 117.246 83.4625 117.285 83.4342C117.325 83.4059 117.373 83.3906 117.422 83.3906C117.471 83.3906 117.518 83.4059 117.558 83.4342C117.598 83.4625 117.628 83.5025 117.644 83.5487Z" fill="url(#paint4_linear_141_627)"/>
<path d="M136.954 71.9232L138.031 74.1032C138.057 74.1553 138.095 74.2002 138.142 74.2344C138.189 74.2686 138.244 74.2909 138.301 74.2994L140.708 74.6483C140.774 74.6574 140.837 74.685 140.888 74.7279C140.939 74.7707 140.978 74.8272 140.999 74.8908C141.02 74.9544 141.022 75.0227 141.006 75.0877C140.99 75.1527 140.956 75.212 140.908 75.2587L139.164 76.9547C139.123 76.9958 139.092 77.0461 139.074 77.1014C139.056 77.1567 139.051 77.2155 139.06 77.273L139.474 79.6711C139.485 79.7367 139.477 79.804 139.452 79.8655C139.427 79.927 139.385 79.9802 139.331 80.0192C139.277 80.0582 139.213 80.0813 139.147 80.0861C139.08 80.0908 139.014 80.0769 138.955 80.046L136.823 78.9168C136.773 78.8889 136.716 78.8743 136.658 78.8743C136.6 78.8743 136.543 78.8889 136.492 78.9168L134.338 80.046C134.28 80.0769 134.213 80.0908 134.147 80.0861C134.081 80.0813 134.017 80.0582 133.963 80.0192C133.909 79.9802 133.867 79.927 133.842 79.8655C133.816 79.804 133.809 79.7367 133.82 79.6711L134.229 77.273C134.24 77.2154 134.236 77.1561 134.218 77.1005C134.2 77.0449 134.168 76.9947 134.125 76.9547L132.381 75.2587C132.333 75.2122 132.299 75.1534 132.283 75.0886C132.267 75.0239 132.269 74.956 132.289 74.8925C132.31 74.829 132.348 74.7725 132.398 74.7293C132.449 74.6861 132.511 74.6581 132.577 74.6483L134.984 74.2994C135.041 74.2909 135.096 74.2686 135.143 74.2344C135.19 74.2002 135.228 74.1553 135.254 74.1032L136.331 71.9232C136.362 71.8679 136.407 71.8218 136.462 71.7897C136.517 71.7576 136.579 71.7407 136.642 71.7407C136.706 71.7407 136.768 71.7576 136.823 71.7897C136.878 71.8218 136.923 71.8679 136.954 71.9232Z" fill="url(#paint5_linear_141_627)"/>
<path d="M117.208 44.0069L117.918 45.4457C117.935 45.4802 117.96 45.5099 117.991 45.532C118.023 45.5541 118.059 45.5679 118.097 45.5722L119.684 45.8033C119.727 45.8105 119.768 45.8295 119.801 45.8583C119.834 45.887 119.859 45.9243 119.873 45.9662C119.886 46.0081 119.888 46.0528 119.878 46.0956C119.867 46.1384 119.846 46.1775 119.815 46.2088L118.668 47.3249C118.641 47.3517 118.62 47.3847 118.608 47.4211C118.596 47.4575 118.592 47.4963 118.598 47.5342L118.869 49.1169C118.876 49.16 118.871 49.2043 118.855 49.2449C118.838 49.2854 118.811 49.3205 118.775 49.3463C118.74 49.3721 118.698 49.3876 118.655 49.3909C118.611 49.3943 118.567 49.3855 118.529 49.3654L117.107 48.6199C117.074 48.6027 117.036 48.5937 116.998 48.5937C116.96 48.5937 116.923 48.6027 116.889 48.6199L115.464 49.3654C115.425 49.3867 115.381 49.3965 115.336 49.3937C115.292 49.3909 115.249 49.3757 115.213 49.3497C115.177 49.3237 115.149 49.2881 115.133 49.2469C115.116 49.2057 115.112 49.1606 115.119 49.1169L115.394 47.5342C115.4 47.4963 115.397 47.4575 115.385 47.4211C115.373 47.3847 115.352 47.3517 115.324 47.3249L114.156 46.2088C114.123 46.1782 114.1 46.1391 114.089 46.0958C114.078 46.0526 114.079 46.007 114.093 45.9645C114.106 45.922 114.132 45.8842 114.166 45.8557C114.201 45.8271 114.242 45.809 114.287 45.8033L115.874 45.5722C115.911 45.5676 115.947 45.5536 115.977 45.5315C116.008 45.5094 116.032 45.4799 116.048 45.4457L116.759 44.0069C116.774 43.9592 116.804 43.9175 116.844 43.8879C116.884 43.8582 116.933 43.8423 116.983 43.8423C117.033 43.8423 117.082 43.8582 117.122 43.8879C117.163 43.9175 117.193 43.9592 117.208 44.0069Z" fill="url(#paint6_linear_141_627)"/>
<path d="M141.325 22.6596L142.197 24.456C142.218 24.4988 142.249 24.5359 142.288 24.5639C142.327 24.592 142.372 24.6103 142.419 24.6173L144.403 24.9094C144.457 24.9169 144.508 24.9396 144.551 24.975C144.593 25.0104 144.624 25.057 144.641 25.1094C144.658 25.1618 144.66 25.2179 144.646 25.2712C144.632 25.3246 144.604 25.3729 144.564 25.4108L143.13 26.8104C143.095 26.8437 143.07 26.885 143.055 26.9307C143.041 26.9764 143.038 27.025 143.047 27.072L143.383 29.0471C143.394 29.1027 143.389 29.1603 143.368 29.213C143.347 29.2658 143.312 29.3113 143.265 29.3441C143.219 29.3769 143.165 29.3956 143.108 29.3978C143.051 29.4001 142.995 29.3858 142.947 29.3567L141.185 28.4236C141.143 28.4022 141.096 28.391 141.048 28.391C141 28.391 140.953 28.4022 140.911 28.4236L139.136 29.3567C139.087 29.3838 139.032 29.3966 138.976 29.3935C138.92 29.3904 138.866 29.3715 138.821 29.3392C138.775 29.3068 138.74 29.2622 138.718 29.2105C138.697 29.1589 138.691 29.1022 138.7 29.0471L139.04 27.072C139.049 27.025 139.047 26.9764 139.032 26.9307C139.018 26.885 138.992 26.8437 138.958 26.8104L137.519 25.4108C137.479 25.3727 137.45 25.3239 137.437 25.2703C137.424 25.2166 137.426 25.1602 137.443 25.1077C137.46 25.0552 137.492 25.0086 137.535 24.9735C137.578 24.9384 137.63 24.9162 137.684 24.9094L139.668 24.6173C139.715 24.6103 139.76 24.592 139.799 24.5639C139.838 24.5359 139.869 24.4988 139.89 24.456L140.762 22.6596C140.782 22.6006 140.82 22.5493 140.87 22.513C140.921 22.4766 140.981 22.457 141.044 22.457C141.106 22.457 141.166 22.4766 141.217 22.513C141.267 22.5493 141.305 22.6006 141.325 22.6596Z" fill="url(#paint7_linear_141_627)"/>
<path d="M88.3307 25.2755L89.0414 26.7143C89.058 26.7488 89.0832 26.7784 89.1145 26.8005C89.1457 26.8226 89.1821 26.8365 89.2201 26.8407L90.807 27.0718C90.8504 27.0791 90.8909 27.0981 90.9242 27.1268C90.9575 27.1555 90.9823 27.1929 90.9958 27.2348C91.0093 27.2766 91.011 27.3214 91.0008 27.3642C90.9906 27.407 90.9688 27.4461 90.9378 27.4773L89.7868 28.5979C89.7605 28.6244 89.7408 28.6568 89.7294 28.6924C89.718 28.728 89.7153 28.7659 89.7215 28.8028L89.9917 30.3855C89.9996 30.4292 89.995 30.4742 89.9784 30.5154C89.9618 30.5566 89.9338 30.5923 89.8978 30.6182C89.8618 30.6442 89.8192 30.6595 89.7749 30.6623C89.7305 30.6651 89.6863 30.6553 89.6473 30.634L88.2305 29.8884C88.1959 29.8712 88.1579 29.8622 88.1193 29.8622C88.0807 29.8622 88.0426 29.8712 88.0081 29.8884L86.5913 30.634C86.5523 30.6553 86.5081 30.6651 86.4637 30.6623C86.4194 30.6595 86.3768 30.6442 86.3408 30.6182C86.3048 30.5923 86.2768 30.5566 86.2602 30.5154C86.2436 30.4742 86.239 30.4292 86.2468 30.3855L86.5171 28.8028C86.5241 28.7659 86.5217 28.7278 86.5103 28.6921C86.4989 28.6563 86.4788 28.6239 86.4517 28.5979L85.3008 27.4773C85.2698 27.4461 85.248 27.407 85.2378 27.3642C85.2275 27.3214 85.2293 27.2766 85.2428 27.2348C85.2563 27.1929 85.281 27.1555 85.3143 27.1268C85.3476 27.0981 85.3882 27.0791 85.4316 27.0718L87.0229 26.8407C87.0601 26.8358 87.0956 26.8216 87.126 26.7996C87.1565 26.7775 87.1809 26.7482 87.1972 26.7143L87.9079 25.2755C87.9272 25.2359 87.9573 25.2026 87.9947 25.1792C88.0321 25.1559 88.0752 25.1436 88.1193 25.1436C88.1634 25.1436 88.2065 25.1559 88.2439 25.1792C88.2813 25.2026 88.3114 25.2359 88.3307 25.2755Z" fill="url(#paint8_linear_141_627)"/>
<path d="M69.6474 37.64L70.3231 39.0134C70.3401 39.0455 70.3643 39.0732 70.3938 39.0944C70.4233 39.1156 70.4573 39.1297 70.4931 39.1355L72.0059 39.3535C72.0478 39.359 72.0873 39.3763 72.1197 39.4034C72.152 39.4305 72.1761 39.4663 72.1889 39.5066C72.2017 39.5468 72.2027 39.5899 72.192 39.6307C72.1812 39.6716 72.159 39.7085 72.128 39.7372L71.0337 40.8054C71.0081 40.8306 70.9887 40.8615 70.9774 40.8956C70.966 40.9298 70.9629 40.9661 70.9683 41.0016L71.2299 42.5059C71.237 42.5473 71.2324 42.59 71.2166 42.629C71.2008 42.668 71.1744 42.7019 71.1405 42.7268C71.1066 42.7517 71.0664 42.7666 71.0244 42.7699C70.9824 42.7733 70.9404 42.7649 70.9029 42.7457L69.5515 42.035C69.5193 42.0178 69.4833 42.0088 69.4468 42.0088C69.4103 42.0088 69.3744 42.0178 69.3422 42.035L67.9907 42.7457C67.9533 42.7649 67.9112 42.7733 67.8693 42.7699C67.8273 42.7666 67.7871 42.7517 67.7532 42.7268C67.7192 42.7019 67.6929 42.668 67.6771 42.629C67.6613 42.59 67.6567 42.5473 67.6638 42.5059L67.921 41.0016C67.9284 40.9661 67.9263 40.9291 67.9148 40.8947C67.9033 40.8602 67.8829 40.8294 67.8556 40.8054L66.7657 39.7372C66.7347 39.7085 66.7125 39.6716 66.7017 39.6307C66.6909 39.5899 66.692 39.5468 66.7048 39.5066C66.7176 39.4663 66.7416 39.4305 66.774 39.4034C66.8064 39.3763 66.8459 39.359 66.8877 39.3535L68.4005 39.1355C68.4364 39.1297 68.4704 39.1156 68.4999 39.0944C68.5293 39.0732 68.5535 39.0455 68.5706 39.0134L69.2463 37.64C69.2644 37.6022 69.2928 37.5702 69.3283 37.5479C69.3638 37.5255 69.4049 37.5137 69.4468 37.5137C69.4888 37.5137 69.5299 37.5255 69.5653 37.5479C69.6008 37.5702 69.6293 37.6022 69.6474 37.64Z" fill="url(#paint9_linear_141_627)"/>
<path d="M92.249 48.7684L93.1209 50.5124C93.1407 50.5551 93.1712 50.5919 93.2094 50.6194C93.2475 50.6469 93.2921 50.6641 93.3389 50.6694L95.2833 50.9528C95.3369 50.96 95.3875 50.9821 95.4291 51.0167C95.4707 51.0514 95.5018 51.097 95.5186 51.1485C95.5355 51.1999 95.5374 51.2551 95.5243 51.3076C95.5112 51.3602 95.4836 51.408 95.4446 51.4455L94.0364 52.8189C94.0026 52.8517 93.9774 52.8923 93.9629 52.9372C93.9485 52.9821 93.9453 53.0298 93.9536 53.0762L94.2849 55.0164C94.2953 55.0716 94.2895 55.1286 94.2683 55.1806C94.2471 55.2326 94.2113 55.2774 94.1653 55.3096C94.1193 55.3418 94.065 55.36 94.0089 55.3622C93.9528 55.3643 93.8972 55.3502 93.8489 55.3216L92.1051 54.406C92.064 54.3846 92.0184 54.3734 91.9721 54.3734C91.9258 54.3734 91.8802 54.3846 91.8392 54.406L90.0953 55.3216C90.047 55.3502 89.9915 55.3643 89.9354 55.3622C89.8792 55.36 89.8249 55.3418 89.7789 55.3096C89.7329 55.2774 89.6972 55.2326 89.676 55.1806C89.6548 55.1286 89.649 55.0716 89.6594 55.0164L89.9907 53.0762C89.999 53.0298 89.9958 52.9821 89.9813 52.9372C89.9669 52.8923 89.9417 52.8517 89.9079 52.8189L88.4997 51.4455C88.4623 51.4073 88.4361 51.3595 88.4239 51.3075C88.4118 51.2554 88.4141 51.201 88.4308 51.1502C88.4474 51.0993 88.4777 51.0541 88.5183 51.0193C88.5589 50.9845 88.6082 50.9615 88.661 50.9528L90.6054 50.6694C90.6521 50.6641 90.6967 50.6469 90.7349 50.6194C90.773 50.5919 90.8035 50.5551 90.8234 50.5124L91.6953 48.7684C91.7124 48.7081 91.7486 48.6551 91.7986 48.6173C91.8486 48.5795 91.9095 48.5591 91.9721 48.5591C92.0348 48.5591 92.0957 48.5795 92.1457 48.6173C92.1956 48.6551 92.2319 48.7081 92.249 48.7684Z" fill="url(#paint10_linear_141_627)"/>
<path d="M87.5172 72.4392L88.2583 73.9434C88.2769 73.979 88.3035 74.0098 88.336 74.0333C88.3686 74.0567 88.4062 74.0723 88.4458 74.0786L90.1068 74.3184C90.1554 74.3228 90.2017 74.3415 90.2398 74.372C90.2779 74.4026 90.3061 74.4437 90.321 74.4902C90.3359 74.5367 90.3368 74.5866 90.3235 74.6335C90.3102 74.6805 90.2833 74.7226 90.2463 74.7544L89.043 75.9273C89.0134 75.9545 88.9911 75.9887 88.9781 76.0268C88.9652 76.0649 88.962 76.1056 88.9689 76.1453L89.2567 77.7977C89.2646 77.8436 89.2595 77.8907 89.2419 77.9338C89.2244 77.9769 89.1951 78.0142 89.1574 78.0415C89.1197 78.0688 89.0751 78.0849 89.0287 78.088C88.9822 78.0912 88.9359 78.0812 88.8948 78.0593L87.4126 77.2789C87.3772 77.2594 87.3374 77.2492 87.297 77.2492C87.2566 77.2492 87.2169 77.2594 87.1815 77.2789L85.6949 78.0593C85.6541 78.0819 85.6078 78.0923 85.5613 78.0893C85.5148 78.0864 85.4702 78.0702 85.4326 78.0427C85.395 78.0152 85.3661 77.9775 85.3492 77.9341C85.3323 77.8907 85.3282 77.8434 85.3374 77.7977L85.6208 76.1453C85.6274 76.106 85.6246 76.0657 85.6125 76.0278C85.6003 75.9898 85.5792 75.9554 85.551 75.9273L84.3477 74.7544C84.3108 74.7229 84.284 74.6812 84.2705 74.6345C84.257 74.5879 84.2575 74.5383 84.2719 74.4919C84.2863 74.4456 84.3139 74.4044 84.3514 74.3736C84.3889 74.3427 84.4346 74.3236 84.4829 74.3184L86.1439 74.0786C86.1839 74.0733 86.2219 74.0582 86.2546 74.0346C86.2874 74.011 86.3137 73.9797 86.3314 73.9434L87.0725 72.4392C87.0919 72.3965 87.1232 72.3602 87.1626 72.3348C87.202 72.3094 87.2479 72.2959 87.2948 72.2959C87.3418 72.2959 87.3877 72.3094 87.4271 72.3348C87.4665 72.3602 87.4978 72.3965 87.5172 72.4392Z" fill="url(#paint11_linear_141_627)"/>
<path d="M90.8651 90.6333L88.293 95.0893H93.4373L90.8651 90.6333Z" fill="#FEE784"/>
<path d="M113.379 35.6618H96.843L96.8474 33.0632L113.383 33.0239L113.379 35.6618Z" fill="#FEE67B"/>
<path d="M111.071 35.6393H99.3438L99.3481 33.0451L111.075 33.0015L111.071 35.6393Z" fill="#E4BE21"/>
<path d="M113.508 22.2231H96.9026V33.0448H113.508V22.2231Z" fill="#FFF2B0"/>
<path d="M93.7874 3.06494C96.7605 3.06494 99.6119 4.24583 101.715 6.34794C103.817 8.45005 104.999 11.3013 105 14.2747V21.8612H97.4146C94.4407 21.8612 91.5887 20.6797 89.4858 18.5767C87.383 16.4736 86.2017 13.6213 86.2017 10.6471V10.6471C86.2028 8.63579 87.0025 6.70725 88.425 5.28544C89.8475 3.86363 91.7763 3.06494 93.7874 3.06494V3.06494Z" stroke="#FAD803" stroke-width="5" stroke-miterlimit="10"/>
<path d="M123.808 10.5865C123.808 13.5607 122.626 16.4131 120.523 18.5161C118.421 20.6192 115.569 21.8006 112.595 21.8006H105.009V14.2141C105.009 11.2422 106.189 8.39184 108.289 6.28917C110.389 4.18649 113.237 3.00348 116.209 3.00001C117.206 2.99829 118.194 3.19325 119.116 3.57374C120.038 3.95423 120.875 4.51278 121.581 5.21742C122.287 5.92207 122.847 6.75898 123.229 7.68028C123.611 8.60157 123.808 9.58916 123.808 10.5865Z" stroke="#FAD803" stroke-width="5" stroke-miterlimit="10"/>
<path d="M111.08 22.2231H99.3438V33.0274H111.08V22.2231Z" fill="#FBD801"/>
<path fill-rule="evenodd" clip-rule="evenodd" d="M69.9533 67.4253V83.916C70.9768 83.8556 71.9844 83.6268 72.9342 83.2378C74.0535 82.7793 75.0709 82.1071 75.9281 81.2595C76.7852 80.4118 77.4655 79.4052 77.9296 78.2971C78.3938 77.1889 78.6327 76.001 78.6327 74.8013V67.4253H69.9533ZM68.1169 65.6206C68.4575 65.2838 68.9204 65.0938 69.4041 65.0938H79.182C79.6657 65.0938 80.1286 65.2838 80.4692 65.6206C80.8096 65.9573 81 66.4128 81 66.8869V74.8013C81 76.3059 80.7003 77.7959 80.118 79.1862C79.5356 80.5766 78.6819 81.8402 77.6053 82.9048C76.5288 83.9694 75.2505 84.8141 73.8432 85.3905C72.436 85.967 70.9276 86.2637 69.4041 86.2637C68.9204 86.2637 68.4575 86.0736 68.1169 85.7368C67.7765 85.4002 67.5861 84.9446 67.5861 84.4706V66.8869C67.5861 66.4128 67.7765 65.9572 68.1169 65.6206ZM38.3481 65.1949H48.4585C48.7006 65.1949 48.9402 65.2421 49.1636 65.3336C49.387 65.4251 49.5897 65.5591 49.7602 65.7277C49.9307 65.8963 50.0657 66.0962 50.1577 66.3159C50.2497 66.5355 50.297 66.7708 50.297 67.0083V84.5515C50.297 85.0309 50.1044 85.4916 49.7602 85.8321C49.4158 86.1726 48.9476 86.3649 48.4585 86.3649C45.4179 86.3649 42.5029 85.1704 40.3544 83.0457C38.2061 80.9212 37 78.0408 37 75.0383V67.0097C37 66.5303 37.1925 66.0696 37.5368 65.7291C37.739 65.5292 37.9837 65.3804 38.2504 65.2916L38.3481 65.1949ZM39.3673 67.5264V75.0383C39.3673 77.4254 40.3262 79.7139 42.0317 81.4004C43.6118 82.963 45.7128 83.8904 47.9297 84.0181V67.5264H39.3673Z" fill="#FBD801"/>
<path d="M59.3843 92.0033H58.405C57.4362 92.0033 56.6508 92.7799 56.6508 93.7379V101.2C56.6508 102.158 57.4362 102.935 58.405 102.935H59.3843C60.3531 102.935 61.1385 102.158 61.1385 101.2V93.7379C61.1385 92.7799 60.3531 92.0033 59.3843 92.0033Z" fill="#F7CB18"/>
<path d="M44.9552 58.9189H72.8342C73.2746 58.9189 73.697 59.092 74.0084 59.3999C74.3198 59.7079 74.4948 60.1256 74.4948 60.5611V79.9315C74.4959 83.871 72.9147 87.6497 70.0989 90.4364C67.283 93.2232 63.4631 94.7898 59.4794 94.7917H58.2661C56.3003 94.7925 54.3536 94.4102 52.5372 93.6668C50.7208 92.9234 49.0703 91.8334 47.68 90.4591C46.2897 89.0847 45.1868 87.453 44.4343 85.6571C43.6819 83.8611 43.2946 81.9362 43.2946 79.9922V60.5611C43.2946 60.1256 43.4695 59.7079 43.7809 59.3999C44.0924 59.092 44.5147 58.9189 44.9552 58.9189Z" fill="url(#paint12_linear_141_627)"/>
<path d="M75.6364 58.3335H42.1529C41.5345 58.3335 41.0332 58.8292 41.0332 59.4408V62.6152C41.0332 63.2268 41.5345 63.7225 42.1529 63.7225H75.6364C76.2548 63.7225 76.7561 63.2268 76.7561 62.6152V59.4408C76.7561 58.8292 76.2548 58.3335 75.6364 58.3335Z" fill="#FBD801"/>
<path d="M58.8947 87.5408C64.4386 87.5408 68.9328 83.0965 68.9328 77.6142C68.9328 72.1319 64.4386 67.6876 58.8947 67.6876C53.3509 67.6876 48.8567 72.1319 48.8567 77.6142C48.8567 83.0965 53.3509 87.5408 58.8947 87.5408Z" fill="#FFEEA9"/>
<path d="M58.8946 86.9886C64.1301 86.9886 68.3742 82.7916 68.3742 77.6142C68.3742 72.4369 64.1301 68.2398 58.8946 68.2398C53.6592 68.2398 49.415 72.4369 49.415 77.6142C49.415 82.7916 53.6592 86.9886 58.8946 86.9886Z" fill="url(#paint13_linear_141_627)"/>
<path d="M63.6849 69.5264C65.0406 71.2454 65.7478 73.378 65.6849 75.5571C65.622 77.7362 64.7928 79.8254 63.3402 81.4651C61.8875 83.1048 59.9023 84.1924 57.7261 84.5407C55.55 84.889 53.3192 84.4762 51.4177 83.3733C52.2754 84.4628 53.366 85.3514 54.6114 85.9756C55.8569 86.5998 57.2264 86.9442 58.622 86.9842C60.0177 87.0241 61.405 86.7587 62.6849 86.2068C63.9647 85.6549 65.1055 84.8302 66.0256 83.7916C66.9457 82.7531 67.6223 81.5263 68.0072 80.1991C68.3922 78.8718 68.4758 77.4769 68.2522 76.1139C68.0285 74.751 67.5032 73.4538 66.7136 72.315C65.9241 71.1762 64.8899 70.224 63.6849 69.5264Z" fill="#FCCF13"/>
<path d="M59.2893 71.3752L60.637 75.4835C60.6632 75.5669 60.7155 75.6399 60.7865 75.6919C60.8575 75.7439 60.9434 75.7722 61.0317 75.7726H65.3937C65.4814 75.7722 65.5669 75.7995 65.638 75.8504C65.709 75.9013 65.7619 75.9732 65.7889 76.0557C65.8159 76.1383 65.8157 76.2271 65.7882 76.3095C65.7608 76.392 65.7076 76.4636 65.6363 76.5141L62.1105 79.0381C62.0406 79.0896 61.9888 79.1616 61.9625 79.2438C61.9363 79.3261 61.9369 79.4144 61.9643 79.4963L63.3121 83.5988C63.3396 83.6811 63.3399 83.77 63.313 83.8525C63.2861 83.935 63.2334 84.0069 63.1625 84.0579C63.0916 84.1089 63.0062 84.1363 62.9185 84.1361C62.8308 84.136 62.7455 84.1083 62.6748 84.057L59.146 81.5215C59.075 81.4707 58.9896 81.4434 58.9019 81.4434C58.8142 81.4434 58.7288 81.4707 58.6578 81.5215L55.1291 84.057C55.0583 84.1083 54.973 84.136 54.8853 84.1361C54.7976 84.1363 54.7122 84.1089 54.6413 84.0579C54.5704 84.0069 54.5177 83.935 54.4908 83.8525C54.4639 83.77 54.4642 83.6811 54.4917 83.5988L55.8395 79.4963C55.8669 79.4144 55.8675 79.3261 55.8413 79.2438C55.815 79.1616 55.7633 79.0896 55.6933 79.0381L52.1646 76.5026C52.0933 76.452 52.0401 76.3804 52.0126 76.298C51.9852 76.2156 51.985 76.1267 52.012 76.0442C52.039 75.9616 52.0919 75.8897 52.1629 75.8388C52.2339 75.7879 52.3195 75.7607 52.4072 75.761H56.7692C56.8575 75.7606 56.9434 75.7324 57.0144 75.6804C57.0854 75.6284 57.1377 75.5553 57.1639 75.4719L58.5116 71.3694C58.5418 71.2913 58.5954 71.2242 58.6653 71.177C58.7352 71.1299 58.8179 71.105 58.9025 71.1056C58.987 71.1062 59.0694 71.1324 59.1385 71.1806C59.2076 71.2287 59.2602 71.2967 59.2893 71.3752Z" fill="url(#paint14_linear_141_627)"/>
<path d="M68.0132 100.598H49.7761C48.972 100.598 48.3201 101.243 48.3201 102.038V103.56C48.3201 104.356 48.972 105 49.7761 105H68.0132C68.8173 105 69.4691 104.356 69.4691 103.56V102.038C69.4691 101.243 68.8173 100.598 68.0132 100.598Z" fill="url(#paint15_linear_141_627)"/>
<rect x="28" y="105" width="147" height="20" fill="#A9D161"/>
<path d="M0 125L28.0866 105V125H0Z" fill="#97BD53"/>
<path d="M150 105C158.837 105 166 97.6127 166 88.5C166 79.3873 158.837 72 150 72C141.163 72 134 79.3873 134 88.5C134 97.6127 141.163 105 150 105Z" fill="url(#paint16_linear_141_627)"/>
<path d="M149.731 101.727C156.934 101.727 162.773 95.8054 162.773 88.5002C162.773 81.195 156.934 75.2729 149.731 75.2729C142.528 75.2729 136.689 81.195 136.689 88.5002C136.689 95.8054 142.528 101.727 149.731 101.727Z" fill="url(#paint17_linear_141_627)"/>
<path d="M149.865 100.636C156.4 100.636 161.697 95.2636 161.697 88.6362C161.697 82.0088 156.4 76.6362 149.865 76.6362C143.331 76.6362 138.033 82.0088 138.033 88.6362C138.033 95.2636 143.331 100.636 149.865 100.636Z" fill="url(#paint18_linear_141_627)"/>
<path d="M142.221 97.6363L161.697 86.4269C161.078 82.8794 159.498 80.456 156.969 78.5454L138.033 89.3352C138.034 90.1558 138.625 94.4411 142.221 97.6363Z" fill="url(#paint19_linear_141_627)"/>
<path d="M153.901 82.8536H150.633C150.943 83.1102 151.201 83.429 151.391 83.7912C151.581 84.1534 151.7 84.5517 151.74 84.9627H153.901V85.9979H151.76C151.564 88.11 149.959 89.4546 147.426 89.5379C148.968 91.2127 150.653 93.3248 152.315 95.4547H150.414C148.872 93.5092 147.426 91.7095 145.576 89.639V88.3629H146.666C148.803 88.3629 149.95 87.4318 150.081 86.0039H145.564V84.9686H150.019C149.734 83.7787 148.692 83.1838 146.97 83.1838H145.564V81.8184H153.901V82.8536Z" fill="#BD9803"/>
<defs>
<linearGradient id="paint0_linear_141_627" x1="62.4635" y1="95.2542" x2="142.31" y2="35.437" gradientUnits="userSpaceOnUse">
<stop stop-color="#00A6CA"/>
<stop offset="1" stop-color="#008593"/>
</linearGradient>
<linearGradient id="paint1_linear_141_627" x1="136.977" y1="46.4742" x2="143.46" y2="40.5801" gradientUnits="userSpaceOnUse">
<stop stop-color="#FBD801"/>
<stop offset="1" stop-color="#FFEFBC"/>
</linearGradient>
<linearGradient id="paint2_linear_141_627" x1="127.557" y1="97.1344" x2="132.035" y2="93.0713" gradientUnits="userSpaceOnUse">
<stop stop-color="#FBD801"/>
<stop offset="1" stop-color="#FFEFBC"/>
</linearGradient>
<linearGradient id="paint3_linear_141_627" x1="71.6163" y1="99.353" x2="78.0997" y2="93.4589" gradientUnits="userSpaceOnUse">
<stop stop-color="#FBD801"/>
<stop offset="1" stop-color="#FFEFBC"/>
</linearGradient>
<linearGradient id="paint4_linear_141_627" x1="115.813" y1="88.1311" x2="120.09" y2="84.2468" gradientUnits="userSpaceOnUse">
<stop stop-color="#FBD801"/>
<stop offset="1" stop-color="#FFEFBC"/>
</linearGradient>
<linearGradient id="paint5_linear_141_627" x1="134.208" y1="78.8732" x2="140.691" y2="72.9834" gradientUnits="userSpaceOnUse">
<stop stop-color="#FBD801"/>
<stop offset="1" stop-color="#FFEFBC"/>
</linearGradient>
<linearGradient id="paint6_linear_141_627" x1="115.377" y1="48.5937" x2="119.649" y2="44.705" gradientUnits="userSpaceOnUse">
<stop stop-color="#FBD801"/>
<stop offset="1" stop-color="#FFEFBC"/>
</linearGradient>
<linearGradient id="paint7_linear_141_627" x1="139.062" y1="28.3888" x2="144.403" y2="23.5322" gradientUnits="userSpaceOnUse">
<stop stop-color="#FBD801"/>
<stop offset="1" stop-color="#FFEFBC"/>
</linearGradient>
<linearGradient id="paint8_linear_141_627" x1="86.5215" y1="29.8623" x2="90.7943" y2="25.9735" gradientUnits="userSpaceOnUse">
<stop stop-color="#FBD801"/>
<stop offset="1" stop-color="#FFEFBC"/>
</linearGradient>
<linearGradient id="paint9_linear_141_627" x1="67.921" y1="42.0088" x2="71.9932" y2="38.3075" gradientUnits="userSpaceOnUse">
<stop stop-color="#FBD801"/>
<stop offset="1" stop-color="#FFEFBC"/>
</linearGradient>
<linearGradient id="paint10_linear_141_627" x1="90.0256" y1="54.406" x2="95.2707" y2="49.641" gradientUnits="userSpaceOnUse">
<stop stop-color="#FBD801"/>
<stop offset="1" stop-color="#FFEFBC"/>
</linearGradient>
<linearGradient id="paint11_linear_141_627" x1="85.6207" y1="77.2353" x2="90.0941" y2="73.1678" gradientUnits="userSpaceOnUse">
<stop stop-color="#FBD801"/>
<stop offset="1" stop-color="#FFEFBC"/>
</linearGradient>
<linearGradient id="paint12_linear_141_627" x1="41.0332" y1="81.6668" x2="76.7561" y2="81.6668" gradientUnits="userSpaceOnUse">
<stop stop-color="#FEDA29"/>
<stop offset="1" stop-color="#ECBF1D"/>
</linearGradient>
<linearGradient id="paint13_linear_141_627" x1="41.0332" y1="81.6668" x2="76.7561" y2="81.6668" gradientUnits="userSpaceOnUse">
<stop stop-color="#FEE784"/>
<stop offset="1" stop-color="#FFD838"/>
</linearGradient>
<linearGradient id="paint14_linear_141_627" x1="41.0034" y1="81.643" x2="76.7557" y2="81.643" gradientUnits="userSpaceOnUse">
<stop stop-color="#00A6CA"/>
<stop offset="1" stop-color="#008593"/>
</linearGradient>
<linearGradient id="paint15_linear_141_627" x1="48.3201" y1="102.8" x2="69.4691" y2="102.8" gradientUnits="userSpaceOnUse">
<stop stop-color="#00A6CA"/>
<stop offset="1" stop-color="#008593"/>
</linearGradient>
<linearGradient id="paint16_linear_141_627" x1="134" y1="88.5" x2="166" y2="88.5" gradientUnits="userSpaceOnUse">
<stop stop-color="#FBD801"/>
<stop offset="1" stop-color="#ECBF1D"/>
</linearGradient>
<linearGradient id="paint17_linear_141_627" x1="161.609" y1="79.5246" x2="138.573" y2="95.5166" gradientUnits="userSpaceOnUse">
<stop stop-color="#FFE062"/>
<stop offset="1" stop-color="#FFF4C4"/>
</linearGradient>
<linearGradient id="paint18_linear_141_627" x1="141.349" y1="94.5987" x2="161.001" y2="81.2211" gradientUnits="userSpaceOnUse">
<stop stop-color="#FFEDA0"/>
<stop offset="1" stop-color="#FFD113"/>
</linearGradient>
<linearGradient id="paint19_linear_141_627" x1="138.902" y1="96.4107" x2="161.081" y2="81.266" gradientUnits="userSpaceOnUse">
<stop stop-color="#FFEDA0"/>
<stop offset="0.0001" stop-color="#FFF2BA"/>
<stop offset="1" stop-color="#FFD838"/>
</linearGradient>
</defs>
</svg>
