<svg width="32" height="31" viewBox="0 0 32 31" fill="none" xmlns="http://www.w3.org/2000/svg">
<circle cx="14" cy="14" r="14" fill="#FCD800"/>
<path fill-rule="evenodd" clip-rule="evenodd" d="M16.0259 10.121C15.5161 10.121 15.0272 10.3236 14.6667 10.684C14.3063 11.0445 14.1037 11.5334 14.1037 12.0432V12.4698C14.1037 12.8664 14.2613 13.2469 14.5418 13.5273C14.6807 13.6662 14.8456 13.7764 15.027 13.8516C15.2085 13.9267 15.403 13.9654 15.5994 13.9654H19.4395V13.5346C19.4395 12.6293 19.0798 11.761 18.4397 11.1208C17.7995 10.4807 16.9313 10.121 16.0259 10.121ZM20.5 10.2766C20.3315 10.0452 20.1444 9.82594 19.9395 9.62104C18.9015 8.58311 17.4938 8 16.0259 8C14.9536 8 13.9252 8.42598 13.1669 9.18423C12.4087 9.94249 11.9827 10.9709 11.9827 12.0432V12.4698C11.9827 12.9907 12.0951 13.5001 12.3065 13.9654H11.5519C10.8751 13.9654 10.226 14.2343 9.74743 14.7128C9.26886 15.1914 9 15.8405 9 16.5173V18.0086C9 18.6854 9.26886 19.3345 9.74743 19.8131C9.96471 20.0304 10.2171 20.2044 10.4914 20.3297V26.9568C10.4914 28.0291 10.9173 29.0575 11.6756 29.8158C12.4338 30.574 13.4622 31 14.5346 31H26.4654C27.5377 31 28.5662 30.574 29.3244 29.8158C30.0827 29.0575 30.5086 28.0291 30.5086 26.9568V20.3297C30.7829 20.2044 31.0353 20.0304 31.2526 19.8131C31.7311 19.3345 32 18.6854 32 18.0086V16.5173C32 15.8405 31.7311 15.1914 31.2526 14.7128C30.774 14.2343 30.1249 13.9654 29.4481 13.9654H28.6944C28.9018 13.5095 29.0173 13.003 29.0173 12.4698V12.0432C29.0173 10.9709 28.5913 9.94249 27.8331 9.18423C27.0748 8.42598 26.0464 8 24.9741 8C23.5062 8 22.0985 8.58311 21.0605 9.62104C20.8556 9.82594 20.6685 10.0452 20.5 10.2766ZM21.5605 16.0865V18.4395H29.4481C29.5624 18.4395 29.672 18.3941 29.7528 18.3133C29.8336 18.2325 29.879 18.1229 29.879 18.0086V16.5173C29.879 16.403 29.8336 16.2934 29.7528 16.2126C29.672 16.1318 29.5624 16.0865 29.4481 16.0865H21.5605ZM19.4395 18.4395V16.0865H11.5519C11.4376 16.0865 11.328 16.1318 11.2472 16.2126C11.1664 16.2934 11.121 16.403 11.121 16.5173V18.0086C11.121 18.1229 11.1664 18.2325 11.2472 18.3133C11.328 18.3941 11.4376 18.4395 11.5519 18.4395H19.4395ZM19.4395 20.5605V28.879H14.5346C14.0248 28.879 13.5359 28.6764 13.1754 28.316C12.8149 27.9555 12.6124 27.4666 12.6124 26.9568V20.5605H19.4395ZM21.5605 28.879V20.5605H28.3876V26.9568C28.3876 27.4666 28.1851 27.9555 27.8246 28.316C27.4641 28.6764 26.9752 28.879 26.4654 28.879H21.5605ZM21.5605 13.9654H25.4006C26.2268 13.9654 26.8963 13.2953 26.8963 12.4698V12.0432C26.8963 11.5334 26.6937 11.0445 26.3333 10.684C25.9728 10.3236 25.4839 10.121 24.9741 10.121C24.0687 10.121 23.2005 10.4807 22.5603 11.1208C21.9202 11.761 21.5605 12.6293 21.5605 13.5346V13.9654Z" fill="#00A6CA"/>
</svg>
