<svg width="59" height="104" viewBox="0 0 59 104" fill="none" xmlns="http://www.w3.org/2000/svg">
<path fill-rule="evenodd" clip-rule="evenodd" d="M46.8905 0.43934C47.4763 -0.146446 48.426 -0.146446 49.0118 0.43934L58.5577 9.98528C59.1435 10.5711 59.1435 11.5208 58.5577 12.1066C57.9719 12.6924 57.0222 12.6924 56.4364 12.1066L49.4713 5.14146C49.4997 7.89422 49.5543 10.7189 49.6098 13.5937C49.9209 29.6908 50.2624 47.3607 46.2073 62.7884C43.6405 72.5541 39.2942 81.5336 32.0047 88.7448C24.7085 95.9627 14.5617 101.312 0.560292 103.974L4.416e-06 101.026C13.5199 98.4562 23.0925 93.3414 29.8949 86.6121C36.704 79.876 40.8353 71.4251 43.3059 62.0258C47.2434 47.0454 46.9171 29.9403 46.6107 13.8836C46.5541 10.914 46.4981 7.9803 46.4699 5.10251L39.4658 12.1066C38.8801 12.6924 37.9303 12.6924 37.3445 12.1066C36.7587 11.5208 36.7587 10.5711 37.3445 9.98528L46.8905 0.43934Z" fill="white"/>
</svg>
