<svg width="59" height="104" viewBox="0 0 59 104" fill="none" xmlns="http://www.w3.org/2000/svg">
<path fill-rule="evenodd" clip-rule="evenodd" d="M46.8905 103.534C47.4763 104.12 48.426 104.12 49.0118 103.534L58.5577 93.9883C59.1435 93.4025 59.1435 92.4528 58.5577 91.867C57.9719 91.2812 57.0222 91.2812 56.4364 91.867L49.4713 98.8321C49.4997 96.0794 49.5543 93.2547 49.6098 90.3799C49.9209 74.2828 50.2624 56.6129 46.2073 41.1852C43.6405 31.4195 39.2942 22.44 32.0047 15.2288C24.7085 8.01092 14.5617 2.66175 0.560292 -1.01837e-05L4.416e-06 2.94721C13.5199 5.51743 23.0925 10.6322 29.8949 17.3615C36.704 24.0976 40.8353 32.5485 43.3059 41.9478C47.2434 56.9282 46.9171 74.0333 46.6107 90.09C46.5541 93.0596 46.4981 95.9933 46.4699 98.8711L39.4658 91.867C38.8801 91.2812 37.9303 91.2812 37.3445 91.867C36.7587 92.4528 36.7587 93.4025 37.3445 93.9883L46.8905 103.534Z" fill="white"/>
</svg>
