<svg width="116" height="60" viewBox="0 0 116 60" fill="none" xmlns="http://www.w3.org/2000/svg">
<path fill-rule="evenodd" clip-rule="evenodd" d="M115.061 12.3897C115.646 11.8039 115.646 10.8541 115.061 10.2684L105.515 0.722421C104.929 0.136634 103.979 0.136634 103.393 0.722421C102.808 1.30821 102.808 2.25796 103.393 2.84374L110.362 9.81253C107.172 9.78534 103.896 9.7283 100.56 9.67024C82.7136 9.35956 63.1769 9.01946 46.1135 13.064C35.3249 15.6212 25.4021 19.9504 17.4253 27.2218C9.4328 34.5075 3.49007 44.66 0.532257 58.6906L3.46774 59.3094C6.31173 45.8187 11.9726 36.2517 19.4463 29.4389C26.9357 22.6118 36.3418 18.4633 46.8054 15.9831C63.4618 12.035 82.4872 12.3627 100.297 12.6695C103.716 12.7284 107.09 12.7865 110.394 12.8134L103.393 19.8143C102.808 20.4001 102.808 21.3498 103.393 21.9356C103.979 22.5214 104.929 22.5214 105.515 21.9356L115.061 12.3897Z" fill="white"/>
</svg>
