<svg width="115" height="60" viewBox="0 0 115 60" fill="none" xmlns="http://www.w3.org/2000/svg">
<path fill-rule="evenodd" clip-rule="evenodd" d="M114.528 46.9197C115.114 47.5055 115.114 48.4553 114.528 49.0411L104.982 58.587C104.397 59.1728 103.447 59.1728 102.861 58.587C102.275 58.0012 102.275 57.0515 102.861 56.4657L109.83 49.4969C106.64 49.5241 103.363 49.5811 100.028 49.6392C82.1814 49.9499 62.6447 50.29 45.5813 46.2454C34.7926 43.6882 24.8699 39.359 16.8931 32.0876C8.90057 24.8019 2.95785 14.6494 3.05176e-05 0.618824L2.93552 -7.62939e-06C5.7795 13.4907 11.4404 23.0577 18.9141 29.8705C26.4035 36.6977 35.8096 40.8461 46.2732 43.3263C62.9296 47.2744 81.9549 46.9467 99.765 46.6399C103.184 46.581 106.558 46.5229 109.862 46.496L102.861 39.4951C102.275 38.9093 102.275 37.9596 102.861 37.3738C103.447 36.788 104.397 36.788 104.982 37.3738L114.528 46.9197Z" fill="white"/>
</svg>
