<svg width="44" height="44" viewBox="0 0 44 44" fill="none" xmlns="http://www.w3.org/2000/svg">
<circle cx="22" cy="22" r="22" fill="#FCD800"/>
<path d="M22.0574 26.4514C17.9869 26.4514 9.06437 26.4534 8.85544 26.4517C8.6465 26.45 8.43757 26.3627 8.43757 26.0815C8.43757 25.6334 8.43757 25.2695 8.43757 24.7978C8.43757 24.585 8.6465 24.4814 8.85544 24.4814C9.06437 24.4815 35.1811 24.4814 35.1811 24.4814C35.1811 24.4814 35.5895 24.4814 35.5931 24.7885C35.5989 25.2695 35.5931 25.6636 35.5931 26.1166C35.599 26.4517 35.3901 26.4517 35.1812 26.4517C34.9723 26.4517 26.1349 26.4514 22.0574 26.4514Z" fill="black"/>
<path d="M22.0574 29.9991C17.9869 29.9991 9.06437 30.001 8.85544 29.9993C8.6465 29.9976 8.43757 29.9103 8.43757 29.6291C8.43757 29.181 8.43757 28.8171 8.43757 28.3454C8.43757 28.1326 8.6465 28.0291 8.85544 28.0291C9.06437 28.0291 35.1811 28.0291 35.1811 28.0291C35.1811 28.0291 35.5895 28.0291 35.5931 28.3361C35.5989 28.8171 35.5931 29.2112 35.5931 29.6642C35.599 29.9993 35.3901 29.9993 35.1812 29.9993C34.9723 29.9993 26.1349 29.9991 22.0574 29.9991Z" fill="black"/>
<path fill-rule="evenodd" clip-rule="evenodd" d="M19.754 8.14439C16.125 8.74839 12.9778 10.5948 10.8102 13.3915C9.16429 15.515 8.18299 18.1012 8.02694 20.7274C7.95036 22.0154 8.01069 22.2224 8.55743 22.5464C8.87466 22.7343 9.11808 22.7483 12.0801 22.7486L15.2619 22.749V21.6057V20.4624H12.7926H10.3232L10.3954 20.0206C10.7054 18.1243 11.4342 16.4118 12.5909 14.8618L12.9308 14.4063L14.2037 15.6401L15.4767 16.8739L16.3039 16.07L17.131 15.2662L15.8615 14.0291L14.5919 12.792L15.0606 12.4617C16.6556 11.3374 18.4621 10.6106 20.369 10.3258L20.8235 10.2579V11.9821V13.7062H22H23.1765V11.9821V10.2579L23.631 10.3267C24.526 10.4622 25.4912 10.7239 26.4211 11.0833L27.3663 11.4487L28.2176 10.6286L29.0689 9.80847L27.9233 9.26954C26.0376 8.38241 24.141 7.98328 21.893 8.00054C21.1577 8.00625 20.1952 8.0709 19.754 8.14439ZM25.9575 16.0447L20.9852 20.8777L21.8137 21.6828L22.642 22.4878L26.806 18.4423C30.367 14.9824 30.9934 14.4158 31.1333 14.5287C31.4368 14.7735 32.4142 16.3509 32.7696 17.1698C33.1164 17.9686 33.4621 19.1491 33.6046 20.0206L33.6768 20.4624H31.3144H28.952V21.6057V22.749L32.0269 22.7486C34.883 22.7483 35.1261 22.7339 35.4426 22.5464C35.9893 22.2224 36.0496 22.0154 35.9731 20.7274C35.7801 17.4818 34.4197 14.5027 32.022 12.0756C31.5526 11.6004 31.1148 11.2117 31.0491 11.2117C30.9835 11.2117 28.6922 13.3865 25.9575 16.0447Z" fill="black"/>
</svg>
