<svg width="950" height="253" viewBox="0 0 950 253" fill="none" xmlns="http://www.w3.org/2000/svg">
<path d="M949 1H33V230H949V1Z" fill="#E7EFFC"/>
<path d="M38.66 241.6H35.492V242.812H37.268V247.18C37.268 248.272 36.536 248.872 35.48 248.872C34.424 248.872 33.68 248.284 33.68 247.18V246.256H32.372V247.204C32.372 249.04 33.716 250.12 35.48 250.12C37.256 250.12 38.66 249.04 38.66 247.204V241.6ZM45.632 248.26L46.46 250H47.912V249.82L44.048 241.54H43.4L39.512 249.82V250H40.976L41.792 248.26H45.632ZM43.724 243.724L45.188 247.084H42.248L43.724 243.724ZM55.4015 250.012H55.8815V241.6H54.4895V244.66L54.5855 247.228L49.4855 241.576H48.9815V250H50.3615V246.952L50.2655 244.288L55.4015 250.012Z" fill="#707070"/>
<path d="M117.772 245.5H114.436V242.824H118.108V241.6H113.044V250H114.436V246.736H117.772V245.5ZM124.73 241.6H119.618V250H124.802V248.728H121.022V246.28H124.526V245.044H121.022V242.824H124.73V241.6ZM132.592 243.964C132.592 242.38 131.476 241.6 129.952 241.6H126.544V250H130.3C131.932 250 132.964 249.028 132.964 247.528C132.964 246.58 132.484 245.884 131.608 245.584C132.268 245.26 132.592 244.672 132.592 243.964ZM129.856 242.812C130.672 242.812 131.224 243.172 131.224 244C131.212 244.816 130.66 245.128 129.856 245.128H127.936V242.812H129.856ZM130.06 246.268C130.444 246.268 130.828 246.292 131.152 246.532C131.44 246.772 131.584 247.108 131.584 247.528C131.548 248.332 130.996 248.776 130.216 248.776H127.936V246.268H130.06Z" fill="#ACACAC"/>
<path d="M192.98 245.92L189.56 241.576H189.044V250H190.448V244.744L192.884 247.852H193.076L195.5 244.744V250H196.904V241.576H196.388L192.98 245.92ZM204.081 248.26L204.909 250H206.361V249.82L202.497 241.54H201.849L197.961 249.82V250H199.425L200.241 248.26H204.081ZM202.173 243.724L203.637 247.084H200.697L202.173 243.724ZM212.051 246.856C213.119 246.472 213.815 245.5 213.815 244.336C213.815 242.836 212.723 241.6 210.899 241.6H207.431V250H208.835V247.072H210.683L212.771 250H214.187V249.796L212.051 246.856ZM208.811 245.92V242.812H210.887C211.811 242.812 212.459 243.472 212.459 244.348C212.459 245.26 211.799 245.92 210.887 245.92H208.811Z" fill="#ACACAC"/>
<path d="M276.132 248.26L276.96 250H278.412V249.82L274.548 241.54H273.9L270.012 249.82V250H271.476L272.292 248.26H276.132ZM274.224 243.724L275.688 247.084H272.748L274.224 243.724ZM280.886 250V247.48H282.962C284.81 247.48 285.926 246.136 285.926 244.564C285.926 242.968 284.834 241.6 282.962 241.6H279.482V250H280.886ZM280.862 246.256V242.812H282.962C283.934 242.812 284.582 243.556 284.582 244.528C284.582 245.5 283.91 246.256 282.962 246.256H280.862ZM291.93 246.856C292.998 246.472 293.694 245.5 293.694 244.336C293.694 242.836 292.602 241.6 290.778 241.6H287.31V250H288.714V247.072H290.562L292.65 250H294.066V249.796L291.93 246.856ZM288.69 245.92V242.812H290.766C291.69 242.812 292.338 243.472 292.338 244.348C292.338 245.26 291.678 245.92 290.766 245.92H288.69Z" fill="#ACACAC"/>
<path d="M359.98 245.92L356.56 241.576H356.044V250H357.448V244.744L359.884 247.852H360.076L362.5 244.744V250H363.904V241.576H363.388L359.98 245.92ZM371.081 248.26L371.909 250H373.361V249.82L369.497 241.54H368.849L364.961 249.82V250H366.425L367.241 248.26H371.081ZM369.173 243.724L370.637 247.084H367.697L369.173 243.724ZM376.44 245.404L375.432 243.472L374.304 241.6H372.804V241.804L375.768 246.592V250H377.16V246.592L380.112 241.804V241.6H378.624L377.532 243.412L376.488 245.404H376.44Z" fill="#ACACAC"/>
<path d="M441.66 241.6H438.492V242.812H440.268V247.18C440.268 248.272 439.536 248.872 438.48 248.872C437.424 248.872 436.68 248.284 436.68 247.18V246.256H435.372V247.204C435.372 249.04 436.716 250.12 438.48 250.12C440.256 250.12 441.66 249.04 441.66 247.204V241.6ZM446.865 250.108C448.653 250.108 450.117 249.052 450.117 247.18V241.6H448.737V247.144C448.737 248.248 447.921 248.86 446.865 248.86C445.797 248.86 444.969 248.248 444.969 247.144V241.6H443.577V247.18C443.577 249.052 445.053 250.108 446.865 250.108ZM458.542 250.012H459.022V241.6H457.63V244.66L457.726 247.228L452.626 241.576H452.122V250H453.502V246.952L453.406 244.288L458.542 250.012Z" fill="#ACACAC"/>
<path d="M527.66 241.6H524.492V242.812H526.268V247.18C526.268 248.272 525.536 248.872 524.48 248.872C523.424 248.872 522.68 248.284 522.68 247.18V246.256H521.372V247.204C521.372 249.04 522.716 250.12 524.48 250.12C526.256 250.12 527.66 249.04 527.66 247.204V241.6ZM532.865 250.108C534.653 250.108 536.117 249.052 536.117 247.18V241.6H534.737V247.144C534.737 248.248 533.921 248.86 532.865 248.86C531.797 248.86 530.969 248.248 530.969 247.144V241.6H529.577V247.18C529.577 249.052 531.053 250.108 532.865 250.108ZM539.526 241.6H538.122V250H543.138V248.74H539.526V241.6Z" fill="#ACACAC"/>
<path d="M613.132 248.26L613.96 250H615.412V249.82L611.548 241.54H610.9L607.012 249.82V250H608.476L609.292 248.26H613.132ZM611.224 243.724L612.688 247.084H609.748L611.224 243.724ZM619.557 250.108C621.345 250.108 622.809 249.052 622.809 247.18V241.6H621.429V247.144C621.429 248.248 620.613 248.86 619.557 248.86C618.489 248.86 617.661 248.248 617.661 247.144V241.6H616.269V247.18C616.269 249.052 617.745 250.108 619.557 250.108ZM624.322 245.788C624.322 248.488 626.266 250.108 628.558 250.108C630.214 250.108 631.654 249.34 632.29 247.744C632.566 247.012 632.626 246.268 632.59 245.464H628.654V246.652H631.27C631.042 248.26 629.998 248.836 628.558 248.836C626.83 248.836 625.738 247.564 625.738 245.788C625.738 244.108 626.794 242.752 628.558 242.752C629.674 242.752 630.49 243.148 630.958 244.12H632.338C631.822 242.26 630.238 241.492 628.57 241.492C626.314 241.492 624.322 243.1 624.322 245.788Z" fill="#ACACAC"/>
<path d="M686.54 247.612C686.576 249.376 688.292 250.192 689.936 250.156C691.508 250.156 693.248 249.46 693.248 247.612C693.248 245.68 691.688 245.344 689.984 245.152C689.012 245.02 688.064 244.9 688.064 243.952C688.064 243.004 689.06 242.692 689.828 242.692C690.656 242.692 691.604 242.98 691.664 243.88H692.984C692.948 242.164 691.436 241.444 689.84 241.444C688.208 241.444 686.684 242.26 686.684 243.988C686.684 245.668 688.208 246.16 689.744 246.292C690.716 246.388 691.856 246.496 691.856 247.6C691.856 248.644 690.8 248.908 689.912 248.908C689 248.908 687.968 248.56 687.908 247.612H686.54ZM699.926 241.6H694.814V250H699.998V248.728H696.218V246.28H699.722V245.044H696.218V242.824H699.926V241.6ZM703.143 250V247.48H705.219C707.067 247.48 708.183 246.136 708.183 244.564C708.183 242.968 707.091 241.6 705.219 241.6H701.739V250H703.143ZM703.119 246.256V242.812H705.219C706.191 242.812 706.839 243.556 706.839 244.528C706.839 245.5 706.167 246.256 705.219 246.256H703.119Z" fill="#ACACAC"/>
<path d="M774.108 245.8C774.108 243.064 772.128 241.456 769.836 241.456C767.556 241.456 765.552 243.064 765.552 245.8C765.552 248.536 767.508 250.144 769.812 250.144C772.344 250.144 774.108 248.356 774.108 245.8ZM766.968 245.8C766.968 243.856 768.264 242.764 769.848 242.764C771.42 242.764 772.716 243.88 772.716 245.8C772.716 247.756 771.408 248.824 769.836 248.824C768.252 248.824 766.968 247.756 766.968 245.8ZM775.208 245.812C775.208 248.512 777.188 250.084 779.468 250.084C781.172 250.084 782.9 249.184 783.32 247.132H781.964C781.592 248.248 780.62 248.812 779.468 248.812C777.752 248.812 776.612 247.48 776.612 245.812C776.612 244.024 777.752 242.776 779.468 242.776C780.572 242.788 781.508 243.268 781.928 244.312H783.272C782.828 242.416 781.124 241.504 779.48 241.504C777.188 241.504 775.208 243.1 775.208 245.812ZM786.379 242.836V250H787.747V242.836H790.183V241.6H783.943V242.836H786.379Z" fill="#ACACAC"/>
<path d="M855.464 250.012H855.944V241.6H854.552V244.66L854.648 247.228L849.548 241.576H849.044V250H850.424V246.952L850.328 244.288L855.464 250.012ZM866.096 245.8C866.096 243.064 864.116 241.456 861.824 241.456C859.544 241.456 857.54 243.064 857.54 245.8C857.54 248.536 859.496 250.144 861.8 250.144C864.332 250.144 866.096 248.356 866.096 245.8ZM858.956 245.8C858.956 243.856 860.252 242.764 861.836 242.764C863.408 242.764 864.704 243.88 864.704 245.8C864.704 247.756 863.396 248.824 861.824 248.824C860.24 248.824 858.956 247.756 858.956 245.8ZM870.371 247.612L869.219 244.504L868.019 241.6H866.531V241.804L870.095 250.072H870.671L874.199 241.804V241.6H872.723L871.511 244.564L870.407 247.612H870.371Z" fill="#ACACAC"/>
<path d="M924.341 241.612V250H927.377C930.017 250 931.481 247.996 931.481 245.788C931.481 243.58 929.993 241.612 927.377 241.612H924.341ZM925.733 248.728V242.872H927.365C929.081 242.872 930.089 244.216 930.089 245.8C930.089 247.384 929.093 248.728 927.353 248.728H925.733ZM938.207 241.6H933.095V250H938.279V248.728H934.499V246.28H938.003V245.044H934.499V242.824H938.207V241.6ZM939.435 245.812C939.435 248.512 941.415 250.084 943.695 250.084C945.399 250.084 947.127 249.184 947.547 247.132H946.191C945.819 248.248 944.847 248.812 943.695 248.812C941.979 248.812 940.839 247.48 940.839 245.812C940.839 244.024 941.979 242.776 943.695 242.776C944.799 242.788 945.735 243.268 946.155 244.312H947.499C947.055 242.416 945.351 241.504 943.707 241.504C941.415 241.504 939.435 243.1 939.435 245.812Z" fill="#707070"/>
<path d="M33.5723 1L33.5723 229" stroke="#006685" stroke-opacity="0.2" stroke-dasharray="2 2"/>
<path d="M116.743 1L116.743 229" stroke="#006685" stroke-opacity="0.2" stroke-dasharray="2 2"/>
<path d="M199.907 1L199.907 229" stroke="#006685" stroke-opacity="0.2" stroke-dasharray="2 2"/>
<path d="M283.077 1L283.077 229" stroke="#006685" stroke-opacity="0.2" stroke-dasharray="2 2"/>
<path d="M366.248 1L366.248 229" stroke="#006685" stroke-opacity="0.2" stroke-dasharray="2 2"/>
<path d="M449.418 1L449.418 229" stroke="#006685" stroke-opacity="0.2" stroke-dasharray="2 2"/>
<path d="M532.583 1L532.583 229" stroke="#006685" stroke-opacity="0.2" stroke-dasharray="2 2"/>
<path d="M615.753 1L615.753 229" stroke="#006685" stroke-opacity="0.2" stroke-dasharray="2 2"/>
<path d="M698.923 1L698.923 229" stroke="#006685" stroke-opacity="0.2" stroke-dasharray="2 2"/>
<path d="M782.093 1L782.093 229" stroke="#006685" stroke-opacity="0.2" stroke-dasharray="2 2"/>
<path d="M865.258 1L865.258 229" stroke="#006685" stroke-opacity="0.2" stroke-dasharray="2 2"/>
<path d="M948.429 1L948.429 229" stroke="#006685" stroke-opacity="0.2" stroke-dasharray="2 2"/>
<path d="M1.88794 229.636C1.98394 231.22 3.15994 232.144 4.69594 232.144C6.54394 232.144 7.61194 230.884 7.61194 229.324C7.61194 228.088 6.80794 226.912 5.41594 226.852L7.53994 223.828V223.612H2.22394V224.74H5.60794L3.71194 227.56V227.8C4.86394 227.512 6.29194 227.932 6.29194 229.336C6.29194 230.332 5.64394 230.932 4.67194 230.932C3.80794 230.932 3.20794 230.488 3.12394 229.636H1.88794ZM12.198 223.468C10.458 223.468 9.066 224.56 9.066 226.36V229.264C9.066 231.076 10.458 232.156 12.198 232.156C13.914 232.156 15.306 231.076 15.306 229.264V226.36C15.306 224.56 13.914 223.468 12.198 223.468ZM12.198 230.92C11.334 230.92 10.65 230.5 10.47 229.696C10.422 229.456 10.386 229.192 10.386 228.904V226.732C10.386 226.444 10.422 226.18 10.47 225.94C10.65 225.124 11.334 224.692 12.198 224.692C13.062 224.692 13.734 225.124 13.914 225.94C13.962 226.18 13.998 226.444 13.998 226.732V228.904C13.998 229.192 13.962 229.456 13.914 229.696C13.734 230.5 13.062 230.92 12.198 230.92ZM20.073 223.468C18.333 223.468 16.941 224.56 16.941 226.36V229.264C16.941 231.076 18.333 232.156 20.073 232.156C21.789 232.156 23.181 231.076 23.181 229.264V226.36C23.181 224.56 21.789 223.468 20.073 223.468ZM20.073 230.92C19.209 230.92 18.525 230.5 18.345 229.696C18.297 229.456 18.261 229.192 18.261 228.904V226.732C18.261 226.444 18.297 226.18 18.345 225.94C18.525 225.124 19.209 224.692 20.073 224.692C20.937 224.692 21.609 225.124 21.789 225.94C21.837 226.18 21.873 226.444 21.873 226.732V228.904C21.873 229.192 21.837 229.456 21.789 229.696C21.609 230.5 20.937 230.92 20.073 230.92Z" fill="#707070"/>
<path d="M6.849 193.236H7.665V192.096H6.849V186.6H5.421L1.449 192.612V193.236H5.577V195H6.849V193.236ZM5.733 188.232L5.661 190.284V192.144H3.093L5.709 188.232H5.733ZM12.198 186.468C10.458 186.468 9.066 187.56 9.066 189.36V192.264C9.066 194.076 10.458 195.156 12.198 195.156C13.914 195.156 15.306 194.076 15.306 192.264V189.36C15.306 187.56 13.914 186.468 12.198 186.468ZM12.198 193.92C11.334 193.92 10.65 193.5 10.47 192.696C10.422 192.456 10.386 192.192 10.386 191.904V189.732C10.386 189.444 10.422 189.18 10.47 188.94C10.65 188.124 11.334 187.692 12.198 187.692C13.062 187.692 13.734 188.124 13.914 188.94C13.962 189.18 13.998 189.444 13.998 189.732V191.904C13.998 192.192 13.962 192.456 13.914 192.696C13.734 193.5 13.062 193.92 12.198 193.92ZM20.073 186.468C18.333 186.468 16.941 187.56 16.941 189.36V192.264C16.941 194.076 18.333 195.156 20.073 195.156C21.789 195.156 23.181 194.076 23.181 192.264V189.36C23.181 187.56 21.789 186.468 20.073 186.468ZM20.073 193.92C19.209 193.92 18.525 193.5 18.345 192.696C18.297 192.456 18.261 192.192 18.261 191.904V189.732C18.261 189.444 18.297 189.18 18.345 188.94C18.525 188.124 19.209 187.692 20.073 187.692C20.937 187.692 21.609 188.124 21.789 188.94C21.837 189.18 21.873 189.444 21.873 189.732V191.904C21.873 192.192 21.837 192.456 21.789 192.696C21.609 193.5 20.937 193.92 20.073 193.92Z" fill="#ACACAC"/>
<path d="M3.37706 150.776H7.19306V149.6H2.23706V153.8C2.84906 153.656 3.66506 153.524 4.42106 153.56C5.50106 153.62 6.42506 154.04 6.40106 155.348C6.36506 156.488 5.58506 156.98 4.74506 156.98C3.91706 156.98 3.30506 156.56 3.22106 155.684H1.93706C2.06906 157.244 3.19706 158.144 4.70906 158.144C6.66506 158.144 7.69706 156.824 7.69706 155.312C7.69706 153.26 6.26906 152.552 4.50506 152.516C4.12106 152.516 3.74906 152.552 3.37706 152.636V150.776ZM12.198 149.468C10.458 149.468 9.066 150.56 9.066 152.36V155.264C9.066 157.076 10.458 158.156 12.198 158.156C13.914 158.156 15.306 157.076 15.306 155.264V152.36C15.306 150.56 13.914 149.468 12.198 149.468ZM12.198 156.92C11.334 156.92 10.65 156.5 10.47 155.696C10.422 155.456 10.386 155.192 10.386 154.904V152.732C10.386 152.444 10.422 152.18 10.47 151.94C10.65 151.124 11.334 150.692 12.198 150.692C13.062 150.692 13.734 151.124 13.914 151.94C13.962 152.18 13.998 152.444 13.998 152.732V154.904C13.998 155.192 13.962 155.456 13.914 155.696C13.734 156.5 13.062 156.92 12.198 156.92ZM20.073 149.468C18.333 149.468 16.941 150.56 16.941 152.36V155.264C16.941 157.076 18.333 158.156 20.073 158.156C21.789 158.156 23.181 157.076 23.181 155.264V152.36C23.181 150.56 21.789 149.468 20.073 149.468ZM20.073 156.92C19.209 156.92 18.525 156.5 18.345 155.696C18.297 155.456 18.261 155.192 18.261 154.904V152.732C18.261 152.444 18.297 152.18 18.345 151.94C18.525 151.124 19.209 150.692 20.073 150.692C20.937 150.692 21.609 151.124 21.789 151.94C21.837 152.18 21.873 152.444 21.873 152.732V154.904C21.873 155.192 21.837 155.456 21.789 155.696C21.609 156.5 20.937 156.92 20.073 156.92Z" fill="#ACACAC"/>
<path d="M4.69013 112.552L2.14613 116.584C1.82213 117.076 1.60613 117.712 1.60613 118.324C1.60613 120.196 2.98613 121.12 4.71413 121.12C6.45413 121.12 7.83413 120.196 7.83413 118.324C7.83413 116.584 6.59813 115.588 4.94213 115.624C4.67813 115.624 4.42613 115.684 4.18613 115.816L6.23813 112.552H4.69013ZM4.71413 119.932C3.70613 119.932 2.97413 119.368 2.97413 118.324C2.97413 117.28 3.69413 116.704 4.71413 116.704C5.72213 116.704 6.45413 117.28 6.45413 118.324C6.45413 119.368 5.73413 119.932 4.71413 119.932ZM12.198 112.468C10.458 112.468 9.066 113.56 9.066 115.36V118.264C9.066 120.076 10.458 121.156 12.198 121.156C13.914 121.156 15.306 120.076 15.306 118.264V115.36C15.306 113.56 13.914 112.468 12.198 112.468ZM12.198 119.92C11.334 119.92 10.65 119.5 10.47 118.696C10.422 118.456 10.386 118.192 10.386 117.904V115.732C10.386 115.444 10.422 115.18 10.47 114.94C10.65 114.124 11.334 113.692 12.198 113.692C13.062 113.692 13.734 114.124 13.914 114.94C13.962 115.18 13.998 115.444 13.998 115.732V117.904C13.998 118.192 13.962 118.456 13.914 118.696C13.734 119.5 13.062 119.92 12.198 119.92ZM20.073 112.468C18.333 112.468 16.941 113.56 16.941 115.36V118.264C16.941 120.076 18.333 121.156 20.073 121.156C21.789 121.156 23.181 120.076 23.181 118.264V115.36C23.181 113.56 21.789 112.468 20.073 112.468ZM20.073 119.92C19.209 119.92 18.525 119.5 18.345 118.696C18.297 118.456 18.261 118.192 18.261 117.904V115.732C18.261 115.444 18.297 115.18 18.345 114.94C18.525 114.124 19.209 113.692 20.073 113.692C20.937 113.692 21.609 114.124 21.789 114.94C21.837 115.18 21.873 115.444 21.873 115.732V117.904C21.873 118.192 21.837 118.456 21.789 118.696C21.609 119.5 20.937 119.92 20.073 119.92Z" fill="#ACACAC"/>
<path d="M8.12644 75.6H2.31844V76.836H6.23044L2.97844 84H4.39444L8.12644 75.804V75.6ZM12.198 75.468C10.458 75.468 9.066 76.56 9.066 78.36V81.264C9.066 83.076 10.458 84.156 12.198 84.156C13.914 84.156 15.306 83.076 15.306 81.264V78.36C15.306 76.56 13.914 75.468 12.198 75.468ZM12.198 82.92C11.334 82.92 10.65 82.5 10.47 81.696C10.422 81.456 10.386 81.192 10.386 80.904V78.732C10.386 78.444 10.422 78.18 10.47 77.94C10.65 77.124 11.334 76.692 12.198 76.692C13.062 76.692 13.734 77.124 13.914 77.94C13.962 78.18 13.998 78.444 13.998 78.732V80.904C13.998 81.192 13.962 81.456 13.914 81.696C13.734 82.5 13.062 82.92 12.198 82.92ZM20.073 75.468C18.333 75.468 16.941 76.56 16.941 78.36V81.264C16.941 83.076 18.333 84.156 20.073 84.156C21.789 84.156 23.181 83.076 23.181 81.264V78.36C23.181 76.56 21.789 75.468 20.073 75.468ZM20.073 82.92C19.209 82.92 18.525 82.5 18.345 81.696C18.297 81.456 18.261 81.192 18.261 80.904V78.732C18.261 78.444 18.297 78.18 18.345 77.94C18.525 77.124 19.209 76.692 20.073 76.692C20.937 76.692 21.609 77.124 21.789 77.94C21.837 78.18 21.873 78.444 21.873 78.732V80.904C21.873 81.192 21.837 81.456 21.789 81.696C21.609 82.5 20.937 82.92 20.073 82.92Z" fill="#ACACAC"/>
<path d="M6.14831 42.272C6.72431 41.924 7.13231 41.372 7.13231 40.652C7.13231 39.428 6.10031 38.468 4.54031 38.468C2.95631 38.468 1.92431 39.464 1.96031 40.676C1.96031 41.396 2.34431 41.936 2.90831 42.272C2.00831 42.692 1.42031 43.472 1.42031 44.492C1.42031 45.968 2.65631 47.132 4.54031 47.132C6.43631 47.132 7.64831 45.968 7.64831 44.468C7.63631 43.46 7.04831 42.692 6.14831 42.272ZM4.52831 41.852C3.79631 41.852 3.18431 41.408 3.18431 40.724C3.18431 40.016 3.77231 39.572 4.54031 39.572C5.27231 39.572 5.88431 40.004 5.88431 40.712C5.88431 41.42 5.29631 41.852 4.52831 41.852ZM4.54031 45.956C3.58031 45.956 2.78831 45.368 2.78831 44.456C2.78831 43.508 3.56831 42.884 4.52831 42.884C5.50031 42.884 6.29231 43.484 6.29231 44.432C6.29231 45.356 5.50031 45.956 4.54031 45.956ZM12.198 38.468C10.458 38.468 9.066 39.56 9.066 41.36V44.264C9.066 46.076 10.458 47.156 12.198 47.156C13.914 47.156 15.306 46.076 15.306 44.264V41.36C15.306 39.56 13.914 38.468 12.198 38.468ZM12.198 45.92C11.334 45.92 10.65 45.5 10.47 44.696C10.422 44.456 10.386 44.192 10.386 43.904V41.732C10.386 41.444 10.422 41.18 10.47 40.94C10.65 40.124 11.334 39.692 12.198 39.692C13.062 39.692 13.734 40.124 13.914 40.94C13.962 41.18 13.998 41.444 13.998 41.732V43.904C13.998 44.192 13.962 44.456 13.914 44.696C13.734 45.5 13.062 45.92 12.198 45.92ZM20.073 38.468C18.333 38.468 16.941 39.56 16.941 41.36V44.264C16.941 46.076 18.333 47.156 20.073 47.156C21.789 47.156 23.181 46.076 23.181 44.264V41.36C23.181 39.56 21.789 38.468 20.073 38.468ZM20.073 45.92C19.209 45.92 18.525 45.5 18.345 44.696C18.297 44.456 18.261 44.192 18.261 43.904V41.732C18.261 41.444 18.297 41.18 18.345 40.94C18.525 40.124 19.209 39.692 20.073 39.692C20.937 39.692 21.609 40.124 21.789 40.94C21.837 41.18 21.873 41.444 21.873 41.732V43.904C21.873 44.192 21.837 44.456 21.789 44.696C21.609 45.5 20.937 45.92 20.073 45.92Z" fill="#ACACAC"/>
<path d="M4.66528 10L7.19728 5.98C7.56928 5.416 7.76128 4.876 7.76128 4.204C7.76128 2.332 6.38128 1.408 4.65328 1.408C2.91328 1.408 1.53328 2.332 1.53328 4.204C1.53328 5.944 2.78128 6.94 4.46128 6.904C4.73728 6.904 5.02528 6.832 5.25328 6.7L3.14128 10H4.66528ZM4.65328 2.596C5.66128 2.596 6.38128 3.16 6.38128 4.204C6.38128 5.248 5.66128 5.824 4.65328 5.824C3.64528 5.824 2.91328 5.248 2.91328 4.204C2.91328 3.16 3.63328 2.596 4.65328 2.596ZM12.198 1.468C10.458 1.468 9.066 2.56 9.066 4.36V7.264C9.066 9.076 10.458 10.156 12.198 10.156C13.914 10.156 15.306 9.076 15.306 7.264V4.36C15.306 2.56 13.914 1.468 12.198 1.468ZM12.198 8.92C11.334 8.92 10.65 8.5 10.47 7.696C10.422 7.456 10.386 7.192 10.386 6.904V4.732C10.386 4.444 10.422 4.18 10.47 3.94C10.65 3.124 11.334 2.692 12.198 2.692C13.062 2.692 13.734 3.124 13.914 3.94C13.962 4.18 13.998 4.444 13.998 4.732V6.904C13.998 7.192 13.962 7.456 13.914 7.696C13.734 8.5 13.062 8.92 12.198 8.92ZM20.073 1.468C18.333 1.468 16.941 2.56 16.941 4.36V7.264C16.941 9.076 18.333 10.156 20.073 10.156C21.789 10.156 23.181 9.076 23.181 7.264V4.36C23.181 2.56 21.789 1.468 20.073 1.468ZM20.073 8.92C19.209 8.92 18.525 8.5 18.345 7.696C18.297 7.456 18.261 7.192 18.261 6.904V4.732C18.261 4.444 18.297 4.18 18.345 3.94C18.525 3.124 19.209 2.692 20.073 2.692C20.937 2.692 21.609 3.124 21.789 3.94C21.837 4.18 21.873 4.444 21.873 4.732V6.904C21.873 7.192 21.837 7.456 21.789 7.696C21.609 8.5 20.937 8.92 20.073 8.92Z" fill="#707070"/>
<path d="M33.5723 1L948.428 0.999906" stroke="#006685" stroke-opacity="0.2" stroke-dasharray="2 2"/>
<path d="M33.5723 38.6621L948.428 38.662" stroke="#006685" stroke-opacity="0.2" stroke-dasharray="2 2"/>
<path d="M33.5723 77.9629L948.428 77.9627" stroke="#006685" stroke-opacity="0.2" stroke-dasharray="2 2"/>
<path d="M33.5723 115.625L948.428 115.625" stroke="#006685" stroke-opacity="0.2" stroke-dasharray="2 2"/>
<path d="M33.5723 153.287L948.428 153.287" stroke="#006685" stroke-opacity="0.2" stroke-dasharray="2 2"/>
<path d="M33.5723 192.588L948.428 192.588" stroke="#006685" stroke-opacity="0.2" stroke-dasharray="2 2"/>
<path d="M33.5723 230.25L948.428 230.25" stroke="#006685" stroke-opacity="0.2" stroke-dasharray="2 2"/>
<path d="M32 230H950" stroke="#9EBFD2" stroke-width="1.6"/>
<path d="M460 118V112H454C454 112 460 112 460 118Z" fill="#00A6CA"/>
<circle cx="455" cy="121" r="6" fill="#006685" stroke="#F1F6FF" stroke-width="2"/>
<circle cx="508" cy="83" r="8" fill="#7D7D7D"/>
<circle cx="451.5" cy="120.5" r="12.5" fill="#7D7D7D"/>
<path d="M508.466 85.382C508.466 83.394 510.664 82.666 510.664 80.902C510.664 78.956 509.208 77.976 507.528 78.018C505.862 78.06 504.476 78.998 504.476 80.986H506.198C506.268 80.258 506.898 79.894 507.514 79.894C508.564 79.894 508.844 80.818 508.508 81.56C507.948 82.806 506.618 83.184 506.618 85.382H508.466ZM507.57 88.196C508.228 88.196 508.704 87.762 508.704 87.132C508.704 86.474 508.228 86.054 507.57 86.054C506.912 86.054 506.408 86.474 506.408 87.132C506.408 87.762 506.912 88.196 507.57 88.196Z" fill="white"/>
<path d="M452.978 123.909C452.978 120.803 456.413 119.666 456.413 116.909C456.413 113.869 454.138 112.337 451.513 112.403C448.909 112.469 446.744 113.934 446.744 117.041H449.434C449.544 115.903 450.528 115.334 451.491 115.334C453.131 115.334 453.569 116.778 453.044 117.937C452.169 119.884 450.091 120.475 450.091 123.909H452.978ZM451.578 128.306C452.606 128.306 453.35 127.628 453.35 126.644C453.35 125.616 452.606 124.959 451.578 124.959C450.55 124.959 449.763 125.616 449.763 126.644C449.763 127.628 450.55 128.306 451.578 128.306Z" fill="white"/>
<circle cx="508" cy="158" r="8" fill="#7D7D7D"/>
<path d="M508.466 160.382C508.466 158.394 510.664 157.666 510.664 155.902C510.664 153.956 509.208 152.976 507.528 153.018C505.862 153.06 504.476 153.998 504.476 155.986H506.198C506.268 155.258 506.898 154.894 507.514 154.894C508.564 154.894 508.844 155.818 508.508 156.56C507.948 157.806 506.618 158.184 506.618 160.382H508.466ZM507.57 163.196C508.228 163.196 508.704 162.762 508.704 162.132C508.704 161.474 508.228 161.054 507.57 161.054C506.912 161.054 506.408 161.474 506.408 162.132C506.408 162.762 506.912 163.196 507.57 163.196Z" fill="white"/>
<path d="M464 121L500 88" stroke="#3BB012" stroke-width="3" stroke-dasharray="3 3"/>
<path d="M500 153L464 120" stroke="#D74025" stroke-width="3" stroke-dasharray="3 3"/>
</svg>
