<svg xmlns="http://www.w3.org/2000/svg" width="700.58" height="249.657" viewBox="0 0 700.58 249.657">
  <g id="Group_1" data-name="Group 1" transform="translate(-163.42 -269.5)">
    <path id="Path_8" data-name="Path 8" d="M728,101H60V330H728Z" transform="translate(135 169)" fill="#e7effc"/>
    <line id="Line_1" data-name="Line 1" y1="21" x2="60" transform="translate(376.835 390.528)" fill="none" stroke="#006685" stroke-width="1"/>
    <line id="Line_2" data-name="Line 2" x1="63" y1="33" transform="translate(436.768 391.443)" fill="none" stroke="#006685" stroke-width="1"/>
    <line id="Line_3" data-name="Line 3" x1="123" y2="11" transform="translate(500.045 413.498)" fill="none" stroke="#006685" stroke-width="1"/>
    <path id="Path_9" data-name="Path 9" d="M65.66,341.6H62.492v1.212h1.776v4.368a1.8,1.8,0,0,1-3.588,0v-.924H59.372v.948a2.855,2.855,0,0,0,3.108,2.916,2.909,2.909,0,0,0,3.18-2.916Zm6.972,6.66L73.46,350h1.452v-.18l-3.864-8.28H70.4l-3.888,8.28V350h1.464l.816-1.74Zm-1.908-4.536,1.464,3.36h-2.94ZM82.4,350.012h.48V341.6H81.49v3.06l.1,2.568-5.1-5.652h-.5V350h1.38v-3.048l-.1-2.664Z" transform="translate(135 169)" fill="#707070"/>
    <path id="Path_10" data-name="Path 10" d="M122.772,345.5h-3.336v-2.676h3.672V341.6h-5.064V350h1.392v-3.264h3.336Zm6.958-3.9h-5.112V350H129.8v-1.272h-3.78V346.28h3.5v-1.236h-3.5v-2.22h3.708Zm7.862,2.364c0-1.584-1.116-2.364-2.64-2.364h-3.408V350H135.3a2.4,2.4,0,0,0,2.664-2.472,1.923,1.923,0,0,0-1.356-1.944A1.712,1.712,0,0,0,137.592,343.964Zm-2.736-1.152c.816,0,1.368.36,1.368,1.188s-.564,1.128-1.368,1.128h-1.92v-2.316Zm.2,3.456a1.747,1.747,0,0,1,1.092.264,1.231,1.231,0,0,1,.432,1,1.249,1.249,0,0,1-1.368,1.248h-2.28v-2.508Z" transform="translate(135 169)" fill="#acacac"/>
    <path id="Path_11" data-name="Path 11" d="M176.98,345.92l-3.42-4.344h-.516V350h1.4v-5.256l2.436,3.108h.192l2.424-3.108V350h1.4v-8.424h-.516Zm11.1,2.34.828,1.74h1.452v-.18l-3.864-8.28h-.648l-3.888,8.28V350h1.464l.816-1.74Zm-1.908-4.536,1.464,3.36H184.7Zm9.878,3.132a2.633,2.633,0,0,0,1.764-2.52A2.71,2.71,0,0,0,194.9,341.6h-3.468V350h1.4v-2.928h1.848L196.771,350h1.416v-.2Zm-3.24-.936v-3.108h2.076a1.5,1.5,0,0,1,1.572,1.536,1.519,1.519,0,0,1-1.572,1.572Z" transform="translate(135 169)" fill="#acacac"/>
    <path id="Path_12" data-name="Path 12" d="M238.132,348.26l.828,1.74h1.452v-.18l-3.864-8.28H235.9l-3.888,8.28V350h1.464l.816-1.74Zm-1.908-4.536,1.464,3.36h-2.94ZM242.886,350v-2.52h2.076a2.94,2.94,0,1,0,0-5.88h-3.48V350Zm-.024-3.744v-3.444h2.1a1.608,1.608,0,0,1,1.62,1.716,1.633,1.633,0,0,1-1.62,1.728Zm11.068.6a2.633,2.633,0,0,0,1.764-2.52,2.71,2.71,0,0,0-2.916-2.736H249.31V350h1.4v-2.928h1.848L254.65,350h1.416v-.2Zm-3.24-.936v-3.108h2.076a1.5,1.5,0,0,1,1.572,1.536,1.519,1.519,0,0,1-1.572,1.572Z" transform="translate(135 169)" fill="#acacac"/>
    <path id="Path_13" data-name="Path 13" d="M294.98,345.92l-3.42-4.344h-.516V350h1.4v-5.256l2.436,3.108h.192l2.424-3.108V350h1.4v-8.424h-.516Zm11.1,2.34.828,1.74h1.452v-.18l-3.864-8.28h-.648l-3.888,8.28V350h1.464l.816-1.74Zm-1.908-4.536,1.464,3.36H302.7Zm7.267,1.68-1.008-1.932L309.3,341.6h-1.5v.2l2.964,4.788V350h1.392v-3.408l2.952-4.788v-.2h-1.488l-1.092,1.812-1.044,1.992Z" transform="translate(135 169)" fill="#acacac"/>
    <path id="Path_14" data-name="Path 14" d="M355.66,341.6h-3.168v1.212h1.776v4.368a1.8,1.8,0,0,1-3.588,0v-.924h-1.308v.948a2.855,2.855,0,0,0,3.108,2.916,2.909,2.909,0,0,0,3.18-2.916Zm5.2,8.508a2.952,2.952,0,0,0,3.252-2.928V341.6h-1.38v5.544a1.892,1.892,0,0,1-3.768,0V341.6h-1.392v5.58C357.577,349.052,359.053,350.108,360.865,350.108Zm11.677-.1h.48V341.6H371.63v3.06l.1,2.568-5.1-5.652h-.5V350h1.38v-3.048l-.1-2.664Z" transform="translate(135 169)" fill="#acacac"/>
    <path id="Path_15" data-name="Path 15" d="M414.66,341.6h-3.168v1.212h1.776v4.368a1.8,1.8,0,0,1-3.588,0v-.924h-1.308v.948a2.855,2.855,0,0,0,3.108,2.916,2.909,2.909,0,0,0,3.18-2.916Zm5.2,8.508a2.952,2.952,0,0,0,3.252-2.928V341.6h-1.38v5.544a1.892,1.892,0,0,1-3.768,0V341.6h-1.392v5.58C416.577,349.052,418.053,350.108,419.865,350.108Zm6.661-8.508h-1.4V350h5.016v-1.26h-3.612Z" transform="translate(135 169)" fill="#acacac"/>
    <path id="Path_16" data-name="Path 16" d="M470.132,348.26l.828,1.74h1.452v-.18l-3.864-8.28H467.9l-3.888,8.28V350h1.464l.816-1.74Zm-1.908-4.536,1.464,3.36h-2.94Zm8.333,6.384a2.952,2.952,0,0,0,3.252-2.928V341.6h-1.38v5.544a1.892,1.892,0,0,1-3.768,0V341.6h-1.392v5.58C473.269,349.052,474.745,350.108,476.557,350.108Zm4.765-4.32a4.117,4.117,0,0,0,4.236,4.32,3.79,3.79,0,0,0,3.732-2.364,5.59,5.59,0,0,0,.3-2.28h-3.936v1.188h2.616a2.385,2.385,0,0,1-2.712,2.184,3.051,3.051,0,0,1,0-6.084,2.4,2.4,0,0,1,2.4,1.368h1.38a3.629,3.629,0,0,0-3.768-2.628A4.133,4.133,0,0,0,481.322,345.788Z" transform="translate(135 169)" fill="#acacac"/>
    <path id="Path_17" data-name="Path 17" d="M524.54,347.612c.036,1.764,1.752,2.58,3.4,2.544,1.572,0,3.312-.7,3.312-2.544,0-1.932-1.56-2.268-3.264-2.46-.972-.132-1.92-.252-1.92-1.2s1-1.26,1.764-1.26c.828,0,1.776.288,1.836,1.188h1.32c-.036-1.716-1.548-2.436-3.144-2.436-1.632,0-3.156.816-3.156,2.544,0,1.68,1.524,2.172,3.06,2.3.972.1,2.112.2,2.112,1.308,0,1.044-1.056,1.308-1.944,1.308-.912,0-1.944-.348-2-1.3Zm13.386-6.012h-5.112V350H538v-1.272h-3.78V346.28h3.5v-1.236h-3.5v-2.22h3.708Zm3.217,8.4v-2.52h2.076a2.94,2.94,0,1,0,0-5.88h-3.48V350Zm-.024-3.744v-3.444h2.1a1.608,1.608,0,0,1,1.62,1.716,1.633,1.633,0,0,1-1.62,1.728Z" transform="translate(135 169)" fill="#acacac"/>
    <path id="Path_18" data-name="Path 18" d="M589.108,345.8a4.278,4.278,0,1,0-4.3,4.344A4.145,4.145,0,0,0,589.108,345.8Zm-7.14,0a2.878,2.878,0,1,1,2.868,3.024A2.808,2.808,0,0,1,581.968,345.8Zm8.24.012a4.1,4.1,0,0,0,4.26,4.272,3.707,3.707,0,0,0,3.852-2.952h-1.356a2.472,2.472,0,0,1-2.5,1.68,2.839,2.839,0,0,1-2.856-3,2.8,2.8,0,0,1,2.856-3.036,2.5,2.5,0,0,1,2.46,1.536h1.344a3.734,3.734,0,0,0-3.792-2.808A4.129,4.129,0,0,0,590.208,345.812Zm11.171-2.976V350h1.368v-7.164h2.436V341.6h-6.24v1.236Z" transform="translate(135 169)" fill="#acacac"/>
    <path id="Path_19" data-name="Path 19" d="M646.464,350.012h.48V341.6h-1.392v3.06l.1,2.568-5.1-5.652h-.5V350h1.38v-3.048l-.1-2.664ZM657.1,345.8a4.279,4.279,0,1,0-4.3,4.344A4.145,4.145,0,0,0,657.1,345.8Zm-7.14,0a2.878,2.878,0,1,1,2.868,3.024A2.808,2.808,0,0,1,649.956,345.8Zm11.415,1.812-1.152-3.108-1.2-2.9h-1.488v.2l3.564,8.268h.576L665.2,341.8v-.2h-1.476l-1.212,2.964-1.1,3.048Z" transform="translate(135 169)" fill="#acacac"/>
    <path id="Path_20" data-name="Path 20" d="M700.341,341.612V350h3.036a4.195,4.195,0,0,0,0-8.388Zm1.392,7.116v-5.856h1.632a2.935,2.935,0,0,1-.012,5.856Zm12.474-7.128h-5.112V350h5.184v-1.272H710.5V346.28H714v-1.236h-3.5v-2.22h3.708Zm1.228,4.212a4.1,4.1,0,0,0,4.26,4.272,3.707,3.707,0,0,0,3.852-2.952h-1.356a2.472,2.472,0,0,1-2.5,1.68,2.839,2.839,0,0,1-2.856-3,2.8,2.8,0,0,1,2.856-3.036,2.5,2.5,0,0,1,2.46,1.536H723.5a3.734,3.734,0,0,0-3.792-2.808A4.129,4.129,0,0,0,715.435,345.812Z" transform="translate(135 169)" fill="#707070"/>
    <path id="Path_21" data-name="Path 21" d="M60.147,101V329" transform="translate(135 169)" fill="none" stroke="rgba(0,102,133,0.2)" stroke-width="1" stroke-dasharray="2 2"/>
    <path id="Path_22" data-name="Path 22" d="M120.85,101V329" transform="translate(135 169)" fill="none" stroke="rgba(0,102,133,0.2)" stroke-width="1" stroke-dasharray="2 2"/>
    <path id="Path_23" data-name="Path 23" d="M181.547,101V329" transform="translate(135 169)" fill="none" stroke="rgba(0,102,133,0.2)" stroke-width="1" stroke-dasharray="2 2"/>
    <path id="Path_24" data-name="Path 24" d="M242.248,101V329" transform="translate(135 169)" fill="none" stroke="rgba(0,102,133,0.2)" stroke-width="1" stroke-dasharray="2 2"/>
    <path id="Path_25" data-name="Path 25" d="M302.95,101V329" transform="translate(135 169)" fill="none" stroke="rgba(0,102,133,0.2)" stroke-width="1" stroke-dasharray="2 2"/>
    <path id="Path_26" data-name="Path 26" d="M363.652,101V329" transform="translate(135 169)" fill="none" stroke="rgba(0,102,133,0.2)" stroke-width="1" stroke-dasharray="2 2"/>
    <path id="Path_27" data-name="Path 27" d="M424.349,101V329" transform="translate(135 169)" fill="none" stroke="rgba(0,102,133,0.2)" stroke-width="1" stroke-dasharray="2 2"/>
    <path id="Path_28" data-name="Path 28" d="M485.051,101V329" transform="translate(135 169)" fill="none" stroke="rgba(0,102,133,0.2)" stroke-width="1" stroke-dasharray="2 2"/>
    <path id="Path_29" data-name="Path 29" d="M545.752,101V329" transform="translate(135 169)" fill="none" stroke="rgba(0,102,133,0.2)" stroke-width="1" stroke-dasharray="2 2"/>
    <path id="Path_30" data-name="Path 30" d="M606.453,101V329" transform="translate(135 169)" fill="none" stroke="rgba(0,102,133,0.2)" stroke-width="1" stroke-dasharray="2 2"/>
    <path id="Path_31" data-name="Path 31" d="M667.151,101V329" transform="translate(135 169)" fill="none" stroke="rgba(0,102,133,0.2)" stroke-width="1" stroke-dasharray="2 2"/>
    <path id="Path_32" data-name="Path 32" d="M727.854,101V329" transform="translate(135 169)" fill="none" stroke="rgba(0,102,133,0.2)" stroke-width="1" stroke-dasharray="2 2"/>
    <path id="Path_33" data-name="Path 33" d="M28.888,329.636a2.609,2.609,0,0,0,2.808,2.508,2.728,2.728,0,0,0,2.916-2.82,2.342,2.342,0,0,0-2.2-2.472l2.124-3.024v-.216H29.224v1.128h3.384l-1.9,2.82v.24c1.152-.288,2.58.132,2.58,1.536a1.5,1.5,0,0,1-1.62,1.6,1.393,1.393,0,0,1-1.548-1.3Zm10.31-6.168a2.889,2.889,0,0,0-3.132,2.892v2.9a2.883,2.883,0,0,0,3.132,2.892,2.875,2.875,0,0,0,3.108-2.892v-2.9A2.882,2.882,0,0,0,39.2,323.468Zm0,7.452A1.618,1.618,0,0,1,37.47,329.7a4.009,4.009,0,0,1-.084-.792v-2.172a4.008,4.008,0,0,1,.084-.792,1.812,1.812,0,0,1,3.444,0,4.008,4.008,0,0,1,.084.792V328.9a4.009,4.009,0,0,1-.084.792A1.6,1.6,0,0,1,39.2,330.92Zm7.875-7.452a2.889,2.889,0,0,0-3.132,2.892v2.9a2.883,2.883,0,0,0,3.132,2.892,2.875,2.875,0,0,0,3.108-2.892v-2.9A2.882,2.882,0,0,0,47.073,323.468Zm0,7.452a1.618,1.618,0,0,1-1.728-1.224,4.009,4.009,0,0,1-.084-.792v-2.172a4.008,4.008,0,0,1,.084-.792,1.812,1.812,0,0,1,3.444,0,4.008,4.008,0,0,1,.084.792V328.9a4.009,4.009,0,0,1-.084.792A1.6,1.6,0,0,1,47.073,330.92Z" transform="translate(135 169)" fill="#707070"/>
    <path id="Path_34" data-name="Path 34" d="M33.849,293.236h.816V292.1h-.816v-5.5H32.421l-3.972,6.012v.624h4.128V295h1.272Zm-1.116-5-.072,2.052v1.86H30.093l2.616-3.912Zm6.465-1.764a2.889,2.889,0,0,0-3.132,2.892v2.9a2.883,2.883,0,0,0,3.132,2.892,2.875,2.875,0,0,0,3.108-2.892v-2.9A2.882,2.882,0,0,0,39.2,286.468Zm0,7.452A1.618,1.618,0,0,1,37.47,292.7a4.009,4.009,0,0,1-.084-.792v-2.172a4.008,4.008,0,0,1,.084-.792,1.812,1.812,0,0,1,3.444,0,4.008,4.008,0,0,1,.084.792V291.9a4.009,4.009,0,0,1-.084.792A1.6,1.6,0,0,1,39.2,293.92Zm7.875-7.452a2.889,2.889,0,0,0-3.132,2.892v2.9a2.883,2.883,0,0,0,3.132,2.892,2.875,2.875,0,0,0,3.108-2.892v-2.9A2.882,2.882,0,0,0,47.073,286.468Zm0,7.452a1.618,1.618,0,0,1-1.728-1.224,4.009,4.009,0,0,1-.084-.792v-2.172a4.008,4.008,0,0,1,.084-.792,1.812,1.812,0,0,1,3.444,0,4.008,4.008,0,0,1,.084.792V291.9a4.009,4.009,0,0,1-.084.792A1.6,1.6,0,0,1,47.073,293.92Z" transform="translate(135 169)" fill="#acacac"/>
    <path id="Path_35" data-name="Path 35" d="M30.377,250.776h3.816V249.6H29.237v4.2a8.289,8.289,0,0,1,2.184-.24c1.08.06,2,.48,1.98,1.788a1.563,1.563,0,0,1-1.656,1.632,1.376,1.376,0,0,1-1.524-1.3H28.937a2.589,2.589,0,0,0,2.772,2.46,2.763,2.763,0,0,0,2.988-2.832c0-2.052-1.428-2.76-3.192-2.8a5.074,5.074,0,0,0-1.128.12Zm8.821-1.308a2.889,2.889,0,0,0-3.132,2.892v2.9a2.883,2.883,0,0,0,3.132,2.892,2.875,2.875,0,0,0,3.108-2.892v-2.9A2.882,2.882,0,0,0,39.2,249.468Zm0,7.452A1.618,1.618,0,0,1,37.47,255.7a4.008,4.008,0,0,1-.084-.792v-2.172a4.008,4.008,0,0,1,.084-.792,1.812,1.812,0,0,1,3.444,0,4.008,4.008,0,0,1,.084.792V254.9a4.008,4.008,0,0,1-.084.792A1.6,1.6,0,0,1,39.2,256.92Zm7.875-7.452a2.889,2.889,0,0,0-3.132,2.892v2.9a2.883,2.883,0,0,0,3.132,2.892,2.875,2.875,0,0,0,3.108-2.892v-2.9A2.882,2.882,0,0,0,47.073,249.468Zm0,7.452a1.618,1.618,0,0,1-1.728-1.224,4.008,4.008,0,0,1-.084-.792v-2.172a4.008,4.008,0,0,1,.084-.792,1.812,1.812,0,0,1,3.444,0,4.008,4.008,0,0,1,.084.792V254.9a4.008,4.008,0,0,1-.084.792A1.6,1.6,0,0,1,47.073,256.92Z" transform="translate(135 169)" fill="#acacac"/>
    <path id="Path_36" data-name="Path 36" d="M31.69,212.552l-2.544,4.032a3.271,3.271,0,0,0-.54,1.74c0,1.872,1.38,2.8,3.108,2.8s3.12-.924,3.12-2.8a2.6,2.6,0,0,0-2.892-2.7,1.54,1.54,0,0,0-.756.192l2.052-3.264Zm.024,7.38a1.619,1.619,0,1,1,0-3.228,1.619,1.619,0,1,1,0,3.228Zm7.484-7.464a2.889,2.889,0,0,0-3.132,2.892v2.9a2.883,2.883,0,0,0,3.132,2.892,2.875,2.875,0,0,0,3.108-2.892v-2.9A2.882,2.882,0,0,0,39.2,212.468Zm0,7.452A1.618,1.618,0,0,1,37.47,218.7a4.008,4.008,0,0,1-.084-.792v-2.172a4.008,4.008,0,0,1,.084-.792,1.812,1.812,0,0,1,3.444,0,4.008,4.008,0,0,1,.084.792V217.9a4.008,4.008,0,0,1-.084.792A1.6,1.6,0,0,1,39.2,219.92Zm7.875-7.452a2.889,2.889,0,0,0-3.132,2.892v2.9a2.883,2.883,0,0,0,3.132,2.892,2.875,2.875,0,0,0,3.108-2.892v-2.9A2.882,2.882,0,0,0,47.073,212.468Zm0,7.452a1.618,1.618,0,0,1-1.728-1.224,4.008,4.008,0,0,1-.084-.792v-2.172a4.008,4.008,0,0,1,.084-.792,1.812,1.812,0,0,1,3.444,0,4.008,4.008,0,0,1,.084.792V217.9a4.008,4.008,0,0,1-.084.792A1.6,1.6,0,0,1,47.073,219.92Z" transform="translate(135 169)" fill="#acacac"/>
    <path id="Path_37" data-name="Path 37" d="M35.126,175.6H29.318v1.236H33.23L29.978,184h1.416l3.732-8.2Zm4.072-.132a2.889,2.889,0,0,0-3.132,2.892v2.9a2.883,2.883,0,0,0,3.132,2.892,2.875,2.875,0,0,0,3.108-2.892v-2.9A2.882,2.882,0,0,0,39.2,175.468Zm0,7.452A1.618,1.618,0,0,1,37.47,181.7a4.008,4.008,0,0,1-.084-.792v-2.172a4.008,4.008,0,0,1,.084-.792,1.812,1.812,0,0,1,3.444,0,4.008,4.008,0,0,1,.084.792V180.9a4.008,4.008,0,0,1-.084.792A1.6,1.6,0,0,1,39.2,182.92Zm7.875-7.452a2.889,2.889,0,0,0-3.132,2.892v2.9a2.883,2.883,0,0,0,3.132,2.892,2.875,2.875,0,0,0,3.108-2.892v-2.9A2.882,2.882,0,0,0,47.073,175.468Zm0,7.452a1.618,1.618,0,0,1-1.728-1.224,4.008,4.008,0,0,1-.084-.792v-2.172a4.008,4.008,0,0,1,.084-.792,1.812,1.812,0,0,1,3.444,0,4.008,4.008,0,0,1,.084.792V180.9a4.008,4.008,0,0,1-.084.792A1.6,1.6,0,0,1,47.073,182.92Z" transform="translate(135 169)" fill="#acacac"/>
    <path id="Path_38" data-name="Path 38" d="M33.148,142.272a1.876,1.876,0,0,0,.984-1.62,2.326,2.326,0,0,0-2.592-2.184,2.3,2.3,0,0,0-2.58,2.208,1.814,1.814,0,0,0,.948,1.6,2.4,2.4,0,0,0-1.488,2.22c0,1.476,1.236,2.64,3.12,2.64s3.108-1.164,3.108-2.664A2.413,2.413,0,0,0,33.148,142.272Zm-1.62-.42a1.156,1.156,0,1,1,1.356-1.14A1.2,1.2,0,0,1,31.528,141.852Zm.012,4.1a1.591,1.591,0,0,1-1.752-1.5,1.771,1.771,0,1,1,1.752,1.5Zm7.658-7.488a2.889,2.889,0,0,0-3.132,2.892v2.9a2.883,2.883,0,0,0,3.132,2.892,2.875,2.875,0,0,0,3.108-2.892v-2.9A2.882,2.882,0,0,0,39.2,138.468Zm0,7.452A1.618,1.618,0,0,1,37.47,144.7a4.008,4.008,0,0,1-.084-.792v-2.172a4.008,4.008,0,0,1,.084-.792,1.812,1.812,0,0,1,3.444,0,4.008,4.008,0,0,1,.084.792V143.9a4.008,4.008,0,0,1-.084.792A1.6,1.6,0,0,1,39.2,145.92Zm7.875-7.452a2.889,2.889,0,0,0-3.132,2.892v2.9a2.883,2.883,0,0,0,3.132,2.892,2.875,2.875,0,0,0,3.108-2.892v-2.9A2.882,2.882,0,0,0,47.073,138.468Zm0,7.452a1.618,1.618,0,0,1-1.728-1.224,4.008,4.008,0,0,1-.084-.792v-2.172a4.008,4.008,0,0,1,.084-.792,1.812,1.812,0,0,1,3.444,0,4.008,4.008,0,0,1,.084.792V143.9a4.008,4.008,0,0,1-.084.792A1.6,1.6,0,0,1,47.073,145.92Z" transform="translate(135 169)" fill="#acacac"/>
    <path id="Path_39" data-name="Path 39" d="M31.665,110l2.532-4.02a3.061,3.061,0,0,0,.564-1.776c0-1.872-1.38-2.8-3.108-2.8s-3.12.924-3.12,2.8a2.621,2.621,0,0,0,2.928,2.7,1.621,1.621,0,0,0,.792-.2L30.141,110Zm-.012-7.4a1.618,1.618,0,1,1,0,3.228,1.619,1.619,0,1,1,0-3.228Zm7.545-1.128a2.889,2.889,0,0,0-3.132,2.892v2.9a2.883,2.883,0,0,0,3.132,2.892,2.875,2.875,0,0,0,3.108-2.892v-2.9A2.882,2.882,0,0,0,39.2,101.468Zm0,7.452A1.618,1.618,0,0,1,37.47,107.7a4.008,4.008,0,0,1-.084-.792v-2.172a4.008,4.008,0,0,1,.084-.792,1.812,1.812,0,0,1,3.444,0,4.008,4.008,0,0,1,.084.792V106.9a4.008,4.008,0,0,1-.084.792A1.6,1.6,0,0,1,39.2,108.92Zm7.875-7.452a2.889,2.889,0,0,0-3.132,2.892v2.9a2.883,2.883,0,0,0,3.132,2.892,2.875,2.875,0,0,0,3.108-2.892v-2.9A2.882,2.882,0,0,0,47.073,101.468Zm0,7.452a1.618,1.618,0,0,1-1.728-1.224,4.008,4.008,0,0,1-.084-.792v-2.172a4.008,4.008,0,0,1,.084-.792,1.812,1.812,0,0,1,3.444,0,4.008,4.008,0,0,1,.084.792V106.9a4.008,4.008,0,0,1-.084.792A1.6,1.6,0,0,1,47.073,108.92Z" transform="translate(135 169)" fill="#707070"/>
    <path id="Path_40" data-name="Path 40" d="M60.147,101H727.853" transform="translate(135 169)" fill="none" stroke="rgba(0,102,133,0.2)" stroke-width="1" stroke-dasharray="2 2"/>
    <path id="Path_41" data-name="Path 41" d="M60.147,138.662H727.853" transform="translate(135 169)" fill="none" stroke="rgba(0,102,133,0.2)" stroke-width="1" stroke-dasharray="2 2"/>
    <path id="Path_42" data-name="Path 42" d="M60.147,177.963H727.853" transform="translate(135 169)" fill="none" stroke="rgba(0,102,133,0.2)" stroke-width="1" stroke-dasharray="2 2"/>
    <path id="Path_43" data-name="Path 43" d="M60.147,215.625H727.853" transform="translate(135 169)" fill="none" stroke="rgba(0,102,133,0.2)" stroke-width="1" stroke-dasharray="2 2"/>
    <path id="Path_44" data-name="Path 44" d="M60.147,253.287H727.853" transform="translate(135 169)" fill="none" stroke="rgba(0,102,133,0.2)" stroke-width="1" stroke-dasharray="2 2"/>
    <path id="Path_45" data-name="Path 45" d="M60.147,292.588H727.853" transform="translate(135 169)" fill="none" stroke="rgba(0,102,133,0.2)" stroke-width="1" stroke-dasharray="2 2"/>
    <path id="Path_46" data-name="Path 46" d="M60.147,330.25H727.853" transform="translate(135 169)" fill="none" stroke="rgba(0,102,133,0.2)" stroke-width="1" stroke-dasharray="2 2"/>
    <path id="Path_47" data-name="Path 47" d="M59,330H729" transform="translate(135 169)" fill="none" stroke="#9ebfd2" stroke-width="1.6"/>
    <path id="Path_71" data-name="Path 71" d="M236,221a6,6,0,0,1,6-6h27v20H236Z" transform="translate(135 169)" fill="#00a6ca"/>
    <path id="Path_72" data-name="Path 72" d="M269,215h5a10,10,0,0,1,0,20h-5Z" transform="translate(135 169)" fill="#006685"/>
    <path id="Path_73" data-name="Path 73" d="M276,221v8" transform="translate(135 169)" fill="none" stroke="#fff" stroke-width="2"/>
    <path id="Path_74" data-name="Path 74" d="M280,225h-8" transform="translate(135 169)" fill="none" stroke="#fff" stroke-width="2"/>
    <path id="Path_75" data-name="Path 75" d="M242.73,221.936h4.284V220.2h-6.006v5.054c1.526-.168,4.48-.742,4.48,1.6a1.356,1.356,0,0,1-1.456,1.5,1.28,1.28,0,0,1-1.456-1.19h-1.834a3.137,3.137,0,0,0,3.332,3.024,3.278,3.278,0,0,0,3.43-3.346c0-2.478-1.652-3.262-3.71-3.3a6.428,6.428,0,0,0-1.064.084Zm10.234,1.12a3.43,3.43,0,0,1-.742,1.624l-3.472,4.872V230h6.286v-1.82h-3.192c1.246-1.61,1.68-2.338,1.974-2.744,1.946-2.59.9-5.39-1.876-5.39a2.8,2.8,0,0,0-3.066,3.038h1.792a1.132,1.132,0,0,1,1.218-1.246A1.065,1.065,0,0,1,252.964,223.056Zm7.378-3.024a3.375,3.375,0,0,0-3.668,3.374v3.416a3.666,3.666,0,0,0,7.308,0v-3.416A3.366,3.366,0,0,0,260.342,220.032Zm0,8.33a1.494,1.494,0,0,1-1.652-1.316,6.623,6.623,0,0,1-.042-.784V223.98a7.229,7.229,0,0,1,.042-.8,1.686,1.686,0,0,1,3.29,0,7.237,7.237,0,0,1,.042.8v2.282a6.629,6.629,0,0,1-.042.784A1.505,1.505,0,0,1,260.342,228.362Z" transform="translate(135 169)" fill="#fff"/>
    <path id="Path_76" data-name="Path 76" d="M236,241v-6h6S236,235,236,241Z" transform="translate(135 169)" fill="#00a6ca"/>
    <circle id="Ellipse_1" data-name="Ellipse 1" cx="3.5" cy="3.5" r="3.5" transform="translate(373.5 408.5)" fill="#fff" stroke="#006685" stroke-width="3"/>
    <path id="Path_77" data-name="Path 77" d="M296,200a6,6,0,0,1,6-6h27v20H296Z" transform="translate(135 169)" fill="#00a6ca"/>
    <path id="Path_78" data-name="Path 78" d="M329,194h5a10,10,0,0,1,0,20h-5Z" transform="translate(135 169)" fill="#006685"/>
    <path id="Path_79" data-name="Path 79" d="M336,200v8" transform="translate(135 169)" fill="none" stroke="#fff" stroke-width="2"/>
    <path id="Path_80" data-name="Path 80" d="M340,204h-8" transform="translate(135 169)" fill="none" stroke="#fff" stroke-width="2"/>
    <path id="Path_81" data-name="Path 81" d="M302.73,200.936h4.284V199.2h-6.006v5.054c1.526-.168,4.48-.742,4.48,1.6a1.356,1.356,0,0,1-1.456,1.5,1.28,1.28,0,0,1-1.456-1.19h-1.834a3.137,3.137,0,0,0,3.332,3.024,3.278,3.278,0,0,0,3.43-3.346c0-2.478-1.652-3.262-3.71-3.3a6.428,6.428,0,0,0-1.064.084Zm11.97,2.52a2.317,2.317,0,0,0,.9-1.792c0-1.386-1.106-2.618-3.08-2.618s-3.122,1.26-3.08,2.66a2.3,2.3,0,0,0,.882,1.736,2.921,2.921,0,0,0-1.512,2.548c0,1.68,1.344,3.164,3.71,3.164s3.724-1.5,3.682-3.192A2.916,2.916,0,0,0,314.7,203.456Zm-2.184-.616a1.089,1.089,0,1,1,1.246-1.092A1.139,1.139,0,0,1,312.516,202.84Zm0,4.578a1.514,1.514,0,0,1-1.652-1.484,1.556,1.556,0,0,1,1.652-1.582,1.537,1.537,0,1,1,0,3.066Zm8.919-8.386a3.375,3.375,0,0,0-3.668,3.374v3.416a3.666,3.666,0,0,0,7.308,0v-3.416A3.366,3.366,0,0,0,321.435,199.032Zm0,8.33a1.494,1.494,0,0,1-1.652-1.316,6.629,6.629,0,0,1-.042-.784V202.98a7.237,7.237,0,0,1,.042-.8,1.686,1.686,0,0,1,3.29,0,7.229,7.229,0,0,1,.042.8v2.282a6.623,6.623,0,0,1-.042.784A1.505,1.505,0,0,1,321.435,207.362Z" transform="translate(135 169)" fill="#fff"/>
    <path id="Path_82" data-name="Path 82" d="M296,220v-6h6S296,214,296,220Z" transform="translate(135 169)" fill="#00a6ca"/>
    <circle id="Ellipse_2" data-name="Ellipse 2" cx="3.5" cy="3.5" r="3.5" transform="translate(433.5 387.5)" fill="#fff" stroke="#006685" stroke-width="3"/>
    <path id="Path_83" data-name="Path 83" d="M482,222a6,6,0,0,1,6-6h27v20H482Z" transform="translate(135 169)" fill="#fcd800"/>
    <path id="Path_84" data-name="Path 84" d="M515,216h5a10,10,0,0,1,0,20h-5Z" transform="translate(135 169)" fill="#00a6ca"/>
    <path id="Path_85" data-name="Path 85" d="M520,222l4,4-4,4" transform="translate(135 169)" fill="none" stroke="#fff" stroke-width="2"/>
    <path id="Path_86" data-name="Path 86" d="M488.73,222.936h4.284V221.2h-6.006v5.054c1.526-.168,4.48-.742,4.48,1.6a1.356,1.356,0,0,1-1.456,1.5,1.28,1.28,0,0,1-1.456-1.19h-1.834a3.137,3.137,0,0,0,3.332,3.024,3.278,3.278,0,0,0,3.43-3.346c0-2.478-1.652-3.262-3.71-3.3a6.428,6.428,0,0,0-1.064.084Zm7.742-.1v6.552H494.82V231h5.348v-1.61h-1.694V221.2h-3.458v1.638Zm8.653-1.806a3.375,3.375,0,0,0-3.668,3.374v3.416a3.666,3.666,0,0,0,7.308,0v-3.416A3.366,3.366,0,0,0,505.125,221.032Zm0,8.33a1.494,1.494,0,0,1-1.652-1.316,6.629,6.629,0,0,1-.042-.784V224.98a7.237,7.237,0,0,1,.042-.8,1.686,1.686,0,0,1,3.29,0,7.237,7.237,0,0,1,.042.8v2.282a6.629,6.629,0,0,1-.042.784A1.505,1.505,0,0,1,505.125,229.362Z" transform="translate(135 169)" fill="#2c2c2c"/>
    <path id="Path_87" data-name="Path 87" d="M482,242v-6h6S482,236,482,242Z" transform="translate(135 169)" fill="#fcd800"/>
    <circle id="Ellipse_3" data-name="Ellipse 3" cx="3.5" cy="3.5" r="3.5" transform="translate(619.5 409.5)" fill="#fcd800" stroke="#006685" stroke-width="3"/>
    <path id="Path_88" data-name="Path 88" d="M359,233a6,6,0,0,1,6-6h27v20H359Z" transform="translate(135 169)" fill="#00a6ca"/>
    <path id="Path_89" data-name="Path 89" d="M392,227h5a10,10,0,0,1,0,20h-5Z" transform="translate(135 169)" fill="#006685"/>
    <path id="Path_90" data-name="Path 90" d="M369.8,240.054h.91V238.36h-.91V232.2h-2.17l-4.3,6.944v.91h4.578V242h1.89Zm-1.666-5.516-.1,2.03v1.862H365.7l2.422-3.892ZM375.776,242l2.828-4.578a3.888,3.888,0,0,0,.672-2.156c0-2.24-1.624-3.3-3.7-3.3s-3.71,1.064-3.71,3.3a3.015,3.015,0,0,0,3.416,3.164,1.419,1.419,0,0,0,.546-.126l-2.338,3.7Zm-.2-8.26a1.435,1.435,0,0,1,1.624,1.526,1.635,1.635,0,1,1-1.624-1.526Zm4.92,5.39a3.105,3.105,0,0,0,3.318,3.052,3.274,3.274,0,0,0,3.444-3.346,2.748,2.748,0,0,0-2.282-2.912l2.128-3.416v-.294h-6.23v1.666h3.458l-1.806,3.108v.294c1.26-.224,2.716,0,2.758,1.568a1.441,1.441,0,0,1-1.5,1.526,1.289,1.289,0,0,1-1.456-1.246Z" transform="translate(135 169)" fill="#fff"/>
    <path id="Path_91" data-name="Path 91" d="M359,253v-6h6S359,247,359,253Z" transform="translate(135 169)" fill="#00a6ca"/>
    <circle id="Ellipse_4" data-name="Ellipse 4" cx="3.5" cy="3.5" r="3.5" transform="translate(496.5 420.5)" fill="#fcd800" stroke="#006685" stroke-width="3"/>
    <path id="Path_92" data-name="Path 92" d="M399,233v8" transform="translate(135 169)" fill="none" stroke="#fff" stroke-width="2"/>
    <path id="Path_93" data-name="Path 93" d="M403,237h-8" transform="translate(135 169)" fill="none" stroke="#fff" stroke-width="2"/>
  </g>
</svg>
