<svg width="56" height="56" viewBox="0 0 56 56" fill="none" xmlns="http://www.w3.org/2000/svg">
<path d="M40.9097 12.8799L55.9719 27.8962V55.9999H26.8786L14.5586 46.6676L40.9097 12.8799Z" fill="#00A6CA"/>
<path d="M28 56C43.464 56 56 43.464 56 28C56 12.536 43.464 0 28 0C12.536 0 0 12.536 0 28C0 43.464 12.536 56 28 56Z" fill="#00A6CA"/>
<path d="M40.9097 12.8799L55.9719 27.8962V55.9999H26.8786L14.5586 46.6676L40.9097 12.8799Z" fill="#0087A5"/>
<path d="M36.68 8.95996H15.7453C14.6859 8.95996 14 9.87301 14 10.9284V45.0715C14 46.1269 14.6859 47.04 15.7453 47.04H40.0653C41.1247 47.04 42 46.1354 42 45.08V29.68V21.84V14.28L36.68 8.95996Z" fill="white"/>
<path d="M38.5945 14.2123L41.9997 14.28L36.6797 8.95996L36.7954 12.4044C36.7954 13.4594 37.5446 14.2123 38.5945 14.2123Z" fill="#C2DFDD"/>
<path d="M18.4805 25.48L24.3605 35.28H19.0405L21.4193 38.7523H19.0405L21.2805 42.56H19.0405L22.9605 47.04H42.0005V35.28L36.1205 21L34.7205 20.16L33.3205 21L31.9205 18.76L23.2405 17.92L18.4805 25.48Z" fill="#DDE1F1"/>
<path d="M36.8555 36.5928H19.3555C18.9932 36.5928 18.6992 36.2988 18.6992 35.9365C18.6992 35.5743 18.9932 35.2803 19.3555 35.2803H36.8555C37.2177 35.2803 37.5117 35.5743 37.5117 35.9365C37.5117 36.2988 37.2177 36.5928 36.8555 36.5928Z" fill="#495260"/>
<path d="M36.8555 40.0928H19.3555C18.9932 40.0928 18.6992 39.7988 18.6992 39.4365C18.6992 39.0743 18.9932 38.7803 19.3555 38.7803H36.8555C37.2177 38.7803 37.5117 39.0743 37.5117 39.4365C37.5117 39.7988 37.2177 40.0928 36.8555 40.0928Z" fill="#495260"/>
<path d="M36.8555 43.5928H19.3555C18.9932 43.5928 18.6992 43.2988 18.6992 42.9365C18.6992 42.5743 18.9932 42.2803 19.3555 42.2803H36.8555C37.2177 42.2803 37.5117 42.5743 37.5117 42.9365C37.5117 43.2988 37.2177 43.5928 36.8555 43.5928Z" fill="#495260"/>
<path fill-rule="evenodd" clip-rule="evenodd" d="M26.3828 17.464C23.77 17.8998 21.504 19.2317 19.9433 21.2493C18.7582 22.7812 18.0517 24.6469 17.9393 26.5414C17.8842 27.4706 17.9276 27.6199 18.3213 27.8536C18.5497 27.9892 18.7249 27.9993 20.8576 27.9996L23.1485 27.9999V27.1751V26.3502H21.3706H19.5927L19.6446 26.0316C19.8678 24.6636 20.3925 23.4282 21.2253 22.31L21.4701 21.9814L22.3866 22.8715L23.3031 23.7615L23.8987 23.1816L24.4943 22.6017L23.5802 21.7093L22.6661 20.8168L23.0036 20.5785C24.152 19.7675 25.4526 19.2431 26.8256 19.0377L27.1528 18.9887V20.2325V21.4764H27.9999H28.847V20.2325V18.9887L29.1743 19.0384C29.8187 19.1361 30.1303 19.3406 30.7999 19.5999L31.6399 18.9887L32.4799 18.4799L32.2647 18.2757C30.907 17.6357 29.5414 17.3478 27.9229 17.3602C27.3935 17.3644 26.7004 17.411 26.3828 17.464ZM30.8493 23.1633L27.2693 26.6499L27.8658 27.2307L28.4622 27.8114L31.4602 24.8929C34.0241 22.397 34.4752 21.9883 34.5759 22.0697C34.7944 22.2463 35.4981 23.3842 35.754 23.975C36.0038 24.5513 36.2526 25.4028 36.3552 26.0316L36.4072 26.3502H34.7063H33.0053V27.1751V27.9999L35.2193 27.9996C37.2757 27.9993 37.4507 27.9889 37.6786 27.8536C38.0722 27.6199 38.1157 27.4706 38.0605 26.5414C37.9216 24.2 36.9421 22.0509 35.2157 20.3C34.8778 19.9572 34.5626 19.6768 34.5153 19.6768C34.468 19.6768 32.8183 21.2457 30.8493 23.1633Z" fill="#ECCA00"/>
<path fill-rule="evenodd" clip-rule="evenodd" d="M26.1136 15.8005C23.0653 16.3051 20.4216 17.8474 18.6008 20.1835C17.2182 21.9573 16.3939 24.1176 16.2629 26.3112C16.1985 27.3871 16.2492 27.56 16.7085 27.8306C16.9749 27.9876 17.1794 27.9993 19.6675 27.9996L22.3403 27.9999V27.0449V26.0898H20.266H18.1918L18.2524 25.7208C18.5128 24.1369 19.1249 22.7064 20.0966 21.4117L20.3821 21.0311L21.4514 22.0618L22.5207 23.0924L23.2155 22.4209L23.9103 21.7494L22.8439 20.7161L21.7774 19.6827L22.1712 19.4068C23.511 18.4677 25.0284 17.8606 26.6302 17.6227L27.012 17.566V19.0062V20.4464H28.0002H28.9885V19.0062V17.566L29.3703 17.6235C30.1221 17.7366 30.9328 17.9552 31.714 18.2554L32.5079 18.5606L33.2231 17.8756L33.9381 17.1906L32.9758 16.7404C31.3918 15.9994 29.7987 15.666 27.9104 15.6804C27.2927 15.6852 26.4842 15.7392 26.1136 15.8005ZM31.3245 22.3997L27.1478 26.4368L27.8437 27.1093L28.5396 27.7817L32.0372 24.4025C35.0285 21.5124 35.5547 21.0391 35.6722 21.1334C35.9272 21.3379 36.7481 22.6555 37.0467 23.3396C37.338 24.0068 37.6284 24.9928 37.7481 25.7208L37.8087 26.0898H35.8243H33.8399V27.0449V27.9999L36.4228 27.9996C38.8219 27.9993 39.0262 27.9873 39.292 27.8306C39.7513 27.56 39.8019 27.3871 39.7376 26.3112C39.5755 23.6001 38.4328 21.1117 36.4187 19.0843C36.0244 18.6874 35.6567 18.3627 35.6015 18.3627C35.5463 18.3627 33.6217 20.1793 31.3245 22.3997Z" fill="#FCD800"/>
</svg>
