<svg width="40" height="40" viewBox="0 0 40 40" fill="none" xmlns="http://www.w3.org/2000/svg">
<circle cx="20" cy="20" r="19" fill="white" stroke="#3EA3CE" stroke-width="2"/>
<path d="M15.3696 19.2875C15.6113 19.0061 15.7322 18.6935 15.7322 18.3418C15.7322 17.5914 15.1807 16.8333 14.0323 16.8333C12.8764 16.8333 12.3098 17.6149 12.3324 18.3652C12.34 18.7013 12.4684 19.0218 12.6875 19.2797C12.2342 19.6236 12 20.1395 12 20.671C12 21.5776 12.6724 22.4921 14.0323 22.4921C15.3922 22.4921 16.0797 21.562 16.0571 20.6553C16.0344 20.1316 15.8229 19.6314 15.3696 19.2875ZM14.0323 18.8733C13.7074 18.8733 13.5337 18.6544 13.5337 18.4121C13.5337 18.1854 13.6923 17.9431 14.0323 17.9431C14.3572 17.9431 14.5234 18.1776 14.5234 18.3965C14.5234 18.6388 14.3647 18.8733 14.0323 18.8733ZM14.0323 21.3119C13.579 21.3119 13.3524 20.9758 13.3524 20.6319C13.3524 20.2645 13.5715 19.8972 14.0323 19.8972C14.4856 19.8972 14.7123 20.2567 14.7123 20.6084C14.7123 20.9601 14.4856 21.3119 14.0323 21.3119Z" fill="#00A5C9"/>
<path d="M16.8432 20.7335C16.8658 21.8199 17.6364 22.4999 18.6639 22.4999C19.8878 22.4999 20.53 21.5385 20.53 20.6084C20.53 19.8972 20.2807 19.2015 19.4496 18.9749L20.4167 17.1303V16.927H17.0471V18.0838H18.6715L17.8858 19.6939V19.8737C18.4977 19.8112 19.2079 19.7799 19.2306 20.6162C19.223 20.9836 19.0115 21.2728 18.6413 21.2728C18.2862 21.2728 18.052 21.0852 18.052 20.7335H16.8432Z" fill="#00A5C9"/>
<path d="M25.2 16.927H21.3091V18.1776H23.3566L22.7388 19.9497C22.7388 19.9497 23.6385 19.3023 24.3583 19.191C24.7281 18.3615 25.2 17.1303 25.2 17.1303V16.927Z" fill="#00A5C9"/>
<path d="M27.6 19.0595V18C27.6 15.7909 25.8091 14 23.6 14H14C11.7909 14 10 15.7909 10 18V21.7381C10 23.9472 11.7909 25.7381 14 25.7381H20.3111" stroke="#00A5C9" stroke-width="2"/>
<path d="M30.9992 25.5357C30.9992 28.0124 29.0181 30 26.5992 30C24.1803 30 22.1992 28.0124 22.1992 25.5357C22.1992 23.0589 24.1803 21.0714 26.5992 21.0714C29.0181 21.0714 30.9992 23.0589 30.9992 25.5357Z" stroke="#00A5C9" stroke-width="2"/>
<path d="M26.1875 23.8374V24.0365C26.1875 25.1411 27.0829 26.0365 28.1875 26.0365H28.3091" stroke="#00A5C9" stroke-width="2"/>
</svg>
