<svg width="340" height="202" viewBox="0 0 340 202" fill="none" xmlns="http://www.w3.org/2000/svg">
<path d="M23.55 193H20.91V194.01H22.39V197.65C22.39 198.56 21.78 199.06 20.9 199.06C20.02 199.06 19.4 198.57 19.4 197.65V196.88H18.31V197.67C18.31 199.2 19.43 200.1 20.9 200.1C22.38 200.1 23.55 199.2 23.55 197.67V193ZM29.36 198.55L30.05 200H31.26V199.85L28.04 192.95H27.5L24.26 199.85V200H25.48L26.16 198.55H29.36ZM27.77 194.77L28.99 197.57H26.54L27.77 194.77ZM37.5013 200.01H37.9013V193H36.7413V195.55L36.8213 197.69L32.5713 192.98H32.1513V200H33.3013V197.46L33.2213 195.24L37.5013 200.01Z" fill="#ACACAC"/>
<path d="M75.81 196.25H73.03V194.02H76.09V193H71.87V200H73.03V197.28H75.81V196.25ZM81.6085 193H77.3485V200H81.6685V198.94H78.5185V196.9H81.4385V195.87H78.5185V194.02H81.6085V193ZM88.16 194.97C88.16 193.65 87.23 193 85.96 193H83.12V200H86.25C87.61 200 88.47 199.19 88.47 197.94C88.47 197.15 88.07 196.57 87.34 196.32C87.89 196.05 88.16 195.56 88.16 194.97ZM85.88 194.01C86.56 194.01 87.02 194.31 87.02 195C87.01 195.68 86.55 195.94 85.88 195.94H84.28V194.01H85.88ZM86.05 196.89C86.37 196.89 86.69 196.91 86.96 197.11C87.2 197.31 87.32 197.59 87.32 197.94C87.29 198.61 86.83 198.98 86.18 198.98H84.28V196.89H86.05Z" fill="#ACACAC"/>
<path d="M123.15 196.6L120.3 192.98H119.87V200H121.04V195.62L123.07 198.21H123.23L125.25 195.62V200H126.42V192.98H125.99L123.15 196.6ZM132.401 198.55L133.091 200H134.301V199.85L131.081 192.95H130.541L127.301 199.85V200H128.521L129.201 198.55H132.401ZM130.811 194.77L132.031 197.57H129.581L130.811 194.77ZM139.042 197.38C139.932 197.06 140.512 196.25 140.512 195.28C140.512 194.03 139.602 193 138.082 193H135.192V200H136.362V197.56H137.902L139.642 200H140.822V199.83L139.042 197.38ZM136.342 196.6V194.01H138.072C138.842 194.01 139.382 194.56 139.382 195.29C139.382 196.05 138.832 196.6 138.072 196.6H136.342Z" fill="#ACACAC"/>
<path d="M175.11 198.55L175.8 200H177.01V199.85L173.79 192.95H173.25L170.01 199.85V200H171.23L171.91 198.55H175.11ZM173.52 194.77L174.74 197.57H172.29L173.52 194.77ZM179.071 200V197.9H180.801C182.341 197.9 183.271 196.78 183.271 195.47C183.271 194.14 182.361 193 180.801 193H177.901V200H179.071ZM179.051 196.88V194.01H180.801C181.611 194.01 182.151 194.63 182.151 195.44C182.151 196.25 181.591 196.88 180.801 196.88H179.051ZM188.275 197.38C189.165 197.06 189.745 196.25 189.745 195.28C189.745 194.03 188.835 193 187.315 193H184.425V200H185.595V197.56H187.135L188.875 200H190.055V199.83L188.275 197.38ZM185.575 196.6V194.01H187.305C188.075 194.01 188.615 194.56 188.615 195.29C188.615 196.05 188.065 196.6 187.305 196.6H185.575Z" fill="#ACACAC"/>
<path d="M225.15 196.6L222.3 192.98H221.87V200H223.04V195.62L225.07 198.21H225.23L227.25 195.62V200H228.42V192.98H227.99L225.15 196.6ZM234.401 198.55L235.091 200H236.301V199.85L233.081 192.95H232.541L229.301 199.85V200H230.521L231.201 198.55H234.401ZM232.811 194.77L234.031 197.57H231.581L232.811 194.77ZM238.866 196.17L238.026 194.56L237.086 193H235.836V193.17L238.306 197.16V200H239.466V197.16L241.926 193.17V193H240.686L239.776 194.51L238.906 196.17H238.866Z" fill="#ACACAC"/>
<path d="M277.55 193H274.91V194.01H276.39V197.65C276.39 198.56 275.78 199.06 274.9 199.06C274.02 199.06 273.4 198.57 273.4 197.65V196.88H272.31V197.67C272.31 199.2 273.43 200.1 274.9 200.1C276.38 200.1 277.55 199.2 277.55 197.67V193ZM281.888 200.09C283.378 200.09 284.598 199.21 284.598 197.65V193H283.448V197.62C283.448 198.54 282.768 199.05 281.888 199.05C280.998 199.05 280.308 198.54 280.308 197.62V193H279.148V197.65C279.148 199.21 280.378 200.09 281.888 200.09ZM291.618 200.01H292.018V193H290.858V195.55L290.938 197.69L286.688 192.98H286.268V200H287.418V197.46L287.338 195.24L291.618 200.01Z" fill="#ACACAC"/>
<path d="M326.55 193H323.91V194.01H325.39V197.65C325.39 198.56 324.78 199.06 323.9 199.06C323.02 199.06 322.4 198.57 322.4 197.65V196.88H321.31V197.67C321.31 199.2 322.43 200.1 323.9 200.1C325.38 200.1 326.55 199.2 326.55 197.67V193ZM330.888 200.09C332.378 200.09 333.598 199.21 333.598 197.65V193H332.448V197.62C332.448 198.54 331.768 199.05 330.888 199.05C329.998 199.05 329.308 198.54 329.308 197.62V193H328.148V197.65C328.148 199.21 329.378 200.09 330.888 200.09ZM336.438 193H335.268V200H339.448V198.95H336.438V193Z" fill="#ACACAC"/>
<path d="M334 5H28V185H334V5Z" fill="#E7EFFC"/>
<path d="M29 5L29 185" stroke="#006685" stroke-opacity="0.2" stroke-dasharray="2 2"/>
<path d="M80 5L80 185" stroke="#006685" stroke-opacity="0.2" stroke-dasharray="2 2"/>
<path d="M131 5L131 185" stroke="#006685" stroke-opacity="0.2" stroke-dasharray="2 2"/>
<path d="M182 5L182 185" stroke="#006685" stroke-opacity="0.2" stroke-dasharray="2 2"/>
<path d="M232 5L232 185" stroke="#006685" stroke-opacity="0.2" stroke-dasharray="2 2"/>
<path d="M283 5L283 185" stroke="#006685" stroke-opacity="0.2" stroke-dasharray="2 2"/>
<path d="M334 5L334 185" stroke="#006685" stroke-opacity="0.2" stroke-dasharray="2 2"/>
<path d="M1.57328 185.03C1.65328 186.35 2.63328 187.12 3.91328 187.12C5.45328 187.12 6.34328 186.07 6.34328 184.77C6.34328 183.74 5.67328 182.76 4.51328 182.71L6.28328 180.19V180.01H1.85328V180.95H4.67328L3.09328 183.3V183.5C4.05328 183.26 5.24328 183.61 5.24328 184.78C5.24328 185.61 4.70328 186.11 3.89328 186.11C3.17328 186.11 2.67328 185.74 2.60328 185.03H1.57328ZM10.165 179.89C8.715 179.89 7.555 180.8 7.555 182.3V184.72C7.555 186.23 8.715 187.13 10.165 187.13C11.595 187.13 12.755 186.23 12.755 184.72V182.3C12.755 180.8 11.595 179.89 10.165 179.89ZM10.165 186.1C9.445 186.1 8.875 185.75 8.725 185.08C8.685 184.88 8.655 184.66 8.655 184.42V182.61C8.655 182.37 8.685 182.15 8.725 181.95C8.875 181.27 9.445 180.91 10.165 180.91C10.885 180.91 11.445 181.27 11.595 181.95C11.635 182.15 11.665 182.37 11.665 182.61V184.42C11.665 184.66 11.635 184.88 11.595 185.08C11.445 185.75 10.885 186.1 10.165 186.1ZM16.7275 179.89C15.2775 179.89 14.1175 180.8 14.1175 182.3V184.72C14.1175 186.23 15.2775 187.13 16.7275 187.13C18.1575 187.13 19.3175 186.23 19.3175 184.72V182.3C19.3175 180.8 18.1575 179.89 16.7275 179.89ZM16.7275 186.1C16.0075 186.1 15.4375 185.75 15.2875 185.08C15.2475 184.88 15.2175 184.66 15.2175 184.42V182.61C15.2175 182.37 15.2475 182.15 15.2875 181.95C15.4375 181.27 16.0075 180.91 16.7275 180.91C17.4475 180.91 18.0075 181.27 18.1575 181.95C18.1975 182.15 18.2275 182.37 18.2275 182.61V184.42C18.2275 184.66 18.1975 184.88 18.1575 185.08C18.0075 185.75 17.4475 186.1 16.7275 186.1Z" fill="#ACACAC"/>
<path d="M5.7075 156.53H6.3875V155.58H5.7075V151H4.5175L1.2075 156.01V156.53H4.6475V158H5.7075V156.53ZM4.7775 152.36L4.7175 154.07V155.62H2.5775L4.7575 152.36H4.7775ZM10.165 150.89C8.715 150.89 7.555 151.8 7.555 153.3V155.72C7.555 157.23 8.715 158.13 10.165 158.13C11.595 158.13 12.755 157.23 12.755 155.72V153.3C12.755 151.8 11.595 150.89 10.165 150.89ZM10.165 157.1C9.445 157.1 8.875 156.75 8.725 156.08C8.685 155.88 8.655 155.66 8.655 155.42V153.61C8.655 153.37 8.685 153.15 8.725 152.95C8.875 152.27 9.445 151.91 10.165 151.91C10.885 151.91 11.445 152.27 11.595 152.95C11.635 153.15 11.665 153.37 11.665 153.61V155.42C11.665 155.66 11.635 155.88 11.595 156.08C11.445 156.75 10.885 157.1 10.165 157.1ZM16.7275 150.89C15.2775 150.89 14.1175 151.8 14.1175 153.3V155.72C14.1175 157.23 15.2775 158.13 16.7275 158.13C18.1575 158.13 19.3175 157.23 19.3175 155.72V153.3C19.3175 151.8 18.1575 150.89 16.7275 150.89ZM16.7275 157.1C16.0075 157.1 15.4375 156.75 15.2875 156.08C15.2475 155.88 15.2175 155.66 15.2175 155.42V153.61C15.2175 153.37 15.2475 153.15 15.2875 152.95C15.4375 152.27 16.0075 151.91 16.7275 151.91C17.4475 151.91 18.0075 152.27 18.1575 152.95C18.1975 153.15 18.2275 153.37 18.2275 153.61V155.42C18.2275 155.66 18.1975 155.88 18.1575 156.08C18.0075 156.75 17.4475 157.1 16.7275 157.1Z" fill="#ACACAC"/>
<path d="M2.81422 121.98H5.99422V121H1.86422V124.5C2.37422 124.38 3.05422 124.27 3.68422 124.3C4.58422 124.35 5.35422 124.7 5.33422 125.79C5.30422 126.74 4.65422 127.15 3.95422 127.15C3.26422 127.15 2.75422 126.8 2.68422 126.07H1.61422C1.72422 127.37 2.66422 128.12 3.92422 128.12C5.55422 128.12 6.41422 127.02 6.41422 125.76C6.41422 124.05 5.22422 123.46 3.75422 123.43C3.43422 123.43 3.12422 123.46 2.81422 123.53V121.98ZM10.165 120.89C8.715 120.89 7.555 121.8 7.555 123.3V125.72C7.555 127.23 8.715 128.13 10.165 128.13C11.595 128.13 12.755 127.23 12.755 125.72V123.3C12.755 121.8 11.595 120.89 10.165 120.89ZM10.165 127.1C9.445 127.1 8.875 126.75 8.725 126.08C8.685 125.88 8.655 125.66 8.655 125.42V123.61C8.655 123.37 8.685 123.15 8.725 122.95C8.875 122.27 9.445 121.91 10.165 121.91C10.885 121.91 11.445 122.27 11.595 122.95C11.635 123.15 11.665 123.37 11.665 123.61V125.42C11.665 125.66 11.635 125.88 11.595 126.08C11.445 126.75 10.885 127.1 10.165 127.1ZM16.7275 120.89C15.2775 120.89 14.1175 121.8 14.1175 123.3V125.72C14.1175 127.23 15.2775 128.13 16.7275 128.13C18.1575 128.13 19.3175 127.23 19.3175 125.72V123.3C19.3175 121.8 18.1575 120.89 16.7275 120.89ZM16.7275 127.1C16.0075 127.1 15.4375 126.75 15.2875 126.08C15.2475 125.88 15.2175 125.66 15.2175 125.42V123.61C15.2175 123.37 15.2475 123.15 15.2875 122.95C15.4375 122.27 16.0075 121.91 16.7275 121.91C17.4475 121.91 18.0075 122.27 18.1575 122.95C18.1975 123.15 18.2275 123.37 18.2275 123.61V125.42C18.2275 125.66 18.1975 125.88 18.1575 126.08C18.0075 126.75 17.4475 127.1 16.7275 127.1Z" fill="#ACACAC"/>
<path d="M3.90844 90.96L1.78844 94.32C1.51844 94.73 1.33844 95.26 1.33844 95.77C1.33844 97.33 2.48844 98.1 3.92844 98.1C5.37844 98.1 6.52844 97.33 6.52844 95.77C6.52844 94.32 5.49844 93.49 4.11844 93.52C3.89844 93.52 3.68844 93.57 3.48844 93.68L5.19844 90.96H3.90844ZM3.92844 97.11C3.08844 97.11 2.47844 96.64 2.47844 95.77C2.47844 94.9 3.07844 94.42 3.92844 94.42C4.76844 94.42 5.37844 94.9 5.37844 95.77C5.37844 96.64 4.77844 97.11 3.92844 97.11ZM10.165 90.89C8.715 90.89 7.555 91.8 7.555 93.3V95.72C7.555 97.23 8.715 98.13 10.165 98.13C11.595 98.13 12.755 97.23 12.755 95.72V93.3C12.755 91.8 11.595 90.89 10.165 90.89ZM10.165 97.1C9.445 97.1 8.875 96.75 8.725 96.08C8.685 95.88 8.655 95.66 8.655 95.42V93.61C8.655 93.37 8.685 93.15 8.725 92.95C8.875 92.27 9.445 91.91 10.165 91.91C10.885 91.91 11.445 92.27 11.595 92.95C11.635 93.15 11.665 93.37 11.665 93.61V95.42C11.665 95.66 11.635 95.88 11.595 96.08C11.445 96.75 10.885 97.1 10.165 97.1ZM16.7275 90.89C15.2775 90.89 14.1175 91.8 14.1175 93.3V95.72C14.1175 97.23 15.2775 98.13 16.7275 98.13C18.1575 98.13 19.3175 97.23 19.3175 95.72V93.3C19.3175 91.8 18.1575 90.89 16.7275 90.89ZM16.7275 97.1C16.0075 97.1 15.4375 96.75 15.2875 96.08C15.2475 95.88 15.2175 95.66 15.2175 95.42V93.61C15.2175 93.37 15.2475 93.15 15.2875 92.95C15.4375 92.27 16.0075 91.91 16.7275 91.91C17.4475 91.91 18.0075 92.27 18.1575 92.95C18.1975 93.15 18.2275 93.37 18.2275 93.61V95.42C18.2275 95.66 18.1975 95.88 18.1575 96.08C18.0075 96.75 17.4475 97.1 16.7275 97.1Z" fill="#ACACAC"/>
<path d="M6.77203 61H1.93203V62.03H5.19203L2.48203 68H3.66203L6.77203 61.17V61ZM10.165 60.89C8.715 60.89 7.555 61.8 7.555 63.3V65.72C7.555 67.23 8.715 68.13 10.165 68.13C11.595 68.13 12.755 67.23 12.755 65.72V63.3C12.755 61.8 11.595 60.89 10.165 60.89ZM10.165 67.1C9.445 67.1 8.875 66.75 8.725 66.08C8.685 65.88 8.655 65.66 8.655 65.42V63.61C8.655 63.37 8.685 63.15 8.725 62.95C8.875 62.27 9.445 61.91 10.165 61.91C10.885 61.91 11.445 62.27 11.595 62.95C11.635 63.15 11.665 63.37 11.665 63.61V65.42C11.665 65.66 11.635 65.88 11.595 66.08C11.445 66.75 10.885 67.1 10.165 67.1ZM16.7275 60.89C15.2775 60.89 14.1175 61.8 14.1175 63.3V65.72C14.1175 67.23 15.2775 68.13 16.7275 68.13C18.1575 68.13 19.3175 67.23 19.3175 65.72V63.3C19.3175 61.8 18.1575 60.89 16.7275 60.89ZM16.7275 67.1C16.0075 67.1 15.4375 66.75 15.2875 66.08C15.2475 65.88 15.2175 65.66 15.2175 65.42V63.61C15.2175 63.37 15.2475 63.15 15.2875 62.95C15.4375 62.27 16.0075 61.91 16.7275 61.91C17.4475 61.91 18.0075 62.27 18.1575 62.95C18.1975 63.15 18.2275 63.37 18.2275 63.61V65.42C18.2275 65.66 18.1975 65.88 18.1575 66.08C18.0075 66.75 17.4475 67.1 16.7275 67.1Z" fill="#ACACAC"/>
<path d="M5.12359 34.06C5.60359 33.77 5.94359 33.31 5.94359 32.71C5.94359 31.69 5.08359 30.89 3.78359 30.89C2.46359 30.89 1.60359 31.72 1.63359 32.73C1.63359 33.33 1.95359 33.78 2.42359 34.06C1.67359 34.41 1.18359 35.06 1.18359 35.91C1.18359 37.14 2.21359 38.11 3.78359 38.11C5.36359 38.11 6.37359 37.14 6.37359 35.89C6.36359 35.05 5.87359 34.41 5.12359 34.06ZM3.77359 33.71C3.16359 33.71 2.65359 33.34 2.65359 32.77C2.65359 32.18 3.14359 31.81 3.78359 31.81C4.39359 31.81 4.90359 32.17 4.90359 32.76C4.90359 33.35 4.41359 33.71 3.77359 33.71ZM3.78359 37.13C2.98359 37.13 2.32359 36.64 2.32359 35.88C2.32359 35.09 2.97359 34.57 3.77359 34.57C4.58359 34.57 5.24359 35.07 5.24359 35.86C5.24359 36.63 4.58359 37.13 3.78359 37.13ZM10.165 30.89C8.715 30.89 7.555 31.8 7.555 33.3V35.72C7.555 37.23 8.715 38.13 10.165 38.13C11.595 38.13 12.755 37.23 12.755 35.72V33.3C12.755 31.8 11.595 30.89 10.165 30.89ZM10.165 37.1C9.445 37.1 8.875 36.75 8.725 36.08C8.685 35.88 8.655 35.66 8.655 35.42V33.61C8.655 33.37 8.685 33.15 8.725 32.95C8.875 32.27 9.445 31.91 10.165 31.91C10.885 31.91 11.445 32.27 11.595 32.95C11.635 33.15 11.665 33.37 11.665 33.61V35.42C11.665 35.66 11.635 35.88 11.595 36.08C11.445 36.75 10.885 37.1 10.165 37.1ZM16.7275 30.89C15.2775 30.89 14.1175 31.8 14.1175 33.3V35.72C14.1175 37.23 15.2775 38.13 16.7275 38.13C18.1575 38.13 19.3175 37.23 19.3175 35.72V33.3C19.3175 31.8 18.1575 30.89 16.7275 30.89ZM16.7275 37.1C16.0075 37.1 15.4375 36.75 15.2875 36.08C15.2475 35.88 15.2175 35.66 15.2175 35.42V33.61C15.2175 33.37 15.2475 33.15 15.2875 32.95C15.4375 32.27 16.0075 31.91 16.7275 31.91C17.4475 31.91 18.0075 32.27 18.1575 32.95C18.1975 33.15 18.2275 33.37 18.2275 33.61V35.42C18.2275 35.66 18.1975 35.88 18.1575 36.08C18.0075 36.75 17.4475 37.1 16.7275 37.1Z" fill="#ACACAC"/>
<path d="M3.88773 8L5.99773 4.65C6.30773 4.18 6.46773 3.73 6.46773 3.17C6.46773 1.61 5.31773 0.84 3.87773 0.84C2.42773 0.84 1.27773 1.61 1.27773 3.17C1.27773 4.62 2.31773 5.45 3.71773 5.42C3.94773 5.42 4.18773 5.36 4.37773 5.25L2.61773 8H3.88773ZM3.87773 1.83C4.71773 1.83 5.31773 2.3 5.31773 3.17C5.31773 4.04 4.71773 4.52 3.87773 4.52C3.03773 4.52 2.42773 4.04 2.42773 3.17C2.42773 2.3 3.02773 1.83 3.87773 1.83ZM10.165 0.89C8.715 0.89 7.555 1.8 7.555 3.3V5.72C7.555 7.23 8.715 8.13 10.165 8.13C11.595 8.13 12.755 7.23 12.755 5.72V3.3C12.755 1.8 11.595 0.89 10.165 0.89ZM10.165 7.1C9.445 7.1 8.875 6.75 8.725 6.08C8.685 5.88 8.655 5.66 8.655 5.42V3.61C8.655 3.37 8.685 3.15 8.725 2.95C8.875 2.27 9.445 1.91 10.165 1.91C10.885 1.91 11.445 2.27 11.595 2.95C11.635 3.15 11.665 3.37 11.665 3.61V5.42C11.665 5.66 11.635 5.88 11.595 6.08C11.445 6.75 10.885 7.1 10.165 7.1ZM16.7275 0.89C15.2775 0.89 14.1175 1.8 14.1175 3.3V5.72C14.1175 7.23 15.2775 8.13 16.7275 8.13C18.1575 8.13 19.3175 7.23 19.3175 5.72V3.3C19.3175 1.8 18.1575 0.89 16.7275 0.89ZM16.7275 7.1C16.0075 7.1 15.4375 6.75 15.2875 6.08C15.2475 5.88 15.2175 5.66 15.2175 5.42V3.61C15.2175 3.37 15.2475 3.15 15.2875 2.95C15.4375 2.27 16.0075 1.91 16.7275 1.91C17.4475 1.91 18.0075 2.27 18.1575 2.95C18.1975 3.15 18.2275 3.37 18.2275 3.61V5.42C18.2275 5.66 18.1975 5.88 18.1575 6.08C18.0075 6.75 17.4475 7.1 16.7275 7.1Z" fill="#ACACAC"/>
<path d="M29 5L334 4.99997" stroke="#006685" stroke-opacity="0.2" stroke-dasharray="2 2"/>
<path d="M29 35L334 34.9999" stroke="#006685" stroke-opacity="0.2" stroke-dasharray="2 2"/>
<path d="M29 65L334 64.9999" stroke="#006685" stroke-opacity="0.2" stroke-dasharray="2 2"/>
<path d="M29 95.0002L334 95.0002" stroke="#006685" stroke-opacity="0.2" stroke-dasharray="2 2"/>
<path d="M29 125L334 125" stroke="#006685" stroke-opacity="0.2" stroke-dasharray="2 2"/>
<path d="M29 155L334 155" stroke="#006685" stroke-opacity="0.2" stroke-dasharray="2 2"/>
<path d="M29 185L334 185" stroke="#006685" stroke-opacity="0.2" stroke-dasharray="2 2"/>
<path d="M28 185H334" stroke="#9EBFD2" stroke-width="1.6"/>
<circle cx="179" cy="57" r="8" fill="#7D7D7D"/>
<path d="M179.869 59.2356C179.869 57.2826 182 56.5674 182 54.8345C182 52.9228 180.588 51.96 178.959 52.0013C177.344 52.0425 176 52.964 176 54.917H177.67C177.738 54.2018 178.348 53.8442 178.946 53.8442C179.964 53.8442 180.235 54.752 179.91 55.4809C179.367 56.7049 178.077 57.0763 178.077 59.2356H179.869ZM179 62C179.638 62 180.1 61.5736 180.1 60.9547C180.1 60.3083 179.638 59.8957 179 59.8957C178.362 59.8957 177.873 60.3083 177.873 60.9547C177.873 61.5736 178.362 62 179 62Z" fill="white"/>
<circle cx="178" cy="133" r="8" fill="#7D7D7D"/>
<path d="M178.869 135.236C178.869 133.283 181 132.567 181 130.834C181 128.923 179.588 127.96 177.959 128.001C176.344 128.043 175 128.964 175 130.917H176.67C176.738 130.202 177.348 129.844 177.946 129.844C178.964 129.844 179.235 130.752 178.91 131.481C178.367 132.705 177.077 133.076 177.077 135.236H178.869ZM178 138C178.638 138 179.1 137.574 179.1 136.955C179.1 136.308 178.638 135.896 178 135.896C177.362 135.896 176.873 136.308 176.873 136.955C176.873 137.574 177.362 138 178 138Z" fill="white"/>
<path d="M135 95L171 62" stroke="#3BB012" stroke-width="2" stroke-dasharray="4 4"/>
<path d="M170 128L134 95" stroke="#D74025" stroke-width="2" stroke-dasharray="4 4"/>
<circle cx="133.615" cy="94.6154" r="9.61539" fill="#7D7D7D"/>
<path d="M134.514 97.6827C134.514 95.3391 137 94.4809 137 92.4014C137 90.1073 135.353 88.952 133.452 89.0015C131.568 89.051 130 90.1568 130 92.5004H131.948C132.027 91.6422 132.74 91.2131 133.437 91.2131C134.624 91.2131 134.941 92.3023 134.561 93.1771C133.928 94.6459 132.423 95.0915 132.423 97.6827H134.514ZM133.5 101C134.244 101 134.783 100.488 134.783 99.7457C134.783 98.97 134.244 98.4749 133.5 98.4749C132.756 98.4749 132.186 98.97 132.186 99.7457C132.186 100.488 132.756 101 133.5 101Z" fill="white"/>
</svg>
