<svg width="18" height="18" viewBox="0 0 18 18" fill="none" xmlns="http://www.w3.org/2000/svg">
<path fill-rule="evenodd" clip-rule="evenodd" d="M6.10704 0.18441C3.22861 0.886421 0.949093 3.11653 0.188945 5.97418C-0.065989 6.93298 -0.0622661 9.15803 0.19599 10.1502C0.891675 12.8222 3.24389 15.1756 5.91458 15.8716C6.93644 16.1379 9.09009 16.1349 10.1419 15.8659C10.591 15.751 11.3421 15.4475 11.811 15.1916L12.6635 14.726L14.3037 16.363L15.9438 18L16.9719 16.9714L18 15.9428L16.3714 14.3095L14.7428 12.6761L15.205 11.7569C16.0485 10.0796 16.3013 7.93952 15.8715 6.11487C15.3571 3.93171 13.6195 1.79642 11.5566 0.812748C10.9352 0.516331 10.1098 0.208744 9.7225 0.128955C8.78611 -0.0637357 7.01327 -0.0366064 6.10704 0.18441ZM11.6668 4.42028C14.8307 7.64623 12.5144 13.2046 8.10079 13.2129C5.16888 13.2181 2.84669 10.9351 2.85299 7.96292C2.85904 5.14674 5.17378 3.09418 7.91019 2.79232C9.22022 2.64718 10.8004 3.53679 11.6668 4.42028Z" fill="#2C2C2C"/>
<circle cx="8" cy="8" r="2" stroke="#2C2C2C" stroke-width="2"/>
</svg>
