<svg width="24" height="16" viewBox="0 0 24 16" fill="none" xmlns="http://www.w3.org/2000/svg">
<path d="M23.0175 9.93097C22.5387 9.23977 22.1076 8.57439 21.6345 7.94476C20.2534 6.09163 18.6567 4.47287 16.6442 3.37648C12.8519 1.29096 9.2675 1.79943 5.85479 4.32589C5.09969 4.88714 4.40849 5.53619 3.79458 6.26046C3.60382 6.47894 3.49508 6.51668 3.33294 6.23662C3.11458 5.85719 2.87641 5.49052 2.61949 5.13825C2.41538 4.86216 2.44208 4.67745 2.68053 4.42321C7.58309 -0.81045 14.3169 -1.51754 19.7746 2.93355C21.3345 4.22972 22.6867 5.77573 23.7806 7.51375C23.9224 7.70221 23.9995 7.93473 23.9995 8.17417C23.9995 8.41361 23.9224 8.64613 23.7806 8.83458C23.5231 9.1921 23.277 9.54763 23.0175 9.93097Z" fill="#ACACAC"/>
<path d="M11.9286 15.724C8.87385 15.6763 6.21808 14.6046 3.88116 12.7512C2.48301 11.621 1.26131 10.3034 0.253584 8.83877C-0.0709888 8.38 -0.095809 7.9616 0.247856 7.50833C0.419689 7.28445 0.587703 7.05874 0.742352 6.82385C0.897001 6.58896 1.01537 6.51555 1.21776 6.83302C2.03826 8.11788 3.02352 9.29852 4.15036 10.3472C5.88778 11.9547 7.84667 13.1971 10.26 13.6283C13.1162 14.1348 15.6555 13.3953 17.9791 11.83C18.8067 11.2777 19.5647 10.6348 20.2377 9.91413C20.4095 9.73062 20.5145 9.69575 20.6654 9.93064C20.8774 10.2644 21.1074 10.5872 21.3546 10.8977C21.5933 11.1895 21.5685 11.3932 21.284 11.663C19.2697 13.5769 16.9691 14.9826 14.1529 15.5111C13.42 15.6482 12.6753 15.7194 11.9286 15.724Z" fill="#ACACAC"/>
<path d="M12.01 4.13774C11.2743 4.13539 10.5544 4.37527 9.94121 4.8271C9.32804 5.27894 8.84905 5.92247 8.56471 6.6765C8.28038 7.43052 8.20343 8.26124 8.34358 9.06381C8.48373 9.86638 8.83469 10.6048 9.35219 11.186C9.86968 11.7671 10.5305 12.1649 11.2513 12.3292C11.972 12.4934 12.7204 12.4167 13.402 12.1088C14.0836 11.8008 14.6678 11.2755 15.0809 10.599C15.494 9.92247 15.7175 9.12514 15.7232 8.30763C15.7306 7.76146 15.6399 7.21913 15.4565 6.71237C15.273 6.20561 15.0004 5.7446 14.6546 5.35632C14.3089 4.96803 13.8969 4.66026 13.4428 4.45103C12.9887 4.24179 12.5016 4.13528 12.01 4.13774ZM12.01 10.3096C11.6484 10.3112 11.2945 10.1933 10.9932 9.971C10.6919 9.74868 10.4569 9.43193 10.3179 9.06093C10.1789 8.68992 10.1423 8.28141 10.2126 7.88723C10.283 7.49305 10.4571 7.13097 10.713 6.84696C10.9688 6.56295 11.2949 6.3698 11.6497 6.29203C12.0045 6.21427 12.3721 6.25539 12.7059 6.41018C13.0396 6.56496 13.3244 6.82644 13.5242 7.16142C13.724 7.4964 13.8297 7.88978 13.8279 8.29163C13.8301 8.55781 13.7844 8.82179 13.6936 9.0681C13.6028 9.31442 13.4686 9.5381 13.2989 9.72605C13.1293 9.91399 12.9276 10.0624 12.7056 10.1626C12.4837 10.2628 12.246 10.3128 12.0064 10.3096H12.01Z" fill="#ACACAC"/>
</svg>
