<svg width="40" height="40" viewBox="0 0 40 40" fill="none" xmlns="http://www.w3.org/2000/svg">
<circle cx="20" cy="20" r="18.75" fill="white" stroke="#3EA3CE" stroke-width="2.5"/>
<path fill-rule="evenodd" clip-rule="evenodd" d="M18.1562 10.2047C15.1388 10.7054 12.5219 12.2361 10.7195 14.5546C9.35092 16.315 8.53497 18.4591 8.40522 20.6362C8.34154 21.704 8.3917 21.8755 8.84632 22.1441C9.11009 22.2999 9.3125 22.3116 11.7754 22.3118L14.4211 22.3122V21.3643V20.4165H12.3678H10.3146L10.3746 20.0502C10.6323 18.4782 11.2383 17.0585 12.2001 15.7735L12.4827 15.3959L13.5412 16.4188L14.5997 17.4416L15.2875 16.7752L15.9753 16.1087L14.9197 15.0832L13.8639 14.0576L14.2537 13.7837C15.58 12.8517 17.082 12.2492 18.6676 12.0131L19.0456 11.9568V13.3862V14.8155H20.0238H21.0021V13.3862V11.9568L21.38 12.0138C22.1242 12.1261 22.9267 12.3431 23.7 12.6411L24.4859 12.9439L25.1938 12.2641L25.9016 11.5842L24.949 11.1374C23.3811 10.402 21.804 10.0711 19.9349 10.0854C19.3235 10.0901 18.5231 10.1437 18.1562 10.2047ZM23.3145 16.7541L19.18 20.7608L19.8689 21.4282L20.5577 22.0956L24.02 18.7418C26.981 15.8735 27.5018 15.4038 27.6181 15.4974C27.8705 15.7003 28.6832 17.008 28.9787 17.6869C29.2671 18.3491 29.5546 19.3277 29.673 20.0502L29.733 20.4165H27.7687H25.8044V21.3643V22.3122L28.3612 22.3118C30.736 22.3116 30.9382 22.2996 31.2013 22.1441C31.6559 21.8755 31.7061 21.704 31.6424 20.6362C31.482 17.9455 30.3508 15.4758 28.3571 13.4637C27.9668 13.0698 27.6028 12.7475 27.5482 12.7475C27.4936 12.7475 25.5884 14.5505 23.3145 16.7541Z" fill="#3EA3CE"/>
<rect x="14.9609" y="25.9082" width="9.69186" height="1.61531" rx="0.807655" fill="#3EA3CE"/>
</svg>
