<svg width="260" height="130" viewBox="0 0 260 130" fill="none" xmlns="http://www.w3.org/2000/svg">
<path d="M164 127C164 117.983 160.418 109.335 154.042 102.958C147.665 96.5821 139.017 93 130 93C120.983 93 112.335 96.5821 105.958 102.958C99.5821 109.335 96 117.983 96 127L130 127H164Z" fill="#F9F9F9"/>
<path d="M0 130C3.01418e-06 95.5218 13.6964 62.4558 38.0761 38.0761C62.4559 13.6964 95.5219 -4.11148e-07 130 0V13C98.9697 13 69.2103 25.3267 47.2685 47.2685C25.3268 69.2103 13 98.9697 13 130H0Z" fill="#F9F9F9"/>
<path d="M132.658 0.0273438C148.765 0.356707 164.67 3.67702 179.564 9.8191L174.607 21.8372C161.203 16.3093 146.889 13.3211 132.393 13.0246L132.658 0.0273438Z" fill="#EDEDED"/>
<path d="M181.963 10.8359C196.73 17.2754 210.172 26.4036 221.603 37.7554L212.443 46.9798C202.155 36.7631 190.057 28.5478 176.767 22.7523L181.963 10.8359Z" fill="#DDDDDD"/>
<path d="M223.355 39.5312C234.566 51.1002 243.53 64.6524 249.789 79.4971L237.81 84.5475C232.177 71.1872 224.11 58.9903 214.02 48.5782L223.355 39.5312Z" fill="#ACACAC"/>
<path d="M250.946 82.3359C256.853 97.3241 259.923 113.28 259.999 129.39L246.999 129.451C246.93 114.952 244.168 100.592 238.852 87.1025L250.946 82.3359Z" fill="#707070"/>
</svg>
