<svg width="29" height="16" viewBox="0 0 29 16" fill="none" xmlns="http://www.w3.org/2000/svg">
<path fill-rule="evenodd" clip-rule="evenodd" d="M11.9149 0.187376C8.2461 0.815301 5.03771 2.84372 2.84626 5.75124C1.18227 7.95886 0.193878 10.7128 0.0361175 13.443C-0.0890701 14.8887 0.109191 15.1402 0.661946 15.477C1.03745 15.7399 1.42881 15.7396 4.42333 15.7399H7.75288V14.338V12.9611H5.03041H2.80236L2.85243 12.6732C3.16579 10.7018 3.86099 9.03362 5.03041 7.42225L5.22278 7.16461L6.33845 8.29845L7.79245 9.71833L8.8042 8.67703L9.72733 7.76128L8.34633 6.37289L7.18687 5.20605L7.52658 4.95496C9.32854 3.75119 10.6579 3.14562 12.7404 2.8059L12.9767 2.77399V4.35602V6.3443H14.379H15.7501V4.34039V2.77789L16.0743 2.83649C16.9792 2.97729 17.806 3.21282 18.7462 3.58649L19.844 4.02014L20.7737 3.08655L21.8557 2.02796L20.3987 1.31309C18.4922 0.390816 16.5151 -0.0173721 14.2424 0.000565491C13.499 0.00650868 12.3609 0.110979 11.9149 0.187376ZM18.1525 8.48102L13.0509 13.5904L14.0743 14.606L15.0157 15.5552L19.3868 11.1763C23.1302 7.53491 23.4681 7.10452 23.5587 7.23883C23.9186 7.77249 24.7228 9.00463 25.0822 9.85602C25.4328 10.6864 25.7194 11.6648 25.8634 12.5709L25.9103 12.9537H23.7697H21.1915V14.3482V15.7427H24.4962C27.3837 15.7424 27.7231 15.7072 28.0431 15.5123C28.5958 15.1755 28.8009 14.9498 28.6954 13.5435C28.4056 9.67932 27.0492 6.80506 24.6251 4.2818C24.1505 3.78776 23.754 3.35992 23.4962 3.32867C23.1525 3.32867 20.9172 5.71754 18.1525 8.48102Z" fill="#00A6CA"/>
</svg>
