<svg width="260" height="130" viewBox="0 0 260 130" fill="none" xmlns="http://www.w3.org/2000/svg">
<path d="M164 127C164 117.983 160.418 109.335 154.042 102.958C147.665 96.5821 139.017 93 130 93C120.983 93 112.335 96.5821 105.958 102.958C99.5821 109.335 96 117.983 96 127L130 127H164Z" fill="#EDEDED"/>
<path d="M0 130C3.01418e-06 95.5218 13.6964 62.4558 38.0761 38.0761C62.4559 13.6964 95.5219 -4.11148e-07 130 0V13C98.9697 13 69.2103 25.3267 47.2685 47.2685C25.3268 69.2103 13 98.9697 13 130H0Z" fill="#E15825"/>
<path d="M132.658 0.0273438C148.765 0.356707 164.67 3.67702 179.564 9.8191L174.607 21.8372C161.203 16.3093 146.889 13.3211 132.393 13.0246L132.658 0.0273438Z" fill="#F18200"/>
<path d="M181.962 10.8369C196.729 17.2764 210.171 26.4046 221.602 37.7564L212.442 46.9808C202.154 36.7641 190.056 28.5487 176.766 22.7532L181.962 10.8369Z" fill="#FCD800"/>
<path d="M223.355 39.5303C234.566 51.0993 243.53 64.6514 249.789 79.4961L237.81 84.5465C232.177 71.1862 224.11 58.9893 214.02 48.5773L223.355 39.5303Z" fill="#A9D161"/>
<path d="M250.946 82.334C256.853 97.3222 259.923 113.278 259.999 129.388L246.999 129.449C246.93 114.95 244.168 100.59 238.852 87.1006L250.946 82.334Z" fill="#009900"/>
</svg>
