<svg width="36" height="31" viewBox="0 0 36 31" fill="none" xmlns="http://www.w3.org/2000/svg">
<circle cx="14" cy="14" r="14" fill="#FCD800"/>
<path fill-rule="evenodd" clip-rule="evenodd" d="M30.8577 23.1172L34.7761 19.7041L36 21.4161L29.7543 26.395L29.1423 25.539L25.6708 19.7773L27.4353 18.5902L29.0709 21.7839C29.8294 19.5686 29.7988 17.1702 28.9841 14.9736C28.1694 12.777 26.6178 10.9094 24.5783 9.67058C22.5388 8.43173 20.1296 7.89338 17.7371 8.14191C15.3447 8.39043 13.1078 9.41143 11.3852 11.0411C9.6626 12.6707 8.55424 14.8146 8.23792 17.1287C7.9216 19.4428 8.41565 21.793 9.64082 23.8023C10.866 25.8116 12.7513 27.3634 14.9942 28.2089C17.237 29.0543 19.7076 29.1444 22.0093 28.4646L22.644 30.4563C19.8517 31.2826 16.8528 31.1642 14.1386 30.1207C11.4244 29.0771 9.15586 27.1702 7.70463 24.7124C6.2534 22.2545 5.70551 19.3915 6.15072 16.5923C6.59593 13.7931 8.00785 11.2236 10.1552 9.30495C12.3025 7.38626 15.0579 6.23205 17.9699 6.03141C20.882 5.83078 23.7781 6.59561 26.1838 8.20062C28.5894 9.80563 30.3621 12.1556 31.2112 14.8657C32.0604 17.5757 31.9357 20.4851 30.8577 23.1172Z" fill="#00A6CA"/>
<path d="M18.5856 24.2903L18.6292 24.3637H18.7145H20.1922H20.4637L20.3192 24.1339L17.6739 19.9269C18.362 19.8074 18.931 19.5732 19.3735 19.2177L19.3737 19.2175C19.8497 18.8334 20.1315 18.3096 20.2238 17.6582H21.9741H22.1241V17.5082V16.6141V16.4641H21.9741H20.1895C20.104 16.0014 19.9139 15.6065 19.6186 15.2833H21.9741H22.1241V15.1333V14.2393V14.0893H21.9741H15.9766H15.8266V14.2393V15.1333V15.2833H15.9766H16.2953C17.0166 15.2833 17.5565 15.3983 17.93 15.6127L17.93 15.6127L17.9313 15.6134C18.2558 15.7953 18.4741 16.0746 18.5839 16.4641H15.9766H15.8266V16.6141V17.5082V17.6582H15.9766H18.6111C18.5241 18.0846 18.3151 18.3687 17.9939 18.5344L17.9939 18.5344L17.9926 18.535C17.6186 18.7326 17.0581 18.839 16.2953 18.839H15.9766H15.8266V18.989V19.6037V19.6448L15.8476 19.6803L18.5856 24.2903Z" fill="#00A6CA" stroke="#00A6CA" stroke-width="0.3"/>
</svg>
