<svg width="40" height="40" viewBox="0 0 40 40" fill="none" xmlns="http://www.w3.org/2000/svg">
<g clip-path="url(#clip0_1656_13574)">
<path fill-rule="evenodd" clip-rule="evenodd" d="M19.362 0.303053C19.1494 0.473179 18.1653 2.12572 17.1747 3.97563C16.184 5.82539 15.2854 7.37335 15.1773 7.41553C15.0693 7.4577 13.4327 7.03076 11.5405 6.46683C9.64834 5.9029 7.81537 5.44156 7.46738 5.44156C6.61459 5.44156 5.94034 6.09327 5.94034 6.91744C5.94034 7.22859 6.64045 9.89441 7.49598 12.8414L9.05178 18.1993L10.1346 17.5966C10.9565 17.1394 11.288 16.8524 11.5096 16.4071L11.8015 15.8206L10.9374 12.7827C10.4621 11.1119 10.1033 9.71449 10.1398 9.67713C10.1765 9.63993 11.4122 9.96742 12.886 10.4051C15.9033 11.3009 16.6437 11.3782 17.1518 10.8504C17.3374 10.6579 18.1087 9.32816 18.8658 7.89556C19.623 6.4631 20.2768 5.29166 20.319 5.29244C20.361 5.29321 21.0457 6.52348 21.8407 8.02646C22.6354 9.52942 23.4253 10.8585 23.5954 10.9799C24.1197 11.3535 24.99 11.2319 27.757 10.399C29.2216 9.95824 30.4516 9.62981 30.4904 9.66951C30.5296 9.70904 30.1751 11.1029 29.703 12.767C28.5613 16.792 28.4013 16.411 32.101 18.4803C34.7444 19.959 34.8711 20.0507 34.5261 20.2375C32.039 21.585 29.6593 22.9671 29.39 23.22C28.7693 23.8037 28.8036 24.2351 29.7233 27.4052C30.1977 29.0407 30.5631 30.4021 30.5354 30.4304C30.5076 30.4585 29.1856 30.095 27.5976 29.6224C24.4946 28.699 23.9934 28.66 23.4204 29.2973C23.2486 29.4887 22.4987 30.7836 21.7541 32.1747C21.0094 33.5658 20.3588 34.704 20.3086 34.704C20.2581 34.704 19.5866 33.5247 18.8164 32.0836C18.0463 30.6424 17.2861 29.3434 17.1274 29.1973C16.5537 28.669 15.9354 28.7335 12.9819 29.6292C11.4282 30.1004 10.1345 30.4628 10.1065 30.4344C10.0786 30.4061 10.4398 29.0335 10.9089 27.3841C11.6482 24.7852 11.7401 24.3184 11.5988 23.8824C11.509 23.6056 11.3176 23.2738 11.1736 23.1449C10.8722 22.8754 1.63898 17.7004 1.58345 17.7699C1.56311 17.7951 1.19875 18.4622 0.773356 19.2521L0.00012207 20.6884L2.54958 22.113C3.95179 22.8966 5.76595 23.9153 6.58111 24.3767L8.06332 25.2163L7.85147 25.952C7.73491 26.3569 7.25721 28.011 6.78989 29.6279C6.32259 31.2449 5.94034 32.7719 5.94034 33.021C5.94034 33.9542 6.63601 34.704 7.50164 34.704C7.67938 34.704 9.47717 34.2113 11.4969 33.609C13.5165 33.0068 15.2178 32.5692 15.2776 32.6363C15.3373 32.7034 16.1918 34.2643 17.1767 36.1047C18.1614 37.9453 19.1068 39.5739 19.2776 39.7237C19.6974 40.0921 20.9408 40.0921 21.3596 39.7237C21.5298 39.5739 22.4727 37.9453 23.4547 36.1047C24.4367 34.2643 25.2904 32.7046 25.3518 32.6391C25.4133 32.5735 27.1108 33.0111 29.1246 33.6114C31.1381 34.2117 32.9371 34.7031 33.1226 34.7034C33.9967 34.7047 34.6976 33.961 34.6976 33.0321C34.6976 32.7892 34.2191 30.947 33.6341 28.9387C32.6723 25.6353 32.5946 25.2687 32.8193 25.0947C32.9558 24.9889 34.543 24.0867 36.3461 23.0899C39.295 21.4597 39.6474 21.2221 39.8504 20.7277C40.1307 20.0452 40.0097 19.2948 39.552 18.8757C39.364 18.7036 37.7301 17.7404 35.9213 16.7356C34.1126 15.7307 32.6187 14.8947 32.6016 14.8779C32.5844 14.8609 33.0491 13.1849 33.634 11.1533C34.219 9.12161 34.6976 7.21006 34.6976 6.90545C34.6976 6.07895 34.0181 5.44078 33.1416 5.44373C32.7774 5.44498 30.9664 5.90027 29.1167 6.45547C27.2671 7.01068 25.6494 7.4633 25.522 7.46113C25.3787 7.45864 24.5987 6.1521 23.4776 4.03556C22.4804 2.15375 21.4903 0.474579 21.2771 0.303987C20.7713 -0.101017 19.8673 -0.101329 19.362 0.303053Z" fill="#00A6CA"/>
<path d="M16.8047 19.8242C17.7339 19.8242 18.4873 19.0577 18.4873 18.1121C18.4873 17.1665 17.7339 16.3999 16.8047 16.3999C15.8754 16.3999 15.1221 17.1665 15.1221 18.1121C15.1221 19.0577 15.8754 19.8242 16.8047 19.8242Z" fill="#00A6CA"/>
<path d="M22.8468 25.978C23.7761 25.978 24.5294 25.2115 24.5294 24.2659C24.5294 23.3203 23.7761 22.5537 22.8468 22.5537C21.9175 22.5537 21.1642 23.3203 21.1642 24.2659C21.1642 25.2115 21.9175 25.978 22.8468 25.978Z" fill="#00A6CA"/>
<path d="M25.0725 15.3844L13.6035 25.0239L15.1061 26.875L26.575 17.2355L25.0725 15.3844Z" fill="#00A6CA"/>
</g>
<defs>
<clipPath id="clip0_1656_13574">
<rect width="40" height="40" fill="white"/>
</clipPath>
</defs>
</svg>
