<svg width="14" height="14" viewBox="0 0 14 14" fill="none" xmlns="http://www.w3.org/2000/svg">
<path d="M7.54813 1.36715L8.92424 4.36125C8.98407 4.5409 9.16356 4.66066 9.34305 4.72054L12.4543 5.1996C12.9927 5.1996 13.1722 5.79842 12.8132 6.15771L10.5397 8.49311C10.42 8.61287 10.3602 8.8524 10.3602 9.03205L10.8987 12.2657C10.9585 12.7447 10.4798 13.1639 10.061 12.9244L7.24898 11.3674C7.06949 11.2477 6.89 11.2477 6.71051 11.3674L3.89846 12.9244C3.47965 13.1639 2.94117 12.8046 3.06083 12.2657L3.59931 9.03205C3.65914 8.8524 3.53948 8.61287 3.41982 8.49311L1.14625 6.15771C0.847099 5.79842 1.02659 5.1996 1.50524 5.13972L4.61643 4.66066C4.79592 4.66066 4.97542 4.48102 5.03525 4.30137L6.41135 1.30727C6.71051 0.888096 7.30881 0.888096 7.54813 1.36715Z" fill="url(#paint0_linear_9242_19719)" stroke="url(#paint1_linear_9242_19719)" stroke-width="0.697767"/>
<defs>
<linearGradient id="paint0_linear_9242_19719" x1="3.99153" y1="3.69469" x2="10.5795" y2="11.4738" gradientUnits="userSpaceOnUse">
<stop stop-color="#FCD800"/>
<stop offset="1" stop-color="#FF9900"/>
</linearGradient>
<linearGradient id="paint1_linear_9242_19719" x1="2.49577" y1="2.19764" x2="9.0856" y2="13.5703" gradientUnits="userSpaceOnUse">
<stop stop-color="#FF8A00"/>
<stop offset="0.503125" stop-color="#FFBF1C"/>
<stop offset="1" stop-color="#EFB623"/>
</linearGradient>
</defs>
</svg>
