<svg width="32" height="31" viewBox="0 0 32 31" fill="none" xmlns="http://www.w3.org/2000/svg">
<circle cx="14" cy="14" r="14" fill="#FCD800"/>
<path fill-rule="evenodd" clip-rule="evenodd" d="M14.1622 19.0085C14.1622 18.4657 14.6058 18.0256 15.1532 18.0256H24.5125C25.0598 18.0256 25.5035 18.4657 25.5035 19.0085C25.5035 19.5514 25.0598 19.9915 24.5125 19.9915H15.1532C14.6058 19.9915 14.1622 19.5514 14.1622 19.0085Z" fill="#00A6CA"/>
<path fill-rule="evenodd" clip-rule="evenodd" d="M14.1622 22.9402C14.1622 22.3973 14.6058 21.9573 15.1532 21.9573H24.5125C25.0598 21.9573 25.5035 22.3973 25.5035 22.9402C25.5035 23.483 25.0598 23.9231 24.5125 23.9231H15.1532C14.6058 23.9231 14.1622 23.483 14.1622 22.9402Z" fill="#00A6CA"/>
<path fill-rule="evenodd" clip-rule="evenodd" d="M24.0721 26.8718C24.0721 26.329 24.5158 25.8889 25.0631 25.8889H31.009C31.5563 25.8889 32 26.329 32 26.8718C32 27.4146 31.5563 27.8547 31.009 27.8547H25.0631C24.5158 27.8547 24.0721 27.4146 24.0721 26.8718Z" fill="#00A6CA"/>
<path fill-rule="evenodd" clip-rule="evenodd" d="M28.036 30.8034C27.4887 30.8034 27.045 30.3634 27.045 29.8205V23.9231C27.045 23.3802 27.4887 22.9402 28.036 22.9402C28.5833 22.9402 29.027 23.3802 29.027 23.9231V29.8205C29.027 30.3634 28.5833 30.8034 28.036 30.8034Z" fill="#00A6CA"/>
<path fill-rule="evenodd" clip-rule="evenodd" d="M15.7299 8.57704C16.1036 8.20726 16.6098 8 17.1371 8H27.2338C28.3311 8 29.2252 8.88099 29.2252 9.97337V21.0878H26.8468V10.359H18.3263V14.094C18.3263 14.463 18.1717 14.773 18.1043 14.9013C18.0105 15.0802 17.8925 15.2551 17.7707 15.4084C17.651 15.5592 17.4989 15.7251 17.3241 15.866C17.2366 15.9365 17.1204 16.0195 16.9798 16.0893C16.8494 16.1541 16.6246 16.2444 16.3395 16.245C16.3393 16.245 16.3397 16.245 16.3395 16.245C16.3388 16.245 16.3376 16.245 16.3368 16.245L12.3784 16.2538V28.641H24.8271V31H11.9914C10.8941 31 10 30.119 10 29.0266V15.0655C10 14.5413 10.2105 14.0391 10.5842 13.6692L15.7299 8.57704ZM15.9479 11.6936L13.7266 13.8918L15.9479 13.8869V11.6936Z" fill="#00A6CA"/>
</svg>
