<svg width="50" height="48" viewBox="0 0 50 48" fill="none" xmlns="http://www.w3.org/2000/svg">
<path d="M47.9828 22.4L40.0643 18.0756L42.5993 9.42675C42.7009 9.07914 42.7072 8.71058 42.6175 8.3597C42.5277 8.00881 42.3452 7.68854 42.0892 7.43244C41.8331 7.17634 41.5128 6.99386 41.1619 6.90411C40.811 6.81436 40.4425 6.82066 40.0948 6.92234L31.446 9.45734L27.1293 1.54645C26.9553 1.22905 26.6991 0.964258 26.3877 0.779811C26.0762 0.595365 25.7209 0.498047 25.359 0.498047C24.997 0.498047 24.6417 0.595365 24.3302 0.779811C24.0188 0.964258 23.7627 1.22905 23.5887 1.54645L19.2643 9.45351L10.6231 6.92234C10.2755 6.82066 9.90691 6.81436 9.55602 6.90411C9.20514 6.99386 8.88487 7.17634 8.62877 7.43244C8.37268 7.68854 8.19019 8.00881 8.10044 8.3597C8.01069 8.71058 8.01699 9.07914 8.11867 9.42675L11.8428 22.0253L14.0107 20.84C14.4139 20.6189 14.7295 20.2669 14.9054 19.8421C15.0813 19.4173 15.107 18.9452 14.9781 18.5038L13.0204 11.8317L19.6887 13.7856C20.13 13.9152 20.6024 13.8899 21.0274 13.7139C21.4524 13.538 21.8043 13.2219 22.0248 12.8182L25.359 6.71969L28.6931 12.8144C28.9136 13.2181 29.2656 13.5341 29.6906 13.7101C30.1155 13.8861 30.5879 13.9114 31.0293 13.7817L37.6975 11.8279L35.7437 18.4962C35.6148 18.9375 35.6404 19.4096 35.8163 19.8345C35.9922 20.2593 36.3078 20.6113 36.711 20.8323L42.8095 24.155L36.7148 27.4891C36.3117 27.7101 35.996 28.0622 35.8201 28.487C35.6442 28.9118 35.6186 29.3839 35.7475 29.8253L37.7013 36.4935L31.0331 34.555C30.5917 34.4254 30.1194 34.4506 29.6944 34.6266C29.2694 34.8026 28.9174 35.1187 28.6969 35.5223L25.3628 41.617L22.0248 35.5262C21.8033 35.1235 21.4512 34.8083 21.0265 34.6324C20.6019 34.4566 20.13 34.4306 19.6887 34.5588L13.0204 36.5126L14.9743 29.8444C15.1031 29.403 15.0775 28.9309 14.9016 28.5061C14.7257 28.0813 14.4101 27.7293 14.0069 27.5082L2.89955 21.4135L0.964844 24.9617L10.646 30.2726L8.11102 38.9215C8.0104 39.2694 8.00522 39.638 8.09604 39.9886C8.18686 40.3392 8.37033 40.6589 8.62721 40.9142C8.88409 41.1695 9.20492 41.351 9.55608 41.4397C9.90723 41.5284 10.2758 41.521 10.6231 41.4182L19.2719 38.8832L23.5963 46.7903C23.7703 47.1077 24.0264 47.3725 24.3379 47.5569C24.6493 47.7414 25.0046 47.8387 25.3666 47.8387C25.7286 47.8387 26.0839 47.7414 26.3953 47.5569C26.7068 47.3725 26.9629 47.1077 27.1369 46.7903L31.4613 38.8832L40.1101 41.4182C40.4577 41.5199 40.8263 41.5262 41.1772 41.4364C41.5281 41.3467 41.8483 41.1642 42.1044 40.9081C42.3605 40.652 42.543 40.3317 42.6328 39.9809C42.7225 39.63 42.7162 39.2614 42.6145 38.9138L40.0643 30.2726L47.9713 25.9482C48.2887 25.7742 48.5535 25.5181 48.738 25.2066C48.9224 24.8952 49.0197 24.5399 49.0197 24.1779C49.0197 23.816 48.9224 23.4607 48.738 23.1492C48.5535 22.8378 48.2887 22.5816 47.9713 22.4076L47.9828 22.4ZM27.374 32.2417V28.2117H23.344V32.2417H27.374ZM27.374 16.1026H23.344V24.155H27.3816L27.374 16.1026Z" fill="#F00000"/>
</svg>
