<svg width="16" height="16" viewBox="0 0 16 16" fill="none" xmlns="http://www.w3.org/2000/svg">
<circle cx="8" cy="8" r="8" fill="#D74025"/>
<path fill-rule="evenodd" clip-rule="evenodd" d="M13 3.99991L11.1818 3.99991L11.1818 9.45446L13 9.45446L13 3.99991ZM3 8.99991C3 9.49991 3.40909 9.909 3.90909 9.909L6.77273 9.909L6.31818 11.9999L6.31818 12.1363C6.31818 12.3181 6.40909 12.4999 6.5 12.6363L7 13.0908L10 10.0908C10.1818 9.95446 10.2727 9.72718 10.2727 9.45446L10.2727 4.909C10.2727 4.409 9.86364 3.99991 9.36364 3.99991L5.27273 3.99991C4.90909 3.99991 4.59091 4.22718 4.45455 4.54537L3.09091 7.77264C3.04546 7.86355 3.04545 7.99991 3.04545 8.09082L3.04545 8.99991L3 8.99991C3 8.95446 3 8.99991 3 8.99991Z" fill="white"/>
</svg>
