<svg width="16" height="16" viewBox="0 0 16 16" fill="none" xmlns="http://www.w3.org/2000/svg">
<circle cx="8" cy="8" r="8" transform="rotate(-180 8 8)" fill="#3BB012"/>
<path fill-rule="evenodd" clip-rule="evenodd" d="M3 12.0909H4.81818V6.63636H3V12.0909ZM13 7.09091C13 6.59091 12.5909 6.18182 12.0909 6.18182H9.22727L9.68182 4.09091V3.95455C9.68182 3.77273 9.59091 3.59091 9.5 3.45455L9 3L6 6C5.81818 6.13636 5.72727 6.36364 5.72727 6.63636V11.1818C5.72727 11.6818 6.13636 12.0909 6.63636 12.0909H10.7273C11.0909 12.0909 11.4091 11.8636 11.5455 11.5455L12.9091 8.31818C12.9545 8.22727 12.9545 8.09091 12.9545 8V7.09091H13C13 7.13636 13 7.09091 13 7.09091Z" fill="white"/>
</svg>
