<svg width="212" height="211" viewBox="0 0 212 211" fill="none" xmlns="http://www.w3.org/2000/svg">
<path d="M33.3333 5H90V108.889H5V33.3333L33.3333 5Z" stroke="#E7D048" stroke-width="10" stroke-linecap="round" stroke-linejoin="round"/>
<path d="M33.3333 5V33.3333H5" stroke="#E7D048" stroke-width="10" stroke-linecap="round" stroke-linejoin="round"/>
<path d="M23.8867 61.6675H71.1089" stroke="#E7D048" stroke-width="10" stroke-linecap="round" stroke-linejoin="round"/>
<path d="M23.8867 80.5567H71.1089" stroke="#E7D048" stroke-width="10" stroke-linecap="round" stroke-linejoin="round"/>
<path fill-rule="evenodd" clip-rule="evenodd" d="M146.335 45.9083C145.947 46.2124 144.151 49.1669 142.343 52.4743C140.536 55.7813 138.896 58.5488 138.698 58.6242C138.501 58.6996 135.514 57.9363 132.061 56.9281C128.608 55.9199 125.263 55.0951 124.628 55.0951C123.071 55.0951 121.841 56.2602 121.841 57.7337C121.841 58.29 123.119 63.0561 124.68 68.3248L127.519 77.904L129.495 76.8265C130.995 76.0089 131.6 75.496 132.005 74.6998L132.537 73.651L130.96 68.2198C130.093 65.2328 129.438 62.7344 129.505 62.6676C129.572 62.6011 131.827 63.1866 134.517 63.9691C140.023 65.5706 141.375 65.7089 142.302 64.7653C142.641 64.4211 144.048 62.0437 145.43 59.4824C146.812 56.9214 148.005 54.8271 148.082 54.8285C148.159 54.8299 149.408 57.0294 150.859 59.7165C152.309 62.4035 153.751 64.7798 154.061 64.9968C155.018 65.6647 156.607 65.4473 161.656 63.9583C164.329 63.1702 166.574 62.583 166.645 62.654C166.716 62.7247 166.069 65.2167 165.208 68.1917C163.124 75.3878 162.832 74.7065 169.584 78.4062C174.408 81.0499 174.639 81.2138 174.01 81.5477C169.471 83.9571 165.128 86.4279 164.637 86.8801C163.504 87.9237 163.566 88.6951 165.245 94.3625C166.111 97.2866 166.777 99.7205 166.727 99.7711C166.676 99.8215 164.263 99.1714 161.365 98.3266C155.702 96.6755 154.788 96.606 153.742 97.7455C153.428 98.0875 152.06 100.403 150.701 102.89C149.342 105.377 148.155 107.412 148.063 107.412C147.971 107.412 146.745 105.303 145.34 102.727C143.934 100.15 142.547 97.8279 142.257 97.5666C141.21 96.6221 140.082 96.7373 134.692 98.3388C131.856 99.1812 129.495 99.829 129.444 99.7784C129.393 99.7277 130.052 97.2736 130.909 94.3249C132.258 89.6785 132.426 88.8439 132.168 88.0642C132.004 87.5694 131.654 86.9761 131.391 86.7457C130.842 86.264 113.991 77.0121 113.89 77.1362C113.852 77.1813 113.187 78.374 112.411 79.7862L111 82.3542L115.653 84.901C118.212 86.3019 121.523 88.1232 123.01 88.9483L125.715 90.4491L125.329 91.7645C125.116 92.4883 124.244 95.4456 123.391 98.3363C122.539 101.227 121.841 103.957 121.841 104.403C121.841 106.071 123.111 107.412 124.69 107.412C125.015 107.412 128.296 106.531 131.982 105.454C135.667 104.377 138.772 103.595 138.881 103.715C138.99 103.835 140.55 106.625 142.347 109.916C144.144 113.207 145.87 116.118 146.181 116.386C146.948 117.045 149.217 117.045 149.981 116.386C150.292 116.118 152.012 113.207 153.805 109.916C155.597 106.625 157.155 103.837 157.267 103.72C157.379 103.603 160.477 104.385 164.152 105.458C167.827 106.532 171.11 107.41 171.448 107.411C173.044 107.413 174.323 106.083 174.323 104.423C174.323 103.988 173.45 100.695 172.382 97.1041C170.627 91.1982 170.485 90.5428 170.895 90.2317C171.144 90.0425 174.041 88.4296 177.331 86.6475C182.713 83.7331 183.356 83.3081 183.727 82.4243C184.238 81.2041 184.018 79.8625 183.182 79.1131C182.839 78.8053 179.857 77.0836 176.556 75.287C173.255 73.4904 170.529 71.9958 170.498 71.9658C170.466 71.9354 171.314 68.9389 172.382 65.3068C173.449 61.6744 174.323 58.2569 174.323 57.7123C174.323 56.2346 173.083 55.0937 171.483 55.099C170.819 55.1012 167.513 55.9152 164.138 56.9078C160.762 57.9004 157.81 58.7097 157.578 58.7058C157.316 58.7013 155.892 56.3654 153.846 52.5814C152.026 49.217 150.219 46.2149 149.831 45.9099C148.907 45.1859 147.258 45.1853 146.335 45.9083Z" fill="#E7D048"/>
<ellipse cx="141.667" cy="77.7475" rx="3.07076" ry="3.06107" fill="#E7D048"/>
<ellipse cx="152.695" cy="88.7505" rx="3.07076" ry="3.06107" fill="#E7D048"/>
<rect width="27.1129" height="4.2979" transform="matrix(0.771989 -0.635636 0.638024 0.770016 135.826 90.1058)" fill="#E7D048"/>
<path fill-rule="evenodd" clip-rule="evenodd" d="M37.602 130.581C32.1887 132.223 27.7718 136.808 26.1834 142.433C25.8327 143.675 25.7388 145.323 25.65 151.793L25.5425 159.645H28.2614H30.9805L30.9863 152.547C30.9898 148.643 31.1041 144.952 31.2407 144.346C32.2389 139.91 36.1181 136.248 40.6652 135.45C45.8402 134.542 51.1861 137.905 53.1218 143.286C53.5824 144.567 53.6425 145.46 53.7823 153.112C53.9285 161.103 53.9646 161.6 54.4941 162.912C54.8009 163.672 55.1546 164.401 55.28 164.532C56.1252 165.418 55.9984 165.424 36.2538 165.424H17V168.059V170.694L25.1553 170.761L33.3105 170.827L33.4599 174.721C33.5421 176.863 33.7383 179.032 33.8957 179.54C34.3488 181.001 36.0009 183.335 37.2152 184.228C39.3471 185.797 40.4153 186.144 43.1265 186.149C45.4002 186.154 45.7036 186.094 47.1735 185.352C49.895 183.978 51.6965 181.758 52.4289 178.877C53.0713 176.351 53.1951 176.48 50.1388 176.48H47.4683L47.3062 177.365C47.123 178.365 45.9643 179.843 44.9366 180.388C43.1437 181.338 40.4943 180.478 39.4183 178.597C38.874 177.645 38.8291 177.305 38.8291 174.134V170.701H52.8989H66.9683L67.609 170.045C68.451 169.182 68.6654 167.975 68.1557 166.965C67.6301 165.924 66.9291 165.513 65.38 165.34C62.7948 165.052 60.6305 163.496 59.5864 161.175C59.1023 160.099 59.0581 159.468 58.9244 151.73C58.7692 142.743 58.7096 142.307 57.2235 139.291C55.0715 134.923 50.8528 131.456 46.3722 130.373C44.0031 129.801 39.8475 129.899 37.602 130.581Z" fill="#E7D048"/>
<path fill-rule="evenodd" clip-rule="evenodd" d="M141.99 138.043C129.198 138.906 116.287 144.18 106.046 152.727C95.1325 161.835 87.3632 174.375 83.9133 188.451C82.5747 193.912 82.0231 198.227 82.0032 203.391C81.9899 206.813 82.0032 206.979 82.3504 207.779C82.7424 208.682 83.3239 209.291 84.4436 209.974C85.9246 210.878 85.7494 210.868 101.319 210.936L115.635 210.999V205.298V199.596H104.243H92.8503V199.237C92.8503 199.039 93.0224 197.856 93.2327 196.608C94.4409 189.439 96.847 182.7 100.406 176.515C101.468 174.67 104.652 169.875 104.815 169.875C104.855 169.875 107.549 172.592 110.802 175.911L116.717 181.948L120.581 177.928L124.446 173.908L118.566 167.788C115.332 164.421 112.734 161.617 112.792 161.557C113.053 161.285 117.069 158.42 118.406 157.551C124.283 153.734 131.718 150.833 138.672 149.645C139.745 149.461 140.811 149.273 141.04 149.226L141.458 149.14V157.69V166.239H147.002H152.547V157.706V149.173L152.964 149.245C159.362 150.344 162.368 151.204 168.535 153.703L171.839 155.043L172.56 154.407C172.956 154.057 174.769 152.217 176.587 150.318L179.894 146.865L176.587 145.22C172.174 143.024 170.256 142.184 167.357 141.178C163.297 139.77 158.89 138.782 154.293 138.248C152.794 138.074 143.759 137.923 141.99 138.043ZM187.679 154.987C185.003 157.495 173.687 169.063 158.124 185.201L142.201 201.713L146.072 205.742L149.944 209.771L164.726 194.459C182.891 175.642 187.303 171.237 188.781 170.438C189.201 170.211 189.243 170.221 189.661 170.63C190.227 171.186 192.913 175.417 194.249 177.859C196.741 182.415 198.437 186.863 199.789 192.387C200.285 194.415 201.154 198.926 201.154 199.474C201.154 199.541 196.233 199.596 190.218 199.596H179.281V205.298V211L193.142 210.933C202.74 210.887 207.23 210.811 207.743 210.687C208.825 210.424 209.76 209.895 210.675 209.026C211.848 207.914 212.02 207.232 211.998 203.786C211.889 186.27 204.81 169.521 192.018 156.509C190.902 155.374 189.77 154.287 189.502 154.092L189.014 153.737L187.679 154.987Z" fill="#E7D048"/>
</svg>
