<svg width="16" height="16" viewBox="0 0 16 16" fill="none" xmlns="http://www.w3.org/2000/svg">
<circle cx="8" cy="8" r="8" fill="#DDDDDD"/>
<path d="M8.99 10.3653C8.99 8.3773 11.188 7.6493 11.188 5.8853C11.188 3.9393 9.732 2.9593 8.052 3.00129C6.386 3.0433 5 3.9813 5 5.9693H6.722C6.792 5.2413 7.422 4.8773 8.038 4.8773C9.088 4.8773 9.368 5.8013 9.032 6.5433C8.472 7.7893 7.142 8.1673 7.142 10.3653H8.99ZM8.094 13.1793C8.752 13.1793 9.228 12.7453 9.228 12.1153C9.228 11.4573 8.752 11.0373 8.094 11.0373C7.436 11.0373 6.932 11.4573 6.932 12.1153C6.932 12.7453 7.436 13.1793 8.094 13.1793Z" fill="#707070"/>
</svg>
