<svg width="21" height="20" viewBox="0 0 21 20" fill="none" xmlns="http://www.w3.org/2000/svg">
<path d="M8.69294 1.01444C9.48964 -0.338147 11.5104 -0.338147 12.3071 1.01444L20.7256 17.0047C21.5129 18.3412 20.5121 20 18.9186 20H2.08144C0.487869 20 -0.512865 18.3412 0.274374 17.0047L8.69294 1.01444Z" fill="#D74025"/>
<path d="M10.4908 15C10.0813 15 9.73134 15.1495 9.43832 15.4461C9.14611 15.7435 9 16.0977 9 16.5104C9 16.9223 9.14932 17.274 9.44795 17.5647C9.74659 17.8555 10.1006 18 10.5092 18C10.9187 18 11.2695 17.8513 11.5617 17.5547C11.8531 17.2573 12 16.9023 12 16.4904C12 16.0785 11.8499 15.7268 11.5512 15.4353C11.2542 15.1445 10.9002 15 10.4908 15Z" fill="white"/>
<path d="M9 5L12 5L12 13L9 13L9 5Z" fill="white"/>
</svg>
