<svg width="18" height="18" viewBox="0 0 18 18" fill="none" xmlns="http://www.w3.org/2000/svg">
<path d="M0.0164624 4.97666C0.0164624 4.0204 0.0164624 3.0625 0.0164624 2.10625C0.0108409 1.83318 0.0605647 1.56179 0.16264 1.30842C0.264716 1.05506 0.417032 0.824962 0.610419 0.631982C0.803806 0.439002 1.03426 0.28713 1.28792 0.18551C1.54158 0.0838907 1.81318 0.0346246 2.08639 0.040678C3.87143 0.0258651 5.65648 0.0818249 7.44152 0.00446877C7.83615 -0.0184877 8.23091 0.0472117 8.5968 0.19674C8.96269 0.346269 9.29042 0.575828 9.55591 0.868553C12.1215 3.47068 14.7233 6.04812 17.312 8.63543C18.0167 9.33987 18.1847 10.2599 17.7944 11.0845C17.6644 11.3577 17.582 11.4005 17.3449 11.1619C14.3907 8.19928 11.4167 5.24658 8.47072 2.27413C8.31719 2.10145 8.12677 1.96549 7.91356 1.87632C7.70034 1.78715 7.46979 1.74704 7.23897 1.75897C5.59225 1.79353 3.92907 1.78695 2.27411 1.77708C1.90031 1.77708 1.75869 1.91204 1.75869 2.284C1.76528 4.05387 1.76144 5.82373 1.74716 7.5936C1.74069 7.7039 1.75825 7.8143 1.79862 7.91716C1.83899 8.02003 1.90122 8.11291 1.981 8.1894C4.59489 10.7899 7.20549 13.3937 9.81279 16.0007C10.1323 16.32 10.2327 16.3151 10.5555 16.0007C12.0062 14.5556 13.4586 13.1139 14.8962 11.6573C15.1152 11.4351 15.2387 11.4268 15.4396 11.6573C15.6841 11.9315 15.9436 12.1919 16.2169 12.4374C16.3569 12.5691 16.3816 12.6547 16.2334 12.8094C14.6772 14.3516 13.1408 15.9135 11.5715 17.4442C10.7827 18.2144 9.54603 18.1733 8.72596 17.3882C8.13808 16.827 7.57326 16.2361 6.99526 15.6666C4.92698 13.5961 2.86364 11.5256 0.782187 9.46496C0.51648 9.22134 0.308748 8.92133 0.174246 8.58696C0.0397452 8.25258 -0.0181082 7.89235 0.00493532 7.5327C0.0461033 6.68343 0.0164624 5.82922 0.0164624 4.97666Z" fill="#2C2C2C"/>
<path d="M4.35993 5.23343C3.4707 5.23343 3.4707 5.23343 3.4707 4.33643C3.4707 3.4707 3.4707 3.4707 4.35334 3.4707C5.23599 3.4707 5.21787 3.4707 5.21787 4.3496V4.38746C5.21787 5.23343 5.21787 5.23343 4.35993 5.23343Z" fill="#2C2C2C"/>
</svg>
