<svg width="24" height="20" viewBox="0 0 24 20" fill="none" xmlns="http://www.w3.org/2000/svg">
<circle cx="8.5" cy="8.5" r="8.5" fill="#FCD800"/>
<path fill-rule="evenodd" clip-rule="evenodd" d="M20.0869 6.25188C20.0869 5.75107 19.5847 5.3909 19.0835 5.53221L12.9996 7.24737H20.0869V6.25188ZM18.6418 4.09288C20.1456 3.66895 21.6521 4.74946 21.6521 6.25188V8.74766H7.56517L7.34434 7.27785L18.6418 4.09288Z" fill="#00A6CA"/>
<path fill-rule="evenodd" clip-rule="evenodd" d="M22.4348 8.74777L7.56517 8.74766L7.56522 18.4997H22.4348V8.74777ZM7.56522 7.24747C6.70077 7.24747 6 7.91918 6 8.74777V18.4997C6 19.3283 6.70077 20 7.56522 20H22.4348C23.2992 20 24 19.3283 24 18.4997V8.74777C24 7.91918 23.2992 7.24747 22.4348 7.24747H7.56522Z" fill="#00A6CA"/>
<path d="M21.6522 13.6237C21.6522 14.2452 21.1266 14.749 20.4783 14.749C19.8299 14.749 19.3043 14.2452 19.3043 13.6237C19.3043 13.0023 19.8299 12.4985 20.4783 12.4985C21.1266 12.4985 21.6522 13.0023 21.6522 13.6237Z" fill="#00A6CA"/>
</svg>
