<svg width="35" height="33" viewBox="0 0 35 33" fill="none" xmlns="http://www.w3.org/2000/svg">
<circle cx="14" cy="14" r="14" fill="#FCD800"/>
<path fill-rule="evenodd" clip-rule="evenodd" d="M25.0274 26.1166L27.3696 29.8557L29.7117 26.1166H32.6522C32.6934 26.1166 32.7217 26.1027 32.7424 26.0825C32.7531 26.0721 32.7588 26.0625 32.7616 26.0562C32.7636 26.0514 32.7655 26.0454 32.7655 26.034V12.2906C32.7655 12.2792 32.7636 12.2733 32.7616 12.2685C32.7588 12.2621 32.7531 12.2525 32.7424 12.2421C32.7217 12.2219 32.6934 12.208 32.6522 12.208H10.3478C10.3066 12.208 10.2783 12.2219 10.2576 12.2421C10.2469 12.2525 10.2412 12.2621 10.2384 12.2685C10.2364 12.2733 10.2345 12.2792 10.2345 12.2906V26.034C10.2345 26.0454 10.2364 26.0514 10.2384 26.0562C10.2412 26.0625 10.2469 26.0721 10.2576 26.0825C10.2783 26.1027 10.3066 26.1166 10.3478 26.1166H25.0274ZM8 12.2906C8 11.0255 9.05116 10 10.3478 10H32.6522C33.9488 10 35 11.0255 35 12.2906V26.034C35 27.2991 33.9488 28.3246 32.6522 28.3246H30.9565L28.3712 32.4519C27.9135 33.1827 26.8256 33.1827 26.3679 32.4519L23.7826 28.3246H10.3478C9.05116 28.3246 8 27.2991 8 26.034V12.2906Z" fill="#00A6CA"/>
<path d="M12.6552 15.52H29.4138V18.28H12.6552V15.52Z" fill="#00A6CA"/>
<path d="M12.6552 20.12H21.9655V22.88H12.6552V20.12Z" fill="#00A6CA"/>
</svg>
